M48
; DRILL file {KiCad (5.1.5-0-10_14)} date 2020 August 15, Saturday 14:14:27
; FORMAT={-:-/ absolute / metric / decimal}
; #@! TF.CreationDate,2020-08-15T14:14:27-04:00
; #@! TF.GenerationSoftware,Kicad,Pcbnew,(5.1.5-0-10_14)
; #@! TF.FileFunction,Plated,1,2,PTH
FMAT,2
METRIC
T1C0.300
T2C0.500
T3C1.000
T4C1.020
T5C1.300
%
G90
G05
T1
X9.705Y33.31
X11.964Y36.484
X12.88Y31.151
X13.272Y36.351
X16.08Y30.567
X16.756Y14.791
X17.188Y11.811
X18.432Y16.206
X19.56Y16.16
X20.576Y42.225
X20.586Y37.227
X20.932Y16.236
X21.033Y21.169
X22.232Y16.272
X24.538Y24.979
X24.64Y22.439
X24.742Y30.516
X24.742Y27.824
X28.729Y39.558
X28.95Y40.763
X30.177Y30.059
X30.177Y28.789
X33.771Y43.999
X34.19Y22.388
X34.26Y21.17
X36.255Y42.512
X36.255Y41.75
X36.255Y40.988
X36.255Y40.226
X36.255Y39.464
X36.255Y38.575
X36.255Y37.813
X36.255Y37.051
X36.255Y36.289
X36.255Y35.527
X36.255Y34.13
X36.255Y33.368
X36.255Y32.606
X36.255Y31.717
X36.331Y31.031
X41.56Y35.02
X41.56Y33.77
X41.61Y40.27
X41.61Y39.17
X42.46Y34.42
X42.61Y39.72
X43.46Y35.02
X43.51Y40.27
X43.51Y39.17
X43.51Y33.82
X44.488Y29.363
X46.36Y24.42
X48.46Y13.02
X49.122Y22.907
X49.56Y29.42
X49.601Y44.369
X49.601Y40.153
X49.601Y39.053
X49.601Y34.91
X49.601Y33.879
X54.569Y10.265
X55.742Y11.39
T2
X11.843Y29.068
X13.743Y29.068
T3
X4.88Y50.27
X4.88Y47.73
X7.42Y50.27
X7.42Y47.73
X9.96Y50.27
X9.96Y47.73
X12.5Y50.27
X12.5Y47.73
X15.04Y50.27
X15.04Y47.73
X17.58Y50.27
X17.58Y47.73
X20.12Y50.27
X20.12Y47.73
X22.66Y50.27
X22.66Y47.73
X25.2Y50.27
X25.2Y47.73
X27.74Y50.27
X27.74Y47.73
X30.28Y50.27
X30.28Y47.73
X32.82Y50.27
X32.82Y47.73
X35.36Y50.27
X35.36Y47.73
X37.9Y50.27
X37.9Y47.73
X40.44Y50.27
X40.44Y47.73
X42.98Y50.27
X42.98Y47.73
X45.52Y50.27
X45.52Y47.73
X48.06Y50.27
X48.06Y47.73
X50.6Y50.27
X50.6Y47.73
X53.14Y50.27
X53.14Y47.73
X16.36Y42.302
X16.36Y39.762
T4
X58.059Y22.975
X58.059Y20.435
X58.059Y17.895
X58.059Y15.355
T5
X57.492Y40.376
X57.492Y35.296
X13.21Y0.29
X18.29Y0.29
X23.37Y0.29
X28.45Y0.29
X38.61Y0.29
X43.69Y0.29
X0.866Y23.709
X0.866Y18.629
X0.866Y13.549
X0.866Y8.469
T0
M30
