G04 #@! TF.GenerationSoftware,KiCad,Pcbnew,(5.1.5-0-10_14)*
G04 #@! TF.CreationDate,2020-08-15T14:14:15-04:00*
G04 #@! TF.ProjectId,Mimosa-Power-Hat,4d696d6f-7361-42d5-906f-7765722d4861,rev?*
G04 #@! TF.SameCoordinates,PX4e3d4c0PY6c12040*
G04 #@! TF.FileFunction,Other,Fab,Top*
%FSLAX46Y46*%
G04 Gerber Fmt 4.6, Leading zero omitted, Abs format (unit mm)*
G04 Created by KiCad (PCBNEW (5.1.5-0-10_14)) date 2020-08-15 14:14:15*
%MOMM*%
%LPD*%
G04 APERTURE LIST*
%ADD10C,0.150000*%
%ADD11C,0.100000*%
%ADD12C,0.080000*%
%ADD13C,0.110000*%
%ADD14C,0.075000*%
G04 APERTURE END LIST*
D10*
X1666666Y0D02*
G75*
G03X1666666Y0I-1666666J0D01*
G01*
X-2500000Y0D02*
X2500000Y0D01*
X0Y2500000D02*
X0Y-2500000D01*
D11*
X-3493644Y49502389D02*
X-3493644Y-497611D01*
X-3493644Y49502389D02*
G75*
G02X-493644Y52502389I3000000J0D01*
G01*
X58506356Y52502389D02*
X-493644Y52502389D01*
X58506356Y52502389D02*
G75*
G02X61506356Y49502389I0J-3000000D01*
G01*
X61506351Y-502847D02*
X61506356Y49502389D01*
X-493644Y-3497611D02*
G75*
G02X-3493644Y-497611I0J3000000D01*
G01*
X-493644Y-3497611D02*
X58506356Y-3497611D01*
X61506351Y-502847D02*
G75*
G02X58506356Y-3497611I-2999995J5236D01*
G01*
X43060000Y22728325D02*
X42060000Y22728325D01*
X42560000Y23228325D02*
X42560000Y22228325D01*
X36610000Y23920000D02*
X35610000Y22920000D01*
X45110000Y23920000D02*
X46110000Y22920000D01*
X45110000Y23920000D02*
X36610000Y23920000D01*
X35610000Y22920000D02*
X35610000Y13420000D01*
X46110000Y22920000D02*
X46110000Y13420000D01*
X46110000Y13420000D02*
X35610000Y13420000D01*
X45860000Y18670000D02*
G75*
G03X45860000Y18670000I-5000000J0D01*
G01*
X31035000Y37296000D02*
X30060000Y36321000D01*
X31035000Y41221000D02*
X31035000Y37296000D01*
X27135000Y41221000D02*
X31035000Y41221000D01*
X27135000Y36321000D02*
X27135000Y41221000D01*
X30060000Y36321000D02*
X27135000Y36321000D01*
X2382600Y7195800D02*
X-407400Y9984800D01*
X2138600Y6951800D02*
X-651400Y9740800D01*
X2382600Y12275800D02*
X-407400Y15064800D01*
X2138600Y12031800D02*
X-651400Y14820800D01*
X2382600Y17355800D02*
X-407400Y20144800D01*
X2138600Y17111800D02*
X-651400Y19900800D01*
X2382600Y22435800D02*
X-407400Y25225800D01*
X2138600Y22191800D02*
X-651400Y24981800D01*
X4765600Y26248800D02*
X4765600Y5928800D01*
X-1434400Y26248800D02*
X-1434400Y5928800D01*
X-3934400Y26248800D02*
X-3934400Y5928800D01*
X-3934400Y26248800D02*
X6765600Y26248800D01*
X-4434400Y25748800D02*
X-3934400Y26248800D01*
X-4434400Y5928800D02*
X-4434400Y25748800D01*
X6765600Y5928800D02*
X-4434400Y5928800D01*
X6765600Y26248800D02*
X6765600Y5928800D01*
X2865600Y8468800D02*
G75*
G03X2865600Y8468800I-2000000J0D01*
G01*
X2865600Y13548800D02*
G75*
G03X2865600Y13548800I-2000000J0D01*
G01*
X2865600Y18628800D02*
G75*
G03X2865600Y18628800I-2000000J0D01*
G01*
X2865600Y23708800D02*
G75*
G03X2865600Y23708800I-2000000J0D01*
G01*
X55975360Y41649280D02*
X58765360Y38860280D01*
X56219360Y41893280D02*
X59009360Y39104280D01*
X55975360Y36569280D02*
X58765360Y33779280D01*
X56219360Y36813280D02*
X59009360Y34023280D01*
X53592360Y32756280D02*
X53592360Y42916280D01*
X59792360Y32756280D02*
X59792360Y42916280D01*
X62292360Y32756280D02*
X62292360Y42916280D01*
X62292360Y32756280D02*
X51592360Y32756280D01*
X62792360Y33256280D02*
X62292360Y32756280D01*
X62792360Y42916280D02*
X62792360Y33256280D01*
X51592360Y42916280D02*
X62792360Y42916280D01*
X51592360Y32756280D02*
X51592360Y42916280D01*
X59492360Y40376280D02*
G75*
G03X59492360Y40376280I-2000000J0D01*
G01*
X59492360Y35296280D02*
G75*
G03X59492360Y35296280I-2000000J0D01*
G01*
X44963000Y1807000D02*
X42174000Y-983000D01*
X45207000Y1563000D02*
X42418000Y-1227000D01*
X39883000Y1807000D02*
X37093000Y-983000D01*
X40127000Y1563000D02*
X37337000Y-1227000D01*
X36070000Y4190000D02*
X46230000Y4190000D01*
X36070000Y-2010000D02*
X46230000Y-2010000D01*
X36070000Y-4510000D02*
X46230000Y-4510000D01*
X36070000Y-4510000D02*
X36070000Y6190000D01*
X36570000Y-5010000D02*
X36070000Y-4510000D01*
X46230000Y-5010000D02*
X36570000Y-5010000D01*
X46230000Y6190000D02*
X46230000Y-5010000D01*
X36070000Y6190000D02*
X46230000Y6190000D01*
X45690000Y290000D02*
G75*
G03X45690000Y290000I-2000000J0D01*
G01*
X40610000Y290000D02*
G75*
G03X40610000Y290000I-2000000J0D01*
G01*
X29723000Y1807000D02*
X26934000Y-983000D01*
X29967000Y1563000D02*
X27178000Y-1227000D01*
X24643000Y1807000D02*
X21854000Y-983000D01*
X24887000Y1563000D02*
X22098000Y-1227000D01*
X19563000Y1807000D02*
X16774000Y-983000D01*
X19807000Y1563000D02*
X17018000Y-1227000D01*
X14483000Y1807000D02*
X11693000Y-983000D01*
X14727000Y1563000D02*
X11937000Y-1227000D01*
X10670000Y4190000D02*
X30990000Y4190000D01*
X10670000Y-2010000D02*
X30990000Y-2010000D01*
X10670000Y-4510000D02*
X30990000Y-4510000D01*
X10670000Y-4510000D02*
X10670000Y6190000D01*
X11170000Y-5010000D02*
X10670000Y-4510000D01*
X30990000Y-5010000D02*
X11170000Y-5010000D01*
X30990000Y6190000D02*
X30990000Y-5010000D01*
X10670000Y6190000D02*
X30990000Y6190000D01*
X30450000Y290000D02*
G75*
G03X30450000Y290000I-2000000J0D01*
G01*
X25370000Y290000D02*
G75*
G03X25370000Y290000I-2000000J0D01*
G01*
X20290000Y290000D02*
G75*
G03X20290000Y290000I-2000000J0D01*
G01*
X15210000Y290000D02*
G75*
G03X15210000Y290000I-2000000J0D01*
G01*
X53409020Y6229940D02*
X53409020Y8629940D01*
X53409020Y8629940D02*
X51309020Y8629940D01*
X51309020Y8629940D02*
X51309020Y6529940D01*
X51309020Y6529940D02*
X51659020Y6229940D01*
X51659020Y6229940D02*
X53409020Y6229940D01*
X55478900Y9259300D02*
X57478900Y9259300D01*
X55478900Y8059300D02*
X55478900Y9259300D01*
X57478900Y8059300D02*
X55478900Y8059300D01*
X57478900Y9259300D02*
X57478900Y8059300D01*
X51315840Y12093940D02*
X53315840Y12093940D01*
X51315840Y10893940D02*
X51315840Y12093940D01*
X53315840Y10893940D02*
X51315840Y10893940D01*
X53315840Y12093940D02*
X53315840Y10893940D01*
X55372220Y6239240D02*
X57372220Y6239240D01*
X55372220Y5039240D02*
X55372220Y6239240D01*
X57372220Y5039240D02*
X55372220Y5039240D01*
X57372220Y6239240D02*
X57372220Y5039240D01*
X20528500Y36577000D02*
X22528500Y36577000D01*
X20528500Y35377000D02*
X20528500Y36577000D01*
X22528500Y35377000D02*
X20528500Y35377000D01*
X22528500Y36577000D02*
X22528500Y35377000D01*
X18798740Y13559680D02*
X17823740Y14534680D01*
X22723740Y13559680D02*
X18798740Y13559680D01*
X22723740Y17459680D02*
X22723740Y13559680D01*
X17823740Y17459680D02*
X22723740Y17459680D01*
X17823740Y14534680D02*
X17823740Y17459680D01*
X22528500Y37917000D02*
X20528500Y37917000D01*
X22528500Y39117000D02*
X22528500Y37917000D01*
X20528500Y39117000D02*
X22528500Y39117000D01*
X20528500Y37917000D02*
X20528500Y39117000D01*
X907000Y38990000D02*
X2907000Y38990000D01*
X907000Y37790000D02*
X907000Y38990000D01*
X2907000Y37790000D02*
X907000Y37790000D01*
X2907000Y38990000D02*
X2907000Y37790000D01*
X907000Y41784000D02*
X2907000Y41784000D01*
X907000Y40584000D02*
X907000Y41784000D01*
X2907000Y40584000D02*
X907000Y40584000D01*
X2907000Y41784000D02*
X2907000Y40584000D01*
X18769500Y20626000D02*
X18769500Y22626000D01*
X19969500Y20626000D02*
X18769500Y20626000D01*
X19969500Y22626000D02*
X19969500Y20626000D01*
X18769500Y22626000D02*
X19969500Y22626000D01*
X47910000Y25020000D02*
X49910000Y25020000D01*
X47910000Y23820000D02*
X47910000Y25020000D01*
X49910000Y23820000D02*
X47910000Y23820000D01*
X49910000Y25020000D02*
X49910000Y23820000D01*
X22528500Y40457000D02*
X20528500Y40457000D01*
X22528500Y41657000D02*
X22528500Y40457000D01*
X20528500Y41657000D02*
X22528500Y41657000D01*
X20528500Y40457000D02*
X20528500Y41657000D01*
X18280400Y35173600D02*
X18280400Y33173600D01*
X17080400Y35173600D02*
X18280400Y35173600D01*
X17080400Y33173600D02*
X17080400Y35173600D01*
X18280400Y33173600D02*
X17080400Y33173600D01*
X22528500Y42997000D02*
X20528500Y42997000D01*
X22528500Y44197000D02*
X22528500Y42997000D01*
X20528500Y44197000D02*
X22528500Y44197000D01*
X20528500Y42997000D02*
X20528500Y44197000D01*
X23726220Y9443600D02*
X21726220Y9443600D01*
X23726220Y10643600D02*
X23726220Y9443600D01*
X21726220Y10643600D02*
X23726220Y10643600D01*
X21726220Y9443600D02*
X21726220Y10643600D01*
X17432240Y10643600D02*
X19432240Y10643600D01*
X17432240Y9443600D02*
X17432240Y10643600D01*
X19432240Y9443600D02*
X17432240Y9443600D01*
X19432240Y10643600D02*
X19432240Y9443600D01*
X15594500Y20626000D02*
X15594500Y22626000D01*
X16794500Y20626000D02*
X15594500Y20626000D01*
X16794500Y22626000D02*
X16794500Y20626000D01*
X15594500Y22626000D02*
X16794500Y22626000D01*
X15636260Y16075340D02*
X15636260Y14075340D01*
X14436260Y16075340D02*
X15636260Y16075340D01*
X14436260Y14075340D02*
X14436260Y16075340D01*
X15636260Y14075340D02*
X14436260Y14075340D01*
X31311000Y21486500D02*
X30311000Y20486500D01*
X31311000Y32036500D02*
X31311000Y21486500D01*
X23811000Y32036500D02*
X31311000Y32036500D01*
X23811000Y20486500D02*
X23811000Y32036500D01*
X30311000Y20486500D02*
X23811000Y20486500D01*
X15091000Y33131500D02*
X14341000Y32381500D01*
X15091000Y35381500D02*
X15091000Y33131500D01*
X12091000Y35381500D02*
X15091000Y35381500D01*
X12091000Y32381500D02*
X12091000Y35381500D01*
X14341000Y32381500D02*
X12091000Y32381500D01*
X60558780Y24224740D02*
X60558780Y18574740D01*
X54758780Y24224740D02*
X60558780Y24224740D01*
X54758780Y24174740D02*
X54758780Y24224740D01*
X54758780Y14124740D02*
X54758780Y24174740D01*
X60558780Y14124740D02*
X54758780Y14124740D01*
X60558780Y17224740D02*
X60558780Y14124740D01*
X55758780Y22974740D02*
X54758780Y22974740D01*
X55758780Y17874740D02*
X55758780Y22974740D01*
X54758780Y17874740D02*
X55758780Y17874740D01*
X35069860Y44666580D02*
X50069860Y44666580D01*
X50069860Y44666580D02*
X50069860Y29666580D01*
X50069860Y29666580D02*
X35069860Y29666580D01*
X35069860Y29666580D02*
X35069860Y44666580D01*
X35719860Y29666580D02*
X36219860Y29166580D01*
X36219860Y29166580D02*
X36719860Y29666580D01*
X17629600Y39126600D02*
X16994600Y38491600D01*
X17629600Y43571600D02*
X17629600Y39126600D01*
X15089600Y43571600D02*
X17629600Y43571600D01*
X15089600Y38491600D02*
X15089600Y43571600D01*
X16994600Y38491600D02*
X15089600Y38491600D01*
X6260000Y45240000D02*
X4860000Y45240000D01*
X4860000Y42200000D02*
X4860000Y45240000D01*
X6260000Y42770000D02*
X5710000Y42200000D01*
X5710000Y42200000D02*
X4860000Y42200000D01*
X6260000Y42770000D02*
X6260000Y45220000D01*
X6934500Y41451300D02*
X6934500Y38351300D01*
X6934500Y38351300D02*
X5134500Y38351300D01*
X5134500Y40801300D02*
X5134500Y38351300D01*
X6934500Y41451300D02*
X5784500Y41451300D01*
X5134500Y40801300D02*
X5784500Y41451300D01*
D10*
X41217142Y18503334D02*
X41264761Y18455715D01*
X41312380Y18312858D01*
X41312380Y18217620D01*
X41264761Y18074762D01*
X41169523Y17979524D01*
X41074285Y17931905D01*
X40883809Y17884286D01*
X40740952Y17884286D01*
X40550476Y17931905D01*
X40455238Y17979524D01*
X40360000Y18074762D01*
X40312380Y18217620D01*
X40312380Y18312858D01*
X40360000Y18455715D01*
X40407619Y18503334D01*
X41312380Y19455715D02*
X41312380Y18884286D01*
X41312380Y19170000D02*
X40312380Y19170000D01*
X40455238Y19074762D01*
X40550476Y18979524D01*
X40598095Y18884286D01*
X28338333Y39307667D02*
X28338333Y38514334D01*
X28385000Y38421000D01*
X28431666Y38374334D01*
X28525000Y38327667D01*
X28711666Y38327667D01*
X28805000Y38374334D01*
X28851666Y38421000D01*
X28898333Y38514334D01*
X28898333Y39307667D01*
X29318333Y39214334D02*
X29365000Y39261000D01*
X29458333Y39307667D01*
X29691666Y39307667D01*
X29785000Y39261000D01*
X29831666Y39214334D01*
X29878333Y39121000D01*
X29878333Y39027667D01*
X29831666Y38887667D01*
X29271666Y38327667D01*
X29878333Y38327667D01*
X-2782020Y15755467D02*
X-2067734Y15755467D01*
X-1924877Y15707848D01*
X-1829639Y15612610D01*
X-1782020Y15469753D01*
X-1782020Y15374515D01*
X-2782020Y16707848D02*
X-2782020Y16231658D01*
X-2305829Y16184039D01*
X-2353448Y16231658D01*
X-2401067Y16326896D01*
X-2401067Y16564991D01*
X-2353448Y16660229D01*
X-2305829Y16707848D01*
X-2210591Y16755467D01*
X-1972496Y16755467D01*
X-1877258Y16707848D01*
X-1829639Y16660229D01*
X-1782020Y16564991D01*
X-1782020Y16326896D01*
X-1829639Y16231658D01*
X-1877258Y16184039D01*
X60044740Y37502947D02*
X60759026Y37502947D01*
X60901883Y37455328D01*
X60997121Y37360090D01*
X61044740Y37217233D01*
X61044740Y37121995D01*
X60378074Y38407709D02*
X61044740Y38407709D01*
X59997121Y38169614D02*
X60711407Y37931519D01*
X60711407Y38550566D01*
X40816666Y-2262380D02*
X40816666Y-2976666D01*
X40769047Y-3119523D01*
X40673809Y-3214761D01*
X40530952Y-3262380D01*
X40435714Y-3262380D01*
X41245238Y-2357619D02*
X41292857Y-2310000D01*
X41388095Y-2262380D01*
X41626190Y-2262380D01*
X41721428Y-2310000D01*
X41769047Y-2357619D01*
X41816666Y-2452857D01*
X41816666Y-2548095D01*
X41769047Y-2690952D01*
X41197619Y-3262380D01*
X41816666Y-3262380D01*
X20496666Y-2262380D02*
X20496666Y-2976666D01*
X20449047Y-3119523D01*
X20353809Y-3214761D01*
X20210952Y-3262380D01*
X20115714Y-3262380D01*
X21496666Y-3262380D02*
X20925238Y-3262380D01*
X21210952Y-3262380D02*
X21210952Y-2262380D01*
X21115714Y-2405238D01*
X21020476Y-2500476D01*
X20925238Y-2548095D01*
D11*
X52085210Y7048988D02*
X52489972Y7048988D01*
X52537591Y7072798D01*
X52561400Y7096607D01*
X52585210Y7144226D01*
X52585210Y7239464D01*
X52561400Y7287083D01*
X52537591Y7310893D01*
X52489972Y7334702D01*
X52085210Y7334702D01*
X52085210Y7525179D02*
X52085210Y7858512D01*
X52585210Y7644226D01*
D12*
X56157471Y8433110D02*
X55990804Y8671205D01*
X55871757Y8433110D02*
X55871757Y8933110D01*
X56062233Y8933110D01*
X56109852Y8909300D01*
X56133661Y8885491D01*
X56157471Y8837872D01*
X56157471Y8766443D01*
X56133661Y8718824D01*
X56109852Y8695015D01*
X56062233Y8671205D01*
X55871757Y8671205D01*
X56347947Y8885491D02*
X56371757Y8909300D01*
X56419376Y8933110D01*
X56538423Y8933110D01*
X56586042Y8909300D01*
X56609852Y8885491D01*
X56633661Y8837872D01*
X56633661Y8790253D01*
X56609852Y8718824D01*
X56324138Y8433110D01*
X56633661Y8433110D01*
X56943185Y8933110D02*
X56990804Y8933110D01*
X57038423Y8909300D01*
X57062233Y8885491D01*
X57086042Y8837872D01*
X57109852Y8742634D01*
X57109852Y8623586D01*
X57086042Y8528348D01*
X57062233Y8480729D01*
X57038423Y8456920D01*
X56990804Y8433110D01*
X56943185Y8433110D01*
X56895566Y8456920D01*
X56871757Y8480729D01*
X56847947Y8528348D01*
X56824138Y8623586D01*
X56824138Y8742634D01*
X56847947Y8837872D01*
X56871757Y8885491D01*
X56895566Y8909300D01*
X56943185Y8933110D01*
X51994411Y11315369D02*
X51970601Y11291560D01*
X51899173Y11267750D01*
X51851554Y11267750D01*
X51780125Y11291560D01*
X51732506Y11339179D01*
X51708697Y11386798D01*
X51684887Y11482036D01*
X51684887Y11553464D01*
X51708697Y11648702D01*
X51732506Y11696321D01*
X51780125Y11743940D01*
X51851554Y11767750D01*
X51899173Y11767750D01*
X51970601Y11743940D01*
X51994411Y11720131D01*
X52184887Y11720131D02*
X52208697Y11743940D01*
X52256316Y11767750D01*
X52375363Y11767750D01*
X52422982Y11743940D01*
X52446792Y11720131D01*
X52470601Y11672512D01*
X52470601Y11624893D01*
X52446792Y11553464D01*
X52161078Y11267750D01*
X52470601Y11267750D01*
X52637268Y11767750D02*
X52970601Y11767750D01*
X52756316Y11267750D01*
X56050791Y5460669D02*
X56026981Y5436860D01*
X55955553Y5413050D01*
X55907934Y5413050D01*
X55836505Y5436860D01*
X55788886Y5484479D01*
X55765077Y5532098D01*
X55741267Y5627336D01*
X55741267Y5698764D01*
X55765077Y5794002D01*
X55788886Y5841621D01*
X55836505Y5889240D01*
X55907934Y5913050D01*
X55955553Y5913050D01*
X56026981Y5889240D01*
X56050791Y5865431D01*
X56241267Y5865431D02*
X56265077Y5889240D01*
X56312696Y5913050D01*
X56431743Y5913050D01*
X56479362Y5889240D01*
X56503172Y5865431D01*
X56526981Y5817812D01*
X56526981Y5770193D01*
X56503172Y5698764D01*
X56217458Y5413050D01*
X56526981Y5413050D01*
X56955553Y5913050D02*
X56860315Y5913050D01*
X56812696Y5889240D01*
X56788886Y5865431D01*
X56741267Y5794002D01*
X56717458Y5698764D01*
X56717458Y5508288D01*
X56741267Y5460669D01*
X56765077Y5436860D01*
X56812696Y5413050D01*
X56907934Y5413050D01*
X56955553Y5436860D01*
X56979362Y5460669D01*
X57003172Y5508288D01*
X57003172Y5627336D01*
X56979362Y5674955D01*
X56955553Y5698764D01*
X56907934Y5722574D01*
X56812696Y5722574D01*
X56765077Y5698764D01*
X56741267Y5674955D01*
X56717458Y5627336D01*
X21207071Y35750810D02*
X21040404Y35988905D01*
X20921357Y35750810D02*
X20921357Y36250810D01*
X21111833Y36250810D01*
X21159452Y36227000D01*
X21183261Y36203191D01*
X21207071Y36155572D01*
X21207071Y36084143D01*
X21183261Y36036524D01*
X21159452Y36012715D01*
X21111833Y35988905D01*
X20921357Y35988905D01*
X21683261Y35750810D02*
X21397547Y35750810D01*
X21540404Y35750810D02*
X21540404Y36250810D01*
X21492785Y36179381D01*
X21445166Y36131762D01*
X21397547Y36107953D01*
X22159452Y35750810D02*
X21873738Y35750810D01*
X22016595Y35750810D02*
X22016595Y36250810D01*
X21968976Y36179381D01*
X21921357Y36131762D01*
X21873738Y36107953D01*
D10*
X19737073Y14763014D02*
X20530406Y14763014D01*
X20623740Y14809680D01*
X20670406Y14856347D01*
X20717073Y14949680D01*
X20717073Y15136347D01*
X20670406Y15229680D01*
X20623740Y15276347D01*
X20530406Y15323014D01*
X19737073Y15323014D01*
X20717073Y16303014D02*
X20717073Y15743014D01*
X20717073Y16023014D02*
X19737073Y16023014D01*
X19877073Y15929680D01*
X19970406Y15836347D01*
X20017073Y15743014D01*
D12*
X21207071Y38290810D02*
X21040404Y38528905D01*
X20921357Y38290810D02*
X20921357Y38790810D01*
X21111833Y38790810D01*
X21159452Y38767000D01*
X21183261Y38743191D01*
X21207071Y38695572D01*
X21207071Y38624143D01*
X21183261Y38576524D01*
X21159452Y38552715D01*
X21111833Y38528905D01*
X20921357Y38528905D01*
X21397547Y38743191D02*
X21421357Y38767000D01*
X21468976Y38790810D01*
X21588023Y38790810D01*
X21635642Y38767000D01*
X21659452Y38743191D01*
X21683261Y38695572D01*
X21683261Y38647953D01*
X21659452Y38576524D01*
X21373738Y38290810D01*
X21683261Y38290810D01*
X21921357Y38290810D02*
X22016595Y38290810D01*
X22064214Y38314620D01*
X22088023Y38338429D01*
X22135642Y38409858D01*
X22159452Y38505096D01*
X22159452Y38695572D01*
X22135642Y38743191D01*
X22111833Y38767000D01*
X22064214Y38790810D01*
X21968976Y38790810D01*
X21921357Y38767000D01*
X21897547Y38743191D01*
X21873738Y38695572D01*
X21873738Y38576524D01*
X21897547Y38528905D01*
X21921357Y38505096D01*
X21968976Y38481286D01*
X22064214Y38481286D01*
X22111833Y38505096D01*
X22135642Y38528905D01*
X22159452Y38576524D01*
X1585571Y38163810D02*
X1418904Y38401905D01*
X1299857Y38163810D02*
X1299857Y38663810D01*
X1490333Y38663810D01*
X1537952Y38640000D01*
X1561761Y38616191D01*
X1585571Y38568572D01*
X1585571Y38497143D01*
X1561761Y38449524D01*
X1537952Y38425715D01*
X1490333Y38401905D01*
X1299857Y38401905D01*
X1776047Y38616191D02*
X1799857Y38640000D01*
X1847476Y38663810D01*
X1966523Y38663810D01*
X2014142Y38640000D01*
X2037952Y38616191D01*
X2061761Y38568572D01*
X2061761Y38520953D01*
X2037952Y38449524D01*
X1752238Y38163810D01*
X2061761Y38163810D01*
X2490333Y38497143D02*
X2490333Y38163810D01*
X2371285Y38687620D02*
X2252238Y38330477D01*
X2561761Y38330477D01*
X1585571Y40957810D02*
X1418904Y41195905D01*
X1299857Y40957810D02*
X1299857Y41457810D01*
X1490333Y41457810D01*
X1537952Y41434000D01*
X1561761Y41410191D01*
X1585571Y41362572D01*
X1585571Y41291143D01*
X1561761Y41243524D01*
X1537952Y41219715D01*
X1490333Y41195905D01*
X1299857Y41195905D01*
X1776047Y41410191D02*
X1799857Y41434000D01*
X1847476Y41457810D01*
X1966523Y41457810D01*
X2014142Y41434000D01*
X2037952Y41410191D01*
X2061761Y41362572D01*
X2061761Y41314953D01*
X2037952Y41243524D01*
X1752238Y40957810D01*
X2061761Y40957810D01*
X2228428Y41457810D02*
X2537952Y41457810D01*
X2371285Y41267334D01*
X2442714Y41267334D01*
X2490333Y41243524D01*
X2514142Y41219715D01*
X2537952Y41172096D01*
X2537952Y41053048D01*
X2514142Y41005429D01*
X2490333Y40981620D01*
X2442714Y40957810D01*
X2299857Y40957810D01*
X2252238Y40981620D01*
X2228428Y41005429D01*
X19595690Y21304572D02*
X19357595Y21137905D01*
X19595690Y21018858D02*
X19095690Y21018858D01*
X19095690Y21209334D01*
X19119500Y21256953D01*
X19143309Y21280762D01*
X19190928Y21304572D01*
X19262357Y21304572D01*
X19309976Y21280762D01*
X19333785Y21256953D01*
X19357595Y21209334D01*
X19357595Y21018858D01*
X19595690Y21780762D02*
X19595690Y21495048D01*
X19595690Y21637905D02*
X19095690Y21637905D01*
X19167119Y21590286D01*
X19214738Y21542667D01*
X19238547Y21495048D01*
X19595690Y22018858D02*
X19595690Y22114096D01*
X19571880Y22161715D01*
X19548071Y22185524D01*
X19476642Y22233143D01*
X19381404Y22256953D01*
X19190928Y22256953D01*
X19143309Y22233143D01*
X19119500Y22209334D01*
X19095690Y22161715D01*
X19095690Y22066477D01*
X19119500Y22018858D01*
X19143309Y21995048D01*
X19190928Y21971239D01*
X19309976Y21971239D01*
X19357595Y21995048D01*
X19381404Y22018858D01*
X19405214Y22066477D01*
X19405214Y22161715D01*
X19381404Y22209334D01*
X19357595Y22233143D01*
X19309976Y22256953D01*
X48588571Y24193810D02*
X48421904Y24431905D01*
X48302857Y24193810D02*
X48302857Y24693810D01*
X48493333Y24693810D01*
X48540952Y24670000D01*
X48564761Y24646191D01*
X48588571Y24598572D01*
X48588571Y24527143D01*
X48564761Y24479524D01*
X48540952Y24455715D01*
X48493333Y24431905D01*
X48302857Y24431905D01*
X49064761Y24193810D02*
X48779047Y24193810D01*
X48921904Y24193810D02*
X48921904Y24693810D01*
X48874285Y24622381D01*
X48826666Y24574762D01*
X48779047Y24550953D01*
X49493333Y24527143D02*
X49493333Y24193810D01*
X49374285Y24717620D02*
X49255238Y24360477D01*
X49564761Y24360477D01*
X21445166Y40830810D02*
X21278500Y41068905D01*
X21159452Y40830810D02*
X21159452Y41330810D01*
X21349928Y41330810D01*
X21397547Y41307000D01*
X21421357Y41283191D01*
X21445166Y41235572D01*
X21445166Y41164143D01*
X21421357Y41116524D01*
X21397547Y41092715D01*
X21349928Y41068905D01*
X21159452Y41068905D01*
X21730880Y41116524D02*
X21683261Y41140334D01*
X21659452Y41164143D01*
X21635642Y41211762D01*
X21635642Y41235572D01*
X21659452Y41283191D01*
X21683261Y41307000D01*
X21730880Y41330810D01*
X21826119Y41330810D01*
X21873738Y41307000D01*
X21897547Y41283191D01*
X21921357Y41235572D01*
X21921357Y41211762D01*
X21897547Y41164143D01*
X21873738Y41140334D01*
X21826119Y41116524D01*
X21730880Y41116524D01*
X21683261Y41092715D01*
X21659452Y41068905D01*
X21635642Y41021286D01*
X21635642Y40926048D01*
X21659452Y40878429D01*
X21683261Y40854620D01*
X21730880Y40830810D01*
X21826119Y40830810D01*
X21873738Y40854620D01*
X21897547Y40878429D01*
X21921357Y40926048D01*
X21921357Y41021286D01*
X21897547Y41068905D01*
X21873738Y41092715D01*
X21826119Y41116524D01*
X17906590Y34090267D02*
X17668495Y33923600D01*
X17906590Y33804553D02*
X17406590Y33804553D01*
X17406590Y33995029D01*
X17430400Y34042648D01*
X17454209Y34066458D01*
X17501828Y34090267D01*
X17573257Y34090267D01*
X17620876Y34066458D01*
X17644685Y34042648D01*
X17668495Y33995029D01*
X17668495Y33804553D01*
X17406590Y34256934D02*
X17406590Y34590267D01*
X17906590Y34375981D01*
X21445166Y43370810D02*
X21278500Y43608905D01*
X21159452Y43370810D02*
X21159452Y43870810D01*
X21349928Y43870810D01*
X21397547Y43847000D01*
X21421357Y43823191D01*
X21445166Y43775572D01*
X21445166Y43704143D01*
X21421357Y43656524D01*
X21397547Y43632715D01*
X21349928Y43608905D01*
X21159452Y43608905D01*
X21873738Y43870810D02*
X21778500Y43870810D01*
X21730880Y43847000D01*
X21707071Y43823191D01*
X21659452Y43751762D01*
X21635642Y43656524D01*
X21635642Y43466048D01*
X21659452Y43418429D01*
X21683261Y43394620D01*
X21730880Y43370810D01*
X21826119Y43370810D01*
X21873738Y43394620D01*
X21897547Y43418429D01*
X21921357Y43466048D01*
X21921357Y43585096D01*
X21897547Y43632715D01*
X21873738Y43656524D01*
X21826119Y43680334D01*
X21730880Y43680334D01*
X21683261Y43656524D01*
X21659452Y43632715D01*
X21635642Y43585096D01*
X22642886Y9817410D02*
X22476220Y10055505D01*
X22357172Y9817410D02*
X22357172Y10317410D01*
X22547648Y10317410D01*
X22595267Y10293600D01*
X22619077Y10269791D01*
X22642886Y10222172D01*
X22642886Y10150743D01*
X22619077Y10103124D01*
X22595267Y10079315D01*
X22547648Y10055505D01*
X22357172Y10055505D01*
X23071458Y10150743D02*
X23071458Y9817410D01*
X22952410Y10341220D02*
X22833362Y9984077D01*
X23142886Y9984077D01*
X18348906Y9817410D02*
X18182240Y10055505D01*
X18063192Y9817410D02*
X18063192Y10317410D01*
X18253668Y10317410D01*
X18301287Y10293600D01*
X18325097Y10269791D01*
X18348906Y10222172D01*
X18348906Y10150743D01*
X18325097Y10103124D01*
X18301287Y10079315D01*
X18253668Y10055505D01*
X18063192Y10055505D01*
X18515573Y10317410D02*
X18825097Y10317410D01*
X18658430Y10126934D01*
X18729859Y10126934D01*
X18777478Y10103124D01*
X18801287Y10079315D01*
X18825097Y10031696D01*
X18825097Y9912648D01*
X18801287Y9865029D01*
X18777478Y9841220D01*
X18729859Y9817410D01*
X18587001Y9817410D01*
X18539382Y9841220D01*
X18515573Y9865029D01*
X16373071Y21304572D02*
X16396880Y21280762D01*
X16420690Y21209334D01*
X16420690Y21161715D01*
X16396880Y21090286D01*
X16349261Y21042667D01*
X16301642Y21018858D01*
X16206404Y20995048D01*
X16134976Y20995048D01*
X16039738Y21018858D01*
X15992119Y21042667D01*
X15944500Y21090286D01*
X15920690Y21161715D01*
X15920690Y21209334D01*
X15944500Y21280762D01*
X15968309Y21304572D01*
X15968309Y21495048D02*
X15944500Y21518858D01*
X15920690Y21566477D01*
X15920690Y21685524D01*
X15944500Y21733143D01*
X15968309Y21756953D01*
X16015928Y21780762D01*
X16063547Y21780762D01*
X16134976Y21756953D01*
X16420690Y21471239D01*
X16420690Y21780762D01*
X15920690Y22233143D02*
X15920690Y21995048D01*
X16158785Y21971239D01*
X16134976Y21995048D01*
X16111166Y22042667D01*
X16111166Y22161715D01*
X16134976Y22209334D01*
X16158785Y22233143D01*
X16206404Y22256953D01*
X16325452Y22256953D01*
X16373071Y22233143D01*
X16396880Y22209334D01*
X16420690Y22161715D01*
X16420690Y22042667D01*
X16396880Y21995048D01*
X16373071Y21971239D01*
X15214831Y14992007D02*
X15238640Y14968198D01*
X15262450Y14896769D01*
X15262450Y14849150D01*
X15238640Y14777721D01*
X15191021Y14730102D01*
X15143402Y14706293D01*
X15048164Y14682483D01*
X14976736Y14682483D01*
X14881498Y14706293D01*
X14833879Y14730102D01*
X14786260Y14777721D01*
X14762450Y14849150D01*
X14762450Y14896769D01*
X14786260Y14968198D01*
X14810069Y14992007D01*
X14976736Y15277721D02*
X14952926Y15230102D01*
X14929117Y15206293D01*
X14881498Y15182483D01*
X14857688Y15182483D01*
X14810069Y15206293D01*
X14786260Y15230102D01*
X14762450Y15277721D01*
X14762450Y15372960D01*
X14786260Y15420579D01*
X14810069Y15444388D01*
X14857688Y15468198D01*
X14881498Y15468198D01*
X14929117Y15444388D01*
X14952926Y15420579D01*
X14976736Y15372960D01*
X14976736Y15277721D01*
X15000545Y15230102D01*
X15024355Y15206293D01*
X15071974Y15182483D01*
X15167212Y15182483D01*
X15214831Y15206293D01*
X15238640Y15230102D01*
X15262450Y15277721D01*
X15262450Y15372960D01*
X15238640Y15420579D01*
X15214831Y15444388D01*
X15167212Y15468198D01*
X15071974Y15468198D01*
X15024355Y15444388D01*
X15000545Y15420579D01*
X14976736Y15372960D01*
D10*
X26799095Y26809120D02*
X26799095Y25999596D01*
X26846714Y25904358D01*
X26894333Y25856739D01*
X26989571Y25809120D01*
X27180047Y25809120D01*
X27275285Y25856739D01*
X27322904Y25904358D01*
X27370523Y25999596D01*
X27370523Y26809120D01*
X28275285Y26809120D02*
X28084809Y26809120D01*
X27989571Y26761500D01*
X27941952Y26713881D01*
X27846714Y26571024D01*
X27799095Y26380548D01*
X27799095Y25999596D01*
X27846714Y25904358D01*
X27894333Y25856739D01*
X27989571Y25809120D01*
X28180047Y25809120D01*
X28275285Y25856739D01*
X28322904Y25904358D01*
X28370523Y25999596D01*
X28370523Y26237691D01*
X28322904Y26332929D01*
X28275285Y26380548D01*
X28180047Y26428167D01*
X27989571Y26428167D01*
X27894333Y26380548D01*
X27846714Y26332929D01*
X27799095Y26237691D01*
D13*
X13019571Y34292215D02*
X13019571Y33685072D01*
X13055285Y33613643D01*
X13091000Y33577929D01*
X13162428Y33542215D01*
X13305285Y33542215D01*
X13376714Y33577929D01*
X13412428Y33613643D01*
X13448142Y33685072D01*
X13448142Y34292215D01*
X14162428Y34292215D02*
X13805285Y34292215D01*
X13769571Y33935072D01*
X13805285Y33970786D01*
X13876714Y34006500D01*
X14055285Y34006500D01*
X14126714Y33970786D01*
X14162428Y33935072D01*
X14198142Y33863643D01*
X14198142Y33685072D01*
X14162428Y33613643D01*
X14126714Y33577929D01*
X14055285Y33542215D01*
X13876714Y33542215D01*
X13805285Y33577929D01*
X13769571Y33613643D01*
D10*
X60261160Y20315217D02*
X59261160Y20315217D01*
X59975446Y20648550D01*
X59261160Y20981883D01*
X60261160Y20981883D01*
X60261160Y21981883D02*
X60261160Y21410455D01*
X60261160Y21696169D02*
X59261160Y21696169D01*
X59404018Y21600931D01*
X59499256Y21505693D01*
X59546875Y21410455D01*
X41807955Y37714200D02*
X41807955Y36904676D01*
X41855574Y36809438D01*
X41903193Y36761819D01*
X41998431Y36714200D01*
X42188907Y36714200D01*
X42284145Y36761819D01*
X42331764Y36809438D01*
X42379383Y36904676D01*
X42379383Y37714200D01*
X43284145Y37380866D02*
X43284145Y36714200D01*
X43046050Y37761819D02*
X42807955Y37047533D01*
X43427002Y37047533D01*
X15811980Y40698267D02*
X16526266Y40698267D01*
X16669123Y40650648D01*
X16764361Y40555410D01*
X16811980Y40412553D01*
X16811980Y40317315D01*
X16811980Y41222077D02*
X16811980Y41412553D01*
X16764361Y41507791D01*
X16716742Y41555410D01*
X16573885Y41650648D01*
X16383409Y41698267D01*
X16002457Y41698267D01*
X15907219Y41650648D01*
X15859600Y41603029D01*
X15811980Y41507791D01*
X15811980Y41317315D01*
X15859600Y41222077D01*
X15907219Y41174458D01*
X16002457Y41126839D01*
X16240552Y41126839D01*
X16335790Y41174458D01*
X16383409Y41222077D01*
X16431028Y41317315D01*
X16431028Y41507791D01*
X16383409Y41603029D01*
X16335790Y41650648D01*
X16240552Y41698267D01*
D14*
X5833809Y43672381D02*
X5810000Y43624762D01*
X5762380Y43577143D01*
X5690952Y43505715D01*
X5667142Y43458096D01*
X5667142Y43410477D01*
X5786190Y43434286D02*
X5762380Y43386667D01*
X5714761Y43339048D01*
X5619523Y43315239D01*
X5452857Y43315239D01*
X5357619Y43339048D01*
X5310000Y43386667D01*
X5286190Y43434286D01*
X5286190Y43529524D01*
X5310000Y43577143D01*
X5357619Y43624762D01*
X5452857Y43648572D01*
X5619523Y43648572D01*
X5714761Y43624762D01*
X5762380Y43577143D01*
X5786190Y43529524D01*
X5786190Y43434286D01*
X5786190Y44124762D02*
X5786190Y43839048D01*
X5786190Y43981905D02*
X5286190Y43981905D01*
X5357619Y43934286D01*
X5405238Y43886667D01*
X5429047Y43839048D01*
X6308309Y39853681D02*
X6284500Y39806062D01*
X6236880Y39758443D01*
X6165452Y39687015D01*
X6141642Y39639396D01*
X6141642Y39591777D01*
X6260690Y39615586D02*
X6236880Y39567967D01*
X6189261Y39520348D01*
X6094023Y39496539D01*
X5927357Y39496539D01*
X5832119Y39520348D01*
X5784500Y39567967D01*
X5760690Y39615586D01*
X5760690Y39710824D01*
X5784500Y39758443D01*
X5832119Y39806062D01*
X5927357Y39829872D01*
X6094023Y39829872D01*
X6189261Y39806062D01*
X6236880Y39758443D01*
X6260690Y39710824D01*
X6260690Y39615586D01*
X5808309Y40020348D02*
X5784500Y40044158D01*
X5760690Y40091777D01*
X5760690Y40210824D01*
X5784500Y40258443D01*
X5808309Y40282253D01*
X5855928Y40306062D01*
X5903547Y40306062D01*
X5974976Y40282253D01*
X6260690Y39996539D01*
X6260690Y40306062D01*
M02*
