G04 #@! TF.GenerationSoftware,KiCad,Pcbnew,(5.1.5-0-10_14)*
G04 #@! TF.CreationDate,2020-08-15T14:14:15-04:00*
G04 #@! TF.ProjectId,Mimosa-Power-Hat,4d696d6f-7361-42d5-906f-7765722d4861,rev?*
G04 #@! TF.SameCoordinates,PX4e3d4c0PY6c12040*
G04 #@! TF.FileFunction,Other,Fab,Bot*
%FSLAX46Y46*%
G04 Gerber Fmt 4.6, Leading zero omitted, Abs format (unit mm)*
G04 Created by KiCad (PCBNEW (5.1.5-0-10_14)) date 2020-08-15 14:14:15*
%MOMM*%
%LPD*%
G04 APERTURE LIST*
%ADD10C,0.150000*%
%ADD11C,0.100000*%
%ADD12C,0.120000*%
%ADD13C,0.105000*%
%ADD14C,0.075000*%
%ADD15C,0.080000*%
G04 APERTURE END LIST*
D10*
X1666666Y0D02*
G75*
G03X1666666Y0I-1666666J0D01*
G01*
X-2500000Y0D02*
X2500000Y0D01*
X0Y2500000D02*
X0Y-2500000D01*
D11*
X-3493644Y49502389D02*
X-3493644Y-497611D01*
X-3493644Y49502389D02*
G75*
G02X-493644Y52502389I3000000J0D01*
G01*
X58506356Y52502389D02*
X-493644Y52502389D01*
X58506356Y52502389D02*
G75*
G02X61506356Y49502389I0J-3000000D01*
G01*
X61506351Y-502847D02*
X61506356Y49502389D01*
X-493644Y-3497611D02*
G75*
G02X-3493644Y-497611I0J3000000D01*
G01*
X-493644Y-3497611D02*
X58506356Y-3497611D01*
X61506351Y-502847D02*
G75*
G02X58506356Y-3497611I-2999995J5236D01*
G01*
X11843400Y28068200D02*
X11843400Y29068200D01*
X12443400Y27068200D02*
X11843400Y28068200D01*
X13743400Y28068200D02*
X13743400Y29068200D01*
X13143400Y27068200D02*
X13743400Y28068200D01*
X11763400Y27068200D02*
X13823400Y27068200D01*
X11763400Y20568200D02*
X11763400Y27068200D01*
X13823400Y20568200D02*
X11763400Y20568200D01*
X13823400Y27068200D02*
X13823400Y20568200D01*
X42830000Y5770000D02*
X42830000Y4370000D01*
X39790000Y4370000D02*
X42830000Y4370000D01*
X40360000Y5770000D02*
X39790000Y5220000D01*
X39790000Y5220000D02*
X39790000Y4370000D01*
X40360000Y5770000D02*
X42810000Y5770000D01*
X21100000Y27206667D02*
X23100000Y27206667D01*
X21100000Y28406667D02*
X21100000Y27206667D01*
X23100000Y28406667D02*
X21100000Y28406667D01*
X23100000Y27206667D02*
X23100000Y28406667D01*
X21100000Y24497334D02*
X23100000Y24497334D01*
X21100000Y25697334D02*
X21100000Y24497334D01*
X23100000Y25697334D02*
X21100000Y25697334D01*
X23100000Y24497334D02*
X23100000Y25697334D01*
X21100000Y21788000D02*
X23100000Y21788000D01*
X21100000Y22988000D02*
X21100000Y21788000D01*
X23100000Y22988000D02*
X21100000Y22988000D01*
X23100000Y21788000D02*
X23100000Y22988000D01*
X49860000Y25020000D02*
X47860000Y25020000D01*
X49860000Y23820000D02*
X49860000Y25020000D01*
X47860000Y23820000D02*
X49860000Y23820000D01*
X47860000Y25020000D02*
X47860000Y23820000D01*
X33726666Y11920000D02*
X33726666Y13920000D01*
X32526666Y11920000D02*
X33726666Y11920000D01*
X32526666Y13920000D02*
X32526666Y11920000D01*
X33726666Y13920000D02*
X32526666Y13920000D01*
X31043333Y11920000D02*
X31043333Y13920000D01*
X29843333Y11920000D02*
X31043333Y11920000D01*
X29843333Y13920000D02*
X29843333Y11920000D01*
X31043333Y13920000D02*
X29843333Y13920000D01*
X26870300Y4390120D02*
X24870300Y4390120D01*
X26870300Y3190120D02*
X26870300Y4390120D01*
X24870300Y3190120D02*
X26870300Y3190120D01*
X24870300Y4390120D02*
X24870300Y3190120D01*
X21100000Y29916000D02*
X23100000Y29916000D01*
X21100000Y31116000D02*
X21100000Y29916000D01*
X23100000Y31116000D02*
X21100000Y31116000D01*
X23100000Y29916000D02*
X23100000Y31116000D01*
X16842380Y4440920D02*
X14842380Y4440920D01*
X16842380Y3240920D02*
X16842380Y4440920D01*
X14842380Y3240920D02*
X16842380Y3240920D01*
X14842380Y4440920D02*
X14842380Y3240920D01*
X39810000Y17770000D02*
X41810000Y17770000D01*
X39810000Y18970000D02*
X39810000Y17770000D01*
X41810000Y18970000D02*
X39810000Y18970000D01*
X41810000Y17770000D02*
X41810000Y18970000D01*
X43610000Y20270000D02*
X43610000Y18270000D01*
X44810000Y20270000D02*
X43610000Y20270000D01*
X44810000Y18270000D02*
X44810000Y20270000D01*
X43610000Y18270000D02*
X44810000Y18270000D01*
X26834000Y34691000D02*
X26834000Y32691000D01*
X28034000Y34691000D02*
X26834000Y34691000D01*
X28034000Y32691000D02*
X28034000Y34691000D01*
X26834000Y32691000D02*
X28034000Y32691000D01*
X28034000Y18467000D02*
X28034000Y20467000D01*
X26834000Y18467000D02*
X28034000Y18467000D01*
X26834000Y20467000D02*
X26834000Y18467000D01*
X28034000Y20467000D02*
X26834000Y20467000D01*
X8342800Y29026800D02*
X8342800Y27026800D01*
X9542800Y29026800D02*
X8342800Y29026800D01*
X9542800Y27026800D02*
X9542800Y29026800D01*
X8342800Y27026800D02*
X9542800Y27026800D01*
X16089800Y29043200D02*
X16089800Y27043200D01*
X17289800Y29043200D02*
X16089800Y29043200D01*
X17289800Y27043200D02*
X17289800Y29043200D01*
X16089800Y27043200D02*
X17289800Y27043200D01*
X10304800Y34697600D02*
X10304800Y36697600D01*
X9104800Y34697600D02*
X10304800Y34697600D01*
X9104800Y36697600D02*
X9104800Y34697600D01*
X10304800Y36697600D02*
X9104800Y36697600D01*
X9416000Y31122500D02*
X11416000Y31122500D01*
X9416000Y32322500D02*
X9416000Y31122500D01*
X11416000Y32322500D02*
X9416000Y32322500D01*
X11416000Y31122500D02*
X11416000Y32322500D01*
X44977220Y32477420D02*
X44977220Y30477420D01*
X46177220Y32477420D02*
X44977220Y32477420D01*
X46177220Y30477420D02*
X46177220Y32477420D01*
X44977220Y30477420D02*
X46177220Y30477420D01*
X46958420Y32477420D02*
X46958420Y30477420D01*
X48158420Y32477420D02*
X46958420Y32477420D01*
X48158420Y30477420D02*
X48158420Y32477420D01*
X46958420Y30477420D02*
X48158420Y30477420D01*
X48939620Y32477420D02*
X48939620Y30477420D01*
X50139620Y32477420D02*
X48939620Y32477420D01*
X50139620Y30477420D02*
X50139620Y32477420D01*
X48939620Y30477420D02*
X50139620Y30477420D01*
X33260000Y15870000D02*
X35260000Y15870000D01*
X33260000Y17070000D02*
X33260000Y15870000D01*
X35260000Y17070000D02*
X33260000Y17070000D01*
X35260000Y15870000D02*
X35260000Y17070000D01*
X36410000Y11920000D02*
X36410000Y13920000D01*
X35210000Y11920000D02*
X36410000Y11920000D01*
X35210000Y13920000D02*
X35210000Y11920000D01*
X36410000Y13920000D02*
X35210000Y13920000D01*
X27160000Y13920000D02*
X27160000Y11920000D01*
X28360000Y13920000D02*
X27160000Y13920000D01*
X28360000Y11920000D02*
X28360000Y13920000D01*
X27160000Y11920000D02*
X28360000Y11920000D01*
X42996020Y32477420D02*
X42996020Y30477420D01*
X44196020Y32477420D02*
X42996020Y32477420D01*
X44196020Y30477420D02*
X44196020Y32477420D01*
X42996020Y30477420D02*
X44196020Y30477420D01*
X39977360Y43833780D02*
X37977360Y43833780D01*
X39977360Y42633780D02*
X39977360Y43833780D01*
X37977360Y42633780D02*
X39977360Y42633780D01*
X37977360Y43833780D02*
X37977360Y42633780D01*
X47310000Y13070000D02*
X47310000Y15070000D01*
X46110000Y13070000D02*
X47310000Y13070000D01*
X46110000Y15070000D02*
X46110000Y13070000D01*
X47310000Y15070000D02*
X46110000Y15070000D01*
X39977360Y41519840D02*
X37977360Y41519840D01*
X39977360Y40319840D02*
X39977360Y41519840D01*
X37977360Y40319840D02*
X39977360Y40319840D01*
X37977360Y41519840D02*
X37977360Y40319840D01*
X47460000Y18270000D02*
X47460000Y20270000D01*
X46260000Y18270000D02*
X47460000Y18270000D01*
X46260000Y20270000D02*
X46260000Y18270000D01*
X47460000Y20270000D02*
X46260000Y20270000D01*
X39977360Y39205900D02*
X37977360Y39205900D01*
X39977360Y38005900D02*
X39977360Y39205900D01*
X37977360Y38005900D02*
X39977360Y38005900D01*
X37977360Y39205900D02*
X37977360Y38005900D01*
X39977360Y36891960D02*
X37977360Y36891960D01*
X39977360Y35691960D02*
X39977360Y36891960D01*
X37977360Y35691960D02*
X39977360Y35691960D01*
X37977360Y36891960D02*
X37977360Y35691960D01*
X39977360Y34578020D02*
X37977360Y34578020D01*
X39977360Y33378020D02*
X39977360Y34578020D01*
X37977360Y33378020D02*
X39977360Y33378020D01*
X37977360Y34578020D02*
X37977360Y33378020D01*
X26834000Y24079000D02*
X25834000Y25079000D01*
X28834000Y24079000D02*
X29034000Y24279000D01*
X26034000Y24079000D02*
X28834000Y24079000D01*
X25834000Y24279000D02*
X26034000Y24079000D01*
X25834000Y28879000D02*
X25834000Y24279000D01*
X26034000Y29079000D02*
X25834000Y28879000D01*
X28834000Y29079000D02*
X26034000Y29079000D01*
X29034000Y28879000D02*
X28834000Y29079000D01*
X29034000Y24279000D02*
X29034000Y28879000D01*
X-1144087Y33049300D02*
G75*
G03X-1152000Y31945200I282087J-554100D01*
G01*
X-1122669Y33081102D02*
G75*
G03X-1142000Y38045200I-4619331J2464098D01*
G01*
X4738000Y39145200D02*
X6688000Y37495200D01*
X6688000Y37495200D02*
X6688000Y33595200D01*
X6688000Y33595200D02*
X4738000Y31945200D01*
X4738000Y31945200D02*
X-1212000Y31945200D01*
X-1112000Y39145200D02*
X4688000Y39145200D01*
D12*
X-1113745Y39153137D02*
G75*
G03X-1132000Y38045200I231745J-557937D01*
G01*
D11*
X40230000Y16170000D02*
X40230000Y13270000D01*
X40230000Y13270000D02*
X41990000Y13270000D01*
X41990000Y15720000D02*
X41990000Y13270000D01*
X40230000Y16170000D02*
X41540000Y16170000D01*
X41990000Y15720000D02*
X41540000Y16170000D01*
X42130420Y40108420D02*
X42130420Y44408420D01*
X49430420Y40108420D02*
X42130420Y40108420D01*
X49430420Y43408420D02*
X49430420Y40108420D01*
X48430420Y44408420D02*
X49430420Y43408420D01*
X42130420Y44408420D02*
X48430420Y44408420D01*
X42130420Y35028420D02*
X42130420Y39328420D01*
X49430420Y35028420D02*
X42130420Y35028420D01*
X49430420Y38328420D02*
X49430420Y35028420D01*
X48430420Y39328420D02*
X49430420Y38328420D01*
X42130420Y39328420D02*
X48430420Y39328420D01*
X54410000Y51540000D02*
X3610000Y51540000D01*
X54410000Y46460000D02*
X54410000Y51540000D01*
X4610000Y46460000D02*
X54410000Y46460000D01*
X3610000Y47460000D02*
X4610000Y46460000D01*
X3610000Y51540000D02*
X3610000Y47460000D01*
D13*
X12726733Y23901534D02*
X13060066Y23901534D01*
X12360066Y24134867D02*
X12726733Y23901534D01*
X12360066Y23668200D01*
X13060066Y23068200D02*
X13060066Y23468200D01*
X13060066Y23268200D02*
X12360066Y23268200D01*
X12460066Y23334867D01*
X12526733Y23401534D01*
X12560066Y23468200D01*
D14*
X41679047Y4843810D02*
X41679047Y5343810D01*
X41560000Y5343810D01*
X41488571Y5320000D01*
X41440952Y5272381D01*
X41417142Y5224762D01*
X41393333Y5129524D01*
X41393333Y5058096D01*
X41417142Y4962858D01*
X41440952Y4915239D01*
X41488571Y4867620D01*
X41560000Y4843810D01*
X41679047Y4843810D01*
X40917142Y4843810D02*
X41202857Y4843810D01*
X41060000Y4843810D02*
X41060000Y5343810D01*
X41107619Y5272381D01*
X41155238Y5224762D01*
X41202857Y5200953D01*
D15*
X22421428Y27580477D02*
X22588095Y27818572D01*
X22707142Y27580477D02*
X22707142Y28080477D01*
X22516666Y28080477D01*
X22469047Y28056667D01*
X22445238Y28032858D01*
X22421428Y27985239D01*
X22421428Y27913810D01*
X22445238Y27866191D01*
X22469047Y27842382D01*
X22516666Y27818572D01*
X22707142Y27818572D01*
X21945238Y27580477D02*
X22230952Y27580477D01*
X22088095Y27580477D02*
X22088095Y28080477D01*
X22135714Y28009048D01*
X22183333Y27961429D01*
X22230952Y27937620D01*
X21659523Y27866191D02*
X21707142Y27890001D01*
X21730952Y27913810D01*
X21754761Y27961429D01*
X21754761Y27985239D01*
X21730952Y28032858D01*
X21707142Y28056667D01*
X21659523Y28080477D01*
X21564285Y28080477D01*
X21516666Y28056667D01*
X21492857Y28032858D01*
X21469047Y27985239D01*
X21469047Y27961429D01*
X21492857Y27913810D01*
X21516666Y27890001D01*
X21564285Y27866191D01*
X21659523Y27866191D01*
X21707142Y27842382D01*
X21730952Y27818572D01*
X21754761Y27770953D01*
X21754761Y27675715D01*
X21730952Y27628096D01*
X21707142Y27604287D01*
X21659523Y27580477D01*
X21564285Y27580477D01*
X21516666Y27604287D01*
X21492857Y27628096D01*
X21469047Y27675715D01*
X21469047Y27770953D01*
X21492857Y27818572D01*
X21516666Y27842382D01*
X21564285Y27866191D01*
X22421428Y24871144D02*
X22588095Y25109239D01*
X22707142Y24871144D02*
X22707142Y25371144D01*
X22516666Y25371144D01*
X22469047Y25347334D01*
X22445238Y25323525D01*
X22421428Y25275906D01*
X22421428Y25204477D01*
X22445238Y25156858D01*
X22469047Y25133049D01*
X22516666Y25109239D01*
X22707142Y25109239D01*
X21945238Y24871144D02*
X22230952Y24871144D01*
X22088095Y24871144D02*
X22088095Y25371144D01*
X22135714Y25299715D01*
X22183333Y25252096D01*
X22230952Y25228287D01*
X21778571Y25371144D02*
X21445238Y25371144D01*
X21659523Y24871144D01*
X22421428Y22161810D02*
X22588095Y22399905D01*
X22707142Y22161810D02*
X22707142Y22661810D01*
X22516666Y22661810D01*
X22469047Y22638000D01*
X22445238Y22614191D01*
X22421428Y22566572D01*
X22421428Y22495143D01*
X22445238Y22447524D01*
X22469047Y22423715D01*
X22516666Y22399905D01*
X22707142Y22399905D01*
X21945238Y22161810D02*
X22230952Y22161810D01*
X22088095Y22161810D02*
X22088095Y22661810D01*
X22135714Y22590381D01*
X22183333Y22542762D01*
X22230952Y22518953D01*
X21516666Y22661810D02*
X21611904Y22661810D01*
X21659523Y22638000D01*
X21683333Y22614191D01*
X21730952Y22542762D01*
X21754761Y22447524D01*
X21754761Y22257048D01*
X21730952Y22209429D01*
X21707142Y22185620D01*
X21659523Y22161810D01*
X21564285Y22161810D01*
X21516666Y22185620D01*
X21492857Y22209429D01*
X21469047Y22257048D01*
X21469047Y22376096D01*
X21492857Y22423715D01*
X21516666Y22447524D01*
X21564285Y22471334D01*
X21659523Y22471334D01*
X21707142Y22447524D01*
X21730952Y22423715D01*
X21754761Y22376096D01*
X49181428Y24193810D02*
X49348095Y24431905D01*
X49467142Y24193810D02*
X49467142Y24693810D01*
X49276666Y24693810D01*
X49229047Y24670000D01*
X49205238Y24646191D01*
X49181428Y24598572D01*
X49181428Y24527143D01*
X49205238Y24479524D01*
X49229047Y24455715D01*
X49276666Y24431905D01*
X49467142Y24431905D01*
X48705238Y24193810D02*
X48990952Y24193810D01*
X48848095Y24193810D02*
X48848095Y24693810D01*
X48895714Y24622381D01*
X48943333Y24574762D01*
X48990952Y24550953D01*
X48252857Y24693810D02*
X48490952Y24693810D01*
X48514761Y24455715D01*
X48490952Y24479524D01*
X48443333Y24503334D01*
X48324285Y24503334D01*
X48276666Y24479524D01*
X48252857Y24455715D01*
X48229047Y24408096D01*
X48229047Y24289048D01*
X48252857Y24241429D01*
X48276666Y24217620D01*
X48324285Y24193810D01*
X48443333Y24193810D01*
X48490952Y24217620D01*
X48514761Y24241429D01*
X33352856Y13241429D02*
X33114761Y13408096D01*
X33352856Y13527143D02*
X32852856Y13527143D01*
X32852856Y13336667D01*
X32876666Y13289048D01*
X32900475Y13265239D01*
X32948094Y13241429D01*
X33019523Y13241429D01*
X33067142Y13265239D01*
X33090951Y13289048D01*
X33114761Y13336667D01*
X33114761Y13527143D01*
X33352856Y12765239D02*
X33352856Y13050953D01*
X33352856Y12908096D02*
X32852856Y12908096D01*
X32924285Y12955715D01*
X32971904Y13003334D01*
X32995713Y13050953D01*
X32852856Y12598572D02*
X32852856Y12289048D01*
X33043332Y12455715D01*
X33043332Y12384286D01*
X33067142Y12336667D01*
X33090951Y12312858D01*
X33138570Y12289048D01*
X33257618Y12289048D01*
X33305237Y12312858D01*
X33329046Y12336667D01*
X33352856Y12384286D01*
X33352856Y12527143D01*
X33329046Y12574762D01*
X33305237Y12598572D01*
X30669523Y13241429D02*
X30431428Y13408096D01*
X30669523Y13527143D02*
X30169523Y13527143D01*
X30169523Y13336667D01*
X30193333Y13289048D01*
X30217142Y13265239D01*
X30264761Y13241429D01*
X30336190Y13241429D01*
X30383809Y13265239D01*
X30407618Y13289048D01*
X30431428Y13336667D01*
X30431428Y13527143D01*
X30669523Y12765239D02*
X30669523Y13050953D01*
X30669523Y12908096D02*
X30169523Y12908096D01*
X30240952Y12955715D01*
X30288571Y13003334D01*
X30312380Y13050953D01*
X30217142Y12574762D02*
X30193333Y12550953D01*
X30169523Y12503334D01*
X30169523Y12384286D01*
X30193333Y12336667D01*
X30217142Y12312858D01*
X30264761Y12289048D01*
X30312380Y12289048D01*
X30383809Y12312858D01*
X30669523Y12598572D01*
X30669523Y12289048D01*
X26191728Y3563930D02*
X26358395Y3802025D01*
X26477442Y3563930D02*
X26477442Y4063930D01*
X26286966Y4063930D01*
X26239347Y4040120D01*
X26215538Y4016311D01*
X26191728Y3968692D01*
X26191728Y3897263D01*
X26215538Y3849644D01*
X26239347Y3825835D01*
X26286966Y3802025D01*
X26477442Y3802025D01*
X25715538Y3563930D02*
X26001252Y3563930D01*
X25858395Y3563930D02*
X25858395Y4063930D01*
X25906014Y3992501D01*
X25953633Y3944882D01*
X26001252Y3921073D01*
X25406014Y4063930D02*
X25358395Y4063930D01*
X25310776Y4040120D01*
X25286966Y4016311D01*
X25263157Y3968692D01*
X25239347Y3873454D01*
X25239347Y3754406D01*
X25263157Y3659168D01*
X25286966Y3611549D01*
X25310776Y3587740D01*
X25358395Y3563930D01*
X25406014Y3563930D01*
X25453633Y3587740D01*
X25477442Y3611549D01*
X25501252Y3659168D01*
X25525061Y3754406D01*
X25525061Y3873454D01*
X25501252Y3968692D01*
X25477442Y4016311D01*
X25453633Y4040120D01*
X25406014Y4063930D01*
X22183333Y30289810D02*
X22350000Y30527905D01*
X22469047Y30289810D02*
X22469047Y30789810D01*
X22278571Y30789810D01*
X22230952Y30766000D01*
X22207142Y30742191D01*
X22183333Y30694572D01*
X22183333Y30623143D01*
X22207142Y30575524D01*
X22230952Y30551715D01*
X22278571Y30527905D01*
X22469047Y30527905D01*
X21945238Y30289810D02*
X21850000Y30289810D01*
X21802380Y30313620D01*
X21778571Y30337429D01*
X21730952Y30408858D01*
X21707142Y30504096D01*
X21707142Y30694572D01*
X21730952Y30742191D01*
X21754761Y30766000D01*
X21802380Y30789810D01*
X21897619Y30789810D01*
X21945238Y30766000D01*
X21969047Y30742191D01*
X21992857Y30694572D01*
X21992857Y30575524D01*
X21969047Y30527905D01*
X21945238Y30504096D01*
X21897619Y30480286D01*
X21802380Y30480286D01*
X21754761Y30504096D01*
X21730952Y30527905D01*
X21707142Y30575524D01*
X15925713Y3614730D02*
X16092380Y3852825D01*
X16211427Y3614730D02*
X16211427Y4114730D01*
X16020951Y4114730D01*
X15973332Y4090920D01*
X15949522Y4067111D01*
X15925713Y4019492D01*
X15925713Y3948063D01*
X15949522Y3900444D01*
X15973332Y3876635D01*
X16020951Y3852825D01*
X16211427Y3852825D01*
X15473332Y4114730D02*
X15711427Y4114730D01*
X15735237Y3876635D01*
X15711427Y3900444D01*
X15663808Y3924254D01*
X15544760Y3924254D01*
X15497141Y3900444D01*
X15473332Y3876635D01*
X15449522Y3829016D01*
X15449522Y3709968D01*
X15473332Y3662349D01*
X15497141Y3638540D01*
X15544760Y3614730D01*
X15663808Y3614730D01*
X15711427Y3638540D01*
X15735237Y3662349D01*
X40893333Y18143810D02*
X41060000Y18381905D01*
X41179047Y18143810D02*
X41179047Y18643810D01*
X40988571Y18643810D01*
X40940952Y18620000D01*
X40917142Y18596191D01*
X40893333Y18548572D01*
X40893333Y18477143D01*
X40917142Y18429524D01*
X40940952Y18405715D01*
X40988571Y18381905D01*
X41179047Y18381905D01*
X40702857Y18596191D02*
X40679047Y18620000D01*
X40631428Y18643810D01*
X40512380Y18643810D01*
X40464761Y18620000D01*
X40440952Y18596191D01*
X40417142Y18548572D01*
X40417142Y18500953D01*
X40440952Y18429524D01*
X40726666Y18143810D01*
X40417142Y18143810D01*
X44436190Y19353334D02*
X44198095Y19520000D01*
X44436190Y19639048D02*
X43936190Y19639048D01*
X43936190Y19448572D01*
X43960000Y19400953D01*
X43983809Y19377143D01*
X44031428Y19353334D01*
X44102857Y19353334D01*
X44150476Y19377143D01*
X44174285Y19400953D01*
X44198095Y19448572D01*
X44198095Y19639048D01*
X44436190Y18877143D02*
X44436190Y19162858D01*
X44436190Y19020000D02*
X43936190Y19020000D01*
X44007619Y19067620D01*
X44055238Y19115239D01*
X44079047Y19162858D01*
X27612571Y34012429D02*
X27636380Y34036239D01*
X27660190Y34107667D01*
X27660190Y34155286D01*
X27636380Y34226715D01*
X27588761Y34274334D01*
X27541142Y34298143D01*
X27445904Y34321953D01*
X27374476Y34321953D01*
X27279238Y34298143D01*
X27231619Y34274334D01*
X27184000Y34226715D01*
X27160190Y34155286D01*
X27160190Y34107667D01*
X27184000Y34036239D01*
X27207809Y34012429D01*
X27207809Y33821953D02*
X27184000Y33798143D01*
X27160190Y33750524D01*
X27160190Y33631477D01*
X27184000Y33583858D01*
X27207809Y33560048D01*
X27255428Y33536239D01*
X27303047Y33536239D01*
X27374476Y33560048D01*
X27660190Y33845762D01*
X27660190Y33536239D01*
X27326857Y33107667D02*
X27660190Y33107667D01*
X27136380Y33226715D02*
X27493523Y33345762D01*
X27493523Y33036239D01*
X27612571Y19788429D02*
X27636380Y19812239D01*
X27660190Y19883667D01*
X27660190Y19931286D01*
X27636380Y20002715D01*
X27588761Y20050334D01*
X27541142Y20074143D01*
X27445904Y20097953D01*
X27374476Y20097953D01*
X27279238Y20074143D01*
X27231619Y20050334D01*
X27184000Y20002715D01*
X27160190Y19931286D01*
X27160190Y19883667D01*
X27184000Y19812239D01*
X27207809Y19788429D01*
X27207809Y19597953D02*
X27184000Y19574143D01*
X27160190Y19526524D01*
X27160190Y19407477D01*
X27184000Y19359858D01*
X27207809Y19336048D01*
X27255428Y19312239D01*
X27303047Y19312239D01*
X27374476Y19336048D01*
X27660190Y19621762D01*
X27660190Y19312239D01*
X27160190Y19145572D02*
X27160190Y18836048D01*
X27350666Y19002715D01*
X27350666Y18931286D01*
X27374476Y18883667D01*
X27398285Y18859858D01*
X27445904Y18836048D01*
X27564952Y18836048D01*
X27612571Y18859858D01*
X27636380Y18883667D01*
X27660190Y18931286D01*
X27660190Y19074143D01*
X27636380Y19121762D01*
X27612571Y19145572D01*
X9121371Y28348229D02*
X9145180Y28372039D01*
X9168990Y28443467D01*
X9168990Y28491086D01*
X9145180Y28562515D01*
X9097561Y28610134D01*
X9049942Y28633943D01*
X8954704Y28657753D01*
X8883276Y28657753D01*
X8788038Y28633943D01*
X8740419Y28610134D01*
X8692800Y28562515D01*
X8668990Y28491086D01*
X8668990Y28443467D01*
X8692800Y28372039D01*
X8716609Y28348229D01*
X8716609Y28157753D02*
X8692800Y28133943D01*
X8668990Y28086324D01*
X8668990Y27967277D01*
X8692800Y27919658D01*
X8716609Y27895848D01*
X8764228Y27872039D01*
X8811847Y27872039D01*
X8883276Y27895848D01*
X9168990Y28181562D01*
X9168990Y27872039D01*
X8716609Y27681562D02*
X8692800Y27657753D01*
X8668990Y27610134D01*
X8668990Y27491086D01*
X8692800Y27443467D01*
X8716609Y27419658D01*
X8764228Y27395848D01*
X8811847Y27395848D01*
X8883276Y27419658D01*
X9168990Y27705372D01*
X9168990Y27395848D01*
X16868371Y28364629D02*
X16892180Y28388439D01*
X16915990Y28459867D01*
X16915990Y28507486D01*
X16892180Y28578915D01*
X16844561Y28626534D01*
X16796942Y28650343D01*
X16701704Y28674153D01*
X16630276Y28674153D01*
X16535038Y28650343D01*
X16487419Y28626534D01*
X16439800Y28578915D01*
X16415990Y28507486D01*
X16415990Y28459867D01*
X16439800Y28388439D01*
X16463609Y28364629D01*
X16463609Y28174153D02*
X16439800Y28150343D01*
X16415990Y28102724D01*
X16415990Y27983677D01*
X16439800Y27936058D01*
X16463609Y27912248D01*
X16511228Y27888439D01*
X16558847Y27888439D01*
X16630276Y27912248D01*
X16915990Y28197962D01*
X16915990Y27888439D01*
X16915990Y27412248D02*
X16915990Y27697962D01*
X16915990Y27555105D02*
X16415990Y27555105D01*
X16487419Y27602724D01*
X16535038Y27650343D01*
X16558847Y27697962D01*
X9883371Y36019029D02*
X9907180Y36042839D01*
X9930990Y36114267D01*
X9930990Y36161886D01*
X9907180Y36233315D01*
X9859561Y36280934D01*
X9811942Y36304743D01*
X9716704Y36328553D01*
X9645276Y36328553D01*
X9550038Y36304743D01*
X9502419Y36280934D01*
X9454800Y36233315D01*
X9430990Y36161886D01*
X9430990Y36114267D01*
X9454800Y36042839D01*
X9478609Y36019029D01*
X9478609Y35828553D02*
X9454800Y35804743D01*
X9430990Y35757124D01*
X9430990Y35638077D01*
X9454800Y35590458D01*
X9478609Y35566648D01*
X9526228Y35542839D01*
X9573847Y35542839D01*
X9645276Y35566648D01*
X9930990Y35852362D01*
X9930990Y35542839D01*
X9430990Y35233315D02*
X9430990Y35185696D01*
X9454800Y35138077D01*
X9478609Y35114267D01*
X9526228Y35090458D01*
X9621466Y35066648D01*
X9740514Y35066648D01*
X9835752Y35090458D01*
X9883371Y35114267D01*
X9907180Y35138077D01*
X9930990Y35185696D01*
X9930990Y35233315D01*
X9907180Y35280934D01*
X9883371Y35304743D01*
X9835752Y35328553D01*
X9740514Y35352362D01*
X9621466Y35352362D01*
X9526228Y35328553D01*
X9478609Y35304743D01*
X9454800Y35280934D01*
X9430990Y35233315D01*
X10737428Y31543929D02*
X10761238Y31520120D01*
X10832666Y31496310D01*
X10880285Y31496310D01*
X10951714Y31520120D01*
X10999333Y31567739D01*
X11023142Y31615358D01*
X11046952Y31710596D01*
X11046952Y31782024D01*
X11023142Y31877262D01*
X10999333Y31924881D01*
X10951714Y31972500D01*
X10880285Y31996310D01*
X10832666Y31996310D01*
X10761238Y31972500D01*
X10737428Y31948691D01*
X10261238Y31496310D02*
X10546952Y31496310D01*
X10404095Y31496310D02*
X10404095Y31996310D01*
X10451714Y31924881D01*
X10499333Y31877262D01*
X10546952Y31853453D01*
X10023142Y31496310D02*
X9927904Y31496310D01*
X9880285Y31520120D01*
X9856476Y31543929D01*
X9808857Y31615358D01*
X9785047Y31710596D01*
X9785047Y31901072D01*
X9808857Y31948691D01*
X9832666Y31972500D01*
X9880285Y31996310D01*
X9975523Y31996310D01*
X10023142Y31972500D01*
X10046952Y31948691D01*
X10070761Y31901072D01*
X10070761Y31782024D01*
X10046952Y31734405D01*
X10023142Y31710596D01*
X9975523Y31686786D01*
X9880285Y31686786D01*
X9832666Y31710596D01*
X9808857Y31734405D01*
X9785047Y31782024D01*
X45755791Y31798849D02*
X45779600Y31822659D01*
X45803410Y31894087D01*
X45803410Y31941706D01*
X45779600Y32013135D01*
X45731981Y32060754D01*
X45684362Y32084563D01*
X45589124Y32108373D01*
X45517696Y32108373D01*
X45422458Y32084563D01*
X45374839Y32060754D01*
X45327220Y32013135D01*
X45303410Y31941706D01*
X45303410Y31894087D01*
X45327220Y31822659D01*
X45351029Y31798849D01*
X45803410Y31322659D02*
X45803410Y31608373D01*
X45803410Y31465516D02*
X45303410Y31465516D01*
X45374839Y31513135D01*
X45422458Y31560754D01*
X45446267Y31608373D01*
X45517696Y31036944D02*
X45493886Y31084563D01*
X45470077Y31108373D01*
X45422458Y31132182D01*
X45398648Y31132182D01*
X45351029Y31108373D01*
X45327220Y31084563D01*
X45303410Y31036944D01*
X45303410Y30941706D01*
X45327220Y30894087D01*
X45351029Y30870278D01*
X45398648Y30846468D01*
X45422458Y30846468D01*
X45470077Y30870278D01*
X45493886Y30894087D01*
X45517696Y30941706D01*
X45517696Y31036944D01*
X45541505Y31084563D01*
X45565315Y31108373D01*
X45612934Y31132182D01*
X45708172Y31132182D01*
X45755791Y31108373D01*
X45779600Y31084563D01*
X45803410Y31036944D01*
X45803410Y30941706D01*
X45779600Y30894087D01*
X45755791Y30870278D01*
X45708172Y30846468D01*
X45612934Y30846468D01*
X45565315Y30870278D01*
X45541505Y30894087D01*
X45517696Y30941706D01*
X47736991Y31798849D02*
X47760800Y31822659D01*
X47784610Y31894087D01*
X47784610Y31941706D01*
X47760800Y32013135D01*
X47713181Y32060754D01*
X47665562Y32084563D01*
X47570324Y32108373D01*
X47498896Y32108373D01*
X47403658Y32084563D01*
X47356039Y32060754D01*
X47308420Y32013135D01*
X47284610Y31941706D01*
X47284610Y31894087D01*
X47308420Y31822659D01*
X47332229Y31798849D01*
X47784610Y31322659D02*
X47784610Y31608373D01*
X47784610Y31465516D02*
X47284610Y31465516D01*
X47356039Y31513135D01*
X47403658Y31560754D01*
X47427467Y31608373D01*
X47284610Y31155992D02*
X47284610Y30822659D01*
X47784610Y31036944D01*
X49718191Y31798849D02*
X49742000Y31822659D01*
X49765810Y31894087D01*
X49765810Y31941706D01*
X49742000Y32013135D01*
X49694381Y32060754D01*
X49646762Y32084563D01*
X49551524Y32108373D01*
X49480096Y32108373D01*
X49384858Y32084563D01*
X49337239Y32060754D01*
X49289620Y32013135D01*
X49265810Y31941706D01*
X49265810Y31894087D01*
X49289620Y31822659D01*
X49313429Y31798849D01*
X49765810Y31322659D02*
X49765810Y31608373D01*
X49765810Y31465516D02*
X49265810Y31465516D01*
X49337239Y31513135D01*
X49384858Y31560754D01*
X49408667Y31608373D01*
X49265810Y30894087D02*
X49265810Y30989325D01*
X49289620Y31036944D01*
X49313429Y31060754D01*
X49384858Y31108373D01*
X49480096Y31132182D01*
X49670572Y31132182D01*
X49718191Y31108373D01*
X49742000Y31084563D01*
X49765810Y31036944D01*
X49765810Y30941706D01*
X49742000Y30894087D01*
X49718191Y30870278D01*
X49670572Y30846468D01*
X49551524Y30846468D01*
X49503905Y30870278D01*
X49480096Y30894087D01*
X49456286Y30941706D01*
X49456286Y31036944D01*
X49480096Y31084563D01*
X49503905Y31108373D01*
X49551524Y31132182D01*
X34581428Y16291429D02*
X34605238Y16267620D01*
X34676666Y16243810D01*
X34724285Y16243810D01*
X34795714Y16267620D01*
X34843333Y16315239D01*
X34867142Y16362858D01*
X34890952Y16458096D01*
X34890952Y16529524D01*
X34867142Y16624762D01*
X34843333Y16672381D01*
X34795714Y16720000D01*
X34724285Y16743810D01*
X34676666Y16743810D01*
X34605238Y16720000D01*
X34581428Y16696191D01*
X34105238Y16243810D02*
X34390952Y16243810D01*
X34248095Y16243810D02*
X34248095Y16743810D01*
X34295714Y16672381D01*
X34343333Y16624762D01*
X34390952Y16600953D01*
X33938571Y16743810D02*
X33629047Y16743810D01*
X33795714Y16553334D01*
X33724285Y16553334D01*
X33676666Y16529524D01*
X33652857Y16505715D01*
X33629047Y16458096D01*
X33629047Y16339048D01*
X33652857Y16291429D01*
X33676666Y16267620D01*
X33724285Y16243810D01*
X33867142Y16243810D01*
X33914761Y16267620D01*
X33938571Y16291429D01*
X35988571Y13241429D02*
X36012380Y13265239D01*
X36036190Y13336667D01*
X36036190Y13384286D01*
X36012380Y13455715D01*
X35964761Y13503334D01*
X35917142Y13527143D01*
X35821904Y13550953D01*
X35750476Y13550953D01*
X35655238Y13527143D01*
X35607619Y13503334D01*
X35560000Y13455715D01*
X35536190Y13384286D01*
X35536190Y13336667D01*
X35560000Y13265239D01*
X35583809Y13241429D01*
X36036190Y12765239D02*
X36036190Y13050953D01*
X36036190Y12908096D02*
X35536190Y12908096D01*
X35607619Y12955715D01*
X35655238Y13003334D01*
X35679047Y13050953D01*
X35583809Y12574762D02*
X35560000Y12550953D01*
X35536190Y12503334D01*
X35536190Y12384286D01*
X35560000Y12336667D01*
X35583809Y12312858D01*
X35631428Y12289048D01*
X35679047Y12289048D01*
X35750476Y12312858D01*
X36036190Y12598572D01*
X36036190Y12289048D01*
X27938571Y13241429D02*
X27962380Y13265239D01*
X27986190Y13336667D01*
X27986190Y13384286D01*
X27962380Y13455715D01*
X27914761Y13503334D01*
X27867142Y13527143D01*
X27771904Y13550953D01*
X27700476Y13550953D01*
X27605238Y13527143D01*
X27557619Y13503334D01*
X27510000Y13455715D01*
X27486190Y13384286D01*
X27486190Y13336667D01*
X27510000Y13265239D01*
X27533809Y13241429D01*
X27986190Y12765239D02*
X27986190Y13050953D01*
X27986190Y12908096D02*
X27486190Y12908096D01*
X27557619Y12955715D01*
X27605238Y13003334D01*
X27629047Y13050953D01*
X27986190Y12289048D02*
X27986190Y12574762D01*
X27986190Y12431905D02*
X27486190Y12431905D01*
X27557619Y12479524D01*
X27605238Y12527143D01*
X27629047Y12574762D01*
X43774591Y31798849D02*
X43798400Y31822659D01*
X43822210Y31894087D01*
X43822210Y31941706D01*
X43798400Y32013135D01*
X43750781Y32060754D01*
X43703162Y32084563D01*
X43607924Y32108373D01*
X43536496Y32108373D01*
X43441258Y32084563D01*
X43393639Y32060754D01*
X43346020Y32013135D01*
X43322210Y31941706D01*
X43322210Y31894087D01*
X43346020Y31822659D01*
X43369829Y31798849D01*
X43822210Y31322659D02*
X43822210Y31608373D01*
X43822210Y31465516D02*
X43322210Y31465516D01*
X43393639Y31513135D01*
X43441258Y31560754D01*
X43465067Y31608373D01*
X43322210Y31013135D02*
X43322210Y30965516D01*
X43346020Y30917897D01*
X43369829Y30894087D01*
X43417448Y30870278D01*
X43512686Y30846468D01*
X43631734Y30846468D01*
X43726972Y30870278D01*
X43774591Y30894087D01*
X43798400Y30917897D01*
X43822210Y30965516D01*
X43822210Y31013135D01*
X43798400Y31060754D01*
X43774591Y31084563D01*
X43726972Y31108373D01*
X43631734Y31132182D01*
X43512686Y31132182D01*
X43417448Y31108373D01*
X43369829Y31084563D01*
X43346020Y31060754D01*
X43322210Y31013135D01*
X39060693Y43055209D02*
X39084502Y43031400D01*
X39155931Y43007590D01*
X39203550Y43007590D01*
X39274979Y43031400D01*
X39322598Y43079019D01*
X39346407Y43126638D01*
X39370217Y43221876D01*
X39370217Y43293304D01*
X39346407Y43388542D01*
X39322598Y43436161D01*
X39274979Y43483780D01*
X39203550Y43507590D01*
X39155931Y43507590D01*
X39084502Y43483780D01*
X39060693Y43459971D01*
X38822598Y43007590D02*
X38727360Y43007590D01*
X38679740Y43031400D01*
X38655931Y43055209D01*
X38608312Y43126638D01*
X38584502Y43221876D01*
X38584502Y43412352D01*
X38608312Y43459971D01*
X38632121Y43483780D01*
X38679740Y43507590D01*
X38774979Y43507590D01*
X38822598Y43483780D01*
X38846407Y43459971D01*
X38870217Y43412352D01*
X38870217Y43293304D01*
X38846407Y43245685D01*
X38822598Y43221876D01*
X38774979Y43198066D01*
X38679740Y43198066D01*
X38632121Y43221876D01*
X38608312Y43245685D01*
X38584502Y43293304D01*
X46888571Y14153334D02*
X46912380Y14177143D01*
X46936190Y14248572D01*
X46936190Y14296191D01*
X46912380Y14367620D01*
X46864761Y14415239D01*
X46817142Y14439048D01*
X46721904Y14462858D01*
X46650476Y14462858D01*
X46555238Y14439048D01*
X46507619Y14415239D01*
X46460000Y14367620D01*
X46436190Y14296191D01*
X46436190Y14248572D01*
X46460000Y14177143D01*
X46483809Y14153334D01*
X46436190Y13986667D02*
X46436190Y13653334D01*
X46936190Y13867620D01*
X39060693Y40741269D02*
X39084502Y40717460D01*
X39155931Y40693650D01*
X39203550Y40693650D01*
X39274979Y40717460D01*
X39322598Y40765079D01*
X39346407Y40812698D01*
X39370217Y40907936D01*
X39370217Y40979364D01*
X39346407Y41074602D01*
X39322598Y41122221D01*
X39274979Y41169840D01*
X39203550Y41193650D01*
X39155931Y41193650D01*
X39084502Y41169840D01*
X39060693Y41146031D01*
X38632121Y41193650D02*
X38727360Y41193650D01*
X38774979Y41169840D01*
X38798788Y41146031D01*
X38846407Y41074602D01*
X38870217Y40979364D01*
X38870217Y40788888D01*
X38846407Y40741269D01*
X38822598Y40717460D01*
X38774979Y40693650D01*
X38679740Y40693650D01*
X38632121Y40717460D01*
X38608312Y40741269D01*
X38584502Y40788888D01*
X38584502Y40907936D01*
X38608312Y40955555D01*
X38632121Y40979364D01*
X38679740Y41003174D01*
X38774979Y41003174D01*
X38822598Y40979364D01*
X38846407Y40955555D01*
X38870217Y40907936D01*
X47038571Y19353334D02*
X47062380Y19377143D01*
X47086190Y19448572D01*
X47086190Y19496191D01*
X47062380Y19567620D01*
X47014761Y19615239D01*
X46967142Y19639048D01*
X46871904Y19662858D01*
X46800476Y19662858D01*
X46705238Y19639048D01*
X46657619Y19615239D01*
X46610000Y19567620D01*
X46586190Y19496191D01*
X46586190Y19448572D01*
X46610000Y19377143D01*
X46633809Y19353334D01*
X46586190Y18900953D02*
X46586190Y19139048D01*
X46824285Y19162858D01*
X46800476Y19139048D01*
X46776666Y19091429D01*
X46776666Y18972381D01*
X46800476Y18924762D01*
X46824285Y18900953D01*
X46871904Y18877143D01*
X46990952Y18877143D01*
X47038571Y18900953D01*
X47062380Y18924762D01*
X47086190Y18972381D01*
X47086190Y19091429D01*
X47062380Y19139048D01*
X47038571Y19162858D01*
X39060693Y38427329D02*
X39084502Y38403520D01*
X39155931Y38379710D01*
X39203550Y38379710D01*
X39274979Y38403520D01*
X39322598Y38451139D01*
X39346407Y38498758D01*
X39370217Y38593996D01*
X39370217Y38665424D01*
X39346407Y38760662D01*
X39322598Y38808281D01*
X39274979Y38855900D01*
X39203550Y38879710D01*
X39155931Y38879710D01*
X39084502Y38855900D01*
X39060693Y38832091D01*
X38632121Y38713043D02*
X38632121Y38379710D01*
X38751169Y38903520D02*
X38870217Y38546377D01*
X38560693Y38546377D01*
X39060693Y36113389D02*
X39084502Y36089580D01*
X39155931Y36065770D01*
X39203550Y36065770D01*
X39274979Y36089580D01*
X39322598Y36137199D01*
X39346407Y36184818D01*
X39370217Y36280056D01*
X39370217Y36351484D01*
X39346407Y36446722D01*
X39322598Y36494341D01*
X39274979Y36541960D01*
X39203550Y36565770D01*
X39155931Y36565770D01*
X39084502Y36541960D01*
X39060693Y36518151D01*
X38894026Y36565770D02*
X38584502Y36565770D01*
X38751169Y36375294D01*
X38679740Y36375294D01*
X38632121Y36351484D01*
X38608312Y36327675D01*
X38584502Y36280056D01*
X38584502Y36161008D01*
X38608312Y36113389D01*
X38632121Y36089580D01*
X38679740Y36065770D01*
X38822598Y36065770D01*
X38870217Y36089580D01*
X38894026Y36113389D01*
X39060693Y33799449D02*
X39084502Y33775640D01*
X39155931Y33751830D01*
X39203550Y33751830D01*
X39274979Y33775640D01*
X39322598Y33823259D01*
X39346407Y33870878D01*
X39370217Y33966116D01*
X39370217Y34037544D01*
X39346407Y34132782D01*
X39322598Y34180401D01*
X39274979Y34228020D01*
X39203550Y34251830D01*
X39155931Y34251830D01*
X39084502Y34228020D01*
X39060693Y34204211D01*
X38870217Y34204211D02*
X38846407Y34228020D01*
X38798788Y34251830D01*
X38679740Y34251830D01*
X38632121Y34228020D01*
X38608312Y34204211D01*
X38584502Y34156592D01*
X38584502Y34108973D01*
X38608312Y34037544D01*
X38894026Y33751830D01*
X38584502Y33751830D01*
D10*
X27410190Y27055191D02*
X27886380Y27055191D01*
X26886380Y27388524D02*
X27410190Y27055191D01*
X26886380Y26721858D01*
X26981619Y26436143D02*
X26934000Y26388524D01*
X26886380Y26293286D01*
X26886380Y26055191D01*
X26934000Y25959953D01*
X26981619Y25912334D01*
X27076857Y25864715D01*
X27172095Y25864715D01*
X27314952Y25912334D01*
X27886380Y26483762D01*
X27886380Y25864715D01*
X6238000Y35995200D02*
X6271333Y35895200D01*
X6304666Y35861867D01*
X6371333Y35828534D01*
X6471333Y35828534D01*
X6538000Y35861867D01*
X6571333Y35895200D01*
X6604666Y35961867D01*
X6604666Y36228534D01*
X5904666Y36228534D01*
X5904666Y35995200D01*
X5938000Y35928534D01*
X5971333Y35895200D01*
X6038000Y35861867D01*
X6104666Y35861867D01*
X6171333Y35895200D01*
X6204666Y35928534D01*
X6238000Y35995200D01*
X6238000Y36228534D01*
X5904666Y35628534D02*
X5904666Y35228534D01*
X6604666Y35428534D02*
X5904666Y35428534D01*
X6604666Y34628534D02*
X6604666Y35028534D01*
X6604666Y34828534D02*
X5904666Y34828534D01*
X6004666Y34895200D01*
X6071333Y34961867D01*
X6104666Y35028534D01*
D14*
X40836190Y15100953D02*
X41240952Y15100953D01*
X41288571Y15077143D01*
X41312380Y15053334D01*
X41336190Y15005715D01*
X41336190Y14910477D01*
X41312380Y14862858D01*
X41288571Y14839048D01*
X41240952Y14815239D01*
X40836190Y14815239D01*
X40836190Y14624762D02*
X40836190Y14315239D01*
X41026666Y14481905D01*
X41026666Y14410477D01*
X41050476Y14362858D01*
X41074285Y14339048D01*
X41121904Y14315239D01*
X41240952Y14315239D01*
X41288571Y14339048D01*
X41312380Y14362858D01*
X41336190Y14410477D01*
X41336190Y14553334D01*
X41312380Y14600953D01*
X41288571Y14624762D01*
D10*
X46423277Y41901278D02*
X46470896Y41853659D01*
X46613753Y41806040D01*
X46708991Y41806040D01*
X46851848Y41853659D01*
X46947086Y41948897D01*
X46994705Y42044135D01*
X47042324Y42234611D01*
X47042324Y42377468D01*
X46994705Y42567944D01*
X46947086Y42663182D01*
X46851848Y42758420D01*
X46708991Y42806040D01*
X46613753Y42806040D01*
X46470896Y42758420D01*
X46423277Y42710801D01*
X45470896Y41806040D02*
X46042324Y41806040D01*
X45756610Y41806040D02*
X45756610Y42806040D01*
X45851848Y42663182D01*
X45947086Y42567944D01*
X46042324Y42520325D01*
X44566134Y42806040D02*
X45042324Y42806040D01*
X45089943Y42329849D01*
X45042324Y42377468D01*
X44947086Y42425087D01*
X44708991Y42425087D01*
X44613753Y42377468D01*
X44566134Y42329849D01*
X44518515Y42234611D01*
X44518515Y41996516D01*
X44566134Y41901278D01*
X44613753Y41853659D01*
X44708991Y41806040D01*
X44947086Y41806040D01*
X45042324Y41853659D01*
X45089943Y41901278D01*
X46423277Y36821278D02*
X46470896Y36773659D01*
X46613753Y36726040D01*
X46708991Y36726040D01*
X46851848Y36773659D01*
X46947086Y36868897D01*
X46994705Y36964135D01*
X47042324Y37154611D01*
X47042324Y37297468D01*
X46994705Y37487944D01*
X46947086Y37583182D01*
X46851848Y37678420D01*
X46708991Y37726040D01*
X46613753Y37726040D01*
X46470896Y37678420D01*
X46423277Y37630801D01*
X45470896Y36726040D02*
X46042324Y36726040D01*
X45756610Y36726040D02*
X45756610Y37726040D01*
X45851848Y37583182D01*
X45947086Y37487944D01*
X46042324Y37440325D01*
X44613753Y37392706D02*
X44613753Y36726040D01*
X44851848Y37773659D02*
X45089943Y37059373D01*
X44470896Y37059373D01*
X29343333Y49547620D02*
X29343333Y48833334D01*
X29390952Y48690477D01*
X29486190Y48595239D01*
X29629047Y48547620D01*
X29724285Y48547620D01*
X28962380Y49547620D02*
X28343333Y49547620D01*
X28676666Y49166667D01*
X28533809Y49166667D01*
X28438571Y49119048D01*
X28390952Y49071429D01*
X28343333Y48976191D01*
X28343333Y48738096D01*
X28390952Y48642858D01*
X28438571Y48595239D01*
X28533809Y48547620D01*
X28819523Y48547620D01*
X28914761Y48595239D01*
X28962380Y48642858D01*
M02*
