G04 #@! TF.GenerationSoftware,KiCad,Pcbnew,(5.1.5-0-10_14)*
G04 #@! TF.CreationDate,2020-08-14T15:05:08-04:00*
G04 #@! TF.ProjectId,Raspberry-Pi-Hat,52617370-6265-4727-9279-2d50692d4861,rev?*
G04 #@! TF.SameCoordinates,Original*
G04 #@! TF.FileFunction,Soldermask,Top*
G04 #@! TF.FilePolarity,Negative*
%FSLAX46Y46*%
G04 Gerber Fmt 4.6, Leading zero omitted, Abs format (unit mm)*
G04 Created by KiCad (PCBNEW (5.1.5-0-10_14)) date 2020-08-14 15:05:08*
%MOMM*%
%LPD*%
G04 APERTURE LIST*
%ADD10C,0.100000*%
%ADD11C,2.800000*%
%ADD12R,2.800000X2.800000*%
%ADD13C,1.200000*%
%ADD14R,0.450000X0.950000*%
%ADD15R,2.000000X2.000000*%
%ADD16C,1.300000*%
%ADD17O,2.230000X1.930000*%
%ADD18R,2.230000X1.930000*%
%ADD19R,9.326000X13.570000*%
%ADD20R,1.060000X2.610000*%
%ADD21O,1.900000X1.900000*%
%ADD22R,1.900000X1.900000*%
%ADD23R,1.100000X1.000000*%
%ADD24R,1.260000X0.850000*%
%ADD25C,3.200000*%
G04 APERTURE END LIST*
D10*
X78546356Y-63817611D02*
X78546356Y-113817611D01*
X78546356Y-63817611D02*
G75*
G02X81546356Y-60817611I3000000J0D01*
G01*
X140546356Y-60817611D02*
X81546356Y-60817611D01*
X140546356Y-60817611D02*
G75*
G02X143546356Y-63817611I0J-3000000D01*
G01*
X143546351Y-113822847D02*
X143546356Y-63817611D01*
X81546356Y-116817611D02*
G75*
G02X78546356Y-113817611I0J3000000D01*
G01*
X81546356Y-116817611D02*
X140546356Y-116817611D01*
X143546351Y-113822847D02*
G75*
G02X140546356Y-116817611I-2999995J5236D01*
G01*
G36*
X124006465Y-96551300D02*
G01*
X124032674Y-96555188D01*
X124058377Y-96561626D01*
X124083325Y-96570553D01*
X124107277Y-96581881D01*
X124130004Y-96595503D01*
X124151286Y-96611287D01*
X124170919Y-96629081D01*
X124188713Y-96648714D01*
X124204497Y-96669996D01*
X124218119Y-96692723D01*
X124229447Y-96716675D01*
X124238374Y-96741623D01*
X124244812Y-96767326D01*
X124248700Y-96793535D01*
X124250000Y-96820000D01*
X124250000Y-100880000D01*
X124248700Y-100906465D01*
X124244812Y-100932674D01*
X124238374Y-100958377D01*
X124229447Y-100983325D01*
X124218119Y-101007277D01*
X124204497Y-101030004D01*
X124188713Y-101051286D01*
X124170919Y-101070919D01*
X124151286Y-101088713D01*
X124130004Y-101104497D01*
X124107277Y-101118119D01*
X124083325Y-101129447D01*
X124058377Y-101138374D01*
X124032674Y-101144812D01*
X124006465Y-101148700D01*
X123980000Y-101150000D01*
X121820000Y-101150000D01*
X121793535Y-101148700D01*
X121767326Y-101144812D01*
X121741623Y-101138374D01*
X121716675Y-101129447D01*
X121692723Y-101118119D01*
X121669996Y-101104497D01*
X121648714Y-101088713D01*
X121629081Y-101070919D01*
X121611287Y-101051286D01*
X121595503Y-101030004D01*
X121581881Y-101007277D01*
X121570553Y-100983325D01*
X121561626Y-100958377D01*
X121555188Y-100932674D01*
X121551300Y-100906465D01*
X121550000Y-100880000D01*
X121550000Y-96820000D01*
X121551300Y-96793535D01*
X121555188Y-96767326D01*
X121561626Y-96741623D01*
X121570553Y-96716675D01*
X121581881Y-96692723D01*
X121595503Y-96669996D01*
X121611287Y-96648714D01*
X121629081Y-96629081D01*
X121648714Y-96611287D01*
X121669996Y-96595503D01*
X121692723Y-96581881D01*
X121716675Y-96570553D01*
X121741623Y-96561626D01*
X121767326Y-96555188D01*
X121793535Y-96551300D01*
X121820000Y-96550000D01*
X123980000Y-96550000D01*
X124006465Y-96551300D01*
G37*
G36*
X124006465Y-88151300D02*
G01*
X124032674Y-88155188D01*
X124058377Y-88161626D01*
X124083325Y-88170553D01*
X124107277Y-88181881D01*
X124130004Y-88195503D01*
X124151286Y-88211287D01*
X124170919Y-88229081D01*
X124188713Y-88248714D01*
X124204497Y-88269996D01*
X124218119Y-88292723D01*
X124229447Y-88316675D01*
X124238374Y-88341623D01*
X124244812Y-88367326D01*
X124248700Y-88393535D01*
X124250000Y-88420000D01*
X124250000Y-92480000D01*
X124248700Y-92506465D01*
X124244812Y-92532674D01*
X124238374Y-92558377D01*
X124229447Y-92583325D01*
X124218119Y-92607277D01*
X124204497Y-92630004D01*
X124188713Y-92651286D01*
X124170919Y-92670919D01*
X124151286Y-92688713D01*
X124130004Y-92704497D01*
X124107277Y-92718119D01*
X124083325Y-92729447D01*
X124058377Y-92738374D01*
X124032674Y-92744812D01*
X124006465Y-92748700D01*
X123980000Y-92750000D01*
X121820000Y-92750000D01*
X121793535Y-92748700D01*
X121767326Y-92744812D01*
X121741623Y-92738374D01*
X121716675Y-92729447D01*
X121692723Y-92718119D01*
X121669996Y-92704497D01*
X121648714Y-92688713D01*
X121629081Y-92670919D01*
X121611287Y-92651286D01*
X121595503Y-92630004D01*
X121581881Y-92607277D01*
X121570553Y-92583325D01*
X121561626Y-92558377D01*
X121555188Y-92532674D01*
X121551300Y-92506465D01*
X121550000Y-92480000D01*
X121550000Y-88420000D01*
X121551300Y-88393535D01*
X121555188Y-88367326D01*
X121561626Y-88341623D01*
X121570553Y-88316675D01*
X121581881Y-88292723D01*
X121595503Y-88269996D01*
X121611287Y-88248714D01*
X121629081Y-88229081D01*
X121648714Y-88211287D01*
X121669996Y-88195503D01*
X121692723Y-88181881D01*
X121716675Y-88170553D01*
X121741623Y-88161626D01*
X121767326Y-88155188D01*
X121793535Y-88151300D01*
X121820000Y-88150000D01*
X123980000Y-88150000D01*
X124006465Y-88151300D01*
G37*
G36*
X109544603Y-76054963D02*
G01*
X109564018Y-76057843D01*
X109583057Y-76062612D01*
X109601537Y-76069224D01*
X109619279Y-76077616D01*
X109636114Y-76087706D01*
X109651879Y-76099398D01*
X109666421Y-76112579D01*
X109679602Y-76127121D01*
X109691294Y-76142886D01*
X109701384Y-76159721D01*
X109709776Y-76177463D01*
X109716388Y-76195943D01*
X109721157Y-76214982D01*
X109724037Y-76234397D01*
X109725000Y-76254000D01*
X109725000Y-76654000D01*
X109724037Y-76673603D01*
X109721157Y-76693018D01*
X109716388Y-76712057D01*
X109709776Y-76730537D01*
X109701384Y-76748279D01*
X109691294Y-76765114D01*
X109679602Y-76780879D01*
X109666421Y-76795421D01*
X109651879Y-76808602D01*
X109636114Y-76820294D01*
X109619279Y-76830384D01*
X109601537Y-76838776D01*
X109583057Y-76845388D01*
X109564018Y-76850157D01*
X109544603Y-76853037D01*
X109525000Y-76854000D01*
X107775000Y-76854000D01*
X107755397Y-76853037D01*
X107735982Y-76850157D01*
X107716943Y-76845388D01*
X107698463Y-76838776D01*
X107680721Y-76830384D01*
X107663886Y-76820294D01*
X107648121Y-76808602D01*
X107633579Y-76795421D01*
X107620398Y-76780879D01*
X107608706Y-76765114D01*
X107598616Y-76748279D01*
X107590224Y-76730537D01*
X107583612Y-76712057D01*
X107578843Y-76693018D01*
X107575963Y-76673603D01*
X107575000Y-76654000D01*
X107575000Y-76254000D01*
X107575963Y-76234397D01*
X107578843Y-76214982D01*
X107583612Y-76195943D01*
X107590224Y-76177463D01*
X107598616Y-76159721D01*
X107608706Y-76142886D01*
X107620398Y-76127121D01*
X107633579Y-76112579D01*
X107648121Y-76099398D01*
X107663886Y-76087706D01*
X107680721Y-76077616D01*
X107698463Y-76069224D01*
X107716943Y-76062612D01*
X107735982Y-76057843D01*
X107755397Y-76054963D01*
X107775000Y-76054000D01*
X109525000Y-76054000D01*
X109544603Y-76054963D01*
G37*
G36*
X109544603Y-74784963D02*
G01*
X109564018Y-74787843D01*
X109583057Y-74792612D01*
X109601537Y-74799224D01*
X109619279Y-74807616D01*
X109636114Y-74817706D01*
X109651879Y-74829398D01*
X109666421Y-74842579D01*
X109679602Y-74857121D01*
X109691294Y-74872886D01*
X109701384Y-74889721D01*
X109709776Y-74907463D01*
X109716388Y-74925943D01*
X109721157Y-74944982D01*
X109724037Y-74964397D01*
X109725000Y-74984000D01*
X109725000Y-75384000D01*
X109724037Y-75403603D01*
X109721157Y-75423018D01*
X109716388Y-75442057D01*
X109709776Y-75460537D01*
X109701384Y-75478279D01*
X109691294Y-75495114D01*
X109679602Y-75510879D01*
X109666421Y-75525421D01*
X109651879Y-75538602D01*
X109636114Y-75550294D01*
X109619279Y-75560384D01*
X109601537Y-75568776D01*
X109583057Y-75575388D01*
X109564018Y-75580157D01*
X109544603Y-75583037D01*
X109525000Y-75584000D01*
X107775000Y-75584000D01*
X107755397Y-75583037D01*
X107735982Y-75580157D01*
X107716943Y-75575388D01*
X107698463Y-75568776D01*
X107680721Y-75560384D01*
X107663886Y-75550294D01*
X107648121Y-75538602D01*
X107633579Y-75525421D01*
X107620398Y-75510879D01*
X107608706Y-75495114D01*
X107598616Y-75478279D01*
X107590224Y-75460537D01*
X107583612Y-75442057D01*
X107578843Y-75423018D01*
X107575963Y-75403603D01*
X107575000Y-75384000D01*
X107575000Y-74984000D01*
X107575963Y-74964397D01*
X107578843Y-74944982D01*
X107583612Y-74925943D01*
X107590224Y-74907463D01*
X107598616Y-74889721D01*
X107608706Y-74872886D01*
X107620398Y-74857121D01*
X107633579Y-74842579D01*
X107648121Y-74829398D01*
X107663886Y-74817706D01*
X107680721Y-74807616D01*
X107698463Y-74799224D01*
X107716943Y-74792612D01*
X107735982Y-74787843D01*
X107755397Y-74784963D01*
X107775000Y-74784000D01*
X109525000Y-74784000D01*
X109544603Y-74784963D01*
G37*
G36*
X109544603Y-73514963D02*
G01*
X109564018Y-73517843D01*
X109583057Y-73522612D01*
X109601537Y-73529224D01*
X109619279Y-73537616D01*
X109636114Y-73547706D01*
X109651879Y-73559398D01*
X109666421Y-73572579D01*
X109679602Y-73587121D01*
X109691294Y-73602886D01*
X109701384Y-73619721D01*
X109709776Y-73637463D01*
X109716388Y-73655943D01*
X109721157Y-73674982D01*
X109724037Y-73694397D01*
X109725000Y-73714000D01*
X109725000Y-74114000D01*
X109724037Y-74133603D01*
X109721157Y-74153018D01*
X109716388Y-74172057D01*
X109709776Y-74190537D01*
X109701384Y-74208279D01*
X109691294Y-74225114D01*
X109679602Y-74240879D01*
X109666421Y-74255421D01*
X109651879Y-74268602D01*
X109636114Y-74280294D01*
X109619279Y-74290384D01*
X109601537Y-74298776D01*
X109583057Y-74305388D01*
X109564018Y-74310157D01*
X109544603Y-74313037D01*
X109525000Y-74314000D01*
X107775000Y-74314000D01*
X107755397Y-74313037D01*
X107735982Y-74310157D01*
X107716943Y-74305388D01*
X107698463Y-74298776D01*
X107680721Y-74290384D01*
X107663886Y-74280294D01*
X107648121Y-74268602D01*
X107633579Y-74255421D01*
X107620398Y-74240879D01*
X107608706Y-74225114D01*
X107598616Y-74208279D01*
X107590224Y-74190537D01*
X107583612Y-74172057D01*
X107578843Y-74153018D01*
X107575963Y-74133603D01*
X107575000Y-74114000D01*
X107575000Y-73714000D01*
X107575963Y-73694397D01*
X107578843Y-73674982D01*
X107583612Y-73655943D01*
X107590224Y-73637463D01*
X107598616Y-73619721D01*
X107608706Y-73602886D01*
X107620398Y-73587121D01*
X107633579Y-73572579D01*
X107648121Y-73559398D01*
X107663886Y-73547706D01*
X107680721Y-73537616D01*
X107698463Y-73529224D01*
X107716943Y-73522612D01*
X107735982Y-73517843D01*
X107755397Y-73514963D01*
X107775000Y-73514000D01*
X109525000Y-73514000D01*
X109544603Y-73514963D01*
G37*
G36*
X109544603Y-72244963D02*
G01*
X109564018Y-72247843D01*
X109583057Y-72252612D01*
X109601537Y-72259224D01*
X109619279Y-72267616D01*
X109636114Y-72277706D01*
X109651879Y-72289398D01*
X109666421Y-72302579D01*
X109679602Y-72317121D01*
X109691294Y-72332886D01*
X109701384Y-72349721D01*
X109709776Y-72367463D01*
X109716388Y-72385943D01*
X109721157Y-72404982D01*
X109724037Y-72424397D01*
X109725000Y-72444000D01*
X109725000Y-72844000D01*
X109724037Y-72863603D01*
X109721157Y-72883018D01*
X109716388Y-72902057D01*
X109709776Y-72920537D01*
X109701384Y-72938279D01*
X109691294Y-72955114D01*
X109679602Y-72970879D01*
X109666421Y-72985421D01*
X109651879Y-72998602D01*
X109636114Y-73010294D01*
X109619279Y-73020384D01*
X109601537Y-73028776D01*
X109583057Y-73035388D01*
X109564018Y-73040157D01*
X109544603Y-73043037D01*
X109525000Y-73044000D01*
X107775000Y-73044000D01*
X107755397Y-73043037D01*
X107735982Y-73040157D01*
X107716943Y-73035388D01*
X107698463Y-73028776D01*
X107680721Y-73020384D01*
X107663886Y-73010294D01*
X107648121Y-72998602D01*
X107633579Y-72985421D01*
X107620398Y-72970879D01*
X107608706Y-72955114D01*
X107598616Y-72938279D01*
X107590224Y-72920537D01*
X107583612Y-72902057D01*
X107578843Y-72883018D01*
X107575963Y-72863603D01*
X107575000Y-72844000D01*
X107575000Y-72444000D01*
X107575963Y-72424397D01*
X107578843Y-72404982D01*
X107583612Y-72385943D01*
X107590224Y-72367463D01*
X107598616Y-72349721D01*
X107608706Y-72332886D01*
X107620398Y-72317121D01*
X107633579Y-72302579D01*
X107648121Y-72289398D01*
X107663886Y-72277706D01*
X107680721Y-72267616D01*
X107698463Y-72259224D01*
X107716943Y-72252612D01*
X107735982Y-72247843D01*
X107755397Y-72244963D01*
X107775000Y-72244000D01*
X109525000Y-72244000D01*
X109544603Y-72244963D01*
G37*
G36*
X114494603Y-72244963D02*
G01*
X114514018Y-72247843D01*
X114533057Y-72252612D01*
X114551537Y-72259224D01*
X114569279Y-72267616D01*
X114586114Y-72277706D01*
X114601879Y-72289398D01*
X114616421Y-72302579D01*
X114629602Y-72317121D01*
X114641294Y-72332886D01*
X114651384Y-72349721D01*
X114659776Y-72367463D01*
X114666388Y-72385943D01*
X114671157Y-72404982D01*
X114674037Y-72424397D01*
X114675000Y-72444000D01*
X114675000Y-72844000D01*
X114674037Y-72863603D01*
X114671157Y-72883018D01*
X114666388Y-72902057D01*
X114659776Y-72920537D01*
X114651384Y-72938279D01*
X114641294Y-72955114D01*
X114629602Y-72970879D01*
X114616421Y-72985421D01*
X114601879Y-72998602D01*
X114586114Y-73010294D01*
X114569279Y-73020384D01*
X114551537Y-73028776D01*
X114533057Y-73035388D01*
X114514018Y-73040157D01*
X114494603Y-73043037D01*
X114475000Y-73044000D01*
X112725000Y-73044000D01*
X112705397Y-73043037D01*
X112685982Y-73040157D01*
X112666943Y-73035388D01*
X112648463Y-73028776D01*
X112630721Y-73020384D01*
X112613886Y-73010294D01*
X112598121Y-72998602D01*
X112583579Y-72985421D01*
X112570398Y-72970879D01*
X112558706Y-72955114D01*
X112548616Y-72938279D01*
X112540224Y-72920537D01*
X112533612Y-72902057D01*
X112528843Y-72883018D01*
X112525963Y-72863603D01*
X112525000Y-72844000D01*
X112525000Y-72444000D01*
X112525963Y-72424397D01*
X112528843Y-72404982D01*
X112533612Y-72385943D01*
X112540224Y-72367463D01*
X112548616Y-72349721D01*
X112558706Y-72332886D01*
X112570398Y-72317121D01*
X112583579Y-72302579D01*
X112598121Y-72289398D01*
X112613886Y-72277706D01*
X112630721Y-72267616D01*
X112648463Y-72259224D01*
X112666943Y-72252612D01*
X112685982Y-72247843D01*
X112705397Y-72244963D01*
X112725000Y-72244000D01*
X114475000Y-72244000D01*
X114494603Y-72244963D01*
G37*
G36*
X114494603Y-73514963D02*
G01*
X114514018Y-73517843D01*
X114533057Y-73522612D01*
X114551537Y-73529224D01*
X114569279Y-73537616D01*
X114586114Y-73547706D01*
X114601879Y-73559398D01*
X114616421Y-73572579D01*
X114629602Y-73587121D01*
X114641294Y-73602886D01*
X114651384Y-73619721D01*
X114659776Y-73637463D01*
X114666388Y-73655943D01*
X114671157Y-73674982D01*
X114674037Y-73694397D01*
X114675000Y-73714000D01*
X114675000Y-74114000D01*
X114674037Y-74133603D01*
X114671157Y-74153018D01*
X114666388Y-74172057D01*
X114659776Y-74190537D01*
X114651384Y-74208279D01*
X114641294Y-74225114D01*
X114629602Y-74240879D01*
X114616421Y-74255421D01*
X114601879Y-74268602D01*
X114586114Y-74280294D01*
X114569279Y-74290384D01*
X114551537Y-74298776D01*
X114533057Y-74305388D01*
X114514018Y-74310157D01*
X114494603Y-74313037D01*
X114475000Y-74314000D01*
X112725000Y-74314000D01*
X112705397Y-74313037D01*
X112685982Y-74310157D01*
X112666943Y-74305388D01*
X112648463Y-74298776D01*
X112630721Y-74290384D01*
X112613886Y-74280294D01*
X112598121Y-74268602D01*
X112583579Y-74255421D01*
X112570398Y-74240879D01*
X112558706Y-74225114D01*
X112548616Y-74208279D01*
X112540224Y-74190537D01*
X112533612Y-74172057D01*
X112528843Y-74153018D01*
X112525963Y-74133603D01*
X112525000Y-74114000D01*
X112525000Y-73714000D01*
X112525963Y-73694397D01*
X112528843Y-73674982D01*
X112533612Y-73655943D01*
X112540224Y-73637463D01*
X112548616Y-73619721D01*
X112558706Y-73602886D01*
X112570398Y-73587121D01*
X112583579Y-73572579D01*
X112598121Y-73559398D01*
X112613886Y-73547706D01*
X112630721Y-73537616D01*
X112648463Y-73529224D01*
X112666943Y-73522612D01*
X112685982Y-73517843D01*
X112705397Y-73514963D01*
X112725000Y-73514000D01*
X114475000Y-73514000D01*
X114494603Y-73514963D01*
G37*
G36*
X114494603Y-74784963D02*
G01*
X114514018Y-74787843D01*
X114533057Y-74792612D01*
X114551537Y-74799224D01*
X114569279Y-74807616D01*
X114586114Y-74817706D01*
X114601879Y-74829398D01*
X114616421Y-74842579D01*
X114629602Y-74857121D01*
X114641294Y-74872886D01*
X114651384Y-74889721D01*
X114659776Y-74907463D01*
X114666388Y-74925943D01*
X114671157Y-74944982D01*
X114674037Y-74964397D01*
X114675000Y-74984000D01*
X114675000Y-75384000D01*
X114674037Y-75403603D01*
X114671157Y-75423018D01*
X114666388Y-75442057D01*
X114659776Y-75460537D01*
X114651384Y-75478279D01*
X114641294Y-75495114D01*
X114629602Y-75510879D01*
X114616421Y-75525421D01*
X114601879Y-75538602D01*
X114586114Y-75550294D01*
X114569279Y-75560384D01*
X114551537Y-75568776D01*
X114533057Y-75575388D01*
X114514018Y-75580157D01*
X114494603Y-75583037D01*
X114475000Y-75584000D01*
X112725000Y-75584000D01*
X112705397Y-75583037D01*
X112685982Y-75580157D01*
X112666943Y-75575388D01*
X112648463Y-75568776D01*
X112630721Y-75560384D01*
X112613886Y-75550294D01*
X112598121Y-75538602D01*
X112583579Y-75525421D01*
X112570398Y-75510879D01*
X112558706Y-75495114D01*
X112548616Y-75478279D01*
X112540224Y-75460537D01*
X112533612Y-75442057D01*
X112528843Y-75423018D01*
X112525963Y-75403603D01*
X112525000Y-75384000D01*
X112525000Y-74984000D01*
X112525963Y-74964397D01*
X112528843Y-74944982D01*
X112533612Y-74925943D01*
X112540224Y-74907463D01*
X112548616Y-74889721D01*
X112558706Y-74872886D01*
X112570398Y-74857121D01*
X112583579Y-74842579D01*
X112598121Y-74829398D01*
X112613886Y-74817706D01*
X112630721Y-74807616D01*
X112648463Y-74799224D01*
X112666943Y-74792612D01*
X112685982Y-74787843D01*
X112705397Y-74784963D01*
X112725000Y-74784000D01*
X114475000Y-74784000D01*
X114494603Y-74784963D01*
G37*
G36*
X114494603Y-76054963D02*
G01*
X114514018Y-76057843D01*
X114533057Y-76062612D01*
X114551537Y-76069224D01*
X114569279Y-76077616D01*
X114586114Y-76087706D01*
X114601879Y-76099398D01*
X114616421Y-76112579D01*
X114629602Y-76127121D01*
X114641294Y-76142886D01*
X114651384Y-76159721D01*
X114659776Y-76177463D01*
X114666388Y-76195943D01*
X114671157Y-76214982D01*
X114674037Y-76234397D01*
X114675000Y-76254000D01*
X114675000Y-76654000D01*
X114674037Y-76673603D01*
X114671157Y-76693018D01*
X114666388Y-76712057D01*
X114659776Y-76730537D01*
X114651384Y-76748279D01*
X114641294Y-76765114D01*
X114629602Y-76780879D01*
X114616421Y-76795421D01*
X114601879Y-76808602D01*
X114586114Y-76820294D01*
X114569279Y-76830384D01*
X114551537Y-76838776D01*
X114533057Y-76845388D01*
X114514018Y-76850157D01*
X114494603Y-76853037D01*
X114475000Y-76854000D01*
X112725000Y-76854000D01*
X112705397Y-76853037D01*
X112685982Y-76850157D01*
X112666943Y-76845388D01*
X112648463Y-76838776D01*
X112630721Y-76830384D01*
X112613886Y-76820294D01*
X112598121Y-76808602D01*
X112583579Y-76795421D01*
X112570398Y-76780879D01*
X112558706Y-76765114D01*
X112548616Y-76748279D01*
X112540224Y-76730537D01*
X112533612Y-76712057D01*
X112528843Y-76693018D01*
X112525963Y-76673603D01*
X112525000Y-76654000D01*
X112525000Y-76254000D01*
X112525963Y-76234397D01*
X112528843Y-76214982D01*
X112533612Y-76195943D01*
X112540224Y-76177463D01*
X112548616Y-76159721D01*
X112558706Y-76142886D01*
X112570398Y-76127121D01*
X112583579Y-76112579D01*
X112598121Y-76099398D01*
X112613886Y-76087706D01*
X112630721Y-76077616D01*
X112648463Y-76069224D01*
X112666943Y-76062612D01*
X112685982Y-76057843D01*
X112705397Y-76054963D01*
X112725000Y-76054000D01*
X114475000Y-76054000D01*
X114494603Y-76054963D01*
G37*
D11*
X82905600Y-104851200D03*
X82905600Y-99771200D03*
X82905600Y-94691200D03*
D12*
X82905600Y-89611200D03*
D11*
X139532360Y-72943720D03*
D12*
X139532360Y-78023720D03*
D11*
X125730000Y-113030000D03*
D12*
X120650000Y-113030000D03*
D11*
X110490000Y-113030000D03*
X105410000Y-113030000D03*
X100330000Y-113030000D03*
D12*
X95250000Y-113030000D03*
D13*
X93883400Y-84251800D03*
X95783400Y-84251800D03*
D14*
X133649020Y-104340060D03*
X134149020Y-104340060D03*
X134649020Y-104340060D03*
X135149020Y-104340060D03*
X135149020Y-107440060D03*
X134649020Y-107440060D03*
X134149020Y-107440060D03*
X133649020Y-107440060D03*
D10*
G36*
X137904189Y-103862113D02*
G01*
X137932678Y-103866339D01*
X137960615Y-103873337D01*
X137987732Y-103883040D01*
X138013767Y-103895353D01*
X138038470Y-103910160D01*
X138061603Y-103927316D01*
X138082943Y-103946657D01*
X138102284Y-103967997D01*
X138119440Y-103991130D01*
X138134247Y-104015833D01*
X138146560Y-104041868D01*
X138156263Y-104068985D01*
X138163261Y-104096922D01*
X138167487Y-104125411D01*
X138168900Y-104154177D01*
X138168900Y-105167223D01*
X138167487Y-105195989D01*
X138163261Y-105224478D01*
X138156263Y-105252415D01*
X138146560Y-105279532D01*
X138134247Y-105305567D01*
X138119440Y-105330270D01*
X138102284Y-105353403D01*
X138082943Y-105374743D01*
X138061603Y-105394084D01*
X138038470Y-105411240D01*
X138013767Y-105426047D01*
X137987732Y-105438360D01*
X137960615Y-105448063D01*
X137932678Y-105455061D01*
X137904189Y-105459287D01*
X137875423Y-105460700D01*
X137112377Y-105460700D01*
X137083611Y-105459287D01*
X137055122Y-105455061D01*
X137027185Y-105448063D01*
X137000068Y-105438360D01*
X136974033Y-105426047D01*
X136949330Y-105411240D01*
X136926197Y-105394084D01*
X136904857Y-105374743D01*
X136885516Y-105353403D01*
X136868360Y-105330270D01*
X136853553Y-105305567D01*
X136841240Y-105279532D01*
X136831537Y-105252415D01*
X136824539Y-105224478D01*
X136820313Y-105195989D01*
X136818900Y-105167223D01*
X136818900Y-104154177D01*
X136820313Y-104125411D01*
X136824539Y-104096922D01*
X136831537Y-104068985D01*
X136841240Y-104041868D01*
X136853553Y-104015833D01*
X136868360Y-103991130D01*
X136885516Y-103967997D01*
X136904857Y-103946657D01*
X136926197Y-103927316D01*
X136949330Y-103910160D01*
X136974033Y-103895353D01*
X137000068Y-103883040D01*
X137027185Y-103873337D01*
X137055122Y-103866339D01*
X137083611Y-103862113D01*
X137112377Y-103860700D01*
X137875423Y-103860700D01*
X137904189Y-103862113D01*
G37*
G36*
X139954189Y-103862113D02*
G01*
X139982678Y-103866339D01*
X140010615Y-103873337D01*
X140037732Y-103883040D01*
X140063767Y-103895353D01*
X140088470Y-103910160D01*
X140111603Y-103927316D01*
X140132943Y-103946657D01*
X140152284Y-103967997D01*
X140169440Y-103991130D01*
X140184247Y-104015833D01*
X140196560Y-104041868D01*
X140206263Y-104068985D01*
X140213261Y-104096922D01*
X140217487Y-104125411D01*
X140218900Y-104154177D01*
X140218900Y-105167223D01*
X140217487Y-105195989D01*
X140213261Y-105224478D01*
X140206263Y-105252415D01*
X140196560Y-105279532D01*
X140184247Y-105305567D01*
X140169440Y-105330270D01*
X140152284Y-105353403D01*
X140132943Y-105374743D01*
X140111603Y-105394084D01*
X140088470Y-105411240D01*
X140063767Y-105426047D01*
X140037732Y-105438360D01*
X140010615Y-105448063D01*
X139982678Y-105455061D01*
X139954189Y-105459287D01*
X139925423Y-105460700D01*
X139162377Y-105460700D01*
X139133611Y-105459287D01*
X139105122Y-105455061D01*
X139077185Y-105448063D01*
X139050068Y-105438360D01*
X139024033Y-105426047D01*
X138999330Y-105411240D01*
X138976197Y-105394084D01*
X138954857Y-105374743D01*
X138935516Y-105353403D01*
X138918360Y-105330270D01*
X138903553Y-105305567D01*
X138891240Y-105279532D01*
X138881537Y-105252415D01*
X138874539Y-105224478D01*
X138870313Y-105195989D01*
X138868900Y-105167223D01*
X138868900Y-104154177D01*
X138870313Y-104125411D01*
X138874539Y-104096922D01*
X138881537Y-104068985D01*
X138891240Y-104041868D01*
X138903553Y-104015833D01*
X138918360Y-103991130D01*
X138935516Y-103967997D01*
X138954857Y-103946657D01*
X138976197Y-103927316D01*
X138999330Y-103910160D01*
X139024033Y-103895353D01*
X139050068Y-103883040D01*
X139077185Y-103873337D01*
X139105122Y-103866339D01*
X139133611Y-103862113D01*
X139162377Y-103860700D01*
X139925423Y-103860700D01*
X139954189Y-103862113D01*
G37*
G36*
X133741129Y-101027473D02*
G01*
X133769618Y-101031699D01*
X133797555Y-101038697D01*
X133824672Y-101048400D01*
X133850707Y-101060713D01*
X133875410Y-101075520D01*
X133898543Y-101092676D01*
X133919883Y-101112017D01*
X133939224Y-101133357D01*
X133956380Y-101156490D01*
X133971187Y-101181193D01*
X133983500Y-101207228D01*
X133993203Y-101234345D01*
X134000201Y-101262282D01*
X134004427Y-101290771D01*
X134005840Y-101319537D01*
X134005840Y-102332583D01*
X134004427Y-102361349D01*
X134000201Y-102389838D01*
X133993203Y-102417775D01*
X133983500Y-102444892D01*
X133971187Y-102470927D01*
X133956380Y-102495630D01*
X133939224Y-102518763D01*
X133919883Y-102540103D01*
X133898543Y-102559444D01*
X133875410Y-102576600D01*
X133850707Y-102591407D01*
X133824672Y-102603720D01*
X133797555Y-102613423D01*
X133769618Y-102620421D01*
X133741129Y-102624647D01*
X133712363Y-102626060D01*
X132949317Y-102626060D01*
X132920551Y-102624647D01*
X132892062Y-102620421D01*
X132864125Y-102613423D01*
X132837008Y-102603720D01*
X132810973Y-102591407D01*
X132786270Y-102576600D01*
X132763137Y-102559444D01*
X132741797Y-102540103D01*
X132722456Y-102518763D01*
X132705300Y-102495630D01*
X132690493Y-102470927D01*
X132678180Y-102444892D01*
X132668477Y-102417775D01*
X132661479Y-102389838D01*
X132657253Y-102361349D01*
X132655840Y-102332583D01*
X132655840Y-101319537D01*
X132657253Y-101290771D01*
X132661479Y-101262282D01*
X132668477Y-101234345D01*
X132678180Y-101207228D01*
X132690493Y-101181193D01*
X132705300Y-101156490D01*
X132722456Y-101133357D01*
X132741797Y-101112017D01*
X132763137Y-101092676D01*
X132786270Y-101075520D01*
X132810973Y-101060713D01*
X132837008Y-101048400D01*
X132864125Y-101038697D01*
X132892062Y-101031699D01*
X132920551Y-101027473D01*
X132949317Y-101026060D01*
X133712363Y-101026060D01*
X133741129Y-101027473D01*
G37*
G36*
X135791129Y-101027473D02*
G01*
X135819618Y-101031699D01*
X135847555Y-101038697D01*
X135874672Y-101048400D01*
X135900707Y-101060713D01*
X135925410Y-101075520D01*
X135948543Y-101092676D01*
X135969883Y-101112017D01*
X135989224Y-101133357D01*
X136006380Y-101156490D01*
X136021187Y-101181193D01*
X136033500Y-101207228D01*
X136043203Y-101234345D01*
X136050201Y-101262282D01*
X136054427Y-101290771D01*
X136055840Y-101319537D01*
X136055840Y-102332583D01*
X136054427Y-102361349D01*
X136050201Y-102389838D01*
X136043203Y-102417775D01*
X136033500Y-102444892D01*
X136021187Y-102470927D01*
X136006380Y-102495630D01*
X135989224Y-102518763D01*
X135969883Y-102540103D01*
X135948543Y-102559444D01*
X135925410Y-102576600D01*
X135900707Y-102591407D01*
X135874672Y-102603720D01*
X135847555Y-102613423D01*
X135819618Y-102620421D01*
X135791129Y-102624647D01*
X135762363Y-102626060D01*
X134999317Y-102626060D01*
X134970551Y-102624647D01*
X134942062Y-102620421D01*
X134914125Y-102613423D01*
X134887008Y-102603720D01*
X134860973Y-102591407D01*
X134836270Y-102576600D01*
X134813137Y-102559444D01*
X134791797Y-102540103D01*
X134772456Y-102518763D01*
X134755300Y-102495630D01*
X134740493Y-102470927D01*
X134728180Y-102444892D01*
X134718477Y-102417775D01*
X134711479Y-102389838D01*
X134707253Y-102361349D01*
X134705840Y-102332583D01*
X134705840Y-101319537D01*
X134707253Y-101290771D01*
X134711479Y-101262282D01*
X134718477Y-101234345D01*
X134728180Y-101207228D01*
X134740493Y-101181193D01*
X134755300Y-101156490D01*
X134772456Y-101133357D01*
X134791797Y-101112017D01*
X134813137Y-101092676D01*
X134836270Y-101075520D01*
X134860973Y-101060713D01*
X134887008Y-101048400D01*
X134914125Y-101038697D01*
X134942062Y-101031699D01*
X134970551Y-101027473D01*
X134999317Y-101026060D01*
X135762363Y-101026060D01*
X135791129Y-101027473D01*
G37*
G36*
X137797509Y-106882173D02*
G01*
X137825998Y-106886399D01*
X137853935Y-106893397D01*
X137881052Y-106903100D01*
X137907087Y-106915413D01*
X137931790Y-106930220D01*
X137954923Y-106947376D01*
X137976263Y-106966717D01*
X137995604Y-106988057D01*
X138012760Y-107011190D01*
X138027567Y-107035893D01*
X138039880Y-107061928D01*
X138049583Y-107089045D01*
X138056581Y-107116982D01*
X138060807Y-107145471D01*
X138062220Y-107174237D01*
X138062220Y-108187283D01*
X138060807Y-108216049D01*
X138056581Y-108244538D01*
X138049583Y-108272475D01*
X138039880Y-108299592D01*
X138027567Y-108325627D01*
X138012760Y-108350330D01*
X137995604Y-108373463D01*
X137976263Y-108394803D01*
X137954923Y-108414144D01*
X137931790Y-108431300D01*
X137907087Y-108446107D01*
X137881052Y-108458420D01*
X137853935Y-108468123D01*
X137825998Y-108475121D01*
X137797509Y-108479347D01*
X137768743Y-108480760D01*
X137005697Y-108480760D01*
X136976931Y-108479347D01*
X136948442Y-108475121D01*
X136920505Y-108468123D01*
X136893388Y-108458420D01*
X136867353Y-108446107D01*
X136842650Y-108431300D01*
X136819517Y-108414144D01*
X136798177Y-108394803D01*
X136778836Y-108373463D01*
X136761680Y-108350330D01*
X136746873Y-108325627D01*
X136734560Y-108299592D01*
X136724857Y-108272475D01*
X136717859Y-108244538D01*
X136713633Y-108216049D01*
X136712220Y-108187283D01*
X136712220Y-107174237D01*
X136713633Y-107145471D01*
X136717859Y-107116982D01*
X136724857Y-107089045D01*
X136734560Y-107061928D01*
X136746873Y-107035893D01*
X136761680Y-107011190D01*
X136778836Y-106988057D01*
X136798177Y-106966717D01*
X136819517Y-106947376D01*
X136842650Y-106930220D01*
X136867353Y-106915413D01*
X136893388Y-106903100D01*
X136920505Y-106893397D01*
X136948442Y-106886399D01*
X136976931Y-106882173D01*
X137005697Y-106880760D01*
X137768743Y-106880760D01*
X137797509Y-106882173D01*
G37*
G36*
X139847509Y-106882173D02*
G01*
X139875998Y-106886399D01*
X139903935Y-106893397D01*
X139931052Y-106903100D01*
X139957087Y-106915413D01*
X139981790Y-106930220D01*
X140004923Y-106947376D01*
X140026263Y-106966717D01*
X140045604Y-106988057D01*
X140062760Y-107011190D01*
X140077567Y-107035893D01*
X140089880Y-107061928D01*
X140099583Y-107089045D01*
X140106581Y-107116982D01*
X140110807Y-107145471D01*
X140112220Y-107174237D01*
X140112220Y-108187283D01*
X140110807Y-108216049D01*
X140106581Y-108244538D01*
X140099583Y-108272475D01*
X140089880Y-108299592D01*
X140077567Y-108325627D01*
X140062760Y-108350330D01*
X140045604Y-108373463D01*
X140026263Y-108394803D01*
X140004923Y-108414144D01*
X139981790Y-108431300D01*
X139957087Y-108446107D01*
X139931052Y-108458420D01*
X139903935Y-108468123D01*
X139875998Y-108475121D01*
X139847509Y-108479347D01*
X139818743Y-108480760D01*
X139055697Y-108480760D01*
X139026931Y-108479347D01*
X138998442Y-108475121D01*
X138970505Y-108468123D01*
X138943388Y-108458420D01*
X138917353Y-108446107D01*
X138892650Y-108431300D01*
X138869517Y-108414144D01*
X138848177Y-108394803D01*
X138828836Y-108373463D01*
X138811680Y-108350330D01*
X138796873Y-108325627D01*
X138784560Y-108299592D01*
X138774857Y-108272475D01*
X138767859Y-108244538D01*
X138763633Y-108216049D01*
X138762220Y-108187283D01*
X138762220Y-107174237D01*
X138763633Y-107145471D01*
X138767859Y-107116982D01*
X138774857Y-107089045D01*
X138784560Y-107061928D01*
X138796873Y-107035893D01*
X138811680Y-107011190D01*
X138828836Y-106988057D01*
X138848177Y-106966717D01*
X138869517Y-106947376D01*
X138892650Y-106930220D01*
X138917353Y-106915413D01*
X138943388Y-106903100D01*
X138970505Y-106893397D01*
X138998442Y-106886399D01*
X139026931Y-106882173D01*
X139055697Y-106880760D01*
X139818743Y-106880760D01*
X139847509Y-106882173D01*
G37*
G36*
X102953789Y-76544413D02*
G01*
X102982278Y-76548639D01*
X103010215Y-76555637D01*
X103037332Y-76565340D01*
X103063367Y-76577653D01*
X103088070Y-76592460D01*
X103111203Y-76609616D01*
X103132543Y-76628957D01*
X103151884Y-76650297D01*
X103169040Y-76673430D01*
X103183847Y-76698133D01*
X103196160Y-76724168D01*
X103205863Y-76751285D01*
X103212861Y-76779222D01*
X103217087Y-76807711D01*
X103218500Y-76836477D01*
X103218500Y-77849523D01*
X103217087Y-77878289D01*
X103212861Y-77906778D01*
X103205863Y-77934715D01*
X103196160Y-77961832D01*
X103183847Y-77987867D01*
X103169040Y-78012570D01*
X103151884Y-78035703D01*
X103132543Y-78057043D01*
X103111203Y-78076384D01*
X103088070Y-78093540D01*
X103063367Y-78108347D01*
X103037332Y-78120660D01*
X103010215Y-78130363D01*
X102982278Y-78137361D01*
X102953789Y-78141587D01*
X102925023Y-78143000D01*
X102161977Y-78143000D01*
X102133211Y-78141587D01*
X102104722Y-78137361D01*
X102076785Y-78130363D01*
X102049668Y-78120660D01*
X102023633Y-78108347D01*
X101998930Y-78093540D01*
X101975797Y-78076384D01*
X101954457Y-78057043D01*
X101935116Y-78035703D01*
X101917960Y-78012570D01*
X101903153Y-77987867D01*
X101890840Y-77961832D01*
X101881137Y-77934715D01*
X101874139Y-77906778D01*
X101869913Y-77878289D01*
X101868500Y-77849523D01*
X101868500Y-76836477D01*
X101869913Y-76807711D01*
X101874139Y-76779222D01*
X101881137Y-76751285D01*
X101890840Y-76724168D01*
X101903153Y-76698133D01*
X101917960Y-76673430D01*
X101935116Y-76650297D01*
X101954457Y-76628957D01*
X101975797Y-76609616D01*
X101998930Y-76592460D01*
X102023633Y-76577653D01*
X102049668Y-76565340D01*
X102076785Y-76555637D01*
X102104722Y-76548639D01*
X102133211Y-76544413D01*
X102161977Y-76543000D01*
X102925023Y-76543000D01*
X102953789Y-76544413D01*
G37*
G36*
X105003789Y-76544413D02*
G01*
X105032278Y-76548639D01*
X105060215Y-76555637D01*
X105087332Y-76565340D01*
X105113367Y-76577653D01*
X105138070Y-76592460D01*
X105161203Y-76609616D01*
X105182543Y-76628957D01*
X105201884Y-76650297D01*
X105219040Y-76673430D01*
X105233847Y-76698133D01*
X105246160Y-76724168D01*
X105255863Y-76751285D01*
X105262861Y-76779222D01*
X105267087Y-76807711D01*
X105268500Y-76836477D01*
X105268500Y-77849523D01*
X105267087Y-77878289D01*
X105262861Y-77906778D01*
X105255863Y-77934715D01*
X105246160Y-77961832D01*
X105233847Y-77987867D01*
X105219040Y-78012570D01*
X105201884Y-78035703D01*
X105182543Y-78057043D01*
X105161203Y-78076384D01*
X105138070Y-78093540D01*
X105113367Y-78108347D01*
X105087332Y-78120660D01*
X105060215Y-78130363D01*
X105032278Y-78137361D01*
X105003789Y-78141587D01*
X104975023Y-78143000D01*
X104211977Y-78143000D01*
X104183211Y-78141587D01*
X104154722Y-78137361D01*
X104126785Y-78130363D01*
X104099668Y-78120660D01*
X104073633Y-78108347D01*
X104048930Y-78093540D01*
X104025797Y-78076384D01*
X104004457Y-78057043D01*
X103985116Y-78035703D01*
X103967960Y-78012570D01*
X103953153Y-77987867D01*
X103940840Y-77961832D01*
X103931137Y-77934715D01*
X103924139Y-77906778D01*
X103919913Y-77878289D01*
X103918500Y-77849523D01*
X103918500Y-76836477D01*
X103919913Y-76807711D01*
X103924139Y-76779222D01*
X103931137Y-76751285D01*
X103940840Y-76724168D01*
X103953153Y-76698133D01*
X103967960Y-76673430D01*
X103985116Y-76650297D01*
X104004457Y-76628957D01*
X104025797Y-76609616D01*
X104048930Y-76592460D01*
X104073633Y-76577653D01*
X104099668Y-76565340D01*
X104126785Y-76555637D01*
X104154722Y-76548639D01*
X104183211Y-76544413D01*
X104211977Y-76543000D01*
X104975023Y-76543000D01*
X105003789Y-76544413D01*
G37*
G36*
X100628343Y-94261283D02*
G01*
X100647758Y-94264163D01*
X100666797Y-94268932D01*
X100685277Y-94275544D01*
X100703019Y-94283936D01*
X100719854Y-94294026D01*
X100735619Y-94305718D01*
X100750161Y-94318899D01*
X100763342Y-94333441D01*
X100775034Y-94349206D01*
X100785124Y-94366041D01*
X100793516Y-94383783D01*
X100800128Y-94402263D01*
X100804897Y-94421302D01*
X100807777Y-94440717D01*
X100808740Y-94460320D01*
X100808740Y-96210320D01*
X100807777Y-96229923D01*
X100804897Y-96249338D01*
X100800128Y-96268377D01*
X100793516Y-96286857D01*
X100785124Y-96304599D01*
X100775034Y-96321434D01*
X100763342Y-96337199D01*
X100750161Y-96351741D01*
X100735619Y-96364922D01*
X100719854Y-96376614D01*
X100703019Y-96386704D01*
X100685277Y-96395096D01*
X100666797Y-96401708D01*
X100647758Y-96406477D01*
X100628343Y-96409357D01*
X100608740Y-96410320D01*
X100208740Y-96410320D01*
X100189137Y-96409357D01*
X100169722Y-96406477D01*
X100150683Y-96401708D01*
X100132203Y-96395096D01*
X100114461Y-96386704D01*
X100097626Y-96376614D01*
X100081861Y-96364922D01*
X100067319Y-96351741D01*
X100054138Y-96337199D01*
X100042446Y-96321434D01*
X100032356Y-96304599D01*
X100023964Y-96286857D01*
X100017352Y-96268377D01*
X100012583Y-96249338D01*
X100009703Y-96229923D01*
X100008740Y-96210320D01*
X100008740Y-94460320D01*
X100009703Y-94440717D01*
X100012583Y-94421302D01*
X100017352Y-94402263D01*
X100023964Y-94383783D01*
X100032356Y-94366041D01*
X100042446Y-94349206D01*
X100054138Y-94333441D01*
X100067319Y-94318899D01*
X100081861Y-94305718D01*
X100097626Y-94294026D01*
X100114461Y-94283936D01*
X100132203Y-94275544D01*
X100150683Y-94268932D01*
X100169722Y-94264163D01*
X100189137Y-94261283D01*
X100208740Y-94260320D01*
X100608740Y-94260320D01*
X100628343Y-94261283D01*
G37*
G36*
X101898343Y-94261283D02*
G01*
X101917758Y-94264163D01*
X101936797Y-94268932D01*
X101955277Y-94275544D01*
X101973019Y-94283936D01*
X101989854Y-94294026D01*
X102005619Y-94305718D01*
X102020161Y-94318899D01*
X102033342Y-94333441D01*
X102045034Y-94349206D01*
X102055124Y-94366041D01*
X102063516Y-94383783D01*
X102070128Y-94402263D01*
X102074897Y-94421302D01*
X102077777Y-94440717D01*
X102078740Y-94460320D01*
X102078740Y-96210320D01*
X102077777Y-96229923D01*
X102074897Y-96249338D01*
X102070128Y-96268377D01*
X102063516Y-96286857D01*
X102055124Y-96304599D01*
X102045034Y-96321434D01*
X102033342Y-96337199D01*
X102020161Y-96351741D01*
X102005619Y-96364922D01*
X101989854Y-96376614D01*
X101973019Y-96386704D01*
X101955277Y-96395096D01*
X101936797Y-96401708D01*
X101917758Y-96406477D01*
X101898343Y-96409357D01*
X101878740Y-96410320D01*
X101478740Y-96410320D01*
X101459137Y-96409357D01*
X101439722Y-96406477D01*
X101420683Y-96401708D01*
X101402203Y-96395096D01*
X101384461Y-96386704D01*
X101367626Y-96376614D01*
X101351861Y-96364922D01*
X101337319Y-96351741D01*
X101324138Y-96337199D01*
X101312446Y-96321434D01*
X101302356Y-96304599D01*
X101293964Y-96286857D01*
X101287352Y-96268377D01*
X101282583Y-96249338D01*
X101279703Y-96229923D01*
X101278740Y-96210320D01*
X101278740Y-94460320D01*
X101279703Y-94440717D01*
X101282583Y-94421302D01*
X101287352Y-94402263D01*
X101293964Y-94383783D01*
X101302356Y-94366041D01*
X101312446Y-94349206D01*
X101324138Y-94333441D01*
X101337319Y-94318899D01*
X101351861Y-94305718D01*
X101367626Y-94294026D01*
X101384461Y-94283936D01*
X101402203Y-94275544D01*
X101420683Y-94268932D01*
X101439722Y-94264163D01*
X101459137Y-94261283D01*
X101478740Y-94260320D01*
X101878740Y-94260320D01*
X101898343Y-94261283D01*
G37*
G36*
X103168343Y-94261283D02*
G01*
X103187758Y-94264163D01*
X103206797Y-94268932D01*
X103225277Y-94275544D01*
X103243019Y-94283936D01*
X103259854Y-94294026D01*
X103275619Y-94305718D01*
X103290161Y-94318899D01*
X103303342Y-94333441D01*
X103315034Y-94349206D01*
X103325124Y-94366041D01*
X103333516Y-94383783D01*
X103340128Y-94402263D01*
X103344897Y-94421302D01*
X103347777Y-94440717D01*
X103348740Y-94460320D01*
X103348740Y-96210320D01*
X103347777Y-96229923D01*
X103344897Y-96249338D01*
X103340128Y-96268377D01*
X103333516Y-96286857D01*
X103325124Y-96304599D01*
X103315034Y-96321434D01*
X103303342Y-96337199D01*
X103290161Y-96351741D01*
X103275619Y-96364922D01*
X103259854Y-96376614D01*
X103243019Y-96386704D01*
X103225277Y-96395096D01*
X103206797Y-96401708D01*
X103187758Y-96406477D01*
X103168343Y-96409357D01*
X103148740Y-96410320D01*
X102748740Y-96410320D01*
X102729137Y-96409357D01*
X102709722Y-96406477D01*
X102690683Y-96401708D01*
X102672203Y-96395096D01*
X102654461Y-96386704D01*
X102637626Y-96376614D01*
X102621861Y-96364922D01*
X102607319Y-96351741D01*
X102594138Y-96337199D01*
X102582446Y-96321434D01*
X102572356Y-96304599D01*
X102563964Y-96286857D01*
X102557352Y-96268377D01*
X102552583Y-96249338D01*
X102549703Y-96229923D01*
X102548740Y-96210320D01*
X102548740Y-94460320D01*
X102549703Y-94440717D01*
X102552583Y-94421302D01*
X102557352Y-94402263D01*
X102563964Y-94383783D01*
X102572356Y-94366041D01*
X102582446Y-94349206D01*
X102594138Y-94333441D01*
X102607319Y-94318899D01*
X102621861Y-94305718D01*
X102637626Y-94294026D01*
X102654461Y-94283936D01*
X102672203Y-94275544D01*
X102690683Y-94268932D01*
X102709722Y-94264163D01*
X102729137Y-94261283D01*
X102748740Y-94260320D01*
X103148740Y-94260320D01*
X103168343Y-94261283D01*
G37*
G36*
X104438343Y-94261283D02*
G01*
X104457758Y-94264163D01*
X104476797Y-94268932D01*
X104495277Y-94275544D01*
X104513019Y-94283936D01*
X104529854Y-94294026D01*
X104545619Y-94305718D01*
X104560161Y-94318899D01*
X104573342Y-94333441D01*
X104585034Y-94349206D01*
X104595124Y-94366041D01*
X104603516Y-94383783D01*
X104610128Y-94402263D01*
X104614897Y-94421302D01*
X104617777Y-94440717D01*
X104618740Y-94460320D01*
X104618740Y-96210320D01*
X104617777Y-96229923D01*
X104614897Y-96249338D01*
X104610128Y-96268377D01*
X104603516Y-96286857D01*
X104595124Y-96304599D01*
X104585034Y-96321434D01*
X104573342Y-96337199D01*
X104560161Y-96351741D01*
X104545619Y-96364922D01*
X104529854Y-96376614D01*
X104513019Y-96386704D01*
X104495277Y-96395096D01*
X104476797Y-96401708D01*
X104457758Y-96406477D01*
X104438343Y-96409357D01*
X104418740Y-96410320D01*
X104018740Y-96410320D01*
X103999137Y-96409357D01*
X103979722Y-96406477D01*
X103960683Y-96401708D01*
X103942203Y-96395096D01*
X103924461Y-96386704D01*
X103907626Y-96376614D01*
X103891861Y-96364922D01*
X103877319Y-96351741D01*
X103864138Y-96337199D01*
X103852446Y-96321434D01*
X103842356Y-96304599D01*
X103833964Y-96286857D01*
X103827352Y-96268377D01*
X103822583Y-96249338D01*
X103819703Y-96229923D01*
X103818740Y-96210320D01*
X103818740Y-94460320D01*
X103819703Y-94440717D01*
X103822583Y-94421302D01*
X103827352Y-94402263D01*
X103833964Y-94383783D01*
X103842356Y-94366041D01*
X103852446Y-94349206D01*
X103864138Y-94333441D01*
X103877319Y-94318899D01*
X103891861Y-94305718D01*
X103907626Y-94294026D01*
X103924461Y-94283936D01*
X103942203Y-94275544D01*
X103960683Y-94268932D01*
X103979722Y-94264163D01*
X103999137Y-94261283D01*
X104018740Y-94260320D01*
X104418740Y-94260320D01*
X104438343Y-94261283D01*
G37*
G36*
X104438343Y-99211283D02*
G01*
X104457758Y-99214163D01*
X104476797Y-99218932D01*
X104495277Y-99225544D01*
X104513019Y-99233936D01*
X104529854Y-99244026D01*
X104545619Y-99255718D01*
X104560161Y-99268899D01*
X104573342Y-99283441D01*
X104585034Y-99299206D01*
X104595124Y-99316041D01*
X104603516Y-99333783D01*
X104610128Y-99352263D01*
X104614897Y-99371302D01*
X104617777Y-99390717D01*
X104618740Y-99410320D01*
X104618740Y-101160320D01*
X104617777Y-101179923D01*
X104614897Y-101199338D01*
X104610128Y-101218377D01*
X104603516Y-101236857D01*
X104595124Y-101254599D01*
X104585034Y-101271434D01*
X104573342Y-101287199D01*
X104560161Y-101301741D01*
X104545619Y-101314922D01*
X104529854Y-101326614D01*
X104513019Y-101336704D01*
X104495277Y-101345096D01*
X104476797Y-101351708D01*
X104457758Y-101356477D01*
X104438343Y-101359357D01*
X104418740Y-101360320D01*
X104018740Y-101360320D01*
X103999137Y-101359357D01*
X103979722Y-101356477D01*
X103960683Y-101351708D01*
X103942203Y-101345096D01*
X103924461Y-101336704D01*
X103907626Y-101326614D01*
X103891861Y-101314922D01*
X103877319Y-101301741D01*
X103864138Y-101287199D01*
X103852446Y-101271434D01*
X103842356Y-101254599D01*
X103833964Y-101236857D01*
X103827352Y-101218377D01*
X103822583Y-101199338D01*
X103819703Y-101179923D01*
X103818740Y-101160320D01*
X103818740Y-99410320D01*
X103819703Y-99390717D01*
X103822583Y-99371302D01*
X103827352Y-99352263D01*
X103833964Y-99333783D01*
X103842356Y-99316041D01*
X103852446Y-99299206D01*
X103864138Y-99283441D01*
X103877319Y-99268899D01*
X103891861Y-99255718D01*
X103907626Y-99244026D01*
X103924461Y-99233936D01*
X103942203Y-99225544D01*
X103960683Y-99218932D01*
X103979722Y-99214163D01*
X103999137Y-99211283D01*
X104018740Y-99210320D01*
X104418740Y-99210320D01*
X104438343Y-99211283D01*
G37*
G36*
X103168343Y-99211283D02*
G01*
X103187758Y-99214163D01*
X103206797Y-99218932D01*
X103225277Y-99225544D01*
X103243019Y-99233936D01*
X103259854Y-99244026D01*
X103275619Y-99255718D01*
X103290161Y-99268899D01*
X103303342Y-99283441D01*
X103315034Y-99299206D01*
X103325124Y-99316041D01*
X103333516Y-99333783D01*
X103340128Y-99352263D01*
X103344897Y-99371302D01*
X103347777Y-99390717D01*
X103348740Y-99410320D01*
X103348740Y-101160320D01*
X103347777Y-101179923D01*
X103344897Y-101199338D01*
X103340128Y-101218377D01*
X103333516Y-101236857D01*
X103325124Y-101254599D01*
X103315034Y-101271434D01*
X103303342Y-101287199D01*
X103290161Y-101301741D01*
X103275619Y-101314922D01*
X103259854Y-101326614D01*
X103243019Y-101336704D01*
X103225277Y-101345096D01*
X103206797Y-101351708D01*
X103187758Y-101356477D01*
X103168343Y-101359357D01*
X103148740Y-101360320D01*
X102748740Y-101360320D01*
X102729137Y-101359357D01*
X102709722Y-101356477D01*
X102690683Y-101351708D01*
X102672203Y-101345096D01*
X102654461Y-101336704D01*
X102637626Y-101326614D01*
X102621861Y-101314922D01*
X102607319Y-101301741D01*
X102594138Y-101287199D01*
X102582446Y-101271434D01*
X102572356Y-101254599D01*
X102563964Y-101236857D01*
X102557352Y-101218377D01*
X102552583Y-101199338D01*
X102549703Y-101179923D01*
X102548740Y-101160320D01*
X102548740Y-99410320D01*
X102549703Y-99390717D01*
X102552583Y-99371302D01*
X102557352Y-99352263D01*
X102563964Y-99333783D01*
X102572356Y-99316041D01*
X102582446Y-99299206D01*
X102594138Y-99283441D01*
X102607319Y-99268899D01*
X102621861Y-99255718D01*
X102637626Y-99244026D01*
X102654461Y-99233936D01*
X102672203Y-99225544D01*
X102690683Y-99218932D01*
X102709722Y-99214163D01*
X102729137Y-99211283D01*
X102748740Y-99210320D01*
X103148740Y-99210320D01*
X103168343Y-99211283D01*
G37*
G36*
X101898343Y-99211283D02*
G01*
X101917758Y-99214163D01*
X101936797Y-99218932D01*
X101955277Y-99225544D01*
X101973019Y-99233936D01*
X101989854Y-99244026D01*
X102005619Y-99255718D01*
X102020161Y-99268899D01*
X102033342Y-99283441D01*
X102045034Y-99299206D01*
X102055124Y-99316041D01*
X102063516Y-99333783D01*
X102070128Y-99352263D01*
X102074897Y-99371302D01*
X102077777Y-99390717D01*
X102078740Y-99410320D01*
X102078740Y-101160320D01*
X102077777Y-101179923D01*
X102074897Y-101199338D01*
X102070128Y-101218377D01*
X102063516Y-101236857D01*
X102055124Y-101254599D01*
X102045034Y-101271434D01*
X102033342Y-101287199D01*
X102020161Y-101301741D01*
X102005619Y-101314922D01*
X101989854Y-101326614D01*
X101973019Y-101336704D01*
X101955277Y-101345096D01*
X101936797Y-101351708D01*
X101917758Y-101356477D01*
X101898343Y-101359357D01*
X101878740Y-101360320D01*
X101478740Y-101360320D01*
X101459137Y-101359357D01*
X101439722Y-101356477D01*
X101420683Y-101351708D01*
X101402203Y-101345096D01*
X101384461Y-101336704D01*
X101367626Y-101326614D01*
X101351861Y-101314922D01*
X101337319Y-101301741D01*
X101324138Y-101287199D01*
X101312446Y-101271434D01*
X101302356Y-101254599D01*
X101293964Y-101236857D01*
X101287352Y-101218377D01*
X101282583Y-101199338D01*
X101279703Y-101179923D01*
X101278740Y-101160320D01*
X101278740Y-99410320D01*
X101279703Y-99390717D01*
X101282583Y-99371302D01*
X101287352Y-99352263D01*
X101293964Y-99333783D01*
X101302356Y-99316041D01*
X101312446Y-99299206D01*
X101324138Y-99283441D01*
X101337319Y-99268899D01*
X101351861Y-99255718D01*
X101367626Y-99244026D01*
X101384461Y-99233936D01*
X101402203Y-99225544D01*
X101420683Y-99218932D01*
X101439722Y-99214163D01*
X101459137Y-99211283D01*
X101478740Y-99210320D01*
X101878740Y-99210320D01*
X101898343Y-99211283D01*
G37*
G36*
X100628343Y-99211283D02*
G01*
X100647758Y-99214163D01*
X100666797Y-99218932D01*
X100685277Y-99225544D01*
X100703019Y-99233936D01*
X100719854Y-99244026D01*
X100735619Y-99255718D01*
X100750161Y-99268899D01*
X100763342Y-99283441D01*
X100775034Y-99299206D01*
X100785124Y-99316041D01*
X100793516Y-99333783D01*
X100800128Y-99352263D01*
X100804897Y-99371302D01*
X100807777Y-99390717D01*
X100808740Y-99410320D01*
X100808740Y-101160320D01*
X100807777Y-101179923D01*
X100804897Y-101199338D01*
X100800128Y-101218377D01*
X100793516Y-101236857D01*
X100785124Y-101254599D01*
X100775034Y-101271434D01*
X100763342Y-101287199D01*
X100750161Y-101301741D01*
X100735619Y-101314922D01*
X100719854Y-101326614D01*
X100703019Y-101336704D01*
X100685277Y-101345096D01*
X100666797Y-101351708D01*
X100647758Y-101356477D01*
X100628343Y-101359357D01*
X100608740Y-101360320D01*
X100208740Y-101360320D01*
X100189137Y-101359357D01*
X100169722Y-101356477D01*
X100150683Y-101351708D01*
X100132203Y-101345096D01*
X100114461Y-101336704D01*
X100097626Y-101326614D01*
X100081861Y-101314922D01*
X100067319Y-101301741D01*
X100054138Y-101287199D01*
X100042446Y-101271434D01*
X100032356Y-101254599D01*
X100023964Y-101236857D01*
X100017352Y-101218377D01*
X100012583Y-101199338D01*
X100009703Y-101179923D01*
X100008740Y-101160320D01*
X100008740Y-99410320D01*
X100009703Y-99390717D01*
X100012583Y-99371302D01*
X100017352Y-99352263D01*
X100023964Y-99333783D01*
X100032356Y-99316041D01*
X100042446Y-99299206D01*
X100054138Y-99283441D01*
X100067319Y-99268899D01*
X100081861Y-99255718D01*
X100097626Y-99244026D01*
X100114461Y-99233936D01*
X100132203Y-99225544D01*
X100150683Y-99218932D01*
X100169722Y-99214163D01*
X100189137Y-99211283D01*
X100208740Y-99210320D01*
X100608740Y-99210320D01*
X100628343Y-99211283D01*
G37*
G36*
X105003789Y-74004413D02*
G01*
X105032278Y-74008639D01*
X105060215Y-74015637D01*
X105087332Y-74025340D01*
X105113367Y-74037653D01*
X105138070Y-74052460D01*
X105161203Y-74069616D01*
X105182543Y-74088957D01*
X105201884Y-74110297D01*
X105219040Y-74133430D01*
X105233847Y-74158133D01*
X105246160Y-74184168D01*
X105255863Y-74211285D01*
X105262861Y-74239222D01*
X105267087Y-74267711D01*
X105268500Y-74296477D01*
X105268500Y-75309523D01*
X105267087Y-75338289D01*
X105262861Y-75366778D01*
X105255863Y-75394715D01*
X105246160Y-75421832D01*
X105233847Y-75447867D01*
X105219040Y-75472570D01*
X105201884Y-75495703D01*
X105182543Y-75517043D01*
X105161203Y-75536384D01*
X105138070Y-75553540D01*
X105113367Y-75568347D01*
X105087332Y-75580660D01*
X105060215Y-75590363D01*
X105032278Y-75597361D01*
X105003789Y-75601587D01*
X104975023Y-75603000D01*
X104211977Y-75603000D01*
X104183211Y-75601587D01*
X104154722Y-75597361D01*
X104126785Y-75590363D01*
X104099668Y-75580660D01*
X104073633Y-75568347D01*
X104048930Y-75553540D01*
X104025797Y-75536384D01*
X104004457Y-75517043D01*
X103985116Y-75495703D01*
X103967960Y-75472570D01*
X103953153Y-75447867D01*
X103940840Y-75421832D01*
X103931137Y-75394715D01*
X103924139Y-75366778D01*
X103919913Y-75338289D01*
X103918500Y-75309523D01*
X103918500Y-74296477D01*
X103919913Y-74267711D01*
X103924139Y-74239222D01*
X103931137Y-74211285D01*
X103940840Y-74184168D01*
X103953153Y-74158133D01*
X103967960Y-74133430D01*
X103985116Y-74110297D01*
X104004457Y-74088957D01*
X104025797Y-74069616D01*
X104048930Y-74052460D01*
X104073633Y-74037653D01*
X104099668Y-74025340D01*
X104126785Y-74015637D01*
X104154722Y-74008639D01*
X104183211Y-74004413D01*
X104211977Y-74003000D01*
X104975023Y-74003000D01*
X105003789Y-74004413D01*
G37*
G36*
X102953789Y-74004413D02*
G01*
X102982278Y-74008639D01*
X103010215Y-74015637D01*
X103037332Y-74025340D01*
X103063367Y-74037653D01*
X103088070Y-74052460D01*
X103111203Y-74069616D01*
X103132543Y-74088957D01*
X103151884Y-74110297D01*
X103169040Y-74133430D01*
X103183847Y-74158133D01*
X103196160Y-74184168D01*
X103205863Y-74211285D01*
X103212861Y-74239222D01*
X103217087Y-74267711D01*
X103218500Y-74296477D01*
X103218500Y-75309523D01*
X103217087Y-75338289D01*
X103212861Y-75366778D01*
X103205863Y-75394715D01*
X103196160Y-75421832D01*
X103183847Y-75447867D01*
X103169040Y-75472570D01*
X103151884Y-75495703D01*
X103132543Y-75517043D01*
X103111203Y-75536384D01*
X103088070Y-75553540D01*
X103063367Y-75568347D01*
X103037332Y-75580660D01*
X103010215Y-75590363D01*
X102982278Y-75597361D01*
X102953789Y-75601587D01*
X102925023Y-75603000D01*
X102161977Y-75603000D01*
X102133211Y-75601587D01*
X102104722Y-75597361D01*
X102076785Y-75590363D01*
X102049668Y-75580660D01*
X102023633Y-75568347D01*
X101998930Y-75553540D01*
X101975797Y-75536384D01*
X101954457Y-75517043D01*
X101935116Y-75495703D01*
X101917960Y-75472570D01*
X101903153Y-75447867D01*
X101890840Y-75421832D01*
X101881137Y-75394715D01*
X101874139Y-75366778D01*
X101869913Y-75338289D01*
X101868500Y-75309523D01*
X101868500Y-74296477D01*
X101869913Y-74267711D01*
X101874139Y-74239222D01*
X101881137Y-74211285D01*
X101890840Y-74184168D01*
X101903153Y-74158133D01*
X101917960Y-74133430D01*
X101935116Y-74110297D01*
X101954457Y-74088957D01*
X101975797Y-74069616D01*
X101998930Y-74052460D01*
X102023633Y-74037653D01*
X102049668Y-74025340D01*
X102076785Y-74015637D01*
X102104722Y-74008639D01*
X102133211Y-74004413D01*
X102161977Y-74003000D01*
X102925023Y-74003000D01*
X102953789Y-74004413D01*
G37*
G36*
X83332289Y-74131413D02*
G01*
X83360778Y-74135639D01*
X83388715Y-74142637D01*
X83415832Y-74152340D01*
X83441867Y-74164653D01*
X83466570Y-74179460D01*
X83489703Y-74196616D01*
X83511043Y-74215957D01*
X83530384Y-74237297D01*
X83547540Y-74260430D01*
X83562347Y-74285133D01*
X83574660Y-74311168D01*
X83584363Y-74338285D01*
X83591361Y-74366222D01*
X83595587Y-74394711D01*
X83597000Y-74423477D01*
X83597000Y-75436523D01*
X83595587Y-75465289D01*
X83591361Y-75493778D01*
X83584363Y-75521715D01*
X83574660Y-75548832D01*
X83562347Y-75574867D01*
X83547540Y-75599570D01*
X83530384Y-75622703D01*
X83511043Y-75644043D01*
X83489703Y-75663384D01*
X83466570Y-75680540D01*
X83441867Y-75695347D01*
X83415832Y-75707660D01*
X83388715Y-75717363D01*
X83360778Y-75724361D01*
X83332289Y-75728587D01*
X83303523Y-75730000D01*
X82540477Y-75730000D01*
X82511711Y-75728587D01*
X82483222Y-75724361D01*
X82455285Y-75717363D01*
X82428168Y-75707660D01*
X82402133Y-75695347D01*
X82377430Y-75680540D01*
X82354297Y-75663384D01*
X82332957Y-75644043D01*
X82313616Y-75622703D01*
X82296460Y-75599570D01*
X82281653Y-75574867D01*
X82269340Y-75548832D01*
X82259637Y-75521715D01*
X82252639Y-75493778D01*
X82248413Y-75465289D01*
X82247000Y-75436523D01*
X82247000Y-74423477D01*
X82248413Y-74394711D01*
X82252639Y-74366222D01*
X82259637Y-74338285D01*
X82269340Y-74311168D01*
X82281653Y-74285133D01*
X82296460Y-74260430D01*
X82313616Y-74237297D01*
X82332957Y-74215957D01*
X82354297Y-74196616D01*
X82377430Y-74179460D01*
X82402133Y-74164653D01*
X82428168Y-74152340D01*
X82455285Y-74142637D01*
X82483222Y-74135639D01*
X82511711Y-74131413D01*
X82540477Y-74130000D01*
X83303523Y-74130000D01*
X83332289Y-74131413D01*
G37*
G36*
X85382289Y-74131413D02*
G01*
X85410778Y-74135639D01*
X85438715Y-74142637D01*
X85465832Y-74152340D01*
X85491867Y-74164653D01*
X85516570Y-74179460D01*
X85539703Y-74196616D01*
X85561043Y-74215957D01*
X85580384Y-74237297D01*
X85597540Y-74260430D01*
X85612347Y-74285133D01*
X85624660Y-74311168D01*
X85634363Y-74338285D01*
X85641361Y-74366222D01*
X85645587Y-74394711D01*
X85647000Y-74423477D01*
X85647000Y-75436523D01*
X85645587Y-75465289D01*
X85641361Y-75493778D01*
X85634363Y-75521715D01*
X85624660Y-75548832D01*
X85612347Y-75574867D01*
X85597540Y-75599570D01*
X85580384Y-75622703D01*
X85561043Y-75644043D01*
X85539703Y-75663384D01*
X85516570Y-75680540D01*
X85491867Y-75695347D01*
X85465832Y-75707660D01*
X85438715Y-75717363D01*
X85410778Y-75724361D01*
X85382289Y-75728587D01*
X85353523Y-75730000D01*
X84590477Y-75730000D01*
X84561711Y-75728587D01*
X84533222Y-75724361D01*
X84505285Y-75717363D01*
X84478168Y-75707660D01*
X84452133Y-75695347D01*
X84427430Y-75680540D01*
X84404297Y-75663384D01*
X84382957Y-75644043D01*
X84363616Y-75622703D01*
X84346460Y-75599570D01*
X84331653Y-75574867D01*
X84319340Y-75548832D01*
X84309637Y-75521715D01*
X84302639Y-75493778D01*
X84298413Y-75465289D01*
X84297000Y-75436523D01*
X84297000Y-74423477D01*
X84298413Y-74394711D01*
X84302639Y-74366222D01*
X84309637Y-74338285D01*
X84319340Y-74311168D01*
X84331653Y-74285133D01*
X84346460Y-74260430D01*
X84363616Y-74237297D01*
X84382957Y-74215957D01*
X84404297Y-74196616D01*
X84427430Y-74179460D01*
X84452133Y-74164653D01*
X84478168Y-74152340D01*
X84505285Y-74142637D01*
X84533222Y-74135639D01*
X84561711Y-74131413D01*
X84590477Y-74130000D01*
X85353523Y-74130000D01*
X85382289Y-74131413D01*
G37*
G36*
X83332289Y-71337413D02*
G01*
X83360778Y-71341639D01*
X83388715Y-71348637D01*
X83415832Y-71358340D01*
X83441867Y-71370653D01*
X83466570Y-71385460D01*
X83489703Y-71402616D01*
X83511043Y-71421957D01*
X83530384Y-71443297D01*
X83547540Y-71466430D01*
X83562347Y-71491133D01*
X83574660Y-71517168D01*
X83584363Y-71544285D01*
X83591361Y-71572222D01*
X83595587Y-71600711D01*
X83597000Y-71629477D01*
X83597000Y-72642523D01*
X83595587Y-72671289D01*
X83591361Y-72699778D01*
X83584363Y-72727715D01*
X83574660Y-72754832D01*
X83562347Y-72780867D01*
X83547540Y-72805570D01*
X83530384Y-72828703D01*
X83511043Y-72850043D01*
X83489703Y-72869384D01*
X83466570Y-72886540D01*
X83441867Y-72901347D01*
X83415832Y-72913660D01*
X83388715Y-72923363D01*
X83360778Y-72930361D01*
X83332289Y-72934587D01*
X83303523Y-72936000D01*
X82540477Y-72936000D01*
X82511711Y-72934587D01*
X82483222Y-72930361D01*
X82455285Y-72923363D01*
X82428168Y-72913660D01*
X82402133Y-72901347D01*
X82377430Y-72886540D01*
X82354297Y-72869384D01*
X82332957Y-72850043D01*
X82313616Y-72828703D01*
X82296460Y-72805570D01*
X82281653Y-72780867D01*
X82269340Y-72754832D01*
X82259637Y-72727715D01*
X82252639Y-72699778D01*
X82248413Y-72671289D01*
X82247000Y-72642523D01*
X82247000Y-71629477D01*
X82248413Y-71600711D01*
X82252639Y-71572222D01*
X82259637Y-71544285D01*
X82269340Y-71517168D01*
X82281653Y-71491133D01*
X82296460Y-71466430D01*
X82313616Y-71443297D01*
X82332957Y-71421957D01*
X82354297Y-71402616D01*
X82377430Y-71385460D01*
X82402133Y-71370653D01*
X82428168Y-71358340D01*
X82455285Y-71348637D01*
X82483222Y-71341639D01*
X82511711Y-71337413D01*
X82540477Y-71336000D01*
X83303523Y-71336000D01*
X83332289Y-71337413D01*
G37*
G36*
X85382289Y-71337413D02*
G01*
X85410778Y-71341639D01*
X85438715Y-71348637D01*
X85465832Y-71358340D01*
X85491867Y-71370653D01*
X85516570Y-71385460D01*
X85539703Y-71402616D01*
X85561043Y-71421957D01*
X85580384Y-71443297D01*
X85597540Y-71466430D01*
X85612347Y-71491133D01*
X85624660Y-71517168D01*
X85634363Y-71544285D01*
X85641361Y-71572222D01*
X85645587Y-71600711D01*
X85647000Y-71629477D01*
X85647000Y-72642523D01*
X85645587Y-72671289D01*
X85641361Y-72699778D01*
X85634363Y-72727715D01*
X85624660Y-72754832D01*
X85612347Y-72780867D01*
X85597540Y-72805570D01*
X85580384Y-72828703D01*
X85561043Y-72850043D01*
X85539703Y-72869384D01*
X85516570Y-72886540D01*
X85491867Y-72901347D01*
X85465832Y-72913660D01*
X85438715Y-72923363D01*
X85410778Y-72930361D01*
X85382289Y-72934587D01*
X85353523Y-72936000D01*
X84590477Y-72936000D01*
X84561711Y-72934587D01*
X84533222Y-72930361D01*
X84505285Y-72923363D01*
X84478168Y-72913660D01*
X84452133Y-72901347D01*
X84427430Y-72886540D01*
X84404297Y-72869384D01*
X84382957Y-72850043D01*
X84363616Y-72828703D01*
X84346460Y-72805570D01*
X84331653Y-72780867D01*
X84319340Y-72754832D01*
X84309637Y-72727715D01*
X84302639Y-72699778D01*
X84298413Y-72671289D01*
X84297000Y-72642523D01*
X84297000Y-71629477D01*
X84298413Y-71600711D01*
X84302639Y-71572222D01*
X84309637Y-71544285D01*
X84319340Y-71517168D01*
X84331653Y-71491133D01*
X84346460Y-71466430D01*
X84363616Y-71443297D01*
X84382957Y-71421957D01*
X84404297Y-71402616D01*
X84427430Y-71385460D01*
X84452133Y-71370653D01*
X84478168Y-71358340D01*
X84505285Y-71348637D01*
X84533222Y-71341639D01*
X84561711Y-71337413D01*
X84590477Y-71336000D01*
X85353523Y-71336000D01*
X85382289Y-71337413D01*
G37*
G36*
X101944789Y-92045413D02*
G01*
X101973278Y-92049639D01*
X102001215Y-92056637D01*
X102028332Y-92066340D01*
X102054367Y-92078653D01*
X102079070Y-92093460D01*
X102102203Y-92110616D01*
X102123543Y-92129957D01*
X102142884Y-92151297D01*
X102160040Y-92174430D01*
X102174847Y-92199133D01*
X102187160Y-92225168D01*
X102196863Y-92252285D01*
X102203861Y-92280222D01*
X102208087Y-92308711D01*
X102209500Y-92337477D01*
X102209500Y-93100523D01*
X102208087Y-93129289D01*
X102203861Y-93157778D01*
X102196863Y-93185715D01*
X102187160Y-93212832D01*
X102174847Y-93238867D01*
X102160040Y-93263570D01*
X102142884Y-93286703D01*
X102123543Y-93308043D01*
X102102203Y-93327384D01*
X102079070Y-93344540D01*
X102054367Y-93359347D01*
X102028332Y-93371660D01*
X102001215Y-93381363D01*
X101973278Y-93388361D01*
X101944789Y-93392587D01*
X101916023Y-93394000D01*
X100902977Y-93394000D01*
X100874211Y-93392587D01*
X100845722Y-93388361D01*
X100817785Y-93381363D01*
X100790668Y-93371660D01*
X100764633Y-93359347D01*
X100739930Y-93344540D01*
X100716797Y-93327384D01*
X100695457Y-93308043D01*
X100676116Y-93286703D01*
X100658960Y-93263570D01*
X100644153Y-93238867D01*
X100631840Y-93212832D01*
X100622137Y-93185715D01*
X100615139Y-93157778D01*
X100610913Y-93129289D01*
X100609500Y-93100523D01*
X100609500Y-92337477D01*
X100610913Y-92308711D01*
X100615139Y-92280222D01*
X100622137Y-92252285D01*
X100631840Y-92225168D01*
X100644153Y-92199133D01*
X100658960Y-92174430D01*
X100676116Y-92151297D01*
X100695457Y-92129957D01*
X100716797Y-92110616D01*
X100739930Y-92093460D01*
X100764633Y-92078653D01*
X100790668Y-92066340D01*
X100817785Y-92056637D01*
X100845722Y-92049639D01*
X100874211Y-92045413D01*
X100902977Y-92044000D01*
X101916023Y-92044000D01*
X101944789Y-92045413D01*
G37*
G36*
X101944789Y-89995413D02*
G01*
X101973278Y-89999639D01*
X102001215Y-90006637D01*
X102028332Y-90016340D01*
X102054367Y-90028653D01*
X102079070Y-90043460D01*
X102102203Y-90060616D01*
X102123543Y-90079957D01*
X102142884Y-90101297D01*
X102160040Y-90124430D01*
X102174847Y-90149133D01*
X102187160Y-90175168D01*
X102196863Y-90202285D01*
X102203861Y-90230222D01*
X102208087Y-90258711D01*
X102209500Y-90287477D01*
X102209500Y-91050523D01*
X102208087Y-91079289D01*
X102203861Y-91107778D01*
X102196863Y-91135715D01*
X102187160Y-91162832D01*
X102174847Y-91188867D01*
X102160040Y-91213570D01*
X102142884Y-91236703D01*
X102123543Y-91258043D01*
X102102203Y-91277384D01*
X102079070Y-91294540D01*
X102054367Y-91309347D01*
X102028332Y-91321660D01*
X102001215Y-91331363D01*
X101973278Y-91338361D01*
X101944789Y-91342587D01*
X101916023Y-91344000D01*
X100902977Y-91344000D01*
X100874211Y-91342587D01*
X100845722Y-91338361D01*
X100817785Y-91331363D01*
X100790668Y-91321660D01*
X100764633Y-91309347D01*
X100739930Y-91294540D01*
X100716797Y-91277384D01*
X100695457Y-91258043D01*
X100676116Y-91236703D01*
X100658960Y-91213570D01*
X100644153Y-91188867D01*
X100631840Y-91162832D01*
X100622137Y-91135715D01*
X100615139Y-91107778D01*
X100610913Y-91079289D01*
X100609500Y-91050523D01*
X100609500Y-90287477D01*
X100610913Y-90258711D01*
X100615139Y-90230222D01*
X100622137Y-90202285D01*
X100631840Y-90175168D01*
X100644153Y-90149133D01*
X100658960Y-90124430D01*
X100676116Y-90101297D01*
X100695457Y-90079957D01*
X100716797Y-90060616D01*
X100739930Y-90043460D01*
X100764633Y-90028653D01*
X100790668Y-90016340D01*
X100817785Y-90006637D01*
X100845722Y-89999639D01*
X100874211Y-89995413D01*
X100902977Y-89994000D01*
X101916023Y-89994000D01*
X101944789Y-89995413D01*
G37*
G36*
X130335289Y-88101413D02*
G01*
X130363778Y-88105639D01*
X130391715Y-88112637D01*
X130418832Y-88122340D01*
X130444867Y-88134653D01*
X130469570Y-88149460D01*
X130492703Y-88166616D01*
X130514043Y-88185957D01*
X130533384Y-88207297D01*
X130550540Y-88230430D01*
X130565347Y-88255133D01*
X130577660Y-88281168D01*
X130587363Y-88308285D01*
X130594361Y-88336222D01*
X130598587Y-88364711D01*
X130600000Y-88393477D01*
X130600000Y-89406523D01*
X130598587Y-89435289D01*
X130594361Y-89463778D01*
X130587363Y-89491715D01*
X130577660Y-89518832D01*
X130565347Y-89544867D01*
X130550540Y-89569570D01*
X130533384Y-89592703D01*
X130514043Y-89614043D01*
X130492703Y-89633384D01*
X130469570Y-89650540D01*
X130444867Y-89665347D01*
X130418832Y-89677660D01*
X130391715Y-89687363D01*
X130363778Y-89694361D01*
X130335289Y-89698587D01*
X130306523Y-89700000D01*
X129543477Y-89700000D01*
X129514711Y-89698587D01*
X129486222Y-89694361D01*
X129458285Y-89687363D01*
X129431168Y-89677660D01*
X129405133Y-89665347D01*
X129380430Y-89650540D01*
X129357297Y-89633384D01*
X129335957Y-89614043D01*
X129316616Y-89592703D01*
X129299460Y-89569570D01*
X129284653Y-89544867D01*
X129272340Y-89518832D01*
X129262637Y-89491715D01*
X129255639Y-89463778D01*
X129251413Y-89435289D01*
X129250000Y-89406523D01*
X129250000Y-88393477D01*
X129251413Y-88364711D01*
X129255639Y-88336222D01*
X129262637Y-88308285D01*
X129272340Y-88281168D01*
X129284653Y-88255133D01*
X129299460Y-88230430D01*
X129316616Y-88207297D01*
X129335957Y-88185957D01*
X129357297Y-88166616D01*
X129380430Y-88149460D01*
X129405133Y-88134653D01*
X129431168Y-88122340D01*
X129458285Y-88112637D01*
X129486222Y-88105639D01*
X129514711Y-88101413D01*
X129543477Y-88100000D01*
X130306523Y-88100000D01*
X130335289Y-88101413D01*
G37*
G36*
X132385289Y-88101413D02*
G01*
X132413778Y-88105639D01*
X132441715Y-88112637D01*
X132468832Y-88122340D01*
X132494867Y-88134653D01*
X132519570Y-88149460D01*
X132542703Y-88166616D01*
X132564043Y-88185957D01*
X132583384Y-88207297D01*
X132600540Y-88230430D01*
X132615347Y-88255133D01*
X132627660Y-88281168D01*
X132637363Y-88308285D01*
X132644361Y-88336222D01*
X132648587Y-88364711D01*
X132650000Y-88393477D01*
X132650000Y-89406523D01*
X132648587Y-89435289D01*
X132644361Y-89463778D01*
X132637363Y-89491715D01*
X132627660Y-89518832D01*
X132615347Y-89544867D01*
X132600540Y-89569570D01*
X132583384Y-89592703D01*
X132564043Y-89614043D01*
X132542703Y-89633384D01*
X132519570Y-89650540D01*
X132494867Y-89665347D01*
X132468832Y-89677660D01*
X132441715Y-89687363D01*
X132413778Y-89694361D01*
X132385289Y-89698587D01*
X132356523Y-89700000D01*
X131593477Y-89700000D01*
X131564711Y-89698587D01*
X131536222Y-89694361D01*
X131508285Y-89687363D01*
X131481168Y-89677660D01*
X131455133Y-89665347D01*
X131430430Y-89650540D01*
X131407297Y-89633384D01*
X131385957Y-89614043D01*
X131366616Y-89592703D01*
X131349460Y-89569570D01*
X131334653Y-89544867D01*
X131322340Y-89518832D01*
X131312637Y-89491715D01*
X131305639Y-89463778D01*
X131301413Y-89435289D01*
X131300000Y-89406523D01*
X131300000Y-88393477D01*
X131301413Y-88364711D01*
X131305639Y-88336222D01*
X131312637Y-88308285D01*
X131322340Y-88281168D01*
X131334653Y-88255133D01*
X131349460Y-88230430D01*
X131366616Y-88207297D01*
X131385957Y-88185957D01*
X131407297Y-88166616D01*
X131430430Y-88149460D01*
X131455133Y-88134653D01*
X131481168Y-88122340D01*
X131508285Y-88112637D01*
X131536222Y-88105639D01*
X131564711Y-88101413D01*
X131593477Y-88100000D01*
X132356523Y-88100000D01*
X132385289Y-88101413D01*
G37*
G36*
X105003789Y-71464413D02*
G01*
X105032278Y-71468639D01*
X105060215Y-71475637D01*
X105087332Y-71485340D01*
X105113367Y-71497653D01*
X105138070Y-71512460D01*
X105161203Y-71529616D01*
X105182543Y-71548957D01*
X105201884Y-71570297D01*
X105219040Y-71593430D01*
X105233847Y-71618133D01*
X105246160Y-71644168D01*
X105255863Y-71671285D01*
X105262861Y-71699222D01*
X105267087Y-71727711D01*
X105268500Y-71756477D01*
X105268500Y-72769523D01*
X105267087Y-72798289D01*
X105262861Y-72826778D01*
X105255863Y-72854715D01*
X105246160Y-72881832D01*
X105233847Y-72907867D01*
X105219040Y-72932570D01*
X105201884Y-72955703D01*
X105182543Y-72977043D01*
X105161203Y-72996384D01*
X105138070Y-73013540D01*
X105113367Y-73028347D01*
X105087332Y-73040660D01*
X105060215Y-73050363D01*
X105032278Y-73057361D01*
X105003789Y-73061587D01*
X104975023Y-73063000D01*
X104211977Y-73063000D01*
X104183211Y-73061587D01*
X104154722Y-73057361D01*
X104126785Y-73050363D01*
X104099668Y-73040660D01*
X104073633Y-73028347D01*
X104048930Y-73013540D01*
X104025797Y-72996384D01*
X104004457Y-72977043D01*
X103985116Y-72955703D01*
X103967960Y-72932570D01*
X103953153Y-72907867D01*
X103940840Y-72881832D01*
X103931137Y-72854715D01*
X103924139Y-72826778D01*
X103919913Y-72798289D01*
X103918500Y-72769523D01*
X103918500Y-71756477D01*
X103919913Y-71727711D01*
X103924139Y-71699222D01*
X103931137Y-71671285D01*
X103940840Y-71644168D01*
X103953153Y-71618133D01*
X103967960Y-71593430D01*
X103985116Y-71570297D01*
X104004457Y-71548957D01*
X104025797Y-71529616D01*
X104048930Y-71512460D01*
X104073633Y-71497653D01*
X104099668Y-71485340D01*
X104126785Y-71475637D01*
X104154722Y-71468639D01*
X104183211Y-71464413D01*
X104211977Y-71463000D01*
X104975023Y-71463000D01*
X105003789Y-71464413D01*
G37*
G36*
X102953789Y-71464413D02*
G01*
X102982278Y-71468639D01*
X103010215Y-71475637D01*
X103037332Y-71485340D01*
X103063367Y-71497653D01*
X103088070Y-71512460D01*
X103111203Y-71529616D01*
X103132543Y-71548957D01*
X103151884Y-71570297D01*
X103169040Y-71593430D01*
X103183847Y-71618133D01*
X103196160Y-71644168D01*
X103205863Y-71671285D01*
X103212861Y-71699222D01*
X103217087Y-71727711D01*
X103218500Y-71756477D01*
X103218500Y-72769523D01*
X103217087Y-72798289D01*
X103212861Y-72826778D01*
X103205863Y-72854715D01*
X103196160Y-72881832D01*
X103183847Y-72907867D01*
X103169040Y-72932570D01*
X103151884Y-72955703D01*
X103132543Y-72977043D01*
X103111203Y-72996384D01*
X103088070Y-73013540D01*
X103063367Y-73028347D01*
X103037332Y-73040660D01*
X103010215Y-73050363D01*
X102982278Y-73057361D01*
X102953789Y-73061587D01*
X102925023Y-73063000D01*
X102161977Y-73063000D01*
X102133211Y-73061587D01*
X102104722Y-73057361D01*
X102076785Y-73050363D01*
X102049668Y-73040660D01*
X102023633Y-73028347D01*
X101998930Y-73013540D01*
X101975797Y-72996384D01*
X101954457Y-72977043D01*
X101935116Y-72955703D01*
X101917960Y-72932570D01*
X101903153Y-72907867D01*
X101890840Y-72881832D01*
X101881137Y-72854715D01*
X101874139Y-72826778D01*
X101869913Y-72798289D01*
X101868500Y-72769523D01*
X101868500Y-71756477D01*
X101869913Y-71727711D01*
X101874139Y-71699222D01*
X101881137Y-71671285D01*
X101890840Y-71644168D01*
X101903153Y-71618133D01*
X101917960Y-71593430D01*
X101935116Y-71570297D01*
X101954457Y-71548957D01*
X101975797Y-71529616D01*
X101998930Y-71512460D01*
X102023633Y-71497653D01*
X102049668Y-71485340D01*
X102076785Y-71475637D01*
X102104722Y-71468639D01*
X102133211Y-71464413D01*
X102161977Y-71463000D01*
X102925023Y-71463000D01*
X102953789Y-71464413D01*
G37*
G36*
X100255689Y-77447813D02*
G01*
X100284178Y-77452039D01*
X100312115Y-77459037D01*
X100339232Y-77468740D01*
X100365267Y-77481053D01*
X100389970Y-77495860D01*
X100413103Y-77513016D01*
X100434443Y-77532357D01*
X100453784Y-77553697D01*
X100470940Y-77576830D01*
X100485747Y-77601533D01*
X100498060Y-77627568D01*
X100507763Y-77654685D01*
X100514761Y-77682622D01*
X100518987Y-77711111D01*
X100520400Y-77739877D01*
X100520400Y-78502923D01*
X100518987Y-78531689D01*
X100514761Y-78560178D01*
X100507763Y-78588115D01*
X100498060Y-78615232D01*
X100485747Y-78641267D01*
X100470940Y-78665970D01*
X100453784Y-78689103D01*
X100434443Y-78710443D01*
X100413103Y-78729784D01*
X100389970Y-78746940D01*
X100365267Y-78761747D01*
X100339232Y-78774060D01*
X100312115Y-78783763D01*
X100284178Y-78790761D01*
X100255689Y-78794987D01*
X100226923Y-78796400D01*
X99213877Y-78796400D01*
X99185111Y-78794987D01*
X99156622Y-78790761D01*
X99128685Y-78783763D01*
X99101568Y-78774060D01*
X99075533Y-78761747D01*
X99050830Y-78746940D01*
X99027697Y-78729784D01*
X99006357Y-78710443D01*
X98987016Y-78689103D01*
X98969860Y-78665970D01*
X98955053Y-78641267D01*
X98942740Y-78615232D01*
X98933037Y-78588115D01*
X98926039Y-78560178D01*
X98921813Y-78531689D01*
X98920400Y-78502923D01*
X98920400Y-77739877D01*
X98921813Y-77711111D01*
X98926039Y-77682622D01*
X98933037Y-77654685D01*
X98942740Y-77627568D01*
X98955053Y-77601533D01*
X98969860Y-77576830D01*
X98987016Y-77553697D01*
X99006357Y-77532357D01*
X99027697Y-77513016D01*
X99050830Y-77495860D01*
X99075533Y-77481053D01*
X99101568Y-77468740D01*
X99128685Y-77459037D01*
X99156622Y-77452039D01*
X99185111Y-77447813D01*
X99213877Y-77446400D01*
X100226923Y-77446400D01*
X100255689Y-77447813D01*
G37*
G36*
X100255689Y-79497813D02*
G01*
X100284178Y-79502039D01*
X100312115Y-79509037D01*
X100339232Y-79518740D01*
X100365267Y-79531053D01*
X100389970Y-79545860D01*
X100413103Y-79563016D01*
X100434443Y-79582357D01*
X100453784Y-79603697D01*
X100470940Y-79626830D01*
X100485747Y-79651533D01*
X100498060Y-79677568D01*
X100507763Y-79704685D01*
X100514761Y-79732622D01*
X100518987Y-79761111D01*
X100520400Y-79789877D01*
X100520400Y-80552923D01*
X100518987Y-80581689D01*
X100514761Y-80610178D01*
X100507763Y-80638115D01*
X100498060Y-80665232D01*
X100485747Y-80691267D01*
X100470940Y-80715970D01*
X100453784Y-80739103D01*
X100434443Y-80760443D01*
X100413103Y-80779784D01*
X100389970Y-80796940D01*
X100365267Y-80811747D01*
X100339232Y-80824060D01*
X100312115Y-80833763D01*
X100284178Y-80840761D01*
X100255689Y-80844987D01*
X100226923Y-80846400D01*
X99213877Y-80846400D01*
X99185111Y-80844987D01*
X99156622Y-80840761D01*
X99128685Y-80833763D01*
X99101568Y-80824060D01*
X99075533Y-80811747D01*
X99050830Y-80796940D01*
X99027697Y-80779784D01*
X99006357Y-80760443D01*
X98987016Y-80739103D01*
X98969860Y-80715970D01*
X98955053Y-80691267D01*
X98942740Y-80665232D01*
X98933037Y-80638115D01*
X98926039Y-80610178D01*
X98921813Y-80581689D01*
X98920400Y-80552923D01*
X98920400Y-79789877D01*
X98921813Y-79761111D01*
X98926039Y-79732622D01*
X98933037Y-79704685D01*
X98942740Y-79677568D01*
X98955053Y-79651533D01*
X98969860Y-79626830D01*
X98987016Y-79603697D01*
X99006357Y-79582357D01*
X99027697Y-79563016D01*
X99050830Y-79545860D01*
X99075533Y-79531053D01*
X99101568Y-79518740D01*
X99128685Y-79509037D01*
X99156622Y-79502039D01*
X99185111Y-79497813D01*
X99213877Y-79496400D01*
X100226923Y-79496400D01*
X100255689Y-79497813D01*
G37*
G36*
X105003789Y-68924413D02*
G01*
X105032278Y-68928639D01*
X105060215Y-68935637D01*
X105087332Y-68945340D01*
X105113367Y-68957653D01*
X105138070Y-68972460D01*
X105161203Y-68989616D01*
X105182543Y-69008957D01*
X105201884Y-69030297D01*
X105219040Y-69053430D01*
X105233847Y-69078133D01*
X105246160Y-69104168D01*
X105255863Y-69131285D01*
X105262861Y-69159222D01*
X105267087Y-69187711D01*
X105268500Y-69216477D01*
X105268500Y-70229523D01*
X105267087Y-70258289D01*
X105262861Y-70286778D01*
X105255863Y-70314715D01*
X105246160Y-70341832D01*
X105233847Y-70367867D01*
X105219040Y-70392570D01*
X105201884Y-70415703D01*
X105182543Y-70437043D01*
X105161203Y-70456384D01*
X105138070Y-70473540D01*
X105113367Y-70488347D01*
X105087332Y-70500660D01*
X105060215Y-70510363D01*
X105032278Y-70517361D01*
X105003789Y-70521587D01*
X104975023Y-70523000D01*
X104211977Y-70523000D01*
X104183211Y-70521587D01*
X104154722Y-70517361D01*
X104126785Y-70510363D01*
X104099668Y-70500660D01*
X104073633Y-70488347D01*
X104048930Y-70473540D01*
X104025797Y-70456384D01*
X104004457Y-70437043D01*
X103985116Y-70415703D01*
X103967960Y-70392570D01*
X103953153Y-70367867D01*
X103940840Y-70341832D01*
X103931137Y-70314715D01*
X103924139Y-70286778D01*
X103919913Y-70258289D01*
X103918500Y-70229523D01*
X103918500Y-69216477D01*
X103919913Y-69187711D01*
X103924139Y-69159222D01*
X103931137Y-69131285D01*
X103940840Y-69104168D01*
X103953153Y-69078133D01*
X103967960Y-69053430D01*
X103985116Y-69030297D01*
X104004457Y-69008957D01*
X104025797Y-68989616D01*
X104048930Y-68972460D01*
X104073633Y-68957653D01*
X104099668Y-68945340D01*
X104126785Y-68935637D01*
X104154722Y-68928639D01*
X104183211Y-68924413D01*
X104211977Y-68923000D01*
X104975023Y-68923000D01*
X105003789Y-68924413D01*
G37*
G36*
X102953789Y-68924413D02*
G01*
X102982278Y-68928639D01*
X103010215Y-68935637D01*
X103037332Y-68945340D01*
X103063367Y-68957653D01*
X103088070Y-68972460D01*
X103111203Y-68989616D01*
X103132543Y-69008957D01*
X103151884Y-69030297D01*
X103169040Y-69053430D01*
X103183847Y-69078133D01*
X103196160Y-69104168D01*
X103205863Y-69131285D01*
X103212861Y-69159222D01*
X103217087Y-69187711D01*
X103218500Y-69216477D01*
X103218500Y-70229523D01*
X103217087Y-70258289D01*
X103212861Y-70286778D01*
X103205863Y-70314715D01*
X103196160Y-70341832D01*
X103183847Y-70367867D01*
X103169040Y-70392570D01*
X103151884Y-70415703D01*
X103132543Y-70437043D01*
X103111203Y-70456384D01*
X103088070Y-70473540D01*
X103063367Y-70488347D01*
X103037332Y-70500660D01*
X103010215Y-70510363D01*
X102982278Y-70517361D01*
X102953789Y-70521587D01*
X102925023Y-70523000D01*
X102161977Y-70523000D01*
X102133211Y-70521587D01*
X102104722Y-70517361D01*
X102076785Y-70510363D01*
X102049668Y-70500660D01*
X102023633Y-70488347D01*
X101998930Y-70473540D01*
X101975797Y-70456384D01*
X101954457Y-70437043D01*
X101935116Y-70415703D01*
X101917960Y-70392570D01*
X101903153Y-70367867D01*
X101890840Y-70341832D01*
X101881137Y-70314715D01*
X101874139Y-70286778D01*
X101869913Y-70258289D01*
X101868500Y-70229523D01*
X101868500Y-69216477D01*
X101869913Y-69187711D01*
X101874139Y-69159222D01*
X101881137Y-69131285D01*
X101890840Y-69104168D01*
X101903153Y-69078133D01*
X101917960Y-69053430D01*
X101935116Y-69030297D01*
X101954457Y-69008957D01*
X101975797Y-68989616D01*
X101998930Y-68972460D01*
X102023633Y-68957653D01*
X102049668Y-68945340D01*
X102076785Y-68935637D01*
X102104722Y-68928639D01*
X102133211Y-68924413D01*
X102161977Y-68923000D01*
X102925023Y-68923000D01*
X102953789Y-68924413D01*
G37*
G36*
X106201509Y-102477813D02*
G01*
X106229998Y-102482039D01*
X106257935Y-102489037D01*
X106285052Y-102498740D01*
X106311087Y-102511053D01*
X106335790Y-102525860D01*
X106358923Y-102543016D01*
X106380263Y-102562357D01*
X106399604Y-102583697D01*
X106416760Y-102606830D01*
X106431567Y-102631533D01*
X106443880Y-102657568D01*
X106453583Y-102684685D01*
X106460581Y-102712622D01*
X106464807Y-102741111D01*
X106466220Y-102769877D01*
X106466220Y-103782923D01*
X106464807Y-103811689D01*
X106460581Y-103840178D01*
X106453583Y-103868115D01*
X106443880Y-103895232D01*
X106431567Y-103921267D01*
X106416760Y-103945970D01*
X106399604Y-103969103D01*
X106380263Y-103990443D01*
X106358923Y-104009784D01*
X106335790Y-104026940D01*
X106311087Y-104041747D01*
X106285052Y-104054060D01*
X106257935Y-104063763D01*
X106229998Y-104070761D01*
X106201509Y-104074987D01*
X106172743Y-104076400D01*
X105409697Y-104076400D01*
X105380931Y-104074987D01*
X105352442Y-104070761D01*
X105324505Y-104063763D01*
X105297388Y-104054060D01*
X105271353Y-104041747D01*
X105246650Y-104026940D01*
X105223517Y-104009784D01*
X105202177Y-103990443D01*
X105182836Y-103969103D01*
X105165680Y-103945970D01*
X105150873Y-103921267D01*
X105138560Y-103895232D01*
X105128857Y-103868115D01*
X105121859Y-103840178D01*
X105117633Y-103811689D01*
X105116220Y-103782923D01*
X105116220Y-102769877D01*
X105117633Y-102741111D01*
X105121859Y-102712622D01*
X105128857Y-102684685D01*
X105138560Y-102657568D01*
X105150873Y-102631533D01*
X105165680Y-102606830D01*
X105182836Y-102583697D01*
X105202177Y-102562357D01*
X105223517Y-102543016D01*
X105246650Y-102525860D01*
X105271353Y-102511053D01*
X105297388Y-102498740D01*
X105324505Y-102489037D01*
X105352442Y-102482039D01*
X105380931Y-102477813D01*
X105409697Y-102476400D01*
X106172743Y-102476400D01*
X106201509Y-102477813D01*
G37*
G36*
X104151509Y-102477813D02*
G01*
X104179998Y-102482039D01*
X104207935Y-102489037D01*
X104235052Y-102498740D01*
X104261087Y-102511053D01*
X104285790Y-102525860D01*
X104308923Y-102543016D01*
X104330263Y-102562357D01*
X104349604Y-102583697D01*
X104366760Y-102606830D01*
X104381567Y-102631533D01*
X104393880Y-102657568D01*
X104403583Y-102684685D01*
X104410581Y-102712622D01*
X104414807Y-102741111D01*
X104416220Y-102769877D01*
X104416220Y-103782923D01*
X104414807Y-103811689D01*
X104410581Y-103840178D01*
X104403583Y-103868115D01*
X104393880Y-103895232D01*
X104381567Y-103921267D01*
X104366760Y-103945970D01*
X104349604Y-103969103D01*
X104330263Y-103990443D01*
X104308923Y-104009784D01*
X104285790Y-104026940D01*
X104261087Y-104041747D01*
X104235052Y-104054060D01*
X104207935Y-104063763D01*
X104179998Y-104070761D01*
X104151509Y-104074987D01*
X104122743Y-104076400D01*
X103359697Y-104076400D01*
X103330931Y-104074987D01*
X103302442Y-104070761D01*
X103274505Y-104063763D01*
X103247388Y-104054060D01*
X103221353Y-104041747D01*
X103196650Y-104026940D01*
X103173517Y-104009784D01*
X103152177Y-103990443D01*
X103132836Y-103969103D01*
X103115680Y-103945970D01*
X103100873Y-103921267D01*
X103088560Y-103895232D01*
X103078857Y-103868115D01*
X103071859Y-103840178D01*
X103067633Y-103811689D01*
X103066220Y-103782923D01*
X103066220Y-102769877D01*
X103067633Y-102741111D01*
X103071859Y-102712622D01*
X103078857Y-102684685D01*
X103088560Y-102657568D01*
X103100873Y-102631533D01*
X103115680Y-102606830D01*
X103132836Y-102583697D01*
X103152177Y-102562357D01*
X103173517Y-102543016D01*
X103196650Y-102525860D01*
X103221353Y-102511053D01*
X103247388Y-102498740D01*
X103274505Y-102489037D01*
X103302442Y-102482039D01*
X103330931Y-102477813D01*
X103359697Y-102476400D01*
X104122743Y-102476400D01*
X104151509Y-102477813D01*
G37*
G36*
X99857529Y-102477813D02*
G01*
X99886018Y-102482039D01*
X99913955Y-102489037D01*
X99941072Y-102498740D01*
X99967107Y-102511053D01*
X99991810Y-102525860D01*
X100014943Y-102543016D01*
X100036283Y-102562357D01*
X100055624Y-102583697D01*
X100072780Y-102606830D01*
X100087587Y-102631533D01*
X100099900Y-102657568D01*
X100109603Y-102684685D01*
X100116601Y-102712622D01*
X100120827Y-102741111D01*
X100122240Y-102769877D01*
X100122240Y-103782923D01*
X100120827Y-103811689D01*
X100116601Y-103840178D01*
X100109603Y-103868115D01*
X100099900Y-103895232D01*
X100087587Y-103921267D01*
X100072780Y-103945970D01*
X100055624Y-103969103D01*
X100036283Y-103990443D01*
X100014943Y-104009784D01*
X99991810Y-104026940D01*
X99967107Y-104041747D01*
X99941072Y-104054060D01*
X99913955Y-104063763D01*
X99886018Y-104070761D01*
X99857529Y-104074987D01*
X99828763Y-104076400D01*
X99065717Y-104076400D01*
X99036951Y-104074987D01*
X99008462Y-104070761D01*
X98980525Y-104063763D01*
X98953408Y-104054060D01*
X98927373Y-104041747D01*
X98902670Y-104026940D01*
X98879537Y-104009784D01*
X98858197Y-103990443D01*
X98838856Y-103969103D01*
X98821700Y-103945970D01*
X98806893Y-103921267D01*
X98794580Y-103895232D01*
X98784877Y-103868115D01*
X98777879Y-103840178D01*
X98773653Y-103811689D01*
X98772240Y-103782923D01*
X98772240Y-102769877D01*
X98773653Y-102741111D01*
X98777879Y-102712622D01*
X98784877Y-102684685D01*
X98794580Y-102657568D01*
X98806893Y-102631533D01*
X98821700Y-102606830D01*
X98838856Y-102583697D01*
X98858197Y-102562357D01*
X98879537Y-102543016D01*
X98902670Y-102525860D01*
X98927373Y-102511053D01*
X98953408Y-102498740D01*
X98980525Y-102489037D01*
X99008462Y-102482039D01*
X99036951Y-102477813D01*
X99065717Y-102476400D01*
X99828763Y-102476400D01*
X99857529Y-102477813D01*
G37*
G36*
X101907529Y-102477813D02*
G01*
X101936018Y-102482039D01*
X101963955Y-102489037D01*
X101991072Y-102498740D01*
X102017107Y-102511053D01*
X102041810Y-102525860D01*
X102064943Y-102543016D01*
X102086283Y-102562357D01*
X102105624Y-102583697D01*
X102122780Y-102606830D01*
X102137587Y-102631533D01*
X102149900Y-102657568D01*
X102159603Y-102684685D01*
X102166601Y-102712622D01*
X102170827Y-102741111D01*
X102172240Y-102769877D01*
X102172240Y-103782923D01*
X102170827Y-103811689D01*
X102166601Y-103840178D01*
X102159603Y-103868115D01*
X102149900Y-103895232D01*
X102137587Y-103921267D01*
X102122780Y-103945970D01*
X102105624Y-103969103D01*
X102086283Y-103990443D01*
X102064943Y-104009784D01*
X102041810Y-104026940D01*
X102017107Y-104041747D01*
X101991072Y-104054060D01*
X101963955Y-104063763D01*
X101936018Y-104070761D01*
X101907529Y-104074987D01*
X101878763Y-104076400D01*
X101115717Y-104076400D01*
X101086951Y-104074987D01*
X101058462Y-104070761D01*
X101030525Y-104063763D01*
X101003408Y-104054060D01*
X100977373Y-104041747D01*
X100952670Y-104026940D01*
X100929537Y-104009784D01*
X100908197Y-103990443D01*
X100888856Y-103969103D01*
X100871700Y-103945970D01*
X100856893Y-103921267D01*
X100844580Y-103895232D01*
X100834877Y-103868115D01*
X100827879Y-103840178D01*
X100823653Y-103811689D01*
X100822240Y-103782923D01*
X100822240Y-102769877D01*
X100823653Y-102741111D01*
X100827879Y-102712622D01*
X100834877Y-102684685D01*
X100844580Y-102657568D01*
X100856893Y-102631533D01*
X100871700Y-102606830D01*
X100888856Y-102583697D01*
X100908197Y-102562357D01*
X100929537Y-102543016D01*
X100952670Y-102525860D01*
X100977373Y-102511053D01*
X101003408Y-102498740D01*
X101030525Y-102489037D01*
X101058462Y-102482039D01*
X101086951Y-102477813D01*
X101115717Y-102476400D01*
X101878763Y-102476400D01*
X101907529Y-102477813D01*
G37*
G36*
X98769789Y-92045413D02*
G01*
X98798278Y-92049639D01*
X98826215Y-92056637D01*
X98853332Y-92066340D01*
X98879367Y-92078653D01*
X98904070Y-92093460D01*
X98927203Y-92110616D01*
X98948543Y-92129957D01*
X98967884Y-92151297D01*
X98985040Y-92174430D01*
X98999847Y-92199133D01*
X99012160Y-92225168D01*
X99021863Y-92252285D01*
X99028861Y-92280222D01*
X99033087Y-92308711D01*
X99034500Y-92337477D01*
X99034500Y-93100523D01*
X99033087Y-93129289D01*
X99028861Y-93157778D01*
X99021863Y-93185715D01*
X99012160Y-93212832D01*
X98999847Y-93238867D01*
X98985040Y-93263570D01*
X98967884Y-93286703D01*
X98948543Y-93308043D01*
X98927203Y-93327384D01*
X98904070Y-93344540D01*
X98879367Y-93359347D01*
X98853332Y-93371660D01*
X98826215Y-93381363D01*
X98798278Y-93388361D01*
X98769789Y-93392587D01*
X98741023Y-93394000D01*
X97727977Y-93394000D01*
X97699211Y-93392587D01*
X97670722Y-93388361D01*
X97642785Y-93381363D01*
X97615668Y-93371660D01*
X97589633Y-93359347D01*
X97564930Y-93344540D01*
X97541797Y-93327384D01*
X97520457Y-93308043D01*
X97501116Y-93286703D01*
X97483960Y-93263570D01*
X97469153Y-93238867D01*
X97456840Y-93212832D01*
X97447137Y-93185715D01*
X97440139Y-93157778D01*
X97435913Y-93129289D01*
X97434500Y-93100523D01*
X97434500Y-92337477D01*
X97435913Y-92308711D01*
X97440139Y-92280222D01*
X97447137Y-92252285D01*
X97456840Y-92225168D01*
X97469153Y-92199133D01*
X97483960Y-92174430D01*
X97501116Y-92151297D01*
X97520457Y-92129957D01*
X97541797Y-92110616D01*
X97564930Y-92093460D01*
X97589633Y-92078653D01*
X97615668Y-92066340D01*
X97642785Y-92056637D01*
X97670722Y-92049639D01*
X97699211Y-92045413D01*
X97727977Y-92044000D01*
X98741023Y-92044000D01*
X98769789Y-92045413D01*
G37*
G36*
X98769789Y-89995413D02*
G01*
X98798278Y-89999639D01*
X98826215Y-90006637D01*
X98853332Y-90016340D01*
X98879367Y-90028653D01*
X98904070Y-90043460D01*
X98927203Y-90060616D01*
X98948543Y-90079957D01*
X98967884Y-90101297D01*
X98985040Y-90124430D01*
X98999847Y-90149133D01*
X99012160Y-90175168D01*
X99021863Y-90202285D01*
X99028861Y-90230222D01*
X99033087Y-90258711D01*
X99034500Y-90287477D01*
X99034500Y-91050523D01*
X99033087Y-91079289D01*
X99028861Y-91107778D01*
X99021863Y-91135715D01*
X99012160Y-91162832D01*
X98999847Y-91188867D01*
X98985040Y-91213570D01*
X98967884Y-91236703D01*
X98948543Y-91258043D01*
X98927203Y-91277384D01*
X98904070Y-91294540D01*
X98879367Y-91309347D01*
X98853332Y-91321660D01*
X98826215Y-91331363D01*
X98798278Y-91338361D01*
X98769789Y-91342587D01*
X98741023Y-91344000D01*
X97727977Y-91344000D01*
X97699211Y-91342587D01*
X97670722Y-91338361D01*
X97642785Y-91331363D01*
X97615668Y-91321660D01*
X97589633Y-91309347D01*
X97564930Y-91294540D01*
X97541797Y-91277384D01*
X97520457Y-91258043D01*
X97501116Y-91236703D01*
X97483960Y-91213570D01*
X97469153Y-91188867D01*
X97456840Y-91162832D01*
X97447137Y-91135715D01*
X97440139Y-91107778D01*
X97435913Y-91079289D01*
X97434500Y-91050523D01*
X97434500Y-90287477D01*
X97435913Y-90258711D01*
X97440139Y-90230222D01*
X97447137Y-90202285D01*
X97456840Y-90175168D01*
X97469153Y-90149133D01*
X97483960Y-90124430D01*
X97501116Y-90101297D01*
X97520457Y-90079957D01*
X97541797Y-90060616D01*
X97564930Y-90043460D01*
X97589633Y-90028653D01*
X97615668Y-90016340D01*
X97642785Y-90006637D01*
X97670722Y-89999639D01*
X97699211Y-89995413D01*
X97727977Y-89994000D01*
X98741023Y-89994000D01*
X98769789Y-89995413D01*
G37*
G36*
X97611549Y-96546073D02*
G01*
X97640038Y-96550299D01*
X97667975Y-96557297D01*
X97695092Y-96567000D01*
X97721127Y-96579313D01*
X97745830Y-96594120D01*
X97768963Y-96611276D01*
X97790303Y-96630617D01*
X97809644Y-96651957D01*
X97826800Y-96675090D01*
X97841607Y-96699793D01*
X97853920Y-96725828D01*
X97863623Y-96752945D01*
X97870621Y-96780882D01*
X97874847Y-96809371D01*
X97876260Y-96838137D01*
X97876260Y-97601183D01*
X97874847Y-97629949D01*
X97870621Y-97658438D01*
X97863623Y-97686375D01*
X97853920Y-97713492D01*
X97841607Y-97739527D01*
X97826800Y-97764230D01*
X97809644Y-97787363D01*
X97790303Y-97808703D01*
X97768963Y-97828044D01*
X97745830Y-97845200D01*
X97721127Y-97860007D01*
X97695092Y-97872320D01*
X97667975Y-97882023D01*
X97640038Y-97889021D01*
X97611549Y-97893247D01*
X97582783Y-97894660D01*
X96569737Y-97894660D01*
X96540971Y-97893247D01*
X96512482Y-97889021D01*
X96484545Y-97882023D01*
X96457428Y-97872320D01*
X96431393Y-97860007D01*
X96406690Y-97845200D01*
X96383557Y-97828044D01*
X96362217Y-97808703D01*
X96342876Y-97787363D01*
X96325720Y-97764230D01*
X96310913Y-97739527D01*
X96298600Y-97713492D01*
X96288897Y-97686375D01*
X96281899Y-97658438D01*
X96277673Y-97629949D01*
X96276260Y-97601183D01*
X96276260Y-96838137D01*
X96277673Y-96809371D01*
X96281899Y-96780882D01*
X96288897Y-96752945D01*
X96298600Y-96725828D01*
X96310913Y-96699793D01*
X96325720Y-96675090D01*
X96342876Y-96651957D01*
X96362217Y-96630617D01*
X96383557Y-96611276D01*
X96406690Y-96594120D01*
X96431393Y-96579313D01*
X96457428Y-96567000D01*
X96484545Y-96557297D01*
X96512482Y-96550299D01*
X96540971Y-96546073D01*
X96569737Y-96544660D01*
X97582783Y-96544660D01*
X97611549Y-96546073D01*
G37*
G36*
X97611549Y-98596073D02*
G01*
X97640038Y-98600299D01*
X97667975Y-98607297D01*
X97695092Y-98617000D01*
X97721127Y-98629313D01*
X97745830Y-98644120D01*
X97768963Y-98661276D01*
X97790303Y-98680617D01*
X97809644Y-98701957D01*
X97826800Y-98725090D01*
X97841607Y-98749793D01*
X97853920Y-98775828D01*
X97863623Y-98802945D01*
X97870621Y-98830882D01*
X97874847Y-98859371D01*
X97876260Y-98888137D01*
X97876260Y-99651183D01*
X97874847Y-99679949D01*
X97870621Y-99708438D01*
X97863623Y-99736375D01*
X97853920Y-99763492D01*
X97841607Y-99789527D01*
X97826800Y-99814230D01*
X97809644Y-99837363D01*
X97790303Y-99858703D01*
X97768963Y-99878044D01*
X97745830Y-99895200D01*
X97721127Y-99910007D01*
X97695092Y-99922320D01*
X97667975Y-99932023D01*
X97640038Y-99939021D01*
X97611549Y-99943247D01*
X97582783Y-99944660D01*
X96569737Y-99944660D01*
X96540971Y-99943247D01*
X96512482Y-99939021D01*
X96484545Y-99932023D01*
X96457428Y-99922320D01*
X96431393Y-99910007D01*
X96406690Y-99895200D01*
X96383557Y-99878044D01*
X96362217Y-99858703D01*
X96342876Y-99837363D01*
X96325720Y-99814230D01*
X96310913Y-99789527D01*
X96298600Y-99763492D01*
X96288897Y-99736375D01*
X96281899Y-99708438D01*
X96277673Y-99679949D01*
X96276260Y-99651183D01*
X96276260Y-98888137D01*
X96277673Y-98859371D01*
X96281899Y-98830882D01*
X96288897Y-98802945D01*
X96298600Y-98775828D01*
X96310913Y-98749793D01*
X96325720Y-98725090D01*
X96342876Y-98701957D01*
X96362217Y-98680617D01*
X96383557Y-98661276D01*
X96406690Y-98644120D01*
X96431393Y-98629313D01*
X96457428Y-98617000D01*
X96484545Y-98607297D01*
X96512482Y-98600299D01*
X96540971Y-98596073D01*
X96569737Y-98594660D01*
X97582783Y-98594660D01*
X97611549Y-98596073D01*
G37*
G36*
X105895603Y-91739463D02*
G01*
X105915018Y-91742343D01*
X105934057Y-91747112D01*
X105952537Y-91753724D01*
X105970279Y-91762116D01*
X105987114Y-91772206D01*
X106002879Y-91783898D01*
X106017421Y-91797079D01*
X106030602Y-91811621D01*
X106042294Y-91827386D01*
X106052384Y-91844221D01*
X106060776Y-91861963D01*
X106067388Y-91880443D01*
X106072157Y-91899482D01*
X106075037Y-91918897D01*
X106076000Y-91938500D01*
X106076000Y-92338500D01*
X106075037Y-92358103D01*
X106072157Y-92377518D01*
X106067388Y-92396557D01*
X106060776Y-92415037D01*
X106052384Y-92432779D01*
X106042294Y-92449614D01*
X106030602Y-92465379D01*
X106017421Y-92479921D01*
X106002879Y-92493102D01*
X105987114Y-92504794D01*
X105970279Y-92514884D01*
X105952537Y-92523276D01*
X105934057Y-92529888D01*
X105915018Y-92534657D01*
X105895603Y-92537537D01*
X105876000Y-92538500D01*
X104026000Y-92538500D01*
X104006397Y-92537537D01*
X103986982Y-92534657D01*
X103967943Y-92529888D01*
X103949463Y-92523276D01*
X103931721Y-92514884D01*
X103914886Y-92504794D01*
X103899121Y-92493102D01*
X103884579Y-92479921D01*
X103871398Y-92465379D01*
X103859706Y-92449614D01*
X103849616Y-92432779D01*
X103841224Y-92415037D01*
X103834612Y-92396557D01*
X103829843Y-92377518D01*
X103826963Y-92358103D01*
X103826000Y-92338500D01*
X103826000Y-91938500D01*
X103826963Y-91918897D01*
X103829843Y-91899482D01*
X103834612Y-91880443D01*
X103841224Y-91861963D01*
X103849616Y-91844221D01*
X103859706Y-91827386D01*
X103871398Y-91811621D01*
X103884579Y-91797079D01*
X103899121Y-91783898D01*
X103914886Y-91772206D01*
X103931721Y-91762116D01*
X103949463Y-91753724D01*
X103967943Y-91747112D01*
X103986982Y-91742343D01*
X104006397Y-91739463D01*
X104026000Y-91738500D01*
X105876000Y-91738500D01*
X105895603Y-91739463D01*
G37*
G36*
X105895603Y-90469463D02*
G01*
X105915018Y-90472343D01*
X105934057Y-90477112D01*
X105952537Y-90483724D01*
X105970279Y-90492116D01*
X105987114Y-90502206D01*
X106002879Y-90513898D01*
X106017421Y-90527079D01*
X106030602Y-90541621D01*
X106042294Y-90557386D01*
X106052384Y-90574221D01*
X106060776Y-90591963D01*
X106067388Y-90610443D01*
X106072157Y-90629482D01*
X106075037Y-90648897D01*
X106076000Y-90668500D01*
X106076000Y-91068500D01*
X106075037Y-91088103D01*
X106072157Y-91107518D01*
X106067388Y-91126557D01*
X106060776Y-91145037D01*
X106052384Y-91162779D01*
X106042294Y-91179614D01*
X106030602Y-91195379D01*
X106017421Y-91209921D01*
X106002879Y-91223102D01*
X105987114Y-91234794D01*
X105970279Y-91244884D01*
X105952537Y-91253276D01*
X105934057Y-91259888D01*
X105915018Y-91264657D01*
X105895603Y-91267537D01*
X105876000Y-91268500D01*
X104026000Y-91268500D01*
X104006397Y-91267537D01*
X103986982Y-91264657D01*
X103967943Y-91259888D01*
X103949463Y-91253276D01*
X103931721Y-91244884D01*
X103914886Y-91234794D01*
X103899121Y-91223102D01*
X103884579Y-91209921D01*
X103871398Y-91195379D01*
X103859706Y-91179614D01*
X103849616Y-91162779D01*
X103841224Y-91145037D01*
X103834612Y-91126557D01*
X103829843Y-91107518D01*
X103826963Y-91088103D01*
X103826000Y-91068500D01*
X103826000Y-90668500D01*
X103826963Y-90648897D01*
X103829843Y-90629482D01*
X103834612Y-90610443D01*
X103841224Y-90591963D01*
X103849616Y-90574221D01*
X103859706Y-90557386D01*
X103871398Y-90541621D01*
X103884579Y-90527079D01*
X103899121Y-90513898D01*
X103914886Y-90502206D01*
X103931721Y-90492116D01*
X103949463Y-90483724D01*
X103967943Y-90477112D01*
X103986982Y-90472343D01*
X104006397Y-90469463D01*
X104026000Y-90468500D01*
X105876000Y-90468500D01*
X105895603Y-90469463D01*
G37*
G36*
X105895603Y-89199463D02*
G01*
X105915018Y-89202343D01*
X105934057Y-89207112D01*
X105952537Y-89213724D01*
X105970279Y-89222116D01*
X105987114Y-89232206D01*
X106002879Y-89243898D01*
X106017421Y-89257079D01*
X106030602Y-89271621D01*
X106042294Y-89287386D01*
X106052384Y-89304221D01*
X106060776Y-89321963D01*
X106067388Y-89340443D01*
X106072157Y-89359482D01*
X106075037Y-89378897D01*
X106076000Y-89398500D01*
X106076000Y-89798500D01*
X106075037Y-89818103D01*
X106072157Y-89837518D01*
X106067388Y-89856557D01*
X106060776Y-89875037D01*
X106052384Y-89892779D01*
X106042294Y-89909614D01*
X106030602Y-89925379D01*
X106017421Y-89939921D01*
X106002879Y-89953102D01*
X105987114Y-89964794D01*
X105970279Y-89974884D01*
X105952537Y-89983276D01*
X105934057Y-89989888D01*
X105915018Y-89994657D01*
X105895603Y-89997537D01*
X105876000Y-89998500D01*
X104026000Y-89998500D01*
X104006397Y-89997537D01*
X103986982Y-89994657D01*
X103967943Y-89989888D01*
X103949463Y-89983276D01*
X103931721Y-89974884D01*
X103914886Y-89964794D01*
X103899121Y-89953102D01*
X103884579Y-89939921D01*
X103871398Y-89925379D01*
X103859706Y-89909614D01*
X103849616Y-89892779D01*
X103841224Y-89875037D01*
X103834612Y-89856557D01*
X103829843Y-89837518D01*
X103826963Y-89818103D01*
X103826000Y-89798500D01*
X103826000Y-89398500D01*
X103826963Y-89378897D01*
X103829843Y-89359482D01*
X103834612Y-89340443D01*
X103841224Y-89321963D01*
X103849616Y-89304221D01*
X103859706Y-89287386D01*
X103871398Y-89271621D01*
X103884579Y-89257079D01*
X103899121Y-89243898D01*
X103914886Y-89232206D01*
X103931721Y-89222116D01*
X103949463Y-89213724D01*
X103967943Y-89207112D01*
X103986982Y-89202343D01*
X104006397Y-89199463D01*
X104026000Y-89198500D01*
X105876000Y-89198500D01*
X105895603Y-89199463D01*
G37*
G36*
X105895603Y-87929463D02*
G01*
X105915018Y-87932343D01*
X105934057Y-87937112D01*
X105952537Y-87943724D01*
X105970279Y-87952116D01*
X105987114Y-87962206D01*
X106002879Y-87973898D01*
X106017421Y-87987079D01*
X106030602Y-88001621D01*
X106042294Y-88017386D01*
X106052384Y-88034221D01*
X106060776Y-88051963D01*
X106067388Y-88070443D01*
X106072157Y-88089482D01*
X106075037Y-88108897D01*
X106076000Y-88128500D01*
X106076000Y-88528500D01*
X106075037Y-88548103D01*
X106072157Y-88567518D01*
X106067388Y-88586557D01*
X106060776Y-88605037D01*
X106052384Y-88622779D01*
X106042294Y-88639614D01*
X106030602Y-88655379D01*
X106017421Y-88669921D01*
X106002879Y-88683102D01*
X105987114Y-88694794D01*
X105970279Y-88704884D01*
X105952537Y-88713276D01*
X105934057Y-88719888D01*
X105915018Y-88724657D01*
X105895603Y-88727537D01*
X105876000Y-88728500D01*
X104026000Y-88728500D01*
X104006397Y-88727537D01*
X103986982Y-88724657D01*
X103967943Y-88719888D01*
X103949463Y-88713276D01*
X103931721Y-88704884D01*
X103914886Y-88694794D01*
X103899121Y-88683102D01*
X103884579Y-88669921D01*
X103871398Y-88655379D01*
X103859706Y-88639614D01*
X103849616Y-88622779D01*
X103841224Y-88605037D01*
X103834612Y-88586557D01*
X103829843Y-88567518D01*
X103826963Y-88548103D01*
X103826000Y-88528500D01*
X103826000Y-88128500D01*
X103826963Y-88108897D01*
X103829843Y-88089482D01*
X103834612Y-88070443D01*
X103841224Y-88051963D01*
X103849616Y-88034221D01*
X103859706Y-88017386D01*
X103871398Y-88001621D01*
X103884579Y-87987079D01*
X103899121Y-87973898D01*
X103914886Y-87962206D01*
X103931721Y-87952116D01*
X103949463Y-87943724D01*
X103967943Y-87937112D01*
X103986982Y-87932343D01*
X104006397Y-87929463D01*
X104026000Y-87928500D01*
X105876000Y-87928500D01*
X105895603Y-87929463D01*
G37*
G36*
X105895603Y-86659463D02*
G01*
X105915018Y-86662343D01*
X105934057Y-86667112D01*
X105952537Y-86673724D01*
X105970279Y-86682116D01*
X105987114Y-86692206D01*
X106002879Y-86703898D01*
X106017421Y-86717079D01*
X106030602Y-86731621D01*
X106042294Y-86747386D01*
X106052384Y-86764221D01*
X106060776Y-86781963D01*
X106067388Y-86800443D01*
X106072157Y-86819482D01*
X106075037Y-86838897D01*
X106076000Y-86858500D01*
X106076000Y-87258500D01*
X106075037Y-87278103D01*
X106072157Y-87297518D01*
X106067388Y-87316557D01*
X106060776Y-87335037D01*
X106052384Y-87352779D01*
X106042294Y-87369614D01*
X106030602Y-87385379D01*
X106017421Y-87399921D01*
X106002879Y-87413102D01*
X105987114Y-87424794D01*
X105970279Y-87434884D01*
X105952537Y-87443276D01*
X105934057Y-87449888D01*
X105915018Y-87454657D01*
X105895603Y-87457537D01*
X105876000Y-87458500D01*
X104026000Y-87458500D01*
X104006397Y-87457537D01*
X103986982Y-87454657D01*
X103967943Y-87449888D01*
X103949463Y-87443276D01*
X103931721Y-87434884D01*
X103914886Y-87424794D01*
X103899121Y-87413102D01*
X103884579Y-87399921D01*
X103871398Y-87385379D01*
X103859706Y-87369614D01*
X103849616Y-87352779D01*
X103841224Y-87335037D01*
X103834612Y-87316557D01*
X103829843Y-87297518D01*
X103826963Y-87278103D01*
X103826000Y-87258500D01*
X103826000Y-86858500D01*
X103826963Y-86838897D01*
X103829843Y-86819482D01*
X103834612Y-86800443D01*
X103841224Y-86781963D01*
X103849616Y-86764221D01*
X103859706Y-86747386D01*
X103871398Y-86731621D01*
X103884579Y-86717079D01*
X103899121Y-86703898D01*
X103914886Y-86692206D01*
X103931721Y-86682116D01*
X103949463Y-86673724D01*
X103967943Y-86667112D01*
X103986982Y-86662343D01*
X104006397Y-86659463D01*
X104026000Y-86658500D01*
X105876000Y-86658500D01*
X105895603Y-86659463D01*
G37*
G36*
X105895603Y-85389463D02*
G01*
X105915018Y-85392343D01*
X105934057Y-85397112D01*
X105952537Y-85403724D01*
X105970279Y-85412116D01*
X105987114Y-85422206D01*
X106002879Y-85433898D01*
X106017421Y-85447079D01*
X106030602Y-85461621D01*
X106042294Y-85477386D01*
X106052384Y-85494221D01*
X106060776Y-85511963D01*
X106067388Y-85530443D01*
X106072157Y-85549482D01*
X106075037Y-85568897D01*
X106076000Y-85588500D01*
X106076000Y-85988500D01*
X106075037Y-86008103D01*
X106072157Y-86027518D01*
X106067388Y-86046557D01*
X106060776Y-86065037D01*
X106052384Y-86082779D01*
X106042294Y-86099614D01*
X106030602Y-86115379D01*
X106017421Y-86129921D01*
X106002879Y-86143102D01*
X105987114Y-86154794D01*
X105970279Y-86164884D01*
X105952537Y-86173276D01*
X105934057Y-86179888D01*
X105915018Y-86184657D01*
X105895603Y-86187537D01*
X105876000Y-86188500D01*
X104026000Y-86188500D01*
X104006397Y-86187537D01*
X103986982Y-86184657D01*
X103967943Y-86179888D01*
X103949463Y-86173276D01*
X103931721Y-86164884D01*
X103914886Y-86154794D01*
X103899121Y-86143102D01*
X103884579Y-86129921D01*
X103871398Y-86115379D01*
X103859706Y-86099614D01*
X103849616Y-86082779D01*
X103841224Y-86065037D01*
X103834612Y-86046557D01*
X103829843Y-86027518D01*
X103826963Y-86008103D01*
X103826000Y-85988500D01*
X103826000Y-85588500D01*
X103826963Y-85568897D01*
X103829843Y-85549482D01*
X103834612Y-85530443D01*
X103841224Y-85511963D01*
X103849616Y-85494221D01*
X103859706Y-85477386D01*
X103871398Y-85461621D01*
X103884579Y-85447079D01*
X103899121Y-85433898D01*
X103914886Y-85422206D01*
X103931721Y-85412116D01*
X103949463Y-85403724D01*
X103967943Y-85397112D01*
X103986982Y-85392343D01*
X104006397Y-85389463D01*
X104026000Y-85388500D01*
X105876000Y-85388500D01*
X105895603Y-85389463D01*
G37*
G36*
X105895603Y-84119463D02*
G01*
X105915018Y-84122343D01*
X105934057Y-84127112D01*
X105952537Y-84133724D01*
X105970279Y-84142116D01*
X105987114Y-84152206D01*
X106002879Y-84163898D01*
X106017421Y-84177079D01*
X106030602Y-84191621D01*
X106042294Y-84207386D01*
X106052384Y-84224221D01*
X106060776Y-84241963D01*
X106067388Y-84260443D01*
X106072157Y-84279482D01*
X106075037Y-84298897D01*
X106076000Y-84318500D01*
X106076000Y-84718500D01*
X106075037Y-84738103D01*
X106072157Y-84757518D01*
X106067388Y-84776557D01*
X106060776Y-84795037D01*
X106052384Y-84812779D01*
X106042294Y-84829614D01*
X106030602Y-84845379D01*
X106017421Y-84859921D01*
X106002879Y-84873102D01*
X105987114Y-84884794D01*
X105970279Y-84894884D01*
X105952537Y-84903276D01*
X105934057Y-84909888D01*
X105915018Y-84914657D01*
X105895603Y-84917537D01*
X105876000Y-84918500D01*
X104026000Y-84918500D01*
X104006397Y-84917537D01*
X103986982Y-84914657D01*
X103967943Y-84909888D01*
X103949463Y-84903276D01*
X103931721Y-84894884D01*
X103914886Y-84884794D01*
X103899121Y-84873102D01*
X103884579Y-84859921D01*
X103871398Y-84845379D01*
X103859706Y-84829614D01*
X103849616Y-84812779D01*
X103841224Y-84795037D01*
X103834612Y-84776557D01*
X103829843Y-84757518D01*
X103826963Y-84738103D01*
X103826000Y-84718500D01*
X103826000Y-84318500D01*
X103826963Y-84298897D01*
X103829843Y-84279482D01*
X103834612Y-84260443D01*
X103841224Y-84241963D01*
X103849616Y-84224221D01*
X103859706Y-84207386D01*
X103871398Y-84191621D01*
X103884579Y-84177079D01*
X103899121Y-84163898D01*
X103914886Y-84152206D01*
X103931721Y-84142116D01*
X103949463Y-84133724D01*
X103967943Y-84127112D01*
X103986982Y-84122343D01*
X104006397Y-84119463D01*
X104026000Y-84118500D01*
X105876000Y-84118500D01*
X105895603Y-84119463D01*
G37*
G36*
X105895603Y-82849463D02*
G01*
X105915018Y-82852343D01*
X105934057Y-82857112D01*
X105952537Y-82863724D01*
X105970279Y-82872116D01*
X105987114Y-82882206D01*
X106002879Y-82893898D01*
X106017421Y-82907079D01*
X106030602Y-82921621D01*
X106042294Y-82937386D01*
X106052384Y-82954221D01*
X106060776Y-82971963D01*
X106067388Y-82990443D01*
X106072157Y-83009482D01*
X106075037Y-83028897D01*
X106076000Y-83048500D01*
X106076000Y-83448500D01*
X106075037Y-83468103D01*
X106072157Y-83487518D01*
X106067388Y-83506557D01*
X106060776Y-83525037D01*
X106052384Y-83542779D01*
X106042294Y-83559614D01*
X106030602Y-83575379D01*
X106017421Y-83589921D01*
X106002879Y-83603102D01*
X105987114Y-83614794D01*
X105970279Y-83624884D01*
X105952537Y-83633276D01*
X105934057Y-83639888D01*
X105915018Y-83644657D01*
X105895603Y-83647537D01*
X105876000Y-83648500D01*
X104026000Y-83648500D01*
X104006397Y-83647537D01*
X103986982Y-83644657D01*
X103967943Y-83639888D01*
X103949463Y-83633276D01*
X103931721Y-83624884D01*
X103914886Y-83614794D01*
X103899121Y-83603102D01*
X103884579Y-83589921D01*
X103871398Y-83575379D01*
X103859706Y-83559614D01*
X103849616Y-83542779D01*
X103841224Y-83525037D01*
X103834612Y-83506557D01*
X103829843Y-83487518D01*
X103826963Y-83468103D01*
X103826000Y-83448500D01*
X103826000Y-83048500D01*
X103826963Y-83028897D01*
X103829843Y-83009482D01*
X103834612Y-82990443D01*
X103841224Y-82971963D01*
X103849616Y-82954221D01*
X103859706Y-82937386D01*
X103871398Y-82921621D01*
X103884579Y-82907079D01*
X103899121Y-82893898D01*
X103914886Y-82882206D01*
X103931721Y-82872116D01*
X103949463Y-82863724D01*
X103967943Y-82857112D01*
X103986982Y-82852343D01*
X104006397Y-82849463D01*
X104026000Y-82848500D01*
X105876000Y-82848500D01*
X105895603Y-82849463D01*
G37*
G36*
X105895603Y-81579463D02*
G01*
X105915018Y-81582343D01*
X105934057Y-81587112D01*
X105952537Y-81593724D01*
X105970279Y-81602116D01*
X105987114Y-81612206D01*
X106002879Y-81623898D01*
X106017421Y-81637079D01*
X106030602Y-81651621D01*
X106042294Y-81667386D01*
X106052384Y-81684221D01*
X106060776Y-81701963D01*
X106067388Y-81720443D01*
X106072157Y-81739482D01*
X106075037Y-81758897D01*
X106076000Y-81778500D01*
X106076000Y-82178500D01*
X106075037Y-82198103D01*
X106072157Y-82217518D01*
X106067388Y-82236557D01*
X106060776Y-82255037D01*
X106052384Y-82272779D01*
X106042294Y-82289614D01*
X106030602Y-82305379D01*
X106017421Y-82319921D01*
X106002879Y-82333102D01*
X105987114Y-82344794D01*
X105970279Y-82354884D01*
X105952537Y-82363276D01*
X105934057Y-82369888D01*
X105915018Y-82374657D01*
X105895603Y-82377537D01*
X105876000Y-82378500D01*
X104026000Y-82378500D01*
X104006397Y-82377537D01*
X103986982Y-82374657D01*
X103967943Y-82369888D01*
X103949463Y-82363276D01*
X103931721Y-82354884D01*
X103914886Y-82344794D01*
X103899121Y-82333102D01*
X103884579Y-82319921D01*
X103871398Y-82305379D01*
X103859706Y-82289614D01*
X103849616Y-82272779D01*
X103841224Y-82255037D01*
X103834612Y-82236557D01*
X103829843Y-82217518D01*
X103826963Y-82198103D01*
X103826000Y-82178500D01*
X103826000Y-81778500D01*
X103826963Y-81758897D01*
X103829843Y-81739482D01*
X103834612Y-81720443D01*
X103841224Y-81701963D01*
X103849616Y-81684221D01*
X103859706Y-81667386D01*
X103871398Y-81651621D01*
X103884579Y-81637079D01*
X103899121Y-81623898D01*
X103914886Y-81612206D01*
X103931721Y-81602116D01*
X103949463Y-81593724D01*
X103967943Y-81587112D01*
X103986982Y-81582343D01*
X104006397Y-81579463D01*
X104026000Y-81578500D01*
X105876000Y-81578500D01*
X105895603Y-81579463D01*
G37*
G36*
X115195603Y-81579463D02*
G01*
X115215018Y-81582343D01*
X115234057Y-81587112D01*
X115252537Y-81593724D01*
X115270279Y-81602116D01*
X115287114Y-81612206D01*
X115302879Y-81623898D01*
X115317421Y-81637079D01*
X115330602Y-81651621D01*
X115342294Y-81667386D01*
X115352384Y-81684221D01*
X115360776Y-81701963D01*
X115367388Y-81720443D01*
X115372157Y-81739482D01*
X115375037Y-81758897D01*
X115376000Y-81778500D01*
X115376000Y-82178500D01*
X115375037Y-82198103D01*
X115372157Y-82217518D01*
X115367388Y-82236557D01*
X115360776Y-82255037D01*
X115352384Y-82272779D01*
X115342294Y-82289614D01*
X115330602Y-82305379D01*
X115317421Y-82319921D01*
X115302879Y-82333102D01*
X115287114Y-82344794D01*
X115270279Y-82354884D01*
X115252537Y-82363276D01*
X115234057Y-82369888D01*
X115215018Y-82374657D01*
X115195603Y-82377537D01*
X115176000Y-82378500D01*
X113326000Y-82378500D01*
X113306397Y-82377537D01*
X113286982Y-82374657D01*
X113267943Y-82369888D01*
X113249463Y-82363276D01*
X113231721Y-82354884D01*
X113214886Y-82344794D01*
X113199121Y-82333102D01*
X113184579Y-82319921D01*
X113171398Y-82305379D01*
X113159706Y-82289614D01*
X113149616Y-82272779D01*
X113141224Y-82255037D01*
X113134612Y-82236557D01*
X113129843Y-82217518D01*
X113126963Y-82198103D01*
X113126000Y-82178500D01*
X113126000Y-81778500D01*
X113126963Y-81758897D01*
X113129843Y-81739482D01*
X113134612Y-81720443D01*
X113141224Y-81701963D01*
X113149616Y-81684221D01*
X113159706Y-81667386D01*
X113171398Y-81651621D01*
X113184579Y-81637079D01*
X113199121Y-81623898D01*
X113214886Y-81612206D01*
X113231721Y-81602116D01*
X113249463Y-81593724D01*
X113267943Y-81587112D01*
X113286982Y-81582343D01*
X113306397Y-81579463D01*
X113326000Y-81578500D01*
X115176000Y-81578500D01*
X115195603Y-81579463D01*
G37*
G36*
X115195603Y-82849463D02*
G01*
X115215018Y-82852343D01*
X115234057Y-82857112D01*
X115252537Y-82863724D01*
X115270279Y-82872116D01*
X115287114Y-82882206D01*
X115302879Y-82893898D01*
X115317421Y-82907079D01*
X115330602Y-82921621D01*
X115342294Y-82937386D01*
X115352384Y-82954221D01*
X115360776Y-82971963D01*
X115367388Y-82990443D01*
X115372157Y-83009482D01*
X115375037Y-83028897D01*
X115376000Y-83048500D01*
X115376000Y-83448500D01*
X115375037Y-83468103D01*
X115372157Y-83487518D01*
X115367388Y-83506557D01*
X115360776Y-83525037D01*
X115352384Y-83542779D01*
X115342294Y-83559614D01*
X115330602Y-83575379D01*
X115317421Y-83589921D01*
X115302879Y-83603102D01*
X115287114Y-83614794D01*
X115270279Y-83624884D01*
X115252537Y-83633276D01*
X115234057Y-83639888D01*
X115215018Y-83644657D01*
X115195603Y-83647537D01*
X115176000Y-83648500D01*
X113326000Y-83648500D01*
X113306397Y-83647537D01*
X113286982Y-83644657D01*
X113267943Y-83639888D01*
X113249463Y-83633276D01*
X113231721Y-83624884D01*
X113214886Y-83614794D01*
X113199121Y-83603102D01*
X113184579Y-83589921D01*
X113171398Y-83575379D01*
X113159706Y-83559614D01*
X113149616Y-83542779D01*
X113141224Y-83525037D01*
X113134612Y-83506557D01*
X113129843Y-83487518D01*
X113126963Y-83468103D01*
X113126000Y-83448500D01*
X113126000Y-83048500D01*
X113126963Y-83028897D01*
X113129843Y-83009482D01*
X113134612Y-82990443D01*
X113141224Y-82971963D01*
X113149616Y-82954221D01*
X113159706Y-82937386D01*
X113171398Y-82921621D01*
X113184579Y-82907079D01*
X113199121Y-82893898D01*
X113214886Y-82882206D01*
X113231721Y-82872116D01*
X113249463Y-82863724D01*
X113267943Y-82857112D01*
X113286982Y-82852343D01*
X113306397Y-82849463D01*
X113326000Y-82848500D01*
X115176000Y-82848500D01*
X115195603Y-82849463D01*
G37*
G36*
X115195603Y-84119463D02*
G01*
X115215018Y-84122343D01*
X115234057Y-84127112D01*
X115252537Y-84133724D01*
X115270279Y-84142116D01*
X115287114Y-84152206D01*
X115302879Y-84163898D01*
X115317421Y-84177079D01*
X115330602Y-84191621D01*
X115342294Y-84207386D01*
X115352384Y-84224221D01*
X115360776Y-84241963D01*
X115367388Y-84260443D01*
X115372157Y-84279482D01*
X115375037Y-84298897D01*
X115376000Y-84318500D01*
X115376000Y-84718500D01*
X115375037Y-84738103D01*
X115372157Y-84757518D01*
X115367388Y-84776557D01*
X115360776Y-84795037D01*
X115352384Y-84812779D01*
X115342294Y-84829614D01*
X115330602Y-84845379D01*
X115317421Y-84859921D01*
X115302879Y-84873102D01*
X115287114Y-84884794D01*
X115270279Y-84894884D01*
X115252537Y-84903276D01*
X115234057Y-84909888D01*
X115215018Y-84914657D01*
X115195603Y-84917537D01*
X115176000Y-84918500D01*
X113326000Y-84918500D01*
X113306397Y-84917537D01*
X113286982Y-84914657D01*
X113267943Y-84909888D01*
X113249463Y-84903276D01*
X113231721Y-84894884D01*
X113214886Y-84884794D01*
X113199121Y-84873102D01*
X113184579Y-84859921D01*
X113171398Y-84845379D01*
X113159706Y-84829614D01*
X113149616Y-84812779D01*
X113141224Y-84795037D01*
X113134612Y-84776557D01*
X113129843Y-84757518D01*
X113126963Y-84738103D01*
X113126000Y-84718500D01*
X113126000Y-84318500D01*
X113126963Y-84298897D01*
X113129843Y-84279482D01*
X113134612Y-84260443D01*
X113141224Y-84241963D01*
X113149616Y-84224221D01*
X113159706Y-84207386D01*
X113171398Y-84191621D01*
X113184579Y-84177079D01*
X113199121Y-84163898D01*
X113214886Y-84152206D01*
X113231721Y-84142116D01*
X113249463Y-84133724D01*
X113267943Y-84127112D01*
X113286982Y-84122343D01*
X113306397Y-84119463D01*
X113326000Y-84118500D01*
X115176000Y-84118500D01*
X115195603Y-84119463D01*
G37*
G36*
X115195603Y-85389463D02*
G01*
X115215018Y-85392343D01*
X115234057Y-85397112D01*
X115252537Y-85403724D01*
X115270279Y-85412116D01*
X115287114Y-85422206D01*
X115302879Y-85433898D01*
X115317421Y-85447079D01*
X115330602Y-85461621D01*
X115342294Y-85477386D01*
X115352384Y-85494221D01*
X115360776Y-85511963D01*
X115367388Y-85530443D01*
X115372157Y-85549482D01*
X115375037Y-85568897D01*
X115376000Y-85588500D01*
X115376000Y-85988500D01*
X115375037Y-86008103D01*
X115372157Y-86027518D01*
X115367388Y-86046557D01*
X115360776Y-86065037D01*
X115352384Y-86082779D01*
X115342294Y-86099614D01*
X115330602Y-86115379D01*
X115317421Y-86129921D01*
X115302879Y-86143102D01*
X115287114Y-86154794D01*
X115270279Y-86164884D01*
X115252537Y-86173276D01*
X115234057Y-86179888D01*
X115215018Y-86184657D01*
X115195603Y-86187537D01*
X115176000Y-86188500D01*
X113326000Y-86188500D01*
X113306397Y-86187537D01*
X113286982Y-86184657D01*
X113267943Y-86179888D01*
X113249463Y-86173276D01*
X113231721Y-86164884D01*
X113214886Y-86154794D01*
X113199121Y-86143102D01*
X113184579Y-86129921D01*
X113171398Y-86115379D01*
X113159706Y-86099614D01*
X113149616Y-86082779D01*
X113141224Y-86065037D01*
X113134612Y-86046557D01*
X113129843Y-86027518D01*
X113126963Y-86008103D01*
X113126000Y-85988500D01*
X113126000Y-85588500D01*
X113126963Y-85568897D01*
X113129843Y-85549482D01*
X113134612Y-85530443D01*
X113141224Y-85511963D01*
X113149616Y-85494221D01*
X113159706Y-85477386D01*
X113171398Y-85461621D01*
X113184579Y-85447079D01*
X113199121Y-85433898D01*
X113214886Y-85422206D01*
X113231721Y-85412116D01*
X113249463Y-85403724D01*
X113267943Y-85397112D01*
X113286982Y-85392343D01*
X113306397Y-85389463D01*
X113326000Y-85388500D01*
X115176000Y-85388500D01*
X115195603Y-85389463D01*
G37*
G36*
X115195603Y-86659463D02*
G01*
X115215018Y-86662343D01*
X115234057Y-86667112D01*
X115252537Y-86673724D01*
X115270279Y-86682116D01*
X115287114Y-86692206D01*
X115302879Y-86703898D01*
X115317421Y-86717079D01*
X115330602Y-86731621D01*
X115342294Y-86747386D01*
X115352384Y-86764221D01*
X115360776Y-86781963D01*
X115367388Y-86800443D01*
X115372157Y-86819482D01*
X115375037Y-86838897D01*
X115376000Y-86858500D01*
X115376000Y-87258500D01*
X115375037Y-87278103D01*
X115372157Y-87297518D01*
X115367388Y-87316557D01*
X115360776Y-87335037D01*
X115352384Y-87352779D01*
X115342294Y-87369614D01*
X115330602Y-87385379D01*
X115317421Y-87399921D01*
X115302879Y-87413102D01*
X115287114Y-87424794D01*
X115270279Y-87434884D01*
X115252537Y-87443276D01*
X115234057Y-87449888D01*
X115215018Y-87454657D01*
X115195603Y-87457537D01*
X115176000Y-87458500D01*
X113326000Y-87458500D01*
X113306397Y-87457537D01*
X113286982Y-87454657D01*
X113267943Y-87449888D01*
X113249463Y-87443276D01*
X113231721Y-87434884D01*
X113214886Y-87424794D01*
X113199121Y-87413102D01*
X113184579Y-87399921D01*
X113171398Y-87385379D01*
X113159706Y-87369614D01*
X113149616Y-87352779D01*
X113141224Y-87335037D01*
X113134612Y-87316557D01*
X113129843Y-87297518D01*
X113126963Y-87278103D01*
X113126000Y-87258500D01*
X113126000Y-86858500D01*
X113126963Y-86838897D01*
X113129843Y-86819482D01*
X113134612Y-86800443D01*
X113141224Y-86781963D01*
X113149616Y-86764221D01*
X113159706Y-86747386D01*
X113171398Y-86731621D01*
X113184579Y-86717079D01*
X113199121Y-86703898D01*
X113214886Y-86692206D01*
X113231721Y-86682116D01*
X113249463Y-86673724D01*
X113267943Y-86667112D01*
X113286982Y-86662343D01*
X113306397Y-86659463D01*
X113326000Y-86658500D01*
X115176000Y-86658500D01*
X115195603Y-86659463D01*
G37*
G36*
X115195603Y-87929463D02*
G01*
X115215018Y-87932343D01*
X115234057Y-87937112D01*
X115252537Y-87943724D01*
X115270279Y-87952116D01*
X115287114Y-87962206D01*
X115302879Y-87973898D01*
X115317421Y-87987079D01*
X115330602Y-88001621D01*
X115342294Y-88017386D01*
X115352384Y-88034221D01*
X115360776Y-88051963D01*
X115367388Y-88070443D01*
X115372157Y-88089482D01*
X115375037Y-88108897D01*
X115376000Y-88128500D01*
X115376000Y-88528500D01*
X115375037Y-88548103D01*
X115372157Y-88567518D01*
X115367388Y-88586557D01*
X115360776Y-88605037D01*
X115352384Y-88622779D01*
X115342294Y-88639614D01*
X115330602Y-88655379D01*
X115317421Y-88669921D01*
X115302879Y-88683102D01*
X115287114Y-88694794D01*
X115270279Y-88704884D01*
X115252537Y-88713276D01*
X115234057Y-88719888D01*
X115215018Y-88724657D01*
X115195603Y-88727537D01*
X115176000Y-88728500D01*
X113326000Y-88728500D01*
X113306397Y-88727537D01*
X113286982Y-88724657D01*
X113267943Y-88719888D01*
X113249463Y-88713276D01*
X113231721Y-88704884D01*
X113214886Y-88694794D01*
X113199121Y-88683102D01*
X113184579Y-88669921D01*
X113171398Y-88655379D01*
X113159706Y-88639614D01*
X113149616Y-88622779D01*
X113141224Y-88605037D01*
X113134612Y-88586557D01*
X113129843Y-88567518D01*
X113126963Y-88548103D01*
X113126000Y-88528500D01*
X113126000Y-88128500D01*
X113126963Y-88108897D01*
X113129843Y-88089482D01*
X113134612Y-88070443D01*
X113141224Y-88051963D01*
X113149616Y-88034221D01*
X113159706Y-88017386D01*
X113171398Y-88001621D01*
X113184579Y-87987079D01*
X113199121Y-87973898D01*
X113214886Y-87962206D01*
X113231721Y-87952116D01*
X113249463Y-87943724D01*
X113267943Y-87937112D01*
X113286982Y-87932343D01*
X113306397Y-87929463D01*
X113326000Y-87928500D01*
X115176000Y-87928500D01*
X115195603Y-87929463D01*
G37*
G36*
X115195603Y-89199463D02*
G01*
X115215018Y-89202343D01*
X115234057Y-89207112D01*
X115252537Y-89213724D01*
X115270279Y-89222116D01*
X115287114Y-89232206D01*
X115302879Y-89243898D01*
X115317421Y-89257079D01*
X115330602Y-89271621D01*
X115342294Y-89287386D01*
X115352384Y-89304221D01*
X115360776Y-89321963D01*
X115367388Y-89340443D01*
X115372157Y-89359482D01*
X115375037Y-89378897D01*
X115376000Y-89398500D01*
X115376000Y-89798500D01*
X115375037Y-89818103D01*
X115372157Y-89837518D01*
X115367388Y-89856557D01*
X115360776Y-89875037D01*
X115352384Y-89892779D01*
X115342294Y-89909614D01*
X115330602Y-89925379D01*
X115317421Y-89939921D01*
X115302879Y-89953102D01*
X115287114Y-89964794D01*
X115270279Y-89974884D01*
X115252537Y-89983276D01*
X115234057Y-89989888D01*
X115215018Y-89994657D01*
X115195603Y-89997537D01*
X115176000Y-89998500D01*
X113326000Y-89998500D01*
X113306397Y-89997537D01*
X113286982Y-89994657D01*
X113267943Y-89989888D01*
X113249463Y-89983276D01*
X113231721Y-89974884D01*
X113214886Y-89964794D01*
X113199121Y-89953102D01*
X113184579Y-89939921D01*
X113171398Y-89925379D01*
X113159706Y-89909614D01*
X113149616Y-89892779D01*
X113141224Y-89875037D01*
X113134612Y-89856557D01*
X113129843Y-89837518D01*
X113126963Y-89818103D01*
X113126000Y-89798500D01*
X113126000Y-89398500D01*
X113126963Y-89378897D01*
X113129843Y-89359482D01*
X113134612Y-89340443D01*
X113141224Y-89321963D01*
X113149616Y-89304221D01*
X113159706Y-89287386D01*
X113171398Y-89271621D01*
X113184579Y-89257079D01*
X113199121Y-89243898D01*
X113214886Y-89232206D01*
X113231721Y-89222116D01*
X113249463Y-89213724D01*
X113267943Y-89207112D01*
X113286982Y-89202343D01*
X113306397Y-89199463D01*
X113326000Y-89198500D01*
X115176000Y-89198500D01*
X115195603Y-89199463D01*
G37*
G36*
X115195603Y-90469463D02*
G01*
X115215018Y-90472343D01*
X115234057Y-90477112D01*
X115252537Y-90483724D01*
X115270279Y-90492116D01*
X115287114Y-90502206D01*
X115302879Y-90513898D01*
X115317421Y-90527079D01*
X115330602Y-90541621D01*
X115342294Y-90557386D01*
X115352384Y-90574221D01*
X115360776Y-90591963D01*
X115367388Y-90610443D01*
X115372157Y-90629482D01*
X115375037Y-90648897D01*
X115376000Y-90668500D01*
X115376000Y-91068500D01*
X115375037Y-91088103D01*
X115372157Y-91107518D01*
X115367388Y-91126557D01*
X115360776Y-91145037D01*
X115352384Y-91162779D01*
X115342294Y-91179614D01*
X115330602Y-91195379D01*
X115317421Y-91209921D01*
X115302879Y-91223102D01*
X115287114Y-91234794D01*
X115270279Y-91244884D01*
X115252537Y-91253276D01*
X115234057Y-91259888D01*
X115215018Y-91264657D01*
X115195603Y-91267537D01*
X115176000Y-91268500D01*
X113326000Y-91268500D01*
X113306397Y-91267537D01*
X113286982Y-91264657D01*
X113267943Y-91259888D01*
X113249463Y-91253276D01*
X113231721Y-91244884D01*
X113214886Y-91234794D01*
X113199121Y-91223102D01*
X113184579Y-91209921D01*
X113171398Y-91195379D01*
X113159706Y-91179614D01*
X113149616Y-91162779D01*
X113141224Y-91145037D01*
X113134612Y-91126557D01*
X113129843Y-91107518D01*
X113126963Y-91088103D01*
X113126000Y-91068500D01*
X113126000Y-90668500D01*
X113126963Y-90648897D01*
X113129843Y-90629482D01*
X113134612Y-90610443D01*
X113141224Y-90591963D01*
X113149616Y-90574221D01*
X113159706Y-90557386D01*
X113171398Y-90541621D01*
X113184579Y-90527079D01*
X113199121Y-90513898D01*
X113214886Y-90502206D01*
X113231721Y-90492116D01*
X113249463Y-90483724D01*
X113267943Y-90477112D01*
X113286982Y-90472343D01*
X113306397Y-90469463D01*
X113326000Y-90468500D01*
X115176000Y-90468500D01*
X115195603Y-90469463D01*
G37*
G36*
X115195603Y-91739463D02*
G01*
X115215018Y-91742343D01*
X115234057Y-91747112D01*
X115252537Y-91753724D01*
X115270279Y-91762116D01*
X115287114Y-91772206D01*
X115302879Y-91783898D01*
X115317421Y-91797079D01*
X115330602Y-91811621D01*
X115342294Y-91827386D01*
X115352384Y-91844221D01*
X115360776Y-91861963D01*
X115367388Y-91880443D01*
X115372157Y-91899482D01*
X115375037Y-91918897D01*
X115376000Y-91938500D01*
X115376000Y-92338500D01*
X115375037Y-92358103D01*
X115372157Y-92377518D01*
X115367388Y-92396557D01*
X115360776Y-92415037D01*
X115352384Y-92432779D01*
X115342294Y-92449614D01*
X115330602Y-92465379D01*
X115317421Y-92479921D01*
X115302879Y-92493102D01*
X115287114Y-92504794D01*
X115270279Y-92514884D01*
X115252537Y-92523276D01*
X115234057Y-92529888D01*
X115215018Y-92534657D01*
X115195603Y-92537537D01*
X115176000Y-92538500D01*
X113326000Y-92538500D01*
X113306397Y-92537537D01*
X113286982Y-92534657D01*
X113267943Y-92529888D01*
X113249463Y-92523276D01*
X113231721Y-92514884D01*
X113214886Y-92504794D01*
X113199121Y-92493102D01*
X113184579Y-92479921D01*
X113171398Y-92465379D01*
X113159706Y-92449614D01*
X113149616Y-92432779D01*
X113141224Y-92415037D01*
X113134612Y-92396557D01*
X113129843Y-92377518D01*
X113126963Y-92358103D01*
X113126000Y-92338500D01*
X113126000Y-91938500D01*
X113126963Y-91918897D01*
X113129843Y-91899482D01*
X113134612Y-91880443D01*
X113141224Y-91861963D01*
X113149616Y-91844221D01*
X113159706Y-91827386D01*
X113171398Y-91811621D01*
X113184579Y-91797079D01*
X113199121Y-91783898D01*
X113214886Y-91772206D01*
X113231721Y-91762116D01*
X113249463Y-91753724D01*
X113267943Y-91747112D01*
X113286982Y-91742343D01*
X113306397Y-91739463D01*
X113326000Y-91738500D01*
X115176000Y-91738500D01*
X115195603Y-91739463D01*
G37*
D15*
X95631000Y-79438500D03*
D10*
G36*
X96504527Y-80439042D02*
G01*
X96515448Y-80440662D01*
X96526157Y-80443344D01*
X96536552Y-80447064D01*
X96546532Y-80451784D01*
X96556002Y-80457460D01*
X96564869Y-80464036D01*
X96573050Y-80471450D01*
X96580464Y-80479631D01*
X96587040Y-80488498D01*
X96592716Y-80497968D01*
X96597436Y-80507948D01*
X96601156Y-80518343D01*
X96603838Y-80529052D01*
X96605458Y-80539973D01*
X96606000Y-80551000D01*
X96606000Y-81301000D01*
X96605458Y-81312027D01*
X96603838Y-81322948D01*
X96601156Y-81333657D01*
X96597436Y-81344052D01*
X96592716Y-81354032D01*
X96587040Y-81363502D01*
X96580464Y-81372369D01*
X96573050Y-81380550D01*
X96564869Y-81387964D01*
X96556002Y-81394540D01*
X96546532Y-81400216D01*
X96536552Y-81404936D01*
X96526157Y-81408656D01*
X96515448Y-81411338D01*
X96504527Y-81412958D01*
X96493500Y-81413500D01*
X96268500Y-81413500D01*
X96257473Y-81412958D01*
X96246552Y-81411338D01*
X96235843Y-81408656D01*
X96225448Y-81404936D01*
X96215468Y-81400216D01*
X96205998Y-81394540D01*
X96197131Y-81387964D01*
X96188950Y-81380550D01*
X96181536Y-81372369D01*
X96174960Y-81363502D01*
X96169284Y-81354032D01*
X96164564Y-81344052D01*
X96160844Y-81333657D01*
X96158162Y-81322948D01*
X96156542Y-81312027D01*
X96156000Y-81301000D01*
X96156000Y-80551000D01*
X96156542Y-80539973D01*
X96158162Y-80529052D01*
X96160844Y-80518343D01*
X96164564Y-80507948D01*
X96169284Y-80497968D01*
X96174960Y-80488498D01*
X96181536Y-80479631D01*
X96188950Y-80471450D01*
X96197131Y-80464036D01*
X96205998Y-80457460D01*
X96215468Y-80451784D01*
X96225448Y-80447064D01*
X96235843Y-80443344D01*
X96246552Y-80440662D01*
X96257473Y-80439042D01*
X96268500Y-80438500D01*
X96493500Y-80438500D01*
X96504527Y-80439042D01*
G37*
G36*
X96004527Y-80439042D02*
G01*
X96015448Y-80440662D01*
X96026157Y-80443344D01*
X96036552Y-80447064D01*
X96046532Y-80451784D01*
X96056002Y-80457460D01*
X96064869Y-80464036D01*
X96073050Y-80471450D01*
X96080464Y-80479631D01*
X96087040Y-80488498D01*
X96092716Y-80497968D01*
X96097436Y-80507948D01*
X96101156Y-80518343D01*
X96103838Y-80529052D01*
X96105458Y-80539973D01*
X96106000Y-80551000D01*
X96106000Y-81301000D01*
X96105458Y-81312027D01*
X96103838Y-81322948D01*
X96101156Y-81333657D01*
X96097436Y-81344052D01*
X96092716Y-81354032D01*
X96087040Y-81363502D01*
X96080464Y-81372369D01*
X96073050Y-81380550D01*
X96064869Y-81387964D01*
X96056002Y-81394540D01*
X96046532Y-81400216D01*
X96036552Y-81404936D01*
X96026157Y-81408656D01*
X96015448Y-81411338D01*
X96004527Y-81412958D01*
X95993500Y-81413500D01*
X95768500Y-81413500D01*
X95757473Y-81412958D01*
X95746552Y-81411338D01*
X95735843Y-81408656D01*
X95725448Y-81404936D01*
X95715468Y-81400216D01*
X95705998Y-81394540D01*
X95697131Y-81387964D01*
X95688950Y-81380550D01*
X95681536Y-81372369D01*
X95674960Y-81363502D01*
X95669284Y-81354032D01*
X95664564Y-81344052D01*
X95660844Y-81333657D01*
X95658162Y-81322948D01*
X95656542Y-81312027D01*
X95656000Y-81301000D01*
X95656000Y-80551000D01*
X95656542Y-80539973D01*
X95658162Y-80529052D01*
X95660844Y-80518343D01*
X95664564Y-80507948D01*
X95669284Y-80497968D01*
X95674960Y-80488498D01*
X95681536Y-80479631D01*
X95688950Y-80471450D01*
X95697131Y-80464036D01*
X95705998Y-80457460D01*
X95715468Y-80451784D01*
X95725448Y-80447064D01*
X95735843Y-80443344D01*
X95746552Y-80440662D01*
X95757473Y-80439042D01*
X95768500Y-80438500D01*
X95993500Y-80438500D01*
X96004527Y-80439042D01*
G37*
G36*
X95504527Y-80439042D02*
G01*
X95515448Y-80440662D01*
X95526157Y-80443344D01*
X95536552Y-80447064D01*
X95546532Y-80451784D01*
X95556002Y-80457460D01*
X95564869Y-80464036D01*
X95573050Y-80471450D01*
X95580464Y-80479631D01*
X95587040Y-80488498D01*
X95592716Y-80497968D01*
X95597436Y-80507948D01*
X95601156Y-80518343D01*
X95603838Y-80529052D01*
X95605458Y-80539973D01*
X95606000Y-80551000D01*
X95606000Y-81301000D01*
X95605458Y-81312027D01*
X95603838Y-81322948D01*
X95601156Y-81333657D01*
X95597436Y-81344052D01*
X95592716Y-81354032D01*
X95587040Y-81363502D01*
X95580464Y-81372369D01*
X95573050Y-81380550D01*
X95564869Y-81387964D01*
X95556002Y-81394540D01*
X95546532Y-81400216D01*
X95536552Y-81404936D01*
X95526157Y-81408656D01*
X95515448Y-81411338D01*
X95504527Y-81412958D01*
X95493500Y-81413500D01*
X95268500Y-81413500D01*
X95257473Y-81412958D01*
X95246552Y-81411338D01*
X95235843Y-81408656D01*
X95225448Y-81404936D01*
X95215468Y-81400216D01*
X95205998Y-81394540D01*
X95197131Y-81387964D01*
X95188950Y-81380550D01*
X95181536Y-81372369D01*
X95174960Y-81363502D01*
X95169284Y-81354032D01*
X95164564Y-81344052D01*
X95160844Y-81333657D01*
X95158162Y-81322948D01*
X95156542Y-81312027D01*
X95156000Y-81301000D01*
X95156000Y-80551000D01*
X95156542Y-80539973D01*
X95158162Y-80529052D01*
X95160844Y-80518343D01*
X95164564Y-80507948D01*
X95169284Y-80497968D01*
X95174960Y-80488498D01*
X95181536Y-80479631D01*
X95188950Y-80471450D01*
X95197131Y-80464036D01*
X95205998Y-80457460D01*
X95215468Y-80451784D01*
X95225448Y-80447064D01*
X95235843Y-80443344D01*
X95246552Y-80440662D01*
X95257473Y-80439042D01*
X95268500Y-80438500D01*
X95493500Y-80438500D01*
X95504527Y-80439042D01*
G37*
G36*
X95004527Y-80439042D02*
G01*
X95015448Y-80440662D01*
X95026157Y-80443344D01*
X95036552Y-80447064D01*
X95046532Y-80451784D01*
X95056002Y-80457460D01*
X95064869Y-80464036D01*
X95073050Y-80471450D01*
X95080464Y-80479631D01*
X95087040Y-80488498D01*
X95092716Y-80497968D01*
X95097436Y-80507948D01*
X95101156Y-80518343D01*
X95103838Y-80529052D01*
X95105458Y-80539973D01*
X95106000Y-80551000D01*
X95106000Y-81301000D01*
X95105458Y-81312027D01*
X95103838Y-81322948D01*
X95101156Y-81333657D01*
X95097436Y-81344052D01*
X95092716Y-81354032D01*
X95087040Y-81363502D01*
X95080464Y-81372369D01*
X95073050Y-81380550D01*
X95064869Y-81387964D01*
X95056002Y-81394540D01*
X95046532Y-81400216D01*
X95036552Y-81404936D01*
X95026157Y-81408656D01*
X95015448Y-81411338D01*
X95004527Y-81412958D01*
X94993500Y-81413500D01*
X94768500Y-81413500D01*
X94757473Y-81412958D01*
X94746552Y-81411338D01*
X94735843Y-81408656D01*
X94725448Y-81404936D01*
X94715468Y-81400216D01*
X94705998Y-81394540D01*
X94697131Y-81387964D01*
X94688950Y-81380550D01*
X94681536Y-81372369D01*
X94674960Y-81363502D01*
X94669284Y-81354032D01*
X94664564Y-81344052D01*
X94660844Y-81333657D01*
X94658162Y-81322948D01*
X94656542Y-81312027D01*
X94656000Y-81301000D01*
X94656000Y-80551000D01*
X94656542Y-80539973D01*
X94658162Y-80529052D01*
X94660844Y-80518343D01*
X94664564Y-80507948D01*
X94669284Y-80497968D01*
X94674960Y-80488498D01*
X94681536Y-80479631D01*
X94688950Y-80471450D01*
X94697131Y-80464036D01*
X94705998Y-80457460D01*
X94715468Y-80451784D01*
X94725448Y-80447064D01*
X94735843Y-80443344D01*
X94746552Y-80440662D01*
X94757473Y-80439042D01*
X94768500Y-80438500D01*
X94993500Y-80438500D01*
X95004527Y-80439042D01*
G37*
G36*
X94529527Y-79964042D02*
G01*
X94540448Y-79965662D01*
X94551157Y-79968344D01*
X94561552Y-79972064D01*
X94571532Y-79976784D01*
X94581002Y-79982460D01*
X94589869Y-79989036D01*
X94598050Y-79996450D01*
X94605464Y-80004631D01*
X94612040Y-80013498D01*
X94617716Y-80022968D01*
X94622436Y-80032948D01*
X94626156Y-80043343D01*
X94628838Y-80054052D01*
X94630458Y-80064973D01*
X94631000Y-80076000D01*
X94631000Y-80301000D01*
X94630458Y-80312027D01*
X94628838Y-80322948D01*
X94626156Y-80333657D01*
X94622436Y-80344052D01*
X94617716Y-80354032D01*
X94612040Y-80363502D01*
X94605464Y-80372369D01*
X94598050Y-80380550D01*
X94589869Y-80387964D01*
X94581002Y-80394540D01*
X94571532Y-80400216D01*
X94561552Y-80404936D01*
X94551157Y-80408656D01*
X94540448Y-80411338D01*
X94529527Y-80412958D01*
X94518500Y-80413500D01*
X93768500Y-80413500D01*
X93757473Y-80412958D01*
X93746552Y-80411338D01*
X93735843Y-80408656D01*
X93725448Y-80404936D01*
X93715468Y-80400216D01*
X93705998Y-80394540D01*
X93697131Y-80387964D01*
X93688950Y-80380550D01*
X93681536Y-80372369D01*
X93674960Y-80363502D01*
X93669284Y-80354032D01*
X93664564Y-80344052D01*
X93660844Y-80333657D01*
X93658162Y-80322948D01*
X93656542Y-80312027D01*
X93656000Y-80301000D01*
X93656000Y-80076000D01*
X93656542Y-80064973D01*
X93658162Y-80054052D01*
X93660844Y-80043343D01*
X93664564Y-80032948D01*
X93669284Y-80022968D01*
X93674960Y-80013498D01*
X93681536Y-80004631D01*
X93688950Y-79996450D01*
X93697131Y-79989036D01*
X93705998Y-79982460D01*
X93715468Y-79976784D01*
X93725448Y-79972064D01*
X93735843Y-79968344D01*
X93746552Y-79965662D01*
X93757473Y-79964042D01*
X93768500Y-79963500D01*
X94518500Y-79963500D01*
X94529527Y-79964042D01*
G37*
G36*
X94529527Y-79464042D02*
G01*
X94540448Y-79465662D01*
X94551157Y-79468344D01*
X94561552Y-79472064D01*
X94571532Y-79476784D01*
X94581002Y-79482460D01*
X94589869Y-79489036D01*
X94598050Y-79496450D01*
X94605464Y-79504631D01*
X94612040Y-79513498D01*
X94617716Y-79522968D01*
X94622436Y-79532948D01*
X94626156Y-79543343D01*
X94628838Y-79554052D01*
X94630458Y-79564973D01*
X94631000Y-79576000D01*
X94631000Y-79801000D01*
X94630458Y-79812027D01*
X94628838Y-79822948D01*
X94626156Y-79833657D01*
X94622436Y-79844052D01*
X94617716Y-79854032D01*
X94612040Y-79863502D01*
X94605464Y-79872369D01*
X94598050Y-79880550D01*
X94589869Y-79887964D01*
X94581002Y-79894540D01*
X94571532Y-79900216D01*
X94561552Y-79904936D01*
X94551157Y-79908656D01*
X94540448Y-79911338D01*
X94529527Y-79912958D01*
X94518500Y-79913500D01*
X93768500Y-79913500D01*
X93757473Y-79912958D01*
X93746552Y-79911338D01*
X93735843Y-79908656D01*
X93725448Y-79904936D01*
X93715468Y-79900216D01*
X93705998Y-79894540D01*
X93697131Y-79887964D01*
X93688950Y-79880550D01*
X93681536Y-79872369D01*
X93674960Y-79863502D01*
X93669284Y-79854032D01*
X93664564Y-79844052D01*
X93660844Y-79833657D01*
X93658162Y-79822948D01*
X93656542Y-79812027D01*
X93656000Y-79801000D01*
X93656000Y-79576000D01*
X93656542Y-79564973D01*
X93658162Y-79554052D01*
X93660844Y-79543343D01*
X93664564Y-79532948D01*
X93669284Y-79522968D01*
X93674960Y-79513498D01*
X93681536Y-79504631D01*
X93688950Y-79496450D01*
X93697131Y-79489036D01*
X93705998Y-79482460D01*
X93715468Y-79476784D01*
X93725448Y-79472064D01*
X93735843Y-79468344D01*
X93746552Y-79465662D01*
X93757473Y-79464042D01*
X93768500Y-79463500D01*
X94518500Y-79463500D01*
X94529527Y-79464042D01*
G37*
G36*
X94529527Y-78964042D02*
G01*
X94540448Y-78965662D01*
X94551157Y-78968344D01*
X94561552Y-78972064D01*
X94571532Y-78976784D01*
X94581002Y-78982460D01*
X94589869Y-78989036D01*
X94598050Y-78996450D01*
X94605464Y-79004631D01*
X94612040Y-79013498D01*
X94617716Y-79022968D01*
X94622436Y-79032948D01*
X94626156Y-79043343D01*
X94628838Y-79054052D01*
X94630458Y-79064973D01*
X94631000Y-79076000D01*
X94631000Y-79301000D01*
X94630458Y-79312027D01*
X94628838Y-79322948D01*
X94626156Y-79333657D01*
X94622436Y-79344052D01*
X94617716Y-79354032D01*
X94612040Y-79363502D01*
X94605464Y-79372369D01*
X94598050Y-79380550D01*
X94589869Y-79387964D01*
X94581002Y-79394540D01*
X94571532Y-79400216D01*
X94561552Y-79404936D01*
X94551157Y-79408656D01*
X94540448Y-79411338D01*
X94529527Y-79412958D01*
X94518500Y-79413500D01*
X93768500Y-79413500D01*
X93757473Y-79412958D01*
X93746552Y-79411338D01*
X93735843Y-79408656D01*
X93725448Y-79404936D01*
X93715468Y-79400216D01*
X93705998Y-79394540D01*
X93697131Y-79387964D01*
X93688950Y-79380550D01*
X93681536Y-79372369D01*
X93674960Y-79363502D01*
X93669284Y-79354032D01*
X93664564Y-79344052D01*
X93660844Y-79333657D01*
X93658162Y-79322948D01*
X93656542Y-79312027D01*
X93656000Y-79301000D01*
X93656000Y-79076000D01*
X93656542Y-79064973D01*
X93658162Y-79054052D01*
X93660844Y-79043343D01*
X93664564Y-79032948D01*
X93669284Y-79022968D01*
X93674960Y-79013498D01*
X93681536Y-79004631D01*
X93688950Y-78996450D01*
X93697131Y-78989036D01*
X93705998Y-78982460D01*
X93715468Y-78976784D01*
X93725448Y-78972064D01*
X93735843Y-78968344D01*
X93746552Y-78965662D01*
X93757473Y-78964042D01*
X93768500Y-78963500D01*
X94518500Y-78963500D01*
X94529527Y-78964042D01*
G37*
G36*
X94529527Y-78464042D02*
G01*
X94540448Y-78465662D01*
X94551157Y-78468344D01*
X94561552Y-78472064D01*
X94571532Y-78476784D01*
X94581002Y-78482460D01*
X94589869Y-78489036D01*
X94598050Y-78496450D01*
X94605464Y-78504631D01*
X94612040Y-78513498D01*
X94617716Y-78522968D01*
X94622436Y-78532948D01*
X94626156Y-78543343D01*
X94628838Y-78554052D01*
X94630458Y-78564973D01*
X94631000Y-78576000D01*
X94631000Y-78801000D01*
X94630458Y-78812027D01*
X94628838Y-78822948D01*
X94626156Y-78833657D01*
X94622436Y-78844052D01*
X94617716Y-78854032D01*
X94612040Y-78863502D01*
X94605464Y-78872369D01*
X94598050Y-78880550D01*
X94589869Y-78887964D01*
X94581002Y-78894540D01*
X94571532Y-78900216D01*
X94561552Y-78904936D01*
X94551157Y-78908656D01*
X94540448Y-78911338D01*
X94529527Y-78912958D01*
X94518500Y-78913500D01*
X93768500Y-78913500D01*
X93757473Y-78912958D01*
X93746552Y-78911338D01*
X93735843Y-78908656D01*
X93725448Y-78904936D01*
X93715468Y-78900216D01*
X93705998Y-78894540D01*
X93697131Y-78887964D01*
X93688950Y-78880550D01*
X93681536Y-78872369D01*
X93674960Y-78863502D01*
X93669284Y-78854032D01*
X93664564Y-78844052D01*
X93660844Y-78833657D01*
X93658162Y-78822948D01*
X93656542Y-78812027D01*
X93656000Y-78801000D01*
X93656000Y-78576000D01*
X93656542Y-78564973D01*
X93658162Y-78554052D01*
X93660844Y-78543343D01*
X93664564Y-78532948D01*
X93669284Y-78522968D01*
X93674960Y-78513498D01*
X93681536Y-78504631D01*
X93688950Y-78496450D01*
X93697131Y-78489036D01*
X93705998Y-78482460D01*
X93715468Y-78476784D01*
X93725448Y-78472064D01*
X93735843Y-78468344D01*
X93746552Y-78465662D01*
X93757473Y-78464042D01*
X93768500Y-78463500D01*
X94518500Y-78463500D01*
X94529527Y-78464042D01*
G37*
G36*
X95004527Y-77464042D02*
G01*
X95015448Y-77465662D01*
X95026157Y-77468344D01*
X95036552Y-77472064D01*
X95046532Y-77476784D01*
X95056002Y-77482460D01*
X95064869Y-77489036D01*
X95073050Y-77496450D01*
X95080464Y-77504631D01*
X95087040Y-77513498D01*
X95092716Y-77522968D01*
X95097436Y-77532948D01*
X95101156Y-77543343D01*
X95103838Y-77554052D01*
X95105458Y-77564973D01*
X95106000Y-77576000D01*
X95106000Y-78326000D01*
X95105458Y-78337027D01*
X95103838Y-78347948D01*
X95101156Y-78358657D01*
X95097436Y-78369052D01*
X95092716Y-78379032D01*
X95087040Y-78388502D01*
X95080464Y-78397369D01*
X95073050Y-78405550D01*
X95064869Y-78412964D01*
X95056002Y-78419540D01*
X95046532Y-78425216D01*
X95036552Y-78429936D01*
X95026157Y-78433656D01*
X95015448Y-78436338D01*
X95004527Y-78437958D01*
X94993500Y-78438500D01*
X94768500Y-78438500D01*
X94757473Y-78437958D01*
X94746552Y-78436338D01*
X94735843Y-78433656D01*
X94725448Y-78429936D01*
X94715468Y-78425216D01*
X94705998Y-78419540D01*
X94697131Y-78412964D01*
X94688950Y-78405550D01*
X94681536Y-78397369D01*
X94674960Y-78388502D01*
X94669284Y-78379032D01*
X94664564Y-78369052D01*
X94660844Y-78358657D01*
X94658162Y-78347948D01*
X94656542Y-78337027D01*
X94656000Y-78326000D01*
X94656000Y-77576000D01*
X94656542Y-77564973D01*
X94658162Y-77554052D01*
X94660844Y-77543343D01*
X94664564Y-77532948D01*
X94669284Y-77522968D01*
X94674960Y-77513498D01*
X94681536Y-77504631D01*
X94688950Y-77496450D01*
X94697131Y-77489036D01*
X94705998Y-77482460D01*
X94715468Y-77476784D01*
X94725448Y-77472064D01*
X94735843Y-77468344D01*
X94746552Y-77465662D01*
X94757473Y-77464042D01*
X94768500Y-77463500D01*
X94993500Y-77463500D01*
X95004527Y-77464042D01*
G37*
G36*
X95504527Y-77464042D02*
G01*
X95515448Y-77465662D01*
X95526157Y-77468344D01*
X95536552Y-77472064D01*
X95546532Y-77476784D01*
X95556002Y-77482460D01*
X95564869Y-77489036D01*
X95573050Y-77496450D01*
X95580464Y-77504631D01*
X95587040Y-77513498D01*
X95592716Y-77522968D01*
X95597436Y-77532948D01*
X95601156Y-77543343D01*
X95603838Y-77554052D01*
X95605458Y-77564973D01*
X95606000Y-77576000D01*
X95606000Y-78326000D01*
X95605458Y-78337027D01*
X95603838Y-78347948D01*
X95601156Y-78358657D01*
X95597436Y-78369052D01*
X95592716Y-78379032D01*
X95587040Y-78388502D01*
X95580464Y-78397369D01*
X95573050Y-78405550D01*
X95564869Y-78412964D01*
X95556002Y-78419540D01*
X95546532Y-78425216D01*
X95536552Y-78429936D01*
X95526157Y-78433656D01*
X95515448Y-78436338D01*
X95504527Y-78437958D01*
X95493500Y-78438500D01*
X95268500Y-78438500D01*
X95257473Y-78437958D01*
X95246552Y-78436338D01*
X95235843Y-78433656D01*
X95225448Y-78429936D01*
X95215468Y-78425216D01*
X95205998Y-78419540D01*
X95197131Y-78412964D01*
X95188950Y-78405550D01*
X95181536Y-78397369D01*
X95174960Y-78388502D01*
X95169284Y-78379032D01*
X95164564Y-78369052D01*
X95160844Y-78358657D01*
X95158162Y-78347948D01*
X95156542Y-78337027D01*
X95156000Y-78326000D01*
X95156000Y-77576000D01*
X95156542Y-77564973D01*
X95158162Y-77554052D01*
X95160844Y-77543343D01*
X95164564Y-77532948D01*
X95169284Y-77522968D01*
X95174960Y-77513498D01*
X95181536Y-77504631D01*
X95188950Y-77496450D01*
X95197131Y-77489036D01*
X95205998Y-77482460D01*
X95215468Y-77476784D01*
X95225448Y-77472064D01*
X95235843Y-77468344D01*
X95246552Y-77465662D01*
X95257473Y-77464042D01*
X95268500Y-77463500D01*
X95493500Y-77463500D01*
X95504527Y-77464042D01*
G37*
G36*
X96004527Y-77464042D02*
G01*
X96015448Y-77465662D01*
X96026157Y-77468344D01*
X96036552Y-77472064D01*
X96046532Y-77476784D01*
X96056002Y-77482460D01*
X96064869Y-77489036D01*
X96073050Y-77496450D01*
X96080464Y-77504631D01*
X96087040Y-77513498D01*
X96092716Y-77522968D01*
X96097436Y-77532948D01*
X96101156Y-77543343D01*
X96103838Y-77554052D01*
X96105458Y-77564973D01*
X96106000Y-77576000D01*
X96106000Y-78326000D01*
X96105458Y-78337027D01*
X96103838Y-78347948D01*
X96101156Y-78358657D01*
X96097436Y-78369052D01*
X96092716Y-78379032D01*
X96087040Y-78388502D01*
X96080464Y-78397369D01*
X96073050Y-78405550D01*
X96064869Y-78412964D01*
X96056002Y-78419540D01*
X96046532Y-78425216D01*
X96036552Y-78429936D01*
X96026157Y-78433656D01*
X96015448Y-78436338D01*
X96004527Y-78437958D01*
X95993500Y-78438500D01*
X95768500Y-78438500D01*
X95757473Y-78437958D01*
X95746552Y-78436338D01*
X95735843Y-78433656D01*
X95725448Y-78429936D01*
X95715468Y-78425216D01*
X95705998Y-78419540D01*
X95697131Y-78412964D01*
X95688950Y-78405550D01*
X95681536Y-78397369D01*
X95674960Y-78388502D01*
X95669284Y-78379032D01*
X95664564Y-78369052D01*
X95660844Y-78358657D01*
X95658162Y-78347948D01*
X95656542Y-78337027D01*
X95656000Y-78326000D01*
X95656000Y-77576000D01*
X95656542Y-77564973D01*
X95658162Y-77554052D01*
X95660844Y-77543343D01*
X95664564Y-77532948D01*
X95669284Y-77522968D01*
X95674960Y-77513498D01*
X95681536Y-77504631D01*
X95688950Y-77496450D01*
X95697131Y-77489036D01*
X95705998Y-77482460D01*
X95715468Y-77476784D01*
X95725448Y-77472064D01*
X95735843Y-77468344D01*
X95746552Y-77465662D01*
X95757473Y-77464042D01*
X95768500Y-77463500D01*
X95993500Y-77463500D01*
X96004527Y-77464042D01*
G37*
G36*
X96504527Y-77464042D02*
G01*
X96515448Y-77465662D01*
X96526157Y-77468344D01*
X96536552Y-77472064D01*
X96546532Y-77476784D01*
X96556002Y-77482460D01*
X96564869Y-77489036D01*
X96573050Y-77496450D01*
X96580464Y-77504631D01*
X96587040Y-77513498D01*
X96592716Y-77522968D01*
X96597436Y-77532948D01*
X96601156Y-77543343D01*
X96603838Y-77554052D01*
X96605458Y-77564973D01*
X96606000Y-77576000D01*
X96606000Y-78326000D01*
X96605458Y-78337027D01*
X96603838Y-78347948D01*
X96601156Y-78358657D01*
X96597436Y-78369052D01*
X96592716Y-78379032D01*
X96587040Y-78388502D01*
X96580464Y-78397369D01*
X96573050Y-78405550D01*
X96564869Y-78412964D01*
X96556002Y-78419540D01*
X96546532Y-78425216D01*
X96536552Y-78429936D01*
X96526157Y-78433656D01*
X96515448Y-78436338D01*
X96504527Y-78437958D01*
X96493500Y-78438500D01*
X96268500Y-78438500D01*
X96257473Y-78437958D01*
X96246552Y-78436338D01*
X96235843Y-78433656D01*
X96225448Y-78429936D01*
X96215468Y-78425216D01*
X96205998Y-78419540D01*
X96197131Y-78412964D01*
X96188950Y-78405550D01*
X96181536Y-78397369D01*
X96174960Y-78388502D01*
X96169284Y-78379032D01*
X96164564Y-78369052D01*
X96160844Y-78358657D01*
X96158162Y-78347948D01*
X96156542Y-78337027D01*
X96156000Y-78326000D01*
X96156000Y-77576000D01*
X96156542Y-77564973D01*
X96158162Y-77554052D01*
X96160844Y-77543343D01*
X96164564Y-77532948D01*
X96169284Y-77522968D01*
X96174960Y-77513498D01*
X96181536Y-77504631D01*
X96188950Y-77496450D01*
X96197131Y-77489036D01*
X96205998Y-77482460D01*
X96215468Y-77476784D01*
X96225448Y-77472064D01*
X96235843Y-77468344D01*
X96246552Y-77465662D01*
X96257473Y-77464042D01*
X96268500Y-77463500D01*
X96493500Y-77463500D01*
X96504527Y-77464042D01*
G37*
G36*
X97504527Y-78464042D02*
G01*
X97515448Y-78465662D01*
X97526157Y-78468344D01*
X97536552Y-78472064D01*
X97546532Y-78476784D01*
X97556002Y-78482460D01*
X97564869Y-78489036D01*
X97573050Y-78496450D01*
X97580464Y-78504631D01*
X97587040Y-78513498D01*
X97592716Y-78522968D01*
X97597436Y-78532948D01*
X97601156Y-78543343D01*
X97603838Y-78554052D01*
X97605458Y-78564973D01*
X97606000Y-78576000D01*
X97606000Y-78801000D01*
X97605458Y-78812027D01*
X97603838Y-78822948D01*
X97601156Y-78833657D01*
X97597436Y-78844052D01*
X97592716Y-78854032D01*
X97587040Y-78863502D01*
X97580464Y-78872369D01*
X97573050Y-78880550D01*
X97564869Y-78887964D01*
X97556002Y-78894540D01*
X97546532Y-78900216D01*
X97536552Y-78904936D01*
X97526157Y-78908656D01*
X97515448Y-78911338D01*
X97504527Y-78912958D01*
X97493500Y-78913500D01*
X96743500Y-78913500D01*
X96732473Y-78912958D01*
X96721552Y-78911338D01*
X96710843Y-78908656D01*
X96700448Y-78904936D01*
X96690468Y-78900216D01*
X96680998Y-78894540D01*
X96672131Y-78887964D01*
X96663950Y-78880550D01*
X96656536Y-78872369D01*
X96649960Y-78863502D01*
X96644284Y-78854032D01*
X96639564Y-78844052D01*
X96635844Y-78833657D01*
X96633162Y-78822948D01*
X96631542Y-78812027D01*
X96631000Y-78801000D01*
X96631000Y-78576000D01*
X96631542Y-78564973D01*
X96633162Y-78554052D01*
X96635844Y-78543343D01*
X96639564Y-78532948D01*
X96644284Y-78522968D01*
X96649960Y-78513498D01*
X96656536Y-78504631D01*
X96663950Y-78496450D01*
X96672131Y-78489036D01*
X96680998Y-78482460D01*
X96690468Y-78476784D01*
X96700448Y-78472064D01*
X96710843Y-78468344D01*
X96721552Y-78465662D01*
X96732473Y-78464042D01*
X96743500Y-78463500D01*
X97493500Y-78463500D01*
X97504527Y-78464042D01*
G37*
G36*
X97504527Y-78964042D02*
G01*
X97515448Y-78965662D01*
X97526157Y-78968344D01*
X97536552Y-78972064D01*
X97546532Y-78976784D01*
X97556002Y-78982460D01*
X97564869Y-78989036D01*
X97573050Y-78996450D01*
X97580464Y-79004631D01*
X97587040Y-79013498D01*
X97592716Y-79022968D01*
X97597436Y-79032948D01*
X97601156Y-79043343D01*
X97603838Y-79054052D01*
X97605458Y-79064973D01*
X97606000Y-79076000D01*
X97606000Y-79301000D01*
X97605458Y-79312027D01*
X97603838Y-79322948D01*
X97601156Y-79333657D01*
X97597436Y-79344052D01*
X97592716Y-79354032D01*
X97587040Y-79363502D01*
X97580464Y-79372369D01*
X97573050Y-79380550D01*
X97564869Y-79387964D01*
X97556002Y-79394540D01*
X97546532Y-79400216D01*
X97536552Y-79404936D01*
X97526157Y-79408656D01*
X97515448Y-79411338D01*
X97504527Y-79412958D01*
X97493500Y-79413500D01*
X96743500Y-79413500D01*
X96732473Y-79412958D01*
X96721552Y-79411338D01*
X96710843Y-79408656D01*
X96700448Y-79404936D01*
X96690468Y-79400216D01*
X96680998Y-79394540D01*
X96672131Y-79387964D01*
X96663950Y-79380550D01*
X96656536Y-79372369D01*
X96649960Y-79363502D01*
X96644284Y-79354032D01*
X96639564Y-79344052D01*
X96635844Y-79333657D01*
X96633162Y-79322948D01*
X96631542Y-79312027D01*
X96631000Y-79301000D01*
X96631000Y-79076000D01*
X96631542Y-79064973D01*
X96633162Y-79054052D01*
X96635844Y-79043343D01*
X96639564Y-79032948D01*
X96644284Y-79022968D01*
X96649960Y-79013498D01*
X96656536Y-79004631D01*
X96663950Y-78996450D01*
X96672131Y-78989036D01*
X96680998Y-78982460D01*
X96690468Y-78976784D01*
X96700448Y-78972064D01*
X96710843Y-78968344D01*
X96721552Y-78965662D01*
X96732473Y-78964042D01*
X96743500Y-78963500D01*
X97493500Y-78963500D01*
X97504527Y-78964042D01*
G37*
G36*
X97504527Y-79464042D02*
G01*
X97515448Y-79465662D01*
X97526157Y-79468344D01*
X97536552Y-79472064D01*
X97546532Y-79476784D01*
X97556002Y-79482460D01*
X97564869Y-79489036D01*
X97573050Y-79496450D01*
X97580464Y-79504631D01*
X97587040Y-79513498D01*
X97592716Y-79522968D01*
X97597436Y-79532948D01*
X97601156Y-79543343D01*
X97603838Y-79554052D01*
X97605458Y-79564973D01*
X97606000Y-79576000D01*
X97606000Y-79801000D01*
X97605458Y-79812027D01*
X97603838Y-79822948D01*
X97601156Y-79833657D01*
X97597436Y-79844052D01*
X97592716Y-79854032D01*
X97587040Y-79863502D01*
X97580464Y-79872369D01*
X97573050Y-79880550D01*
X97564869Y-79887964D01*
X97556002Y-79894540D01*
X97546532Y-79900216D01*
X97536552Y-79904936D01*
X97526157Y-79908656D01*
X97515448Y-79911338D01*
X97504527Y-79912958D01*
X97493500Y-79913500D01*
X96743500Y-79913500D01*
X96732473Y-79912958D01*
X96721552Y-79911338D01*
X96710843Y-79908656D01*
X96700448Y-79904936D01*
X96690468Y-79900216D01*
X96680998Y-79894540D01*
X96672131Y-79887964D01*
X96663950Y-79880550D01*
X96656536Y-79872369D01*
X96649960Y-79863502D01*
X96644284Y-79854032D01*
X96639564Y-79844052D01*
X96635844Y-79833657D01*
X96633162Y-79822948D01*
X96631542Y-79812027D01*
X96631000Y-79801000D01*
X96631000Y-79576000D01*
X96631542Y-79564973D01*
X96633162Y-79554052D01*
X96635844Y-79543343D01*
X96639564Y-79532948D01*
X96644284Y-79522968D01*
X96649960Y-79513498D01*
X96656536Y-79504631D01*
X96663950Y-79496450D01*
X96672131Y-79489036D01*
X96680998Y-79482460D01*
X96690468Y-79476784D01*
X96700448Y-79472064D01*
X96710843Y-79468344D01*
X96721552Y-79465662D01*
X96732473Y-79464042D01*
X96743500Y-79463500D01*
X97493500Y-79463500D01*
X97504527Y-79464042D01*
G37*
G36*
X97504527Y-79964042D02*
G01*
X97515448Y-79965662D01*
X97526157Y-79968344D01*
X97536552Y-79972064D01*
X97546532Y-79976784D01*
X97556002Y-79982460D01*
X97564869Y-79989036D01*
X97573050Y-79996450D01*
X97580464Y-80004631D01*
X97587040Y-80013498D01*
X97592716Y-80022968D01*
X97597436Y-80032948D01*
X97601156Y-80043343D01*
X97603838Y-80054052D01*
X97605458Y-80064973D01*
X97606000Y-80076000D01*
X97606000Y-80301000D01*
X97605458Y-80312027D01*
X97603838Y-80322948D01*
X97601156Y-80333657D01*
X97597436Y-80344052D01*
X97592716Y-80354032D01*
X97587040Y-80363502D01*
X97580464Y-80372369D01*
X97573050Y-80380550D01*
X97564869Y-80387964D01*
X97556002Y-80394540D01*
X97546532Y-80400216D01*
X97536552Y-80404936D01*
X97526157Y-80408656D01*
X97515448Y-80411338D01*
X97504527Y-80412958D01*
X97493500Y-80413500D01*
X96743500Y-80413500D01*
X96732473Y-80412958D01*
X96721552Y-80411338D01*
X96710843Y-80408656D01*
X96700448Y-80404936D01*
X96690468Y-80400216D01*
X96680998Y-80394540D01*
X96672131Y-80387964D01*
X96663950Y-80380550D01*
X96656536Y-80372369D01*
X96649960Y-80363502D01*
X96644284Y-80354032D01*
X96639564Y-80344052D01*
X96635844Y-80333657D01*
X96633162Y-80322948D01*
X96631542Y-80312027D01*
X96631000Y-80301000D01*
X96631000Y-80076000D01*
X96631542Y-80064973D01*
X96633162Y-80054052D01*
X96635844Y-80043343D01*
X96639564Y-80032948D01*
X96644284Y-80022968D01*
X96649960Y-80013498D01*
X96656536Y-80004631D01*
X96663950Y-79996450D01*
X96672131Y-79989036D01*
X96680998Y-79982460D01*
X96690468Y-79976784D01*
X96700448Y-79972064D01*
X96710843Y-79968344D01*
X96721552Y-79965662D01*
X96732473Y-79964042D01*
X96743500Y-79963500D01*
X97493500Y-79963500D01*
X97504527Y-79964042D01*
G37*
D16*
X142258780Y-95425260D03*
D17*
X140098780Y-97965260D03*
X140098780Y-95425260D03*
X140098780Y-92885260D03*
D18*
X140098780Y-90345260D03*
D19*
X124609860Y-76153420D03*
D20*
X124609860Y-85653420D03*
X125879860Y-85653420D03*
X127149860Y-85653420D03*
X128419860Y-85653420D03*
X129689860Y-85653420D03*
X130959860Y-85653420D03*
X123339860Y-85653420D03*
X122069860Y-85653420D03*
X119529860Y-85653420D03*
X120799860Y-85653420D03*
X118259860Y-85653420D03*
D21*
X135180000Y-63050000D03*
X135180000Y-65590000D03*
X132640000Y-63050000D03*
X132640000Y-65590000D03*
X130100000Y-63050000D03*
X130100000Y-65590000D03*
X127560000Y-63050000D03*
X127560000Y-65590000D03*
X125020000Y-63050000D03*
X125020000Y-65590000D03*
X122480000Y-63050000D03*
X122480000Y-65590000D03*
X119940000Y-63050000D03*
X119940000Y-65590000D03*
X117400000Y-63050000D03*
X117400000Y-65590000D03*
X114860000Y-63050000D03*
X114860000Y-65590000D03*
X112320000Y-63050000D03*
X112320000Y-65590000D03*
X109780000Y-63050000D03*
X109780000Y-65590000D03*
X107240000Y-63050000D03*
X107240000Y-65590000D03*
X104700000Y-63050000D03*
X104700000Y-65590000D03*
X102160000Y-63050000D03*
X102160000Y-65590000D03*
X99620000Y-63050000D03*
X99620000Y-65590000D03*
X97080000Y-63050000D03*
X97080000Y-65590000D03*
X94540000Y-63050000D03*
X94540000Y-65590000D03*
X92000000Y-63050000D03*
X92000000Y-65590000D03*
X89460000Y-63050000D03*
X89460000Y-65590000D03*
X86920000Y-63050000D03*
D22*
X86920000Y-65590000D03*
D21*
X98399600Y-71018400D03*
D22*
X98399600Y-73558400D03*
D23*
X86600000Y-69600000D03*
X88600000Y-68650000D03*
X88600000Y-70550000D03*
D24*
X89174500Y-73418700D03*
X89174500Y-72468700D03*
X89174500Y-74368700D03*
X86974500Y-74368700D03*
X86974500Y-73418700D03*
X86974500Y-72468700D03*
D25*
X82040000Y-64310000D03*
X140040000Y-64330000D03*
X82040000Y-113320000D03*
X140030000Y-113310000D03*
M02*
