M48
; DRILL file {KiCad (5.1.5-0-10_14)} date 2020 August 14, Friday 15:04:48
; FORMAT={-:-/ absolute / inch / decimal}
; #@! TF.CreationDate,2020-08-14T15:04:48-04:00
; #@! TF.GenerationSoftware,Kicad,Pcbnew,(5.1.5-0-10_14)
; #@! TF.FileFunction,Plated,1,2,PTH
FMAT,2
INCH
T1C0.0079
T2C0.0197
T3C0.0394
T4C0.0402
T5C0.0512
%
G90
G05
T1
X3.612Y-3.15
X3.6982Y-3.0223
X3.737Y-3.235
X3.7533Y-3.0263
X3.863Y-3.258
X3.8896Y-3.8791
X3.9066Y-3.9964
X3.9556Y-3.8234
X4.0Y-3.8252
X4.04Y-2.799
X4.0404Y-2.9958
X4.054Y-3.8222
X4.058Y-3.628
X4.1052Y-3.8208
X4.196Y-3.478
X4.2Y-3.578
X4.204Y-3.26
X4.204Y-3.366
X4.361Y-2.904
X4.372Y-2.858
X4.418Y-3.278
X4.418Y-3.328
X4.5595Y-2.7292
X4.576Y-3.58
X4.5787Y-3.628
X4.6541Y-2.768
X4.6573Y-2.7877
X4.6573Y-2.8177
X4.6573Y-2.8477
X4.6573Y-2.8777
X4.6573Y-2.9077
X4.6573Y-2.9427
X4.6573Y-2.9727
X4.6573Y-3.0027
X4.6573Y-3.0327
X4.6573Y-3.0627
X4.6573Y-3.1177
X4.6573Y-3.1477
X4.6573Y-3.1777
X4.6573Y-3.2127
X4.6603Y-3.2397
X4.8661Y-3.0827
X4.8661Y-3.1319
X4.8681Y-2.876
X4.8681Y-2.9193
X4.9016Y-3.1063
X4.9075Y-2.8976
X4.9409Y-3.0827
X4.9429Y-2.876
X4.9429Y-2.9193
X4.9429Y-3.1299
X4.9814Y-3.3054
X5.0551Y-3.5
X5.1378Y-3.9488
X5.1639Y-3.5595
X5.1811Y-3.3031
X5.1827Y-2.7146
X5.1827Y-2.8806
X5.1827Y-2.9018
X5.1827Y-2.9239
X5.1827Y-3.087
X5.1827Y-3.1276
X5.3783Y-4.0573
X5.4245Y-4.013
T2
X3.6962Y-3.317
X3.771Y-3.317
T3
X3.422Y-2.4823
X3.422Y-2.5823
X3.522Y-2.4823
X3.522Y-2.5823
X3.622Y-2.4823
X3.622Y-2.5823
X3.722Y-2.4823
X3.722Y-2.5823
X3.822Y-2.4823
X3.822Y-2.5823
X3.922Y-2.4823
X3.922Y-2.5823
X4.022Y-2.4823
X4.022Y-2.5823
X4.122Y-2.4823
X4.122Y-2.5823
X4.222Y-2.4823
X4.222Y-2.5823
X4.322Y-2.4823
X4.322Y-2.5823
X4.422Y-2.4823
X4.422Y-2.5823
X4.522Y-2.4823
X4.522Y-2.5823
X4.622Y-2.4823
X4.622Y-2.5823
X4.722Y-2.4823
X4.722Y-2.5823
X4.822Y-2.4823
X4.822Y-2.5823
X4.922Y-2.4823
X4.922Y-2.5823
X5.022Y-2.4823
X5.022Y-2.5823
X5.122Y-2.4823
X5.122Y-2.5823
X5.222Y-2.4823
X5.222Y-2.5823
X5.322Y-2.4823
X5.322Y-2.5823
X3.874Y-2.796
X3.874Y-2.896
T4
X5.5157Y-3.5569
X5.5157Y-3.6569
X5.5157Y-3.7569
X5.5157Y-3.8569
T5
X3.75Y-4.45
X3.95Y-4.45
X4.15Y-4.45
X4.35Y-4.45
X5.4934Y-2.8718
X5.4934Y-3.0718
X4.75Y-4.45
X4.95Y-4.45
X3.264Y-3.528
X3.264Y-3.728
X3.264Y-3.928
X3.264Y-4.128
T0
M30
