G04 #@! TF.GenerationSoftware,KiCad,Pcbnew,(5.1.5-0-10_14)*
G04 #@! TF.CreationDate,2020-08-14T15:05:09-04:00*
G04 #@! TF.ProjectId,Raspberry-Pi-Hat,52617370-6265-4727-9279-2d50692d4861,rev?*
G04 #@! TF.SameCoordinates,Original*
G04 #@! TF.FileFunction,Other,Fab,Top*
%FSLAX46Y46*%
G04 Gerber Fmt 4.6, Leading zero omitted, Abs format (unit mm)*
G04 Created by KiCad (PCBNEW (5.1.5-0-10_14)) date 2020-08-14 15:05:09*
%MOMM*%
%LPD*%
G04 APERTURE LIST*
%ADD10C,0.100000*%
%ADD11C,0.150000*%
%ADD12C,0.080000*%
%ADD13C,0.110000*%
%ADD14C,0.075000*%
G04 APERTURE END LIST*
D10*
X78546356Y-63817611D02*
X78546356Y-113817611D01*
X78546356Y-63817611D02*
G75*
G02X81546356Y-60817611I3000000J0D01*
G01*
X140546356Y-60817611D02*
X81546356Y-60817611D01*
X140546356Y-60817611D02*
G75*
G02X143546356Y-63817611I0J-3000000D01*
G01*
X143546351Y-113822847D02*
X143546356Y-63817611D01*
X81546356Y-116817611D02*
G75*
G02X78546356Y-113817611I0J3000000D01*
G01*
X81546356Y-116817611D02*
X140546356Y-116817611D01*
X143546351Y-113822847D02*
G75*
G02X140546356Y-116817611I-2999995J5236D01*
G01*
X125100000Y-90591675D02*
X124100000Y-90591675D01*
X124600000Y-90091675D02*
X124600000Y-91091675D01*
X118650000Y-89400000D02*
X117650000Y-90400000D01*
X127150000Y-89400000D02*
X128150000Y-90400000D01*
X127150000Y-89400000D02*
X118650000Y-89400000D01*
X117650000Y-90400000D02*
X117650000Y-99900000D01*
X128150000Y-90400000D02*
X128150000Y-99900000D01*
X128150000Y-99900000D02*
X117650000Y-99900000D01*
X127900000Y-94650000D02*
G75*
G03X127900000Y-94650000I-5000000J0D01*
G01*
X113075000Y-76024000D02*
X112100000Y-76999000D01*
X113075000Y-72099000D02*
X113075000Y-76024000D01*
X109175000Y-72099000D02*
X113075000Y-72099000D01*
X109175000Y-76999000D02*
X109175000Y-72099000D01*
X112100000Y-76999000D02*
X109175000Y-76999000D01*
X84422600Y-106124200D02*
X81632600Y-103335200D01*
X84178600Y-106368200D02*
X81388600Y-103579200D01*
X84422600Y-101044200D02*
X81632600Y-98255200D01*
X84178600Y-101288200D02*
X81388600Y-98499200D01*
X84422600Y-95964200D02*
X81632600Y-93175200D01*
X84178600Y-96208200D02*
X81388600Y-93419200D01*
X84422600Y-90884200D02*
X81632600Y-88094200D01*
X84178600Y-91128200D02*
X81388600Y-88338200D01*
X86805600Y-87071200D02*
X86805600Y-107391200D01*
X80605600Y-87071200D02*
X80605600Y-107391200D01*
X78105600Y-87071200D02*
X78105600Y-107391200D01*
X78105600Y-87071200D02*
X88805600Y-87071200D01*
X77605600Y-87571200D02*
X78105600Y-87071200D01*
X77605600Y-107391200D02*
X77605600Y-87571200D01*
X88805600Y-107391200D02*
X77605600Y-107391200D01*
X88805600Y-87071200D02*
X88805600Y-107391200D01*
X84905600Y-104851200D02*
G75*
G03X84905600Y-104851200I-2000000J0D01*
G01*
X84905600Y-99771200D02*
G75*
G03X84905600Y-99771200I-2000000J0D01*
G01*
X84905600Y-94691200D02*
G75*
G03X84905600Y-94691200I-2000000J0D01*
G01*
X84905600Y-89611200D02*
G75*
G03X84905600Y-89611200I-2000000J0D01*
G01*
X138015360Y-71670720D02*
X140805360Y-74459720D01*
X138259360Y-71426720D02*
X141049360Y-74215720D01*
X138015360Y-76750720D02*
X140805360Y-79540720D01*
X138259360Y-76506720D02*
X141049360Y-79296720D01*
X135632360Y-80563720D02*
X135632360Y-70403720D01*
X141832360Y-80563720D02*
X141832360Y-70403720D01*
X144332360Y-80563720D02*
X144332360Y-70403720D01*
X144332360Y-80563720D02*
X133632360Y-80563720D01*
X144832360Y-80063720D02*
X144332360Y-80563720D01*
X144832360Y-70403720D02*
X144832360Y-80063720D01*
X133632360Y-70403720D02*
X144832360Y-70403720D01*
X133632360Y-80563720D02*
X133632360Y-70403720D01*
X141532360Y-72943720D02*
G75*
G03X141532360Y-72943720I-2000000J0D01*
G01*
X141532360Y-78023720D02*
G75*
G03X141532360Y-78023720I-2000000J0D01*
G01*
X127003000Y-111513000D02*
X124214000Y-114303000D01*
X127247000Y-111757000D02*
X124458000Y-114547000D01*
X121923000Y-111513000D02*
X119133000Y-114303000D01*
X122167000Y-111757000D02*
X119377000Y-114547000D01*
X118110000Y-109130000D02*
X128270000Y-109130000D01*
X118110000Y-115330000D02*
X128270000Y-115330000D01*
X118110000Y-117830000D02*
X128270000Y-117830000D01*
X118110000Y-117830000D02*
X118110000Y-107130000D01*
X118610000Y-118330000D02*
X118110000Y-117830000D01*
X128270000Y-118330000D02*
X118610000Y-118330000D01*
X128270000Y-107130000D02*
X128270000Y-118330000D01*
X118110000Y-107130000D02*
X128270000Y-107130000D01*
X127730000Y-113030000D02*
G75*
G03X127730000Y-113030000I-2000000J0D01*
G01*
X122650000Y-113030000D02*
G75*
G03X122650000Y-113030000I-2000000J0D01*
G01*
X111763000Y-111513000D02*
X108974000Y-114303000D01*
X112007000Y-111757000D02*
X109218000Y-114547000D01*
X106683000Y-111513000D02*
X103894000Y-114303000D01*
X106927000Y-111757000D02*
X104138000Y-114547000D01*
X101603000Y-111513000D02*
X98814000Y-114303000D01*
X101847000Y-111757000D02*
X99058000Y-114547000D01*
X96523000Y-111513000D02*
X93733000Y-114303000D01*
X96767000Y-111757000D02*
X93977000Y-114547000D01*
X92710000Y-109130000D02*
X113030000Y-109130000D01*
X92710000Y-115330000D02*
X113030000Y-115330000D01*
X92710000Y-117830000D02*
X113030000Y-117830000D01*
X92710000Y-117830000D02*
X92710000Y-107130000D01*
X93210000Y-118330000D02*
X92710000Y-117830000D01*
X113030000Y-118330000D02*
X93210000Y-118330000D01*
X113030000Y-107130000D02*
X113030000Y-118330000D01*
X92710000Y-107130000D02*
X113030000Y-107130000D01*
X112490000Y-113030000D02*
G75*
G03X112490000Y-113030000I-2000000J0D01*
G01*
X107410000Y-113030000D02*
G75*
G03X107410000Y-113030000I-2000000J0D01*
G01*
X102330000Y-113030000D02*
G75*
G03X102330000Y-113030000I-2000000J0D01*
G01*
X97250000Y-113030000D02*
G75*
G03X97250000Y-113030000I-2000000J0D01*
G01*
X135449020Y-107090060D02*
X135449020Y-104690060D01*
X135449020Y-104690060D02*
X133349020Y-104690060D01*
X133349020Y-104690060D02*
X133349020Y-106790060D01*
X133349020Y-106790060D02*
X133699020Y-107090060D01*
X133699020Y-107090060D02*
X135449020Y-107090060D01*
X137518900Y-104060700D02*
X139518900Y-104060700D01*
X137518900Y-105260700D02*
X137518900Y-104060700D01*
X139518900Y-105260700D02*
X137518900Y-105260700D01*
X139518900Y-104060700D02*
X139518900Y-105260700D01*
X133355840Y-101226060D02*
X135355840Y-101226060D01*
X133355840Y-102426060D02*
X133355840Y-101226060D01*
X135355840Y-102426060D02*
X133355840Y-102426060D01*
X135355840Y-101226060D02*
X135355840Y-102426060D01*
X137412220Y-107080760D02*
X139412220Y-107080760D01*
X137412220Y-108280760D02*
X137412220Y-107080760D01*
X139412220Y-108280760D02*
X137412220Y-108280760D01*
X139412220Y-107080760D02*
X139412220Y-108280760D01*
X102568500Y-76743000D02*
X104568500Y-76743000D01*
X102568500Y-77943000D02*
X102568500Y-76743000D01*
X104568500Y-77943000D02*
X102568500Y-77943000D01*
X104568500Y-76743000D02*
X104568500Y-77943000D01*
X100838740Y-99760320D02*
X99863740Y-98785320D01*
X104763740Y-99760320D02*
X100838740Y-99760320D01*
X104763740Y-95860320D02*
X104763740Y-99760320D01*
X99863740Y-95860320D02*
X104763740Y-95860320D01*
X99863740Y-98785320D02*
X99863740Y-95860320D01*
X104568500Y-75403000D02*
X102568500Y-75403000D01*
X104568500Y-74203000D02*
X104568500Y-75403000D01*
X102568500Y-74203000D02*
X104568500Y-74203000D01*
X102568500Y-75403000D02*
X102568500Y-74203000D01*
X82947000Y-74330000D02*
X84947000Y-74330000D01*
X82947000Y-75530000D02*
X82947000Y-74330000D01*
X84947000Y-75530000D02*
X82947000Y-75530000D01*
X84947000Y-74330000D02*
X84947000Y-75530000D01*
X82947000Y-71536000D02*
X84947000Y-71536000D01*
X82947000Y-72736000D02*
X82947000Y-71536000D01*
X84947000Y-72736000D02*
X82947000Y-72736000D01*
X84947000Y-71536000D02*
X84947000Y-72736000D01*
X100809500Y-92694000D02*
X100809500Y-90694000D01*
X102009500Y-92694000D02*
X100809500Y-92694000D01*
X102009500Y-90694000D02*
X102009500Y-92694000D01*
X100809500Y-90694000D02*
X102009500Y-90694000D01*
X129950000Y-88300000D02*
X131950000Y-88300000D01*
X129950000Y-89500000D02*
X129950000Y-88300000D01*
X131950000Y-89500000D02*
X129950000Y-89500000D01*
X131950000Y-88300000D02*
X131950000Y-89500000D01*
X104568500Y-72863000D02*
X102568500Y-72863000D01*
X104568500Y-71663000D02*
X104568500Y-72863000D01*
X102568500Y-71663000D02*
X104568500Y-71663000D01*
X102568500Y-72863000D02*
X102568500Y-71663000D01*
X100320400Y-78146400D02*
X100320400Y-80146400D01*
X99120400Y-78146400D02*
X100320400Y-78146400D01*
X99120400Y-80146400D02*
X99120400Y-78146400D01*
X100320400Y-80146400D02*
X99120400Y-80146400D01*
X104568500Y-70323000D02*
X102568500Y-70323000D01*
X104568500Y-69123000D02*
X104568500Y-70323000D01*
X102568500Y-69123000D02*
X104568500Y-69123000D01*
X102568500Y-70323000D02*
X102568500Y-69123000D01*
X105766220Y-103876400D02*
X103766220Y-103876400D01*
X105766220Y-102676400D02*
X105766220Y-103876400D01*
X103766220Y-102676400D02*
X105766220Y-102676400D01*
X103766220Y-103876400D02*
X103766220Y-102676400D01*
X99472240Y-102676400D02*
X101472240Y-102676400D01*
X99472240Y-103876400D02*
X99472240Y-102676400D01*
X101472240Y-103876400D02*
X99472240Y-103876400D01*
X101472240Y-102676400D02*
X101472240Y-103876400D01*
X97634500Y-92694000D02*
X97634500Y-90694000D01*
X98834500Y-92694000D02*
X97634500Y-92694000D01*
X98834500Y-90694000D02*
X98834500Y-92694000D01*
X97634500Y-90694000D02*
X98834500Y-90694000D01*
X97676260Y-97244660D02*
X97676260Y-99244660D01*
X96476260Y-97244660D02*
X97676260Y-97244660D01*
X96476260Y-99244660D02*
X96476260Y-97244660D01*
X97676260Y-99244660D02*
X96476260Y-99244660D01*
X113351000Y-91833500D02*
X112351000Y-92833500D01*
X113351000Y-81283500D02*
X113351000Y-91833500D01*
X105851000Y-81283500D02*
X113351000Y-81283500D01*
X105851000Y-92833500D02*
X105851000Y-81283500D01*
X112351000Y-92833500D02*
X105851000Y-92833500D01*
X97131000Y-80188500D02*
X96381000Y-80938500D01*
X97131000Y-77938500D02*
X97131000Y-80188500D01*
X94131000Y-77938500D02*
X97131000Y-77938500D01*
X94131000Y-80938500D02*
X94131000Y-77938500D01*
X96381000Y-80938500D02*
X94131000Y-80938500D01*
X142598780Y-89095260D02*
X142598780Y-94745260D01*
X136798780Y-89095260D02*
X142598780Y-89095260D01*
X136798780Y-89145260D02*
X136798780Y-89095260D01*
X136798780Y-99195260D02*
X136798780Y-89145260D01*
X142598780Y-99195260D02*
X136798780Y-99195260D01*
X142598780Y-96095260D02*
X142598780Y-99195260D01*
X137798780Y-90345260D02*
X136798780Y-90345260D01*
X137798780Y-95445260D02*
X137798780Y-90345260D01*
X136798780Y-95445260D02*
X137798780Y-95445260D01*
X117109860Y-68653420D02*
X132109860Y-68653420D01*
X132109860Y-68653420D02*
X132109860Y-83653420D01*
X132109860Y-83653420D02*
X117109860Y-83653420D01*
X117109860Y-83653420D02*
X117109860Y-68653420D01*
X117759860Y-83653420D02*
X118259860Y-84153420D01*
X118259860Y-84153420D02*
X118759860Y-83653420D01*
X99669600Y-74193400D02*
X99034600Y-74828400D01*
X99669600Y-69748400D02*
X99669600Y-74193400D01*
X97129600Y-69748400D02*
X99669600Y-69748400D01*
X97129600Y-74828400D02*
X97129600Y-69748400D01*
X99034600Y-74828400D02*
X97129600Y-74828400D01*
X88300000Y-68080000D02*
X86900000Y-68080000D01*
X86900000Y-71120000D02*
X86900000Y-68080000D01*
X88300000Y-70550000D02*
X87750000Y-71120000D01*
X87750000Y-71120000D02*
X86900000Y-71120000D01*
X88300000Y-70550000D02*
X88300000Y-68100000D01*
X88974500Y-71868700D02*
X88974500Y-74968700D01*
X88974500Y-74968700D02*
X87174500Y-74968700D01*
X87174500Y-72518700D02*
X87174500Y-74968700D01*
X88974500Y-71868700D02*
X87824500Y-71868700D01*
X87174500Y-72518700D02*
X87824500Y-71868700D01*
D11*
X123257142Y-94816666D02*
X123304761Y-94864285D01*
X123352380Y-95007142D01*
X123352380Y-95102380D01*
X123304761Y-95245238D01*
X123209523Y-95340476D01*
X123114285Y-95388095D01*
X122923809Y-95435714D01*
X122780952Y-95435714D01*
X122590476Y-95388095D01*
X122495238Y-95340476D01*
X122400000Y-95245238D01*
X122352380Y-95102380D01*
X122352380Y-95007142D01*
X122400000Y-94864285D01*
X122447619Y-94816666D01*
X123352380Y-93864285D02*
X123352380Y-94435714D01*
X123352380Y-94150000D02*
X122352380Y-94150000D01*
X122495238Y-94245238D01*
X122590476Y-94340476D01*
X122638095Y-94435714D01*
X110378333Y-74012333D02*
X110378333Y-74805666D01*
X110425000Y-74899000D01*
X110471666Y-74945666D01*
X110565000Y-74992333D01*
X110751666Y-74992333D01*
X110845000Y-74945666D01*
X110891666Y-74899000D01*
X110938333Y-74805666D01*
X110938333Y-74012333D01*
X111358333Y-74105666D02*
X111405000Y-74059000D01*
X111498333Y-74012333D01*
X111731666Y-74012333D01*
X111825000Y-74059000D01*
X111871666Y-74105666D01*
X111918333Y-74199000D01*
X111918333Y-74292333D01*
X111871666Y-74432333D01*
X111311666Y-74992333D01*
X111918333Y-74992333D01*
X79257980Y-97564533D02*
X79972266Y-97564533D01*
X80115123Y-97612152D01*
X80210361Y-97707390D01*
X80257980Y-97850247D01*
X80257980Y-97945485D01*
X79257980Y-96612152D02*
X79257980Y-97088342D01*
X79734171Y-97135961D01*
X79686552Y-97088342D01*
X79638933Y-96993104D01*
X79638933Y-96755009D01*
X79686552Y-96659771D01*
X79734171Y-96612152D01*
X79829409Y-96564533D01*
X80067504Y-96564533D01*
X80162742Y-96612152D01*
X80210361Y-96659771D01*
X80257980Y-96755009D01*
X80257980Y-96993104D01*
X80210361Y-97088342D01*
X80162742Y-97135961D01*
X142084740Y-75817053D02*
X142799026Y-75817053D01*
X142941883Y-75864672D01*
X143037121Y-75959910D01*
X143084740Y-76102767D01*
X143084740Y-76198005D01*
X142418074Y-74912291D02*
X143084740Y-74912291D01*
X142037121Y-75150386D02*
X142751407Y-75388481D01*
X142751407Y-74769434D01*
X122856666Y-115582380D02*
X122856666Y-116296666D01*
X122809047Y-116439523D01*
X122713809Y-116534761D01*
X122570952Y-116582380D01*
X122475714Y-116582380D01*
X123285238Y-115677619D02*
X123332857Y-115630000D01*
X123428095Y-115582380D01*
X123666190Y-115582380D01*
X123761428Y-115630000D01*
X123809047Y-115677619D01*
X123856666Y-115772857D01*
X123856666Y-115868095D01*
X123809047Y-116010952D01*
X123237619Y-116582380D01*
X123856666Y-116582380D01*
X102536666Y-115582380D02*
X102536666Y-116296666D01*
X102489047Y-116439523D01*
X102393809Y-116534761D01*
X102250952Y-116582380D01*
X102155714Y-116582380D01*
X103536666Y-116582380D02*
X102965238Y-116582380D01*
X103250952Y-116582380D02*
X103250952Y-115582380D01*
X103155714Y-115725238D01*
X103060476Y-115820476D01*
X102965238Y-115868095D01*
D10*
X134125210Y-106271012D02*
X134529972Y-106271012D01*
X134577591Y-106247202D01*
X134601400Y-106223393D01*
X134625210Y-106175774D01*
X134625210Y-106080536D01*
X134601400Y-106032917D01*
X134577591Y-106009107D01*
X134529972Y-105985298D01*
X134125210Y-105985298D01*
X134125210Y-105794821D02*
X134125210Y-105461488D01*
X134625210Y-105675774D01*
D12*
X138197471Y-104886890D02*
X138030804Y-104648795D01*
X137911757Y-104886890D02*
X137911757Y-104386890D01*
X138102233Y-104386890D01*
X138149852Y-104410700D01*
X138173661Y-104434509D01*
X138197471Y-104482128D01*
X138197471Y-104553557D01*
X138173661Y-104601176D01*
X138149852Y-104624985D01*
X138102233Y-104648795D01*
X137911757Y-104648795D01*
X138387947Y-104434509D02*
X138411757Y-104410700D01*
X138459376Y-104386890D01*
X138578423Y-104386890D01*
X138626042Y-104410700D01*
X138649852Y-104434509D01*
X138673661Y-104482128D01*
X138673661Y-104529747D01*
X138649852Y-104601176D01*
X138364138Y-104886890D01*
X138673661Y-104886890D01*
X138983185Y-104386890D02*
X139030804Y-104386890D01*
X139078423Y-104410700D01*
X139102233Y-104434509D01*
X139126042Y-104482128D01*
X139149852Y-104577366D01*
X139149852Y-104696414D01*
X139126042Y-104791652D01*
X139102233Y-104839271D01*
X139078423Y-104863080D01*
X139030804Y-104886890D01*
X138983185Y-104886890D01*
X138935566Y-104863080D01*
X138911757Y-104839271D01*
X138887947Y-104791652D01*
X138864138Y-104696414D01*
X138864138Y-104577366D01*
X138887947Y-104482128D01*
X138911757Y-104434509D01*
X138935566Y-104410700D01*
X138983185Y-104386890D01*
X134034411Y-102004631D02*
X134010601Y-102028440D01*
X133939173Y-102052250D01*
X133891554Y-102052250D01*
X133820125Y-102028440D01*
X133772506Y-101980821D01*
X133748697Y-101933202D01*
X133724887Y-101837964D01*
X133724887Y-101766536D01*
X133748697Y-101671298D01*
X133772506Y-101623679D01*
X133820125Y-101576060D01*
X133891554Y-101552250D01*
X133939173Y-101552250D01*
X134010601Y-101576060D01*
X134034411Y-101599869D01*
X134224887Y-101599869D02*
X134248697Y-101576060D01*
X134296316Y-101552250D01*
X134415363Y-101552250D01*
X134462982Y-101576060D01*
X134486792Y-101599869D01*
X134510601Y-101647488D01*
X134510601Y-101695107D01*
X134486792Y-101766536D01*
X134201078Y-102052250D01*
X134510601Y-102052250D01*
X134677268Y-101552250D02*
X135010601Y-101552250D01*
X134796316Y-102052250D01*
X138090791Y-107859331D02*
X138066981Y-107883140D01*
X137995553Y-107906950D01*
X137947934Y-107906950D01*
X137876505Y-107883140D01*
X137828886Y-107835521D01*
X137805077Y-107787902D01*
X137781267Y-107692664D01*
X137781267Y-107621236D01*
X137805077Y-107525998D01*
X137828886Y-107478379D01*
X137876505Y-107430760D01*
X137947934Y-107406950D01*
X137995553Y-107406950D01*
X138066981Y-107430760D01*
X138090791Y-107454569D01*
X138281267Y-107454569D02*
X138305077Y-107430760D01*
X138352696Y-107406950D01*
X138471743Y-107406950D01*
X138519362Y-107430760D01*
X138543172Y-107454569D01*
X138566981Y-107502188D01*
X138566981Y-107549807D01*
X138543172Y-107621236D01*
X138257458Y-107906950D01*
X138566981Y-107906950D01*
X138995553Y-107406950D02*
X138900315Y-107406950D01*
X138852696Y-107430760D01*
X138828886Y-107454569D01*
X138781267Y-107525998D01*
X138757458Y-107621236D01*
X138757458Y-107811712D01*
X138781267Y-107859331D01*
X138805077Y-107883140D01*
X138852696Y-107906950D01*
X138947934Y-107906950D01*
X138995553Y-107883140D01*
X139019362Y-107859331D01*
X139043172Y-107811712D01*
X139043172Y-107692664D01*
X139019362Y-107645045D01*
X138995553Y-107621236D01*
X138947934Y-107597426D01*
X138852696Y-107597426D01*
X138805077Y-107621236D01*
X138781267Y-107645045D01*
X138757458Y-107692664D01*
X103247071Y-77569190D02*
X103080404Y-77331095D01*
X102961357Y-77569190D02*
X102961357Y-77069190D01*
X103151833Y-77069190D01*
X103199452Y-77093000D01*
X103223261Y-77116809D01*
X103247071Y-77164428D01*
X103247071Y-77235857D01*
X103223261Y-77283476D01*
X103199452Y-77307285D01*
X103151833Y-77331095D01*
X102961357Y-77331095D01*
X103723261Y-77569190D02*
X103437547Y-77569190D01*
X103580404Y-77569190D02*
X103580404Y-77069190D01*
X103532785Y-77140619D01*
X103485166Y-77188238D01*
X103437547Y-77212047D01*
X104199452Y-77569190D02*
X103913738Y-77569190D01*
X104056595Y-77569190D02*
X104056595Y-77069190D01*
X104008976Y-77140619D01*
X103961357Y-77188238D01*
X103913738Y-77212047D01*
D11*
X101777073Y-98556986D02*
X102570406Y-98556986D01*
X102663740Y-98510320D01*
X102710406Y-98463653D01*
X102757073Y-98370320D01*
X102757073Y-98183653D01*
X102710406Y-98090320D01*
X102663740Y-98043653D01*
X102570406Y-97996986D01*
X101777073Y-97996986D01*
X102757073Y-97016986D02*
X102757073Y-97576986D01*
X102757073Y-97296986D02*
X101777073Y-97296986D01*
X101917073Y-97390320D01*
X102010406Y-97483653D01*
X102057073Y-97576986D01*
D12*
X103247071Y-75029190D02*
X103080404Y-74791095D01*
X102961357Y-75029190D02*
X102961357Y-74529190D01*
X103151833Y-74529190D01*
X103199452Y-74553000D01*
X103223261Y-74576809D01*
X103247071Y-74624428D01*
X103247071Y-74695857D01*
X103223261Y-74743476D01*
X103199452Y-74767285D01*
X103151833Y-74791095D01*
X102961357Y-74791095D01*
X103437547Y-74576809D02*
X103461357Y-74553000D01*
X103508976Y-74529190D01*
X103628023Y-74529190D01*
X103675642Y-74553000D01*
X103699452Y-74576809D01*
X103723261Y-74624428D01*
X103723261Y-74672047D01*
X103699452Y-74743476D01*
X103413738Y-75029190D01*
X103723261Y-75029190D01*
X103961357Y-75029190D02*
X104056595Y-75029190D01*
X104104214Y-75005380D01*
X104128023Y-74981571D01*
X104175642Y-74910142D01*
X104199452Y-74814904D01*
X104199452Y-74624428D01*
X104175642Y-74576809D01*
X104151833Y-74553000D01*
X104104214Y-74529190D01*
X104008976Y-74529190D01*
X103961357Y-74553000D01*
X103937547Y-74576809D01*
X103913738Y-74624428D01*
X103913738Y-74743476D01*
X103937547Y-74791095D01*
X103961357Y-74814904D01*
X104008976Y-74838714D01*
X104104214Y-74838714D01*
X104151833Y-74814904D01*
X104175642Y-74791095D01*
X104199452Y-74743476D01*
X83625571Y-75156190D02*
X83458904Y-74918095D01*
X83339857Y-75156190D02*
X83339857Y-74656190D01*
X83530333Y-74656190D01*
X83577952Y-74680000D01*
X83601761Y-74703809D01*
X83625571Y-74751428D01*
X83625571Y-74822857D01*
X83601761Y-74870476D01*
X83577952Y-74894285D01*
X83530333Y-74918095D01*
X83339857Y-74918095D01*
X83816047Y-74703809D02*
X83839857Y-74680000D01*
X83887476Y-74656190D01*
X84006523Y-74656190D01*
X84054142Y-74680000D01*
X84077952Y-74703809D01*
X84101761Y-74751428D01*
X84101761Y-74799047D01*
X84077952Y-74870476D01*
X83792238Y-75156190D01*
X84101761Y-75156190D01*
X84530333Y-74822857D02*
X84530333Y-75156190D01*
X84411285Y-74632380D02*
X84292238Y-74989523D01*
X84601761Y-74989523D01*
X83625571Y-72362190D02*
X83458904Y-72124095D01*
X83339857Y-72362190D02*
X83339857Y-71862190D01*
X83530333Y-71862190D01*
X83577952Y-71886000D01*
X83601761Y-71909809D01*
X83625571Y-71957428D01*
X83625571Y-72028857D01*
X83601761Y-72076476D01*
X83577952Y-72100285D01*
X83530333Y-72124095D01*
X83339857Y-72124095D01*
X83816047Y-71909809D02*
X83839857Y-71886000D01*
X83887476Y-71862190D01*
X84006523Y-71862190D01*
X84054142Y-71886000D01*
X84077952Y-71909809D01*
X84101761Y-71957428D01*
X84101761Y-72005047D01*
X84077952Y-72076476D01*
X83792238Y-72362190D01*
X84101761Y-72362190D01*
X84268428Y-71862190D02*
X84577952Y-71862190D01*
X84411285Y-72052666D01*
X84482714Y-72052666D01*
X84530333Y-72076476D01*
X84554142Y-72100285D01*
X84577952Y-72147904D01*
X84577952Y-72266952D01*
X84554142Y-72314571D01*
X84530333Y-72338380D01*
X84482714Y-72362190D01*
X84339857Y-72362190D01*
X84292238Y-72338380D01*
X84268428Y-72314571D01*
X101635690Y-92015428D02*
X101397595Y-92182095D01*
X101635690Y-92301142D02*
X101135690Y-92301142D01*
X101135690Y-92110666D01*
X101159500Y-92063047D01*
X101183309Y-92039238D01*
X101230928Y-92015428D01*
X101302357Y-92015428D01*
X101349976Y-92039238D01*
X101373785Y-92063047D01*
X101397595Y-92110666D01*
X101397595Y-92301142D01*
X101635690Y-91539238D02*
X101635690Y-91824952D01*
X101635690Y-91682095D02*
X101135690Y-91682095D01*
X101207119Y-91729714D01*
X101254738Y-91777333D01*
X101278547Y-91824952D01*
X101635690Y-91301142D02*
X101635690Y-91205904D01*
X101611880Y-91158285D01*
X101588071Y-91134476D01*
X101516642Y-91086857D01*
X101421404Y-91063047D01*
X101230928Y-91063047D01*
X101183309Y-91086857D01*
X101159500Y-91110666D01*
X101135690Y-91158285D01*
X101135690Y-91253523D01*
X101159500Y-91301142D01*
X101183309Y-91324952D01*
X101230928Y-91348761D01*
X101349976Y-91348761D01*
X101397595Y-91324952D01*
X101421404Y-91301142D01*
X101445214Y-91253523D01*
X101445214Y-91158285D01*
X101421404Y-91110666D01*
X101397595Y-91086857D01*
X101349976Y-91063047D01*
X130628571Y-89126190D02*
X130461904Y-88888095D01*
X130342857Y-89126190D02*
X130342857Y-88626190D01*
X130533333Y-88626190D01*
X130580952Y-88650000D01*
X130604761Y-88673809D01*
X130628571Y-88721428D01*
X130628571Y-88792857D01*
X130604761Y-88840476D01*
X130580952Y-88864285D01*
X130533333Y-88888095D01*
X130342857Y-88888095D01*
X131104761Y-89126190D02*
X130819047Y-89126190D01*
X130961904Y-89126190D02*
X130961904Y-88626190D01*
X130914285Y-88697619D01*
X130866666Y-88745238D01*
X130819047Y-88769047D01*
X131533333Y-88792857D02*
X131533333Y-89126190D01*
X131414285Y-88602380D02*
X131295238Y-88959523D01*
X131604761Y-88959523D01*
X103485166Y-72489190D02*
X103318500Y-72251095D01*
X103199452Y-72489190D02*
X103199452Y-71989190D01*
X103389928Y-71989190D01*
X103437547Y-72013000D01*
X103461357Y-72036809D01*
X103485166Y-72084428D01*
X103485166Y-72155857D01*
X103461357Y-72203476D01*
X103437547Y-72227285D01*
X103389928Y-72251095D01*
X103199452Y-72251095D01*
X103770880Y-72203476D02*
X103723261Y-72179666D01*
X103699452Y-72155857D01*
X103675642Y-72108238D01*
X103675642Y-72084428D01*
X103699452Y-72036809D01*
X103723261Y-72013000D01*
X103770880Y-71989190D01*
X103866119Y-71989190D01*
X103913738Y-72013000D01*
X103937547Y-72036809D01*
X103961357Y-72084428D01*
X103961357Y-72108238D01*
X103937547Y-72155857D01*
X103913738Y-72179666D01*
X103866119Y-72203476D01*
X103770880Y-72203476D01*
X103723261Y-72227285D01*
X103699452Y-72251095D01*
X103675642Y-72298714D01*
X103675642Y-72393952D01*
X103699452Y-72441571D01*
X103723261Y-72465380D01*
X103770880Y-72489190D01*
X103866119Y-72489190D01*
X103913738Y-72465380D01*
X103937547Y-72441571D01*
X103961357Y-72393952D01*
X103961357Y-72298714D01*
X103937547Y-72251095D01*
X103913738Y-72227285D01*
X103866119Y-72203476D01*
X99946590Y-79229733D02*
X99708495Y-79396400D01*
X99946590Y-79515447D02*
X99446590Y-79515447D01*
X99446590Y-79324971D01*
X99470400Y-79277352D01*
X99494209Y-79253542D01*
X99541828Y-79229733D01*
X99613257Y-79229733D01*
X99660876Y-79253542D01*
X99684685Y-79277352D01*
X99708495Y-79324971D01*
X99708495Y-79515447D01*
X99446590Y-79063066D02*
X99446590Y-78729733D01*
X99946590Y-78944019D01*
X103485166Y-69949190D02*
X103318500Y-69711095D01*
X103199452Y-69949190D02*
X103199452Y-69449190D01*
X103389928Y-69449190D01*
X103437547Y-69473000D01*
X103461357Y-69496809D01*
X103485166Y-69544428D01*
X103485166Y-69615857D01*
X103461357Y-69663476D01*
X103437547Y-69687285D01*
X103389928Y-69711095D01*
X103199452Y-69711095D01*
X103913738Y-69449190D02*
X103818500Y-69449190D01*
X103770880Y-69473000D01*
X103747071Y-69496809D01*
X103699452Y-69568238D01*
X103675642Y-69663476D01*
X103675642Y-69853952D01*
X103699452Y-69901571D01*
X103723261Y-69925380D01*
X103770880Y-69949190D01*
X103866119Y-69949190D01*
X103913738Y-69925380D01*
X103937547Y-69901571D01*
X103961357Y-69853952D01*
X103961357Y-69734904D01*
X103937547Y-69687285D01*
X103913738Y-69663476D01*
X103866119Y-69639666D01*
X103770880Y-69639666D01*
X103723261Y-69663476D01*
X103699452Y-69687285D01*
X103675642Y-69734904D01*
X104682886Y-103502590D02*
X104516220Y-103264495D01*
X104397172Y-103502590D02*
X104397172Y-103002590D01*
X104587648Y-103002590D01*
X104635267Y-103026400D01*
X104659077Y-103050209D01*
X104682886Y-103097828D01*
X104682886Y-103169257D01*
X104659077Y-103216876D01*
X104635267Y-103240685D01*
X104587648Y-103264495D01*
X104397172Y-103264495D01*
X105111458Y-103169257D02*
X105111458Y-103502590D01*
X104992410Y-102978780D02*
X104873362Y-103335923D01*
X105182886Y-103335923D01*
X100388906Y-103502590D02*
X100222240Y-103264495D01*
X100103192Y-103502590D02*
X100103192Y-103002590D01*
X100293668Y-103002590D01*
X100341287Y-103026400D01*
X100365097Y-103050209D01*
X100388906Y-103097828D01*
X100388906Y-103169257D01*
X100365097Y-103216876D01*
X100341287Y-103240685D01*
X100293668Y-103264495D01*
X100103192Y-103264495D01*
X100555573Y-103002590D02*
X100865097Y-103002590D01*
X100698430Y-103193066D01*
X100769859Y-103193066D01*
X100817478Y-103216876D01*
X100841287Y-103240685D01*
X100865097Y-103288304D01*
X100865097Y-103407352D01*
X100841287Y-103454971D01*
X100817478Y-103478780D01*
X100769859Y-103502590D01*
X100627001Y-103502590D01*
X100579382Y-103478780D01*
X100555573Y-103454971D01*
X98413071Y-92015428D02*
X98436880Y-92039238D01*
X98460690Y-92110666D01*
X98460690Y-92158285D01*
X98436880Y-92229714D01*
X98389261Y-92277333D01*
X98341642Y-92301142D01*
X98246404Y-92324952D01*
X98174976Y-92324952D01*
X98079738Y-92301142D01*
X98032119Y-92277333D01*
X97984500Y-92229714D01*
X97960690Y-92158285D01*
X97960690Y-92110666D01*
X97984500Y-92039238D01*
X98008309Y-92015428D01*
X98008309Y-91824952D02*
X97984500Y-91801142D01*
X97960690Y-91753523D01*
X97960690Y-91634476D01*
X97984500Y-91586857D01*
X98008309Y-91563047D01*
X98055928Y-91539238D01*
X98103547Y-91539238D01*
X98174976Y-91563047D01*
X98460690Y-91848761D01*
X98460690Y-91539238D01*
X97960690Y-91086857D02*
X97960690Y-91324952D01*
X98198785Y-91348761D01*
X98174976Y-91324952D01*
X98151166Y-91277333D01*
X98151166Y-91158285D01*
X98174976Y-91110666D01*
X98198785Y-91086857D01*
X98246404Y-91063047D01*
X98365452Y-91063047D01*
X98413071Y-91086857D01*
X98436880Y-91110666D01*
X98460690Y-91158285D01*
X98460690Y-91277333D01*
X98436880Y-91324952D01*
X98413071Y-91348761D01*
X97254831Y-98327993D02*
X97278640Y-98351802D01*
X97302450Y-98423231D01*
X97302450Y-98470850D01*
X97278640Y-98542279D01*
X97231021Y-98589898D01*
X97183402Y-98613707D01*
X97088164Y-98637517D01*
X97016736Y-98637517D01*
X96921498Y-98613707D01*
X96873879Y-98589898D01*
X96826260Y-98542279D01*
X96802450Y-98470850D01*
X96802450Y-98423231D01*
X96826260Y-98351802D01*
X96850069Y-98327993D01*
X97016736Y-98042279D02*
X96992926Y-98089898D01*
X96969117Y-98113707D01*
X96921498Y-98137517D01*
X96897688Y-98137517D01*
X96850069Y-98113707D01*
X96826260Y-98089898D01*
X96802450Y-98042279D01*
X96802450Y-97947040D01*
X96826260Y-97899421D01*
X96850069Y-97875612D01*
X96897688Y-97851802D01*
X96921498Y-97851802D01*
X96969117Y-97875612D01*
X96992926Y-97899421D01*
X97016736Y-97947040D01*
X97016736Y-98042279D01*
X97040545Y-98089898D01*
X97064355Y-98113707D01*
X97111974Y-98137517D01*
X97207212Y-98137517D01*
X97254831Y-98113707D01*
X97278640Y-98089898D01*
X97302450Y-98042279D01*
X97302450Y-97947040D01*
X97278640Y-97899421D01*
X97254831Y-97875612D01*
X97207212Y-97851802D01*
X97111974Y-97851802D01*
X97064355Y-97875612D01*
X97040545Y-97899421D01*
X97016736Y-97947040D01*
D11*
X108839095Y-86510880D02*
X108839095Y-87320404D01*
X108886714Y-87415642D01*
X108934333Y-87463261D01*
X109029571Y-87510880D01*
X109220047Y-87510880D01*
X109315285Y-87463261D01*
X109362904Y-87415642D01*
X109410523Y-87320404D01*
X109410523Y-86510880D01*
X110315285Y-86510880D02*
X110124809Y-86510880D01*
X110029571Y-86558500D01*
X109981952Y-86606119D01*
X109886714Y-86748976D01*
X109839095Y-86939452D01*
X109839095Y-87320404D01*
X109886714Y-87415642D01*
X109934333Y-87463261D01*
X110029571Y-87510880D01*
X110220047Y-87510880D01*
X110315285Y-87463261D01*
X110362904Y-87415642D01*
X110410523Y-87320404D01*
X110410523Y-87082309D01*
X110362904Y-86987071D01*
X110315285Y-86939452D01*
X110220047Y-86891833D01*
X110029571Y-86891833D01*
X109934333Y-86939452D01*
X109886714Y-86987071D01*
X109839095Y-87082309D01*
D13*
X95059571Y-79027785D02*
X95059571Y-79634928D01*
X95095285Y-79706357D01*
X95131000Y-79742071D01*
X95202428Y-79777785D01*
X95345285Y-79777785D01*
X95416714Y-79742071D01*
X95452428Y-79706357D01*
X95488142Y-79634928D01*
X95488142Y-79027785D01*
X96202428Y-79027785D02*
X95845285Y-79027785D01*
X95809571Y-79384928D01*
X95845285Y-79349214D01*
X95916714Y-79313500D01*
X96095285Y-79313500D01*
X96166714Y-79349214D01*
X96202428Y-79384928D01*
X96238142Y-79456357D01*
X96238142Y-79634928D01*
X96202428Y-79706357D01*
X96166714Y-79742071D01*
X96095285Y-79777785D01*
X95916714Y-79777785D01*
X95845285Y-79742071D01*
X95809571Y-79706357D01*
D11*
X142301160Y-93004783D02*
X141301160Y-93004783D01*
X142015446Y-92671450D01*
X141301160Y-92338117D01*
X142301160Y-92338117D01*
X142301160Y-91338117D02*
X142301160Y-91909545D01*
X142301160Y-91623831D02*
X141301160Y-91623831D01*
X141444018Y-91719069D01*
X141539256Y-91814307D01*
X141586875Y-91909545D01*
X123847955Y-75605800D02*
X123847955Y-76415324D01*
X123895574Y-76510562D01*
X123943193Y-76558181D01*
X124038431Y-76605800D01*
X124228907Y-76605800D01*
X124324145Y-76558181D01*
X124371764Y-76510562D01*
X124419383Y-76415324D01*
X124419383Y-75605800D01*
X125324145Y-75939134D02*
X125324145Y-76605800D01*
X125086050Y-75558181D02*
X124847955Y-76272467D01*
X125467002Y-76272467D01*
X97851980Y-72621733D02*
X98566266Y-72621733D01*
X98709123Y-72669352D01*
X98804361Y-72764590D01*
X98851980Y-72907447D01*
X98851980Y-73002685D01*
X98851980Y-72097923D02*
X98851980Y-71907447D01*
X98804361Y-71812209D01*
X98756742Y-71764590D01*
X98613885Y-71669352D01*
X98423409Y-71621733D01*
X98042457Y-71621733D01*
X97947219Y-71669352D01*
X97899600Y-71716971D01*
X97851980Y-71812209D01*
X97851980Y-72002685D01*
X97899600Y-72097923D01*
X97947219Y-72145542D01*
X98042457Y-72193161D01*
X98280552Y-72193161D01*
X98375790Y-72145542D01*
X98423409Y-72097923D01*
X98471028Y-72002685D01*
X98471028Y-71812209D01*
X98423409Y-71716971D01*
X98375790Y-71669352D01*
X98280552Y-71621733D01*
D14*
X87873809Y-69647619D02*
X87850000Y-69695238D01*
X87802380Y-69742857D01*
X87730952Y-69814285D01*
X87707142Y-69861904D01*
X87707142Y-69909523D01*
X87826190Y-69885714D02*
X87802380Y-69933333D01*
X87754761Y-69980952D01*
X87659523Y-70004761D01*
X87492857Y-70004761D01*
X87397619Y-69980952D01*
X87350000Y-69933333D01*
X87326190Y-69885714D01*
X87326190Y-69790476D01*
X87350000Y-69742857D01*
X87397619Y-69695238D01*
X87492857Y-69671428D01*
X87659523Y-69671428D01*
X87754761Y-69695238D01*
X87802380Y-69742857D01*
X87826190Y-69790476D01*
X87826190Y-69885714D01*
X87826190Y-69195238D02*
X87826190Y-69480952D01*
X87826190Y-69338095D02*
X87326190Y-69338095D01*
X87397619Y-69385714D01*
X87445238Y-69433333D01*
X87469047Y-69480952D01*
X88348309Y-73466319D02*
X88324500Y-73513938D01*
X88276880Y-73561557D01*
X88205452Y-73632985D01*
X88181642Y-73680604D01*
X88181642Y-73728223D01*
X88300690Y-73704414D02*
X88276880Y-73752033D01*
X88229261Y-73799652D01*
X88134023Y-73823461D01*
X87967357Y-73823461D01*
X87872119Y-73799652D01*
X87824500Y-73752033D01*
X87800690Y-73704414D01*
X87800690Y-73609176D01*
X87824500Y-73561557D01*
X87872119Y-73513938D01*
X87967357Y-73490128D01*
X88134023Y-73490128D01*
X88229261Y-73513938D01*
X88276880Y-73561557D01*
X88300690Y-73609176D01*
X88300690Y-73704414D01*
X87848309Y-73299652D02*
X87824500Y-73275842D01*
X87800690Y-73228223D01*
X87800690Y-73109176D01*
X87824500Y-73061557D01*
X87848309Y-73037747D01*
X87895928Y-73013938D01*
X87943547Y-73013938D01*
X88014976Y-73037747D01*
X88300690Y-73323461D01*
X88300690Y-73013938D01*
M02*
