G04 #@! TF.GenerationSoftware,KiCad,Pcbnew,(5.1.5-0-10_14)*
G04 #@! TF.CreationDate,2020-08-14T15:05:09-04:00*
G04 #@! TF.ProjectId,Raspberry-Pi-Hat,52617370-6265-4727-9279-2d50692d4861,rev?*
G04 #@! TF.SameCoordinates,Original*
G04 #@! TF.FileFunction,Other,Fab,Bot*
%FSLAX46Y46*%
G04 Gerber Fmt 4.6, Leading zero omitted, Abs format (unit mm)*
G04 Created by KiCad (PCBNEW (5.1.5-0-10_14)) date 2020-08-14 15:05:09*
%MOMM*%
%LPD*%
G04 APERTURE LIST*
%ADD10C,0.100000*%
%ADD11C,0.120000*%
%ADD12C,0.105000*%
%ADD13C,0.075000*%
%ADD14C,0.080000*%
%ADD15C,0.150000*%
G04 APERTURE END LIST*
D10*
X78546356Y-63817611D02*
X78546356Y-113817611D01*
X78546356Y-63817611D02*
G75*
G02X81546356Y-60817611I3000000J0D01*
G01*
X140546356Y-60817611D02*
X81546356Y-60817611D01*
X140546356Y-60817611D02*
G75*
G02X143546356Y-63817611I0J-3000000D01*
G01*
X143546351Y-113822847D02*
X143546356Y-63817611D01*
X81546356Y-116817611D02*
G75*
G02X78546356Y-113817611I0J3000000D01*
G01*
X81546356Y-116817611D02*
X140546356Y-116817611D01*
X143546351Y-113822847D02*
G75*
G02X140546356Y-116817611I-2999995J5236D01*
G01*
X93883400Y-85251800D02*
X93883400Y-84251800D01*
X94483400Y-86251800D02*
X93883400Y-85251800D01*
X95783400Y-85251800D02*
X95783400Y-84251800D01*
X95183400Y-86251800D02*
X95783400Y-85251800D01*
X93803400Y-86251800D02*
X95863400Y-86251800D01*
X93803400Y-92751800D02*
X93803400Y-86251800D01*
X95863400Y-92751800D02*
X93803400Y-92751800D01*
X95863400Y-86251800D02*
X95863400Y-92751800D01*
X124870000Y-107550000D02*
X124870000Y-108950000D01*
X121830000Y-108950000D02*
X124870000Y-108950000D01*
X122400000Y-107550000D02*
X121830000Y-108100000D01*
X121830000Y-108100000D02*
X121830000Y-108950000D01*
X122400000Y-107550000D02*
X124850000Y-107550000D01*
X103140000Y-86113333D02*
X105140000Y-86113333D01*
X103140000Y-84913333D02*
X103140000Y-86113333D01*
X105140000Y-84913333D02*
X103140000Y-84913333D01*
X105140000Y-86113333D02*
X105140000Y-84913333D01*
X103140000Y-88822666D02*
X105140000Y-88822666D01*
X103140000Y-87622666D02*
X103140000Y-88822666D01*
X105140000Y-87622666D02*
X103140000Y-87622666D01*
X105140000Y-88822666D02*
X105140000Y-87622666D01*
X103140000Y-91532000D02*
X105140000Y-91532000D01*
X103140000Y-90332000D02*
X103140000Y-91532000D01*
X105140000Y-90332000D02*
X103140000Y-90332000D01*
X105140000Y-91532000D02*
X105140000Y-90332000D01*
X131900000Y-88300000D02*
X129900000Y-88300000D01*
X131900000Y-89500000D02*
X131900000Y-88300000D01*
X129900000Y-89500000D02*
X131900000Y-89500000D01*
X129900000Y-88300000D02*
X129900000Y-89500000D01*
X115766666Y-101400000D02*
X115766666Y-99400000D01*
X114566666Y-101400000D02*
X115766666Y-101400000D01*
X114566666Y-99400000D02*
X114566666Y-101400000D01*
X115766666Y-99400000D02*
X114566666Y-99400000D01*
X113083333Y-101400000D02*
X113083333Y-99400000D01*
X111883333Y-101400000D02*
X113083333Y-101400000D01*
X111883333Y-99400000D02*
X111883333Y-101400000D01*
X113083333Y-99400000D02*
X111883333Y-99400000D01*
X108910300Y-108929880D02*
X106910300Y-108929880D01*
X108910300Y-110129880D02*
X108910300Y-108929880D01*
X106910300Y-110129880D02*
X108910300Y-110129880D01*
X106910300Y-108929880D02*
X106910300Y-110129880D01*
X103140000Y-83404000D02*
X105140000Y-83404000D01*
X103140000Y-82204000D02*
X103140000Y-83404000D01*
X105140000Y-82204000D02*
X103140000Y-82204000D01*
X105140000Y-83404000D02*
X105140000Y-82204000D01*
X98882380Y-108879080D02*
X96882380Y-108879080D01*
X98882380Y-110079080D02*
X98882380Y-108879080D01*
X96882380Y-110079080D02*
X98882380Y-110079080D01*
X96882380Y-108879080D02*
X96882380Y-110079080D01*
X121850000Y-95550000D02*
X123850000Y-95550000D01*
X121850000Y-94350000D02*
X121850000Y-95550000D01*
X123850000Y-94350000D02*
X121850000Y-94350000D01*
X123850000Y-95550000D02*
X123850000Y-94350000D01*
X125650000Y-93050000D02*
X125650000Y-95050000D01*
X126850000Y-93050000D02*
X125650000Y-93050000D01*
X126850000Y-95050000D02*
X126850000Y-93050000D01*
X125650000Y-95050000D02*
X126850000Y-95050000D01*
X108874000Y-78629000D02*
X108874000Y-80629000D01*
X110074000Y-78629000D02*
X108874000Y-78629000D01*
X110074000Y-80629000D02*
X110074000Y-78629000D01*
X108874000Y-80629000D02*
X110074000Y-80629000D01*
X110074000Y-94853000D02*
X110074000Y-92853000D01*
X108874000Y-94853000D02*
X110074000Y-94853000D01*
X108874000Y-92853000D02*
X108874000Y-94853000D01*
X110074000Y-92853000D02*
X108874000Y-92853000D01*
X90382800Y-84293200D02*
X90382800Y-86293200D01*
X91582800Y-84293200D02*
X90382800Y-84293200D01*
X91582800Y-86293200D02*
X91582800Y-84293200D01*
X90382800Y-86293200D02*
X91582800Y-86293200D01*
X98129800Y-84276800D02*
X98129800Y-86276800D01*
X99329800Y-84276800D02*
X98129800Y-84276800D01*
X99329800Y-86276800D02*
X99329800Y-84276800D01*
X98129800Y-86276800D02*
X99329800Y-86276800D01*
X92344800Y-78622400D02*
X92344800Y-76622400D01*
X91144800Y-78622400D02*
X92344800Y-78622400D01*
X91144800Y-76622400D02*
X91144800Y-78622400D01*
X92344800Y-76622400D02*
X91144800Y-76622400D01*
X91456000Y-82197500D02*
X93456000Y-82197500D01*
X91456000Y-80997500D02*
X91456000Y-82197500D01*
X93456000Y-80997500D02*
X91456000Y-80997500D01*
X93456000Y-82197500D02*
X93456000Y-80997500D01*
X127017220Y-80842580D02*
X127017220Y-82842580D01*
X128217220Y-80842580D02*
X127017220Y-80842580D01*
X128217220Y-82842580D02*
X128217220Y-80842580D01*
X127017220Y-82842580D02*
X128217220Y-82842580D01*
X128998420Y-80842580D02*
X128998420Y-82842580D01*
X130198420Y-80842580D02*
X128998420Y-80842580D01*
X130198420Y-82842580D02*
X130198420Y-80842580D01*
X128998420Y-82842580D02*
X130198420Y-82842580D01*
X130979620Y-80842580D02*
X130979620Y-82842580D01*
X132179620Y-80842580D02*
X130979620Y-80842580D01*
X132179620Y-82842580D02*
X132179620Y-80842580D01*
X130979620Y-82842580D02*
X132179620Y-82842580D01*
X115300000Y-97450000D02*
X117300000Y-97450000D01*
X115300000Y-96250000D02*
X115300000Y-97450000D01*
X117300000Y-96250000D02*
X115300000Y-96250000D01*
X117300000Y-97450000D02*
X117300000Y-96250000D01*
X118450000Y-101400000D02*
X118450000Y-99400000D01*
X117250000Y-101400000D02*
X118450000Y-101400000D01*
X117250000Y-99400000D02*
X117250000Y-101400000D01*
X118450000Y-99400000D02*
X117250000Y-99400000D01*
X109200000Y-99400000D02*
X109200000Y-101400000D01*
X110400000Y-99400000D02*
X109200000Y-99400000D01*
X110400000Y-101400000D02*
X110400000Y-99400000D01*
X109200000Y-101400000D02*
X110400000Y-101400000D01*
X125036020Y-80842580D02*
X125036020Y-82842580D01*
X126236020Y-80842580D02*
X125036020Y-80842580D01*
X126236020Y-82842580D02*
X126236020Y-80842580D01*
X125036020Y-82842580D02*
X126236020Y-82842580D01*
X122017360Y-69486220D02*
X120017360Y-69486220D01*
X122017360Y-70686220D02*
X122017360Y-69486220D01*
X120017360Y-70686220D02*
X122017360Y-70686220D01*
X120017360Y-69486220D02*
X120017360Y-70686220D01*
X129350000Y-100250000D02*
X129350000Y-98250000D01*
X128150000Y-100250000D02*
X129350000Y-100250000D01*
X128150000Y-98250000D02*
X128150000Y-100250000D01*
X129350000Y-98250000D02*
X128150000Y-98250000D01*
X122017360Y-71800160D02*
X120017360Y-71800160D01*
X122017360Y-73000160D02*
X122017360Y-71800160D01*
X120017360Y-73000160D02*
X122017360Y-73000160D01*
X120017360Y-71800160D02*
X120017360Y-73000160D01*
X129500000Y-95050000D02*
X129500000Y-93050000D01*
X128300000Y-95050000D02*
X129500000Y-95050000D01*
X128300000Y-93050000D02*
X128300000Y-95050000D01*
X129500000Y-93050000D02*
X128300000Y-93050000D01*
X122017360Y-74114100D02*
X120017360Y-74114100D01*
X122017360Y-75314100D02*
X122017360Y-74114100D01*
X120017360Y-75314100D02*
X122017360Y-75314100D01*
X120017360Y-74114100D02*
X120017360Y-75314100D01*
X122017360Y-76428040D02*
X120017360Y-76428040D01*
X122017360Y-77628040D02*
X122017360Y-76428040D01*
X120017360Y-77628040D02*
X122017360Y-77628040D01*
X120017360Y-76428040D02*
X120017360Y-77628040D01*
X122017360Y-78741980D02*
X120017360Y-78741980D01*
X122017360Y-79941980D02*
X122017360Y-78741980D01*
X120017360Y-79941980D02*
X122017360Y-79941980D01*
X120017360Y-78741980D02*
X120017360Y-79941980D01*
X108874000Y-89241000D02*
X107874000Y-88241000D01*
X110874000Y-89241000D02*
X111074000Y-89041000D01*
X108074000Y-89241000D02*
X110874000Y-89241000D01*
X107874000Y-89041000D02*
X108074000Y-89241000D01*
X107874000Y-84441000D02*
X107874000Y-89041000D01*
X108074000Y-84241000D02*
X107874000Y-84441000D01*
X110874000Y-84241000D02*
X108074000Y-84241000D01*
X111074000Y-84441000D02*
X110874000Y-84241000D01*
X111074000Y-89041000D02*
X111074000Y-84441000D01*
X80895913Y-80270700D02*
G75*
G03X80888000Y-81374800I282087J-554100D01*
G01*
X80917331Y-80238898D02*
G75*
G03X80898000Y-75274800I-4619331J2464098D01*
G01*
X86778000Y-74174800D02*
X88728000Y-75824800D01*
X88728000Y-75824800D02*
X88728000Y-79724800D01*
X88728000Y-79724800D02*
X86778000Y-81374800D01*
X86778000Y-81374800D02*
X80828000Y-81374800D01*
X80928000Y-74174800D02*
X86728000Y-74174800D01*
D11*
X80926255Y-74166863D02*
G75*
G03X80908000Y-75274800I231745J-557937D01*
G01*
D10*
X122270000Y-97150000D02*
X122270000Y-100050000D01*
X122270000Y-100050000D02*
X124030000Y-100050000D01*
X124030000Y-97600000D02*
X124030000Y-100050000D01*
X122270000Y-97150000D02*
X123580000Y-97150000D01*
X124030000Y-97600000D02*
X123580000Y-97150000D01*
X124170420Y-73211580D02*
X124170420Y-68911580D01*
X131470420Y-73211580D02*
X124170420Y-73211580D01*
X131470420Y-69911580D02*
X131470420Y-73211580D01*
X130470420Y-68911580D02*
X131470420Y-69911580D01*
X124170420Y-68911580D02*
X130470420Y-68911580D01*
X124170420Y-78291580D02*
X124170420Y-73991580D01*
X131470420Y-78291580D02*
X124170420Y-78291580D01*
X131470420Y-74991580D02*
X131470420Y-78291580D01*
X130470420Y-73991580D02*
X131470420Y-74991580D01*
X124170420Y-73991580D02*
X130470420Y-73991580D01*
X136450000Y-61780000D02*
X85650000Y-61780000D01*
X136450000Y-66860000D02*
X136450000Y-61780000D01*
X86650000Y-66860000D02*
X136450000Y-66860000D01*
X85650000Y-65860000D02*
X86650000Y-66860000D01*
X85650000Y-61780000D02*
X85650000Y-65860000D01*
D12*
X94766733Y-89418466D02*
X95100066Y-89418466D01*
X94400066Y-89185133D02*
X94766733Y-89418466D01*
X94400066Y-89651800D01*
X95100066Y-90251800D02*
X95100066Y-89851800D01*
X95100066Y-90051800D02*
X94400066Y-90051800D01*
X94500066Y-89985133D01*
X94566733Y-89918466D01*
X94600066Y-89851800D01*
D13*
X123719047Y-108476190D02*
X123719047Y-107976190D01*
X123600000Y-107976190D01*
X123528571Y-108000000D01*
X123480952Y-108047619D01*
X123457142Y-108095238D01*
X123433333Y-108190476D01*
X123433333Y-108261904D01*
X123457142Y-108357142D01*
X123480952Y-108404761D01*
X123528571Y-108452380D01*
X123600000Y-108476190D01*
X123719047Y-108476190D01*
X122957142Y-108476190D02*
X123242857Y-108476190D01*
X123100000Y-108476190D02*
X123100000Y-107976190D01*
X123147619Y-108047619D01*
X123195238Y-108095238D01*
X123242857Y-108119047D01*
D14*
X104461428Y-85739523D02*
X104628095Y-85501428D01*
X104747142Y-85739523D02*
X104747142Y-85239523D01*
X104556666Y-85239523D01*
X104509047Y-85263333D01*
X104485238Y-85287142D01*
X104461428Y-85334761D01*
X104461428Y-85406190D01*
X104485238Y-85453809D01*
X104509047Y-85477618D01*
X104556666Y-85501428D01*
X104747142Y-85501428D01*
X103985238Y-85739523D02*
X104270952Y-85739523D01*
X104128095Y-85739523D02*
X104128095Y-85239523D01*
X104175714Y-85310952D01*
X104223333Y-85358571D01*
X104270952Y-85382380D01*
X103699523Y-85453809D02*
X103747142Y-85429999D01*
X103770952Y-85406190D01*
X103794761Y-85358571D01*
X103794761Y-85334761D01*
X103770952Y-85287142D01*
X103747142Y-85263333D01*
X103699523Y-85239523D01*
X103604285Y-85239523D01*
X103556666Y-85263333D01*
X103532857Y-85287142D01*
X103509047Y-85334761D01*
X103509047Y-85358571D01*
X103532857Y-85406190D01*
X103556666Y-85429999D01*
X103604285Y-85453809D01*
X103699523Y-85453809D01*
X103747142Y-85477618D01*
X103770952Y-85501428D01*
X103794761Y-85549047D01*
X103794761Y-85644285D01*
X103770952Y-85691904D01*
X103747142Y-85715713D01*
X103699523Y-85739523D01*
X103604285Y-85739523D01*
X103556666Y-85715713D01*
X103532857Y-85691904D01*
X103509047Y-85644285D01*
X103509047Y-85549047D01*
X103532857Y-85501428D01*
X103556666Y-85477618D01*
X103604285Y-85453809D01*
X104461428Y-88448856D02*
X104628095Y-88210761D01*
X104747142Y-88448856D02*
X104747142Y-87948856D01*
X104556666Y-87948856D01*
X104509047Y-87972666D01*
X104485238Y-87996475D01*
X104461428Y-88044094D01*
X104461428Y-88115523D01*
X104485238Y-88163142D01*
X104509047Y-88186951D01*
X104556666Y-88210761D01*
X104747142Y-88210761D01*
X103985238Y-88448856D02*
X104270952Y-88448856D01*
X104128095Y-88448856D02*
X104128095Y-87948856D01*
X104175714Y-88020285D01*
X104223333Y-88067904D01*
X104270952Y-88091713D01*
X103818571Y-87948856D02*
X103485238Y-87948856D01*
X103699523Y-88448856D01*
X104461428Y-91158190D02*
X104628095Y-90920095D01*
X104747142Y-91158190D02*
X104747142Y-90658190D01*
X104556666Y-90658190D01*
X104509047Y-90682000D01*
X104485238Y-90705809D01*
X104461428Y-90753428D01*
X104461428Y-90824857D01*
X104485238Y-90872476D01*
X104509047Y-90896285D01*
X104556666Y-90920095D01*
X104747142Y-90920095D01*
X103985238Y-91158190D02*
X104270952Y-91158190D01*
X104128095Y-91158190D02*
X104128095Y-90658190D01*
X104175714Y-90729619D01*
X104223333Y-90777238D01*
X104270952Y-90801047D01*
X103556666Y-90658190D02*
X103651904Y-90658190D01*
X103699523Y-90682000D01*
X103723333Y-90705809D01*
X103770952Y-90777238D01*
X103794761Y-90872476D01*
X103794761Y-91062952D01*
X103770952Y-91110571D01*
X103747142Y-91134380D01*
X103699523Y-91158190D01*
X103604285Y-91158190D01*
X103556666Y-91134380D01*
X103532857Y-91110571D01*
X103509047Y-91062952D01*
X103509047Y-90943904D01*
X103532857Y-90896285D01*
X103556666Y-90872476D01*
X103604285Y-90848666D01*
X103699523Y-90848666D01*
X103747142Y-90872476D01*
X103770952Y-90896285D01*
X103794761Y-90943904D01*
X131221428Y-89126190D02*
X131388095Y-88888095D01*
X131507142Y-89126190D02*
X131507142Y-88626190D01*
X131316666Y-88626190D01*
X131269047Y-88650000D01*
X131245238Y-88673809D01*
X131221428Y-88721428D01*
X131221428Y-88792857D01*
X131245238Y-88840476D01*
X131269047Y-88864285D01*
X131316666Y-88888095D01*
X131507142Y-88888095D01*
X130745238Y-89126190D02*
X131030952Y-89126190D01*
X130888095Y-89126190D02*
X130888095Y-88626190D01*
X130935714Y-88697619D01*
X130983333Y-88745238D01*
X131030952Y-88769047D01*
X130292857Y-88626190D02*
X130530952Y-88626190D01*
X130554761Y-88864285D01*
X130530952Y-88840476D01*
X130483333Y-88816666D01*
X130364285Y-88816666D01*
X130316666Y-88840476D01*
X130292857Y-88864285D01*
X130269047Y-88911904D01*
X130269047Y-89030952D01*
X130292857Y-89078571D01*
X130316666Y-89102380D01*
X130364285Y-89126190D01*
X130483333Y-89126190D01*
X130530952Y-89102380D01*
X130554761Y-89078571D01*
X115392856Y-100078571D02*
X115154761Y-99911904D01*
X115392856Y-99792857D02*
X114892856Y-99792857D01*
X114892856Y-99983333D01*
X114916666Y-100030952D01*
X114940475Y-100054761D01*
X114988094Y-100078571D01*
X115059523Y-100078571D01*
X115107142Y-100054761D01*
X115130951Y-100030952D01*
X115154761Y-99983333D01*
X115154761Y-99792857D01*
X115392856Y-100554761D02*
X115392856Y-100269047D01*
X115392856Y-100411904D02*
X114892856Y-100411904D01*
X114964285Y-100364285D01*
X115011904Y-100316666D01*
X115035713Y-100269047D01*
X114892856Y-100721428D02*
X114892856Y-101030952D01*
X115083332Y-100864285D01*
X115083332Y-100935714D01*
X115107142Y-100983333D01*
X115130951Y-101007142D01*
X115178570Y-101030952D01*
X115297618Y-101030952D01*
X115345237Y-101007142D01*
X115369046Y-100983333D01*
X115392856Y-100935714D01*
X115392856Y-100792857D01*
X115369046Y-100745238D01*
X115345237Y-100721428D01*
X112709523Y-100078571D02*
X112471428Y-99911904D01*
X112709523Y-99792857D02*
X112209523Y-99792857D01*
X112209523Y-99983333D01*
X112233333Y-100030952D01*
X112257142Y-100054761D01*
X112304761Y-100078571D01*
X112376190Y-100078571D01*
X112423809Y-100054761D01*
X112447618Y-100030952D01*
X112471428Y-99983333D01*
X112471428Y-99792857D01*
X112709523Y-100554761D02*
X112709523Y-100269047D01*
X112709523Y-100411904D02*
X112209523Y-100411904D01*
X112280952Y-100364285D01*
X112328571Y-100316666D01*
X112352380Y-100269047D01*
X112257142Y-100745238D02*
X112233333Y-100769047D01*
X112209523Y-100816666D01*
X112209523Y-100935714D01*
X112233333Y-100983333D01*
X112257142Y-101007142D01*
X112304761Y-101030952D01*
X112352380Y-101030952D01*
X112423809Y-101007142D01*
X112709523Y-100721428D01*
X112709523Y-101030952D01*
X108231728Y-109756070D02*
X108398395Y-109517975D01*
X108517442Y-109756070D02*
X108517442Y-109256070D01*
X108326966Y-109256070D01*
X108279347Y-109279880D01*
X108255538Y-109303689D01*
X108231728Y-109351308D01*
X108231728Y-109422737D01*
X108255538Y-109470356D01*
X108279347Y-109494165D01*
X108326966Y-109517975D01*
X108517442Y-109517975D01*
X107755538Y-109756070D02*
X108041252Y-109756070D01*
X107898395Y-109756070D02*
X107898395Y-109256070D01*
X107946014Y-109327499D01*
X107993633Y-109375118D01*
X108041252Y-109398927D01*
X107446014Y-109256070D02*
X107398395Y-109256070D01*
X107350776Y-109279880D01*
X107326966Y-109303689D01*
X107303157Y-109351308D01*
X107279347Y-109446546D01*
X107279347Y-109565594D01*
X107303157Y-109660832D01*
X107326966Y-109708451D01*
X107350776Y-109732260D01*
X107398395Y-109756070D01*
X107446014Y-109756070D01*
X107493633Y-109732260D01*
X107517442Y-109708451D01*
X107541252Y-109660832D01*
X107565061Y-109565594D01*
X107565061Y-109446546D01*
X107541252Y-109351308D01*
X107517442Y-109303689D01*
X107493633Y-109279880D01*
X107446014Y-109256070D01*
X104223333Y-83030190D02*
X104390000Y-82792095D01*
X104509047Y-83030190D02*
X104509047Y-82530190D01*
X104318571Y-82530190D01*
X104270952Y-82554000D01*
X104247142Y-82577809D01*
X104223333Y-82625428D01*
X104223333Y-82696857D01*
X104247142Y-82744476D01*
X104270952Y-82768285D01*
X104318571Y-82792095D01*
X104509047Y-82792095D01*
X103985238Y-83030190D02*
X103890000Y-83030190D01*
X103842380Y-83006380D01*
X103818571Y-82982571D01*
X103770952Y-82911142D01*
X103747142Y-82815904D01*
X103747142Y-82625428D01*
X103770952Y-82577809D01*
X103794761Y-82554000D01*
X103842380Y-82530190D01*
X103937619Y-82530190D01*
X103985238Y-82554000D01*
X104009047Y-82577809D01*
X104032857Y-82625428D01*
X104032857Y-82744476D01*
X104009047Y-82792095D01*
X103985238Y-82815904D01*
X103937619Y-82839714D01*
X103842380Y-82839714D01*
X103794761Y-82815904D01*
X103770952Y-82792095D01*
X103747142Y-82744476D01*
X97965713Y-109705270D02*
X98132380Y-109467175D01*
X98251427Y-109705270D02*
X98251427Y-109205270D01*
X98060951Y-109205270D01*
X98013332Y-109229080D01*
X97989522Y-109252889D01*
X97965713Y-109300508D01*
X97965713Y-109371937D01*
X97989522Y-109419556D01*
X98013332Y-109443365D01*
X98060951Y-109467175D01*
X98251427Y-109467175D01*
X97513332Y-109205270D02*
X97751427Y-109205270D01*
X97775237Y-109443365D01*
X97751427Y-109419556D01*
X97703808Y-109395746D01*
X97584760Y-109395746D01*
X97537141Y-109419556D01*
X97513332Y-109443365D01*
X97489522Y-109490984D01*
X97489522Y-109610032D01*
X97513332Y-109657651D01*
X97537141Y-109681460D01*
X97584760Y-109705270D01*
X97703808Y-109705270D01*
X97751427Y-109681460D01*
X97775237Y-109657651D01*
X122933333Y-95176190D02*
X123100000Y-94938095D01*
X123219047Y-95176190D02*
X123219047Y-94676190D01*
X123028571Y-94676190D01*
X122980952Y-94700000D01*
X122957142Y-94723809D01*
X122933333Y-94771428D01*
X122933333Y-94842857D01*
X122957142Y-94890476D01*
X122980952Y-94914285D01*
X123028571Y-94938095D01*
X123219047Y-94938095D01*
X122742857Y-94723809D02*
X122719047Y-94700000D01*
X122671428Y-94676190D01*
X122552380Y-94676190D01*
X122504761Y-94700000D01*
X122480952Y-94723809D01*
X122457142Y-94771428D01*
X122457142Y-94819047D01*
X122480952Y-94890476D01*
X122766666Y-95176190D01*
X122457142Y-95176190D01*
X126476190Y-93966666D02*
X126238095Y-93800000D01*
X126476190Y-93680952D02*
X125976190Y-93680952D01*
X125976190Y-93871428D01*
X126000000Y-93919047D01*
X126023809Y-93942857D01*
X126071428Y-93966666D01*
X126142857Y-93966666D01*
X126190476Y-93942857D01*
X126214285Y-93919047D01*
X126238095Y-93871428D01*
X126238095Y-93680952D01*
X126476190Y-94442857D02*
X126476190Y-94157142D01*
X126476190Y-94300000D02*
X125976190Y-94300000D01*
X126047619Y-94252380D01*
X126095238Y-94204761D01*
X126119047Y-94157142D01*
X109652571Y-79307571D02*
X109676380Y-79283761D01*
X109700190Y-79212333D01*
X109700190Y-79164714D01*
X109676380Y-79093285D01*
X109628761Y-79045666D01*
X109581142Y-79021857D01*
X109485904Y-78998047D01*
X109414476Y-78998047D01*
X109319238Y-79021857D01*
X109271619Y-79045666D01*
X109224000Y-79093285D01*
X109200190Y-79164714D01*
X109200190Y-79212333D01*
X109224000Y-79283761D01*
X109247809Y-79307571D01*
X109247809Y-79498047D02*
X109224000Y-79521857D01*
X109200190Y-79569476D01*
X109200190Y-79688523D01*
X109224000Y-79736142D01*
X109247809Y-79759952D01*
X109295428Y-79783761D01*
X109343047Y-79783761D01*
X109414476Y-79759952D01*
X109700190Y-79474238D01*
X109700190Y-79783761D01*
X109366857Y-80212333D02*
X109700190Y-80212333D01*
X109176380Y-80093285D02*
X109533523Y-79974238D01*
X109533523Y-80283761D01*
X109652571Y-93531571D02*
X109676380Y-93507761D01*
X109700190Y-93436333D01*
X109700190Y-93388714D01*
X109676380Y-93317285D01*
X109628761Y-93269666D01*
X109581142Y-93245857D01*
X109485904Y-93222047D01*
X109414476Y-93222047D01*
X109319238Y-93245857D01*
X109271619Y-93269666D01*
X109224000Y-93317285D01*
X109200190Y-93388714D01*
X109200190Y-93436333D01*
X109224000Y-93507761D01*
X109247809Y-93531571D01*
X109247809Y-93722047D02*
X109224000Y-93745857D01*
X109200190Y-93793476D01*
X109200190Y-93912523D01*
X109224000Y-93960142D01*
X109247809Y-93983952D01*
X109295428Y-94007761D01*
X109343047Y-94007761D01*
X109414476Y-93983952D01*
X109700190Y-93698238D01*
X109700190Y-94007761D01*
X109200190Y-94174428D02*
X109200190Y-94483952D01*
X109390666Y-94317285D01*
X109390666Y-94388714D01*
X109414476Y-94436333D01*
X109438285Y-94460142D01*
X109485904Y-94483952D01*
X109604952Y-94483952D01*
X109652571Y-94460142D01*
X109676380Y-94436333D01*
X109700190Y-94388714D01*
X109700190Y-94245857D01*
X109676380Y-94198238D01*
X109652571Y-94174428D01*
X91161371Y-84971771D02*
X91185180Y-84947961D01*
X91208990Y-84876533D01*
X91208990Y-84828914D01*
X91185180Y-84757485D01*
X91137561Y-84709866D01*
X91089942Y-84686057D01*
X90994704Y-84662247D01*
X90923276Y-84662247D01*
X90828038Y-84686057D01*
X90780419Y-84709866D01*
X90732800Y-84757485D01*
X90708990Y-84828914D01*
X90708990Y-84876533D01*
X90732800Y-84947961D01*
X90756609Y-84971771D01*
X90756609Y-85162247D02*
X90732800Y-85186057D01*
X90708990Y-85233676D01*
X90708990Y-85352723D01*
X90732800Y-85400342D01*
X90756609Y-85424152D01*
X90804228Y-85447961D01*
X90851847Y-85447961D01*
X90923276Y-85424152D01*
X91208990Y-85138438D01*
X91208990Y-85447961D01*
X90756609Y-85638438D02*
X90732800Y-85662247D01*
X90708990Y-85709866D01*
X90708990Y-85828914D01*
X90732800Y-85876533D01*
X90756609Y-85900342D01*
X90804228Y-85924152D01*
X90851847Y-85924152D01*
X90923276Y-85900342D01*
X91208990Y-85614628D01*
X91208990Y-85924152D01*
X98908371Y-84955371D02*
X98932180Y-84931561D01*
X98955990Y-84860133D01*
X98955990Y-84812514D01*
X98932180Y-84741085D01*
X98884561Y-84693466D01*
X98836942Y-84669657D01*
X98741704Y-84645847D01*
X98670276Y-84645847D01*
X98575038Y-84669657D01*
X98527419Y-84693466D01*
X98479800Y-84741085D01*
X98455990Y-84812514D01*
X98455990Y-84860133D01*
X98479800Y-84931561D01*
X98503609Y-84955371D01*
X98503609Y-85145847D02*
X98479800Y-85169657D01*
X98455990Y-85217276D01*
X98455990Y-85336323D01*
X98479800Y-85383942D01*
X98503609Y-85407752D01*
X98551228Y-85431561D01*
X98598847Y-85431561D01*
X98670276Y-85407752D01*
X98955990Y-85122038D01*
X98955990Y-85431561D01*
X98955990Y-85907752D02*
X98955990Y-85622038D01*
X98955990Y-85764895D02*
X98455990Y-85764895D01*
X98527419Y-85717276D01*
X98575038Y-85669657D01*
X98598847Y-85622038D01*
X91923371Y-77300971D02*
X91947180Y-77277161D01*
X91970990Y-77205733D01*
X91970990Y-77158114D01*
X91947180Y-77086685D01*
X91899561Y-77039066D01*
X91851942Y-77015257D01*
X91756704Y-76991447D01*
X91685276Y-76991447D01*
X91590038Y-77015257D01*
X91542419Y-77039066D01*
X91494800Y-77086685D01*
X91470990Y-77158114D01*
X91470990Y-77205733D01*
X91494800Y-77277161D01*
X91518609Y-77300971D01*
X91518609Y-77491447D02*
X91494800Y-77515257D01*
X91470990Y-77562876D01*
X91470990Y-77681923D01*
X91494800Y-77729542D01*
X91518609Y-77753352D01*
X91566228Y-77777161D01*
X91613847Y-77777161D01*
X91685276Y-77753352D01*
X91970990Y-77467638D01*
X91970990Y-77777161D01*
X91470990Y-78086685D02*
X91470990Y-78134304D01*
X91494800Y-78181923D01*
X91518609Y-78205733D01*
X91566228Y-78229542D01*
X91661466Y-78253352D01*
X91780514Y-78253352D01*
X91875752Y-78229542D01*
X91923371Y-78205733D01*
X91947180Y-78181923D01*
X91970990Y-78134304D01*
X91970990Y-78086685D01*
X91947180Y-78039066D01*
X91923371Y-78015257D01*
X91875752Y-77991447D01*
X91780514Y-77967638D01*
X91661466Y-77967638D01*
X91566228Y-77991447D01*
X91518609Y-78015257D01*
X91494800Y-78039066D01*
X91470990Y-78086685D01*
X92777428Y-81776071D02*
X92801238Y-81799880D01*
X92872666Y-81823690D01*
X92920285Y-81823690D01*
X92991714Y-81799880D01*
X93039333Y-81752261D01*
X93063142Y-81704642D01*
X93086952Y-81609404D01*
X93086952Y-81537976D01*
X93063142Y-81442738D01*
X93039333Y-81395119D01*
X92991714Y-81347500D01*
X92920285Y-81323690D01*
X92872666Y-81323690D01*
X92801238Y-81347500D01*
X92777428Y-81371309D01*
X92301238Y-81823690D02*
X92586952Y-81823690D01*
X92444095Y-81823690D02*
X92444095Y-81323690D01*
X92491714Y-81395119D01*
X92539333Y-81442738D01*
X92586952Y-81466547D01*
X92063142Y-81823690D02*
X91967904Y-81823690D01*
X91920285Y-81799880D01*
X91896476Y-81776071D01*
X91848857Y-81704642D01*
X91825047Y-81609404D01*
X91825047Y-81418928D01*
X91848857Y-81371309D01*
X91872666Y-81347500D01*
X91920285Y-81323690D01*
X92015523Y-81323690D01*
X92063142Y-81347500D01*
X92086952Y-81371309D01*
X92110761Y-81418928D01*
X92110761Y-81537976D01*
X92086952Y-81585595D01*
X92063142Y-81609404D01*
X92015523Y-81633214D01*
X91920285Y-81633214D01*
X91872666Y-81609404D01*
X91848857Y-81585595D01*
X91825047Y-81537976D01*
X127795791Y-81521151D02*
X127819600Y-81497341D01*
X127843410Y-81425913D01*
X127843410Y-81378294D01*
X127819600Y-81306865D01*
X127771981Y-81259246D01*
X127724362Y-81235437D01*
X127629124Y-81211627D01*
X127557696Y-81211627D01*
X127462458Y-81235437D01*
X127414839Y-81259246D01*
X127367220Y-81306865D01*
X127343410Y-81378294D01*
X127343410Y-81425913D01*
X127367220Y-81497341D01*
X127391029Y-81521151D01*
X127843410Y-81997341D02*
X127843410Y-81711627D01*
X127843410Y-81854484D02*
X127343410Y-81854484D01*
X127414839Y-81806865D01*
X127462458Y-81759246D01*
X127486267Y-81711627D01*
X127557696Y-82283056D02*
X127533886Y-82235437D01*
X127510077Y-82211627D01*
X127462458Y-82187818D01*
X127438648Y-82187818D01*
X127391029Y-82211627D01*
X127367220Y-82235437D01*
X127343410Y-82283056D01*
X127343410Y-82378294D01*
X127367220Y-82425913D01*
X127391029Y-82449722D01*
X127438648Y-82473532D01*
X127462458Y-82473532D01*
X127510077Y-82449722D01*
X127533886Y-82425913D01*
X127557696Y-82378294D01*
X127557696Y-82283056D01*
X127581505Y-82235437D01*
X127605315Y-82211627D01*
X127652934Y-82187818D01*
X127748172Y-82187818D01*
X127795791Y-82211627D01*
X127819600Y-82235437D01*
X127843410Y-82283056D01*
X127843410Y-82378294D01*
X127819600Y-82425913D01*
X127795791Y-82449722D01*
X127748172Y-82473532D01*
X127652934Y-82473532D01*
X127605315Y-82449722D01*
X127581505Y-82425913D01*
X127557696Y-82378294D01*
X129776991Y-81521151D02*
X129800800Y-81497341D01*
X129824610Y-81425913D01*
X129824610Y-81378294D01*
X129800800Y-81306865D01*
X129753181Y-81259246D01*
X129705562Y-81235437D01*
X129610324Y-81211627D01*
X129538896Y-81211627D01*
X129443658Y-81235437D01*
X129396039Y-81259246D01*
X129348420Y-81306865D01*
X129324610Y-81378294D01*
X129324610Y-81425913D01*
X129348420Y-81497341D01*
X129372229Y-81521151D01*
X129824610Y-81997341D02*
X129824610Y-81711627D01*
X129824610Y-81854484D02*
X129324610Y-81854484D01*
X129396039Y-81806865D01*
X129443658Y-81759246D01*
X129467467Y-81711627D01*
X129324610Y-82164008D02*
X129324610Y-82497341D01*
X129824610Y-82283056D01*
X131758191Y-81521151D02*
X131782000Y-81497341D01*
X131805810Y-81425913D01*
X131805810Y-81378294D01*
X131782000Y-81306865D01*
X131734381Y-81259246D01*
X131686762Y-81235437D01*
X131591524Y-81211627D01*
X131520096Y-81211627D01*
X131424858Y-81235437D01*
X131377239Y-81259246D01*
X131329620Y-81306865D01*
X131305810Y-81378294D01*
X131305810Y-81425913D01*
X131329620Y-81497341D01*
X131353429Y-81521151D01*
X131805810Y-81997341D02*
X131805810Y-81711627D01*
X131805810Y-81854484D02*
X131305810Y-81854484D01*
X131377239Y-81806865D01*
X131424858Y-81759246D01*
X131448667Y-81711627D01*
X131305810Y-82425913D02*
X131305810Y-82330675D01*
X131329620Y-82283056D01*
X131353429Y-82259246D01*
X131424858Y-82211627D01*
X131520096Y-82187818D01*
X131710572Y-82187818D01*
X131758191Y-82211627D01*
X131782000Y-82235437D01*
X131805810Y-82283056D01*
X131805810Y-82378294D01*
X131782000Y-82425913D01*
X131758191Y-82449722D01*
X131710572Y-82473532D01*
X131591524Y-82473532D01*
X131543905Y-82449722D01*
X131520096Y-82425913D01*
X131496286Y-82378294D01*
X131496286Y-82283056D01*
X131520096Y-82235437D01*
X131543905Y-82211627D01*
X131591524Y-82187818D01*
X116621428Y-97028571D02*
X116645238Y-97052380D01*
X116716666Y-97076190D01*
X116764285Y-97076190D01*
X116835714Y-97052380D01*
X116883333Y-97004761D01*
X116907142Y-96957142D01*
X116930952Y-96861904D01*
X116930952Y-96790476D01*
X116907142Y-96695238D01*
X116883333Y-96647619D01*
X116835714Y-96600000D01*
X116764285Y-96576190D01*
X116716666Y-96576190D01*
X116645238Y-96600000D01*
X116621428Y-96623809D01*
X116145238Y-97076190D02*
X116430952Y-97076190D01*
X116288095Y-97076190D02*
X116288095Y-96576190D01*
X116335714Y-96647619D01*
X116383333Y-96695238D01*
X116430952Y-96719047D01*
X115978571Y-96576190D02*
X115669047Y-96576190D01*
X115835714Y-96766666D01*
X115764285Y-96766666D01*
X115716666Y-96790476D01*
X115692857Y-96814285D01*
X115669047Y-96861904D01*
X115669047Y-96980952D01*
X115692857Y-97028571D01*
X115716666Y-97052380D01*
X115764285Y-97076190D01*
X115907142Y-97076190D01*
X115954761Y-97052380D01*
X115978571Y-97028571D01*
X118028571Y-100078571D02*
X118052380Y-100054761D01*
X118076190Y-99983333D01*
X118076190Y-99935714D01*
X118052380Y-99864285D01*
X118004761Y-99816666D01*
X117957142Y-99792857D01*
X117861904Y-99769047D01*
X117790476Y-99769047D01*
X117695238Y-99792857D01*
X117647619Y-99816666D01*
X117600000Y-99864285D01*
X117576190Y-99935714D01*
X117576190Y-99983333D01*
X117600000Y-100054761D01*
X117623809Y-100078571D01*
X118076190Y-100554761D02*
X118076190Y-100269047D01*
X118076190Y-100411904D02*
X117576190Y-100411904D01*
X117647619Y-100364285D01*
X117695238Y-100316666D01*
X117719047Y-100269047D01*
X117623809Y-100745238D02*
X117600000Y-100769047D01*
X117576190Y-100816666D01*
X117576190Y-100935714D01*
X117600000Y-100983333D01*
X117623809Y-101007142D01*
X117671428Y-101030952D01*
X117719047Y-101030952D01*
X117790476Y-101007142D01*
X118076190Y-100721428D01*
X118076190Y-101030952D01*
X109978571Y-100078571D02*
X110002380Y-100054761D01*
X110026190Y-99983333D01*
X110026190Y-99935714D01*
X110002380Y-99864285D01*
X109954761Y-99816666D01*
X109907142Y-99792857D01*
X109811904Y-99769047D01*
X109740476Y-99769047D01*
X109645238Y-99792857D01*
X109597619Y-99816666D01*
X109550000Y-99864285D01*
X109526190Y-99935714D01*
X109526190Y-99983333D01*
X109550000Y-100054761D01*
X109573809Y-100078571D01*
X110026190Y-100554761D02*
X110026190Y-100269047D01*
X110026190Y-100411904D02*
X109526190Y-100411904D01*
X109597619Y-100364285D01*
X109645238Y-100316666D01*
X109669047Y-100269047D01*
X110026190Y-101030952D02*
X110026190Y-100745238D01*
X110026190Y-100888095D02*
X109526190Y-100888095D01*
X109597619Y-100840476D01*
X109645238Y-100792857D01*
X109669047Y-100745238D01*
X125814591Y-81521151D02*
X125838400Y-81497341D01*
X125862210Y-81425913D01*
X125862210Y-81378294D01*
X125838400Y-81306865D01*
X125790781Y-81259246D01*
X125743162Y-81235437D01*
X125647924Y-81211627D01*
X125576496Y-81211627D01*
X125481258Y-81235437D01*
X125433639Y-81259246D01*
X125386020Y-81306865D01*
X125362210Y-81378294D01*
X125362210Y-81425913D01*
X125386020Y-81497341D01*
X125409829Y-81521151D01*
X125862210Y-81997341D02*
X125862210Y-81711627D01*
X125862210Y-81854484D02*
X125362210Y-81854484D01*
X125433639Y-81806865D01*
X125481258Y-81759246D01*
X125505067Y-81711627D01*
X125362210Y-82306865D02*
X125362210Y-82354484D01*
X125386020Y-82402103D01*
X125409829Y-82425913D01*
X125457448Y-82449722D01*
X125552686Y-82473532D01*
X125671734Y-82473532D01*
X125766972Y-82449722D01*
X125814591Y-82425913D01*
X125838400Y-82402103D01*
X125862210Y-82354484D01*
X125862210Y-82306865D01*
X125838400Y-82259246D01*
X125814591Y-82235437D01*
X125766972Y-82211627D01*
X125671734Y-82187818D01*
X125552686Y-82187818D01*
X125457448Y-82211627D01*
X125409829Y-82235437D01*
X125386020Y-82259246D01*
X125362210Y-82306865D01*
X121100693Y-70264791D02*
X121124502Y-70288600D01*
X121195931Y-70312410D01*
X121243550Y-70312410D01*
X121314979Y-70288600D01*
X121362598Y-70240981D01*
X121386407Y-70193362D01*
X121410217Y-70098124D01*
X121410217Y-70026696D01*
X121386407Y-69931458D01*
X121362598Y-69883839D01*
X121314979Y-69836220D01*
X121243550Y-69812410D01*
X121195931Y-69812410D01*
X121124502Y-69836220D01*
X121100693Y-69860029D01*
X120862598Y-70312410D02*
X120767360Y-70312410D01*
X120719740Y-70288600D01*
X120695931Y-70264791D01*
X120648312Y-70193362D01*
X120624502Y-70098124D01*
X120624502Y-69907648D01*
X120648312Y-69860029D01*
X120672121Y-69836220D01*
X120719740Y-69812410D01*
X120814979Y-69812410D01*
X120862598Y-69836220D01*
X120886407Y-69860029D01*
X120910217Y-69907648D01*
X120910217Y-70026696D01*
X120886407Y-70074315D01*
X120862598Y-70098124D01*
X120814979Y-70121934D01*
X120719740Y-70121934D01*
X120672121Y-70098124D01*
X120648312Y-70074315D01*
X120624502Y-70026696D01*
X128928571Y-99166666D02*
X128952380Y-99142857D01*
X128976190Y-99071428D01*
X128976190Y-99023809D01*
X128952380Y-98952380D01*
X128904761Y-98904761D01*
X128857142Y-98880952D01*
X128761904Y-98857142D01*
X128690476Y-98857142D01*
X128595238Y-98880952D01*
X128547619Y-98904761D01*
X128500000Y-98952380D01*
X128476190Y-99023809D01*
X128476190Y-99071428D01*
X128500000Y-99142857D01*
X128523809Y-99166666D01*
X128476190Y-99333333D02*
X128476190Y-99666666D01*
X128976190Y-99452380D01*
X121100693Y-72578731D02*
X121124502Y-72602540D01*
X121195931Y-72626350D01*
X121243550Y-72626350D01*
X121314979Y-72602540D01*
X121362598Y-72554921D01*
X121386407Y-72507302D01*
X121410217Y-72412064D01*
X121410217Y-72340636D01*
X121386407Y-72245398D01*
X121362598Y-72197779D01*
X121314979Y-72150160D01*
X121243550Y-72126350D01*
X121195931Y-72126350D01*
X121124502Y-72150160D01*
X121100693Y-72173969D01*
X120672121Y-72126350D02*
X120767360Y-72126350D01*
X120814979Y-72150160D01*
X120838788Y-72173969D01*
X120886407Y-72245398D01*
X120910217Y-72340636D01*
X120910217Y-72531112D01*
X120886407Y-72578731D01*
X120862598Y-72602540D01*
X120814979Y-72626350D01*
X120719740Y-72626350D01*
X120672121Y-72602540D01*
X120648312Y-72578731D01*
X120624502Y-72531112D01*
X120624502Y-72412064D01*
X120648312Y-72364445D01*
X120672121Y-72340636D01*
X120719740Y-72316826D01*
X120814979Y-72316826D01*
X120862598Y-72340636D01*
X120886407Y-72364445D01*
X120910217Y-72412064D01*
X129078571Y-93966666D02*
X129102380Y-93942857D01*
X129126190Y-93871428D01*
X129126190Y-93823809D01*
X129102380Y-93752380D01*
X129054761Y-93704761D01*
X129007142Y-93680952D01*
X128911904Y-93657142D01*
X128840476Y-93657142D01*
X128745238Y-93680952D01*
X128697619Y-93704761D01*
X128650000Y-93752380D01*
X128626190Y-93823809D01*
X128626190Y-93871428D01*
X128650000Y-93942857D01*
X128673809Y-93966666D01*
X128626190Y-94419047D02*
X128626190Y-94180952D01*
X128864285Y-94157142D01*
X128840476Y-94180952D01*
X128816666Y-94228571D01*
X128816666Y-94347619D01*
X128840476Y-94395238D01*
X128864285Y-94419047D01*
X128911904Y-94442857D01*
X129030952Y-94442857D01*
X129078571Y-94419047D01*
X129102380Y-94395238D01*
X129126190Y-94347619D01*
X129126190Y-94228571D01*
X129102380Y-94180952D01*
X129078571Y-94157142D01*
X121100693Y-74892671D02*
X121124502Y-74916480D01*
X121195931Y-74940290D01*
X121243550Y-74940290D01*
X121314979Y-74916480D01*
X121362598Y-74868861D01*
X121386407Y-74821242D01*
X121410217Y-74726004D01*
X121410217Y-74654576D01*
X121386407Y-74559338D01*
X121362598Y-74511719D01*
X121314979Y-74464100D01*
X121243550Y-74440290D01*
X121195931Y-74440290D01*
X121124502Y-74464100D01*
X121100693Y-74487909D01*
X120672121Y-74606957D02*
X120672121Y-74940290D01*
X120791169Y-74416480D02*
X120910217Y-74773623D01*
X120600693Y-74773623D01*
X121100693Y-77206611D02*
X121124502Y-77230420D01*
X121195931Y-77254230D01*
X121243550Y-77254230D01*
X121314979Y-77230420D01*
X121362598Y-77182801D01*
X121386407Y-77135182D01*
X121410217Y-77039944D01*
X121410217Y-76968516D01*
X121386407Y-76873278D01*
X121362598Y-76825659D01*
X121314979Y-76778040D01*
X121243550Y-76754230D01*
X121195931Y-76754230D01*
X121124502Y-76778040D01*
X121100693Y-76801849D01*
X120934026Y-76754230D02*
X120624502Y-76754230D01*
X120791169Y-76944706D01*
X120719740Y-76944706D01*
X120672121Y-76968516D01*
X120648312Y-76992325D01*
X120624502Y-77039944D01*
X120624502Y-77158992D01*
X120648312Y-77206611D01*
X120672121Y-77230420D01*
X120719740Y-77254230D01*
X120862598Y-77254230D01*
X120910217Y-77230420D01*
X120934026Y-77206611D01*
X121100693Y-79520551D02*
X121124502Y-79544360D01*
X121195931Y-79568170D01*
X121243550Y-79568170D01*
X121314979Y-79544360D01*
X121362598Y-79496741D01*
X121386407Y-79449122D01*
X121410217Y-79353884D01*
X121410217Y-79282456D01*
X121386407Y-79187218D01*
X121362598Y-79139599D01*
X121314979Y-79091980D01*
X121243550Y-79068170D01*
X121195931Y-79068170D01*
X121124502Y-79091980D01*
X121100693Y-79115789D01*
X120910217Y-79115789D02*
X120886407Y-79091980D01*
X120838788Y-79068170D01*
X120719740Y-79068170D01*
X120672121Y-79091980D01*
X120648312Y-79115789D01*
X120624502Y-79163408D01*
X120624502Y-79211027D01*
X120648312Y-79282456D01*
X120934026Y-79568170D01*
X120624502Y-79568170D01*
D15*
X109450190Y-86264809D02*
X109926380Y-86264809D01*
X108926380Y-85931476D02*
X109450190Y-86264809D01*
X108926380Y-86598142D01*
X109021619Y-86883857D02*
X108974000Y-86931476D01*
X108926380Y-87026714D01*
X108926380Y-87264809D01*
X108974000Y-87360047D01*
X109021619Y-87407666D01*
X109116857Y-87455285D01*
X109212095Y-87455285D01*
X109354952Y-87407666D01*
X109926380Y-86836238D01*
X109926380Y-87455285D01*
X88278000Y-77324800D02*
X88311333Y-77424800D01*
X88344666Y-77458133D01*
X88411333Y-77491466D01*
X88511333Y-77491466D01*
X88578000Y-77458133D01*
X88611333Y-77424800D01*
X88644666Y-77358133D01*
X88644666Y-77091466D01*
X87944666Y-77091466D01*
X87944666Y-77324800D01*
X87978000Y-77391466D01*
X88011333Y-77424800D01*
X88078000Y-77458133D01*
X88144666Y-77458133D01*
X88211333Y-77424800D01*
X88244666Y-77391466D01*
X88278000Y-77324800D01*
X88278000Y-77091466D01*
X87944666Y-77691466D02*
X87944666Y-78091466D01*
X88644666Y-77891466D02*
X87944666Y-77891466D01*
X88644666Y-78691466D02*
X88644666Y-78291466D01*
X88644666Y-78491466D02*
X87944666Y-78491466D01*
X88044666Y-78424800D01*
X88111333Y-78358133D01*
X88144666Y-78291466D01*
D13*
X122876190Y-98219047D02*
X123280952Y-98219047D01*
X123328571Y-98242857D01*
X123352380Y-98266666D01*
X123376190Y-98314285D01*
X123376190Y-98409523D01*
X123352380Y-98457142D01*
X123328571Y-98480952D01*
X123280952Y-98504761D01*
X122876190Y-98504761D01*
X122876190Y-98695238D02*
X122876190Y-99004761D01*
X123066666Y-98838095D01*
X123066666Y-98909523D01*
X123090476Y-98957142D01*
X123114285Y-98980952D01*
X123161904Y-99004761D01*
X123280952Y-99004761D01*
X123328571Y-98980952D01*
X123352380Y-98957142D01*
X123376190Y-98909523D01*
X123376190Y-98766666D01*
X123352380Y-98719047D01*
X123328571Y-98695238D01*
D15*
X128463277Y-71418722D02*
X128510896Y-71466341D01*
X128653753Y-71513960D01*
X128748991Y-71513960D01*
X128891848Y-71466341D01*
X128987086Y-71371103D01*
X129034705Y-71275865D01*
X129082324Y-71085389D01*
X129082324Y-70942532D01*
X129034705Y-70752056D01*
X128987086Y-70656818D01*
X128891848Y-70561580D01*
X128748991Y-70513960D01*
X128653753Y-70513960D01*
X128510896Y-70561580D01*
X128463277Y-70609199D01*
X127510896Y-71513960D02*
X128082324Y-71513960D01*
X127796610Y-71513960D02*
X127796610Y-70513960D01*
X127891848Y-70656818D01*
X127987086Y-70752056D01*
X128082324Y-70799675D01*
X126606134Y-70513960D02*
X127082324Y-70513960D01*
X127129943Y-70990151D01*
X127082324Y-70942532D01*
X126987086Y-70894913D01*
X126748991Y-70894913D01*
X126653753Y-70942532D01*
X126606134Y-70990151D01*
X126558515Y-71085389D01*
X126558515Y-71323484D01*
X126606134Y-71418722D01*
X126653753Y-71466341D01*
X126748991Y-71513960D01*
X126987086Y-71513960D01*
X127082324Y-71466341D01*
X127129943Y-71418722D01*
X128463277Y-76498722D02*
X128510896Y-76546341D01*
X128653753Y-76593960D01*
X128748991Y-76593960D01*
X128891848Y-76546341D01*
X128987086Y-76451103D01*
X129034705Y-76355865D01*
X129082324Y-76165389D01*
X129082324Y-76022532D01*
X129034705Y-75832056D01*
X128987086Y-75736818D01*
X128891848Y-75641580D01*
X128748991Y-75593960D01*
X128653753Y-75593960D01*
X128510896Y-75641580D01*
X128463277Y-75689199D01*
X127510896Y-76593960D02*
X128082324Y-76593960D01*
X127796610Y-76593960D02*
X127796610Y-75593960D01*
X127891848Y-75736818D01*
X127987086Y-75832056D01*
X128082324Y-75879675D01*
X126653753Y-75927294D02*
X126653753Y-76593960D01*
X126891848Y-75546341D02*
X127129943Y-76260627D01*
X126510896Y-76260627D01*
X111383333Y-63772380D02*
X111383333Y-64486666D01*
X111430952Y-64629523D01*
X111526190Y-64724761D01*
X111669047Y-64772380D01*
X111764285Y-64772380D01*
X111002380Y-63772380D02*
X110383333Y-63772380D01*
X110716666Y-64153333D01*
X110573809Y-64153333D01*
X110478571Y-64200952D01*
X110430952Y-64248571D01*
X110383333Y-64343809D01*
X110383333Y-64581904D01*
X110430952Y-64677142D01*
X110478571Y-64724761D01*
X110573809Y-64772380D01*
X110859523Y-64772380D01*
X110954761Y-64724761D01*
X111002380Y-64677142D01*
M02*
