G04 #@! TF.GenerationSoftware,KiCad,Pcbnew,(5.1.5-0-10_14)*
G04 #@! TF.CreationDate,2020-08-14T15:05:08-04:00*
G04 #@! TF.ProjectId,Raspberry-Pi-Hat,52617370-6265-4727-9279-2d50692d4861,rev?*
G04 #@! TF.SameCoordinates,Original*
G04 #@! TF.FileFunction,Paste,Bot*
G04 #@! TF.FilePolarity,Positive*
%FSLAX46Y46*%
G04 Gerber Fmt 4.6, Leading zero omitted, Abs format (unit mm)*
G04 Created by KiCad (PCBNEW (5.1.5-0-10_14)) date 2020-08-14 15:05:08*
%MOMM*%
%LPD*%
G04 APERTURE LIST*
%ADD10C,0.100000*%
%ADD11R,0.800000X0.900000*%
%ADD12R,2.400000X3.325000*%
%ADD13R,3.960000X3.960000*%
%ADD14R,5.080000X1.780000*%
%ADD15R,2.000000X0.400000*%
G04 APERTURE END LIST*
D10*
X78546356Y-63817611D02*
X78546356Y-113817611D01*
X78546356Y-63817611D02*
G75*
G02X81546356Y-60817611I3000000J0D01*
G01*
X140546356Y-60817611D02*
X81546356Y-60817611D01*
X140546356Y-60817611D02*
G75*
G02X143546356Y-63817611I0J-3000000D01*
G01*
X143546351Y-113822847D02*
X143546356Y-63817611D01*
X81546356Y-116817611D02*
G75*
G02X78546356Y-113817611I0J3000000D01*
G01*
X81546356Y-116817611D02*
X140546356Y-116817611D01*
X143546351Y-113822847D02*
G75*
G02X140546356Y-116817611I-2999995J5236D01*
G01*
D11*
X123350000Y-109250000D03*
X124300000Y-107250000D03*
X122400000Y-107250000D03*
D10*
G36*
X103464505Y-84814537D02*
G01*
X103488773Y-84818137D01*
X103512572Y-84824098D01*
X103535671Y-84832363D01*
X103557850Y-84842853D01*
X103578893Y-84855465D01*
X103598599Y-84870080D01*
X103616777Y-84886556D01*
X103633253Y-84904734D01*
X103647868Y-84924440D01*
X103660480Y-84945483D01*
X103670970Y-84967662D01*
X103679235Y-84990761D01*
X103685196Y-85014560D01*
X103688796Y-85038828D01*
X103690000Y-85063332D01*
X103690000Y-85963334D01*
X103688796Y-85987838D01*
X103685196Y-86012106D01*
X103679235Y-86035905D01*
X103670970Y-86059004D01*
X103660480Y-86081183D01*
X103647868Y-86102226D01*
X103633253Y-86121932D01*
X103616777Y-86140110D01*
X103598599Y-86156586D01*
X103578893Y-86171201D01*
X103557850Y-86183813D01*
X103535671Y-86194303D01*
X103512572Y-86202568D01*
X103488773Y-86208529D01*
X103464505Y-86212129D01*
X103440001Y-86213333D01*
X102789999Y-86213333D01*
X102765495Y-86212129D01*
X102741227Y-86208529D01*
X102717428Y-86202568D01*
X102694329Y-86194303D01*
X102672150Y-86183813D01*
X102651107Y-86171201D01*
X102631401Y-86156586D01*
X102613223Y-86140110D01*
X102596747Y-86121932D01*
X102582132Y-86102226D01*
X102569520Y-86081183D01*
X102559030Y-86059004D01*
X102550765Y-86035905D01*
X102544804Y-86012106D01*
X102541204Y-85987838D01*
X102540000Y-85963334D01*
X102540000Y-85063332D01*
X102541204Y-85038828D01*
X102544804Y-85014560D01*
X102550765Y-84990761D01*
X102559030Y-84967662D01*
X102569520Y-84945483D01*
X102582132Y-84924440D01*
X102596747Y-84904734D01*
X102613223Y-84886556D01*
X102631401Y-84870080D01*
X102651107Y-84855465D01*
X102672150Y-84842853D01*
X102694329Y-84832363D01*
X102717428Y-84824098D01*
X102741227Y-84818137D01*
X102765495Y-84814537D01*
X102789999Y-84813333D01*
X103440001Y-84813333D01*
X103464505Y-84814537D01*
G37*
G36*
X105514505Y-84814537D02*
G01*
X105538773Y-84818137D01*
X105562572Y-84824098D01*
X105585671Y-84832363D01*
X105607850Y-84842853D01*
X105628893Y-84855465D01*
X105648599Y-84870080D01*
X105666777Y-84886556D01*
X105683253Y-84904734D01*
X105697868Y-84924440D01*
X105710480Y-84945483D01*
X105720970Y-84967662D01*
X105729235Y-84990761D01*
X105735196Y-85014560D01*
X105738796Y-85038828D01*
X105740000Y-85063332D01*
X105740000Y-85963334D01*
X105738796Y-85987838D01*
X105735196Y-86012106D01*
X105729235Y-86035905D01*
X105720970Y-86059004D01*
X105710480Y-86081183D01*
X105697868Y-86102226D01*
X105683253Y-86121932D01*
X105666777Y-86140110D01*
X105648599Y-86156586D01*
X105628893Y-86171201D01*
X105607850Y-86183813D01*
X105585671Y-86194303D01*
X105562572Y-86202568D01*
X105538773Y-86208529D01*
X105514505Y-86212129D01*
X105490001Y-86213333D01*
X104839999Y-86213333D01*
X104815495Y-86212129D01*
X104791227Y-86208529D01*
X104767428Y-86202568D01*
X104744329Y-86194303D01*
X104722150Y-86183813D01*
X104701107Y-86171201D01*
X104681401Y-86156586D01*
X104663223Y-86140110D01*
X104646747Y-86121932D01*
X104632132Y-86102226D01*
X104619520Y-86081183D01*
X104609030Y-86059004D01*
X104600765Y-86035905D01*
X104594804Y-86012106D01*
X104591204Y-85987838D01*
X104590000Y-85963334D01*
X104590000Y-85063332D01*
X104591204Y-85038828D01*
X104594804Y-85014560D01*
X104600765Y-84990761D01*
X104609030Y-84967662D01*
X104619520Y-84945483D01*
X104632132Y-84924440D01*
X104646747Y-84904734D01*
X104663223Y-84886556D01*
X104681401Y-84870080D01*
X104701107Y-84855465D01*
X104722150Y-84842853D01*
X104744329Y-84832363D01*
X104767428Y-84824098D01*
X104791227Y-84818137D01*
X104815495Y-84814537D01*
X104839999Y-84813333D01*
X105490001Y-84813333D01*
X105514505Y-84814537D01*
G37*
G36*
X103464505Y-87523870D02*
G01*
X103488773Y-87527470D01*
X103512572Y-87533431D01*
X103535671Y-87541696D01*
X103557850Y-87552186D01*
X103578893Y-87564798D01*
X103598599Y-87579413D01*
X103616777Y-87595889D01*
X103633253Y-87614067D01*
X103647868Y-87633773D01*
X103660480Y-87654816D01*
X103670970Y-87676995D01*
X103679235Y-87700094D01*
X103685196Y-87723893D01*
X103688796Y-87748161D01*
X103690000Y-87772665D01*
X103690000Y-88672667D01*
X103688796Y-88697171D01*
X103685196Y-88721439D01*
X103679235Y-88745238D01*
X103670970Y-88768337D01*
X103660480Y-88790516D01*
X103647868Y-88811559D01*
X103633253Y-88831265D01*
X103616777Y-88849443D01*
X103598599Y-88865919D01*
X103578893Y-88880534D01*
X103557850Y-88893146D01*
X103535671Y-88903636D01*
X103512572Y-88911901D01*
X103488773Y-88917862D01*
X103464505Y-88921462D01*
X103440001Y-88922666D01*
X102789999Y-88922666D01*
X102765495Y-88921462D01*
X102741227Y-88917862D01*
X102717428Y-88911901D01*
X102694329Y-88903636D01*
X102672150Y-88893146D01*
X102651107Y-88880534D01*
X102631401Y-88865919D01*
X102613223Y-88849443D01*
X102596747Y-88831265D01*
X102582132Y-88811559D01*
X102569520Y-88790516D01*
X102559030Y-88768337D01*
X102550765Y-88745238D01*
X102544804Y-88721439D01*
X102541204Y-88697171D01*
X102540000Y-88672667D01*
X102540000Y-87772665D01*
X102541204Y-87748161D01*
X102544804Y-87723893D01*
X102550765Y-87700094D01*
X102559030Y-87676995D01*
X102569520Y-87654816D01*
X102582132Y-87633773D01*
X102596747Y-87614067D01*
X102613223Y-87595889D01*
X102631401Y-87579413D01*
X102651107Y-87564798D01*
X102672150Y-87552186D01*
X102694329Y-87541696D01*
X102717428Y-87533431D01*
X102741227Y-87527470D01*
X102765495Y-87523870D01*
X102789999Y-87522666D01*
X103440001Y-87522666D01*
X103464505Y-87523870D01*
G37*
G36*
X105514505Y-87523870D02*
G01*
X105538773Y-87527470D01*
X105562572Y-87533431D01*
X105585671Y-87541696D01*
X105607850Y-87552186D01*
X105628893Y-87564798D01*
X105648599Y-87579413D01*
X105666777Y-87595889D01*
X105683253Y-87614067D01*
X105697868Y-87633773D01*
X105710480Y-87654816D01*
X105720970Y-87676995D01*
X105729235Y-87700094D01*
X105735196Y-87723893D01*
X105738796Y-87748161D01*
X105740000Y-87772665D01*
X105740000Y-88672667D01*
X105738796Y-88697171D01*
X105735196Y-88721439D01*
X105729235Y-88745238D01*
X105720970Y-88768337D01*
X105710480Y-88790516D01*
X105697868Y-88811559D01*
X105683253Y-88831265D01*
X105666777Y-88849443D01*
X105648599Y-88865919D01*
X105628893Y-88880534D01*
X105607850Y-88893146D01*
X105585671Y-88903636D01*
X105562572Y-88911901D01*
X105538773Y-88917862D01*
X105514505Y-88921462D01*
X105490001Y-88922666D01*
X104839999Y-88922666D01*
X104815495Y-88921462D01*
X104791227Y-88917862D01*
X104767428Y-88911901D01*
X104744329Y-88903636D01*
X104722150Y-88893146D01*
X104701107Y-88880534D01*
X104681401Y-88865919D01*
X104663223Y-88849443D01*
X104646747Y-88831265D01*
X104632132Y-88811559D01*
X104619520Y-88790516D01*
X104609030Y-88768337D01*
X104600765Y-88745238D01*
X104594804Y-88721439D01*
X104591204Y-88697171D01*
X104590000Y-88672667D01*
X104590000Y-87772665D01*
X104591204Y-87748161D01*
X104594804Y-87723893D01*
X104600765Y-87700094D01*
X104609030Y-87676995D01*
X104619520Y-87654816D01*
X104632132Y-87633773D01*
X104646747Y-87614067D01*
X104663223Y-87595889D01*
X104681401Y-87579413D01*
X104701107Y-87564798D01*
X104722150Y-87552186D01*
X104744329Y-87541696D01*
X104767428Y-87533431D01*
X104791227Y-87527470D01*
X104815495Y-87523870D01*
X104839999Y-87522666D01*
X105490001Y-87522666D01*
X105514505Y-87523870D01*
G37*
G36*
X103464505Y-90233204D02*
G01*
X103488773Y-90236804D01*
X103512572Y-90242765D01*
X103535671Y-90251030D01*
X103557850Y-90261520D01*
X103578893Y-90274132D01*
X103598599Y-90288747D01*
X103616777Y-90305223D01*
X103633253Y-90323401D01*
X103647868Y-90343107D01*
X103660480Y-90364150D01*
X103670970Y-90386329D01*
X103679235Y-90409428D01*
X103685196Y-90433227D01*
X103688796Y-90457495D01*
X103690000Y-90481999D01*
X103690000Y-91382001D01*
X103688796Y-91406505D01*
X103685196Y-91430773D01*
X103679235Y-91454572D01*
X103670970Y-91477671D01*
X103660480Y-91499850D01*
X103647868Y-91520893D01*
X103633253Y-91540599D01*
X103616777Y-91558777D01*
X103598599Y-91575253D01*
X103578893Y-91589868D01*
X103557850Y-91602480D01*
X103535671Y-91612970D01*
X103512572Y-91621235D01*
X103488773Y-91627196D01*
X103464505Y-91630796D01*
X103440001Y-91632000D01*
X102789999Y-91632000D01*
X102765495Y-91630796D01*
X102741227Y-91627196D01*
X102717428Y-91621235D01*
X102694329Y-91612970D01*
X102672150Y-91602480D01*
X102651107Y-91589868D01*
X102631401Y-91575253D01*
X102613223Y-91558777D01*
X102596747Y-91540599D01*
X102582132Y-91520893D01*
X102569520Y-91499850D01*
X102559030Y-91477671D01*
X102550765Y-91454572D01*
X102544804Y-91430773D01*
X102541204Y-91406505D01*
X102540000Y-91382001D01*
X102540000Y-90481999D01*
X102541204Y-90457495D01*
X102544804Y-90433227D01*
X102550765Y-90409428D01*
X102559030Y-90386329D01*
X102569520Y-90364150D01*
X102582132Y-90343107D01*
X102596747Y-90323401D01*
X102613223Y-90305223D01*
X102631401Y-90288747D01*
X102651107Y-90274132D01*
X102672150Y-90261520D01*
X102694329Y-90251030D01*
X102717428Y-90242765D01*
X102741227Y-90236804D01*
X102765495Y-90233204D01*
X102789999Y-90232000D01*
X103440001Y-90232000D01*
X103464505Y-90233204D01*
G37*
G36*
X105514505Y-90233204D02*
G01*
X105538773Y-90236804D01*
X105562572Y-90242765D01*
X105585671Y-90251030D01*
X105607850Y-90261520D01*
X105628893Y-90274132D01*
X105648599Y-90288747D01*
X105666777Y-90305223D01*
X105683253Y-90323401D01*
X105697868Y-90343107D01*
X105710480Y-90364150D01*
X105720970Y-90386329D01*
X105729235Y-90409428D01*
X105735196Y-90433227D01*
X105738796Y-90457495D01*
X105740000Y-90481999D01*
X105740000Y-91382001D01*
X105738796Y-91406505D01*
X105735196Y-91430773D01*
X105729235Y-91454572D01*
X105720970Y-91477671D01*
X105710480Y-91499850D01*
X105697868Y-91520893D01*
X105683253Y-91540599D01*
X105666777Y-91558777D01*
X105648599Y-91575253D01*
X105628893Y-91589868D01*
X105607850Y-91602480D01*
X105585671Y-91612970D01*
X105562572Y-91621235D01*
X105538773Y-91627196D01*
X105514505Y-91630796D01*
X105490001Y-91632000D01*
X104839999Y-91632000D01*
X104815495Y-91630796D01*
X104791227Y-91627196D01*
X104767428Y-91621235D01*
X104744329Y-91612970D01*
X104722150Y-91602480D01*
X104701107Y-91589868D01*
X104681401Y-91575253D01*
X104663223Y-91558777D01*
X104646747Y-91540599D01*
X104632132Y-91520893D01*
X104619520Y-91499850D01*
X104609030Y-91477671D01*
X104600765Y-91454572D01*
X104594804Y-91430773D01*
X104591204Y-91406505D01*
X104590000Y-91382001D01*
X104590000Y-90481999D01*
X104591204Y-90457495D01*
X104594804Y-90433227D01*
X104600765Y-90409428D01*
X104609030Y-90386329D01*
X104619520Y-90364150D01*
X104632132Y-90343107D01*
X104646747Y-90323401D01*
X104663223Y-90305223D01*
X104681401Y-90288747D01*
X104701107Y-90274132D01*
X104722150Y-90261520D01*
X104744329Y-90251030D01*
X104767428Y-90242765D01*
X104791227Y-90236804D01*
X104815495Y-90233204D01*
X104839999Y-90232000D01*
X105490001Y-90232000D01*
X105514505Y-90233204D01*
G37*
G36*
X132274505Y-88201204D02*
G01*
X132298773Y-88204804D01*
X132322572Y-88210765D01*
X132345671Y-88219030D01*
X132367850Y-88229520D01*
X132388893Y-88242132D01*
X132408599Y-88256747D01*
X132426777Y-88273223D01*
X132443253Y-88291401D01*
X132457868Y-88311107D01*
X132470480Y-88332150D01*
X132480970Y-88354329D01*
X132489235Y-88377428D01*
X132495196Y-88401227D01*
X132498796Y-88425495D01*
X132500000Y-88449999D01*
X132500000Y-89350001D01*
X132498796Y-89374505D01*
X132495196Y-89398773D01*
X132489235Y-89422572D01*
X132480970Y-89445671D01*
X132470480Y-89467850D01*
X132457868Y-89488893D01*
X132443253Y-89508599D01*
X132426777Y-89526777D01*
X132408599Y-89543253D01*
X132388893Y-89557868D01*
X132367850Y-89570480D01*
X132345671Y-89580970D01*
X132322572Y-89589235D01*
X132298773Y-89595196D01*
X132274505Y-89598796D01*
X132250001Y-89600000D01*
X131599999Y-89600000D01*
X131575495Y-89598796D01*
X131551227Y-89595196D01*
X131527428Y-89589235D01*
X131504329Y-89580970D01*
X131482150Y-89570480D01*
X131461107Y-89557868D01*
X131441401Y-89543253D01*
X131423223Y-89526777D01*
X131406747Y-89508599D01*
X131392132Y-89488893D01*
X131379520Y-89467850D01*
X131369030Y-89445671D01*
X131360765Y-89422572D01*
X131354804Y-89398773D01*
X131351204Y-89374505D01*
X131350000Y-89350001D01*
X131350000Y-88449999D01*
X131351204Y-88425495D01*
X131354804Y-88401227D01*
X131360765Y-88377428D01*
X131369030Y-88354329D01*
X131379520Y-88332150D01*
X131392132Y-88311107D01*
X131406747Y-88291401D01*
X131423223Y-88273223D01*
X131441401Y-88256747D01*
X131461107Y-88242132D01*
X131482150Y-88229520D01*
X131504329Y-88219030D01*
X131527428Y-88210765D01*
X131551227Y-88204804D01*
X131575495Y-88201204D01*
X131599999Y-88200000D01*
X132250001Y-88200000D01*
X132274505Y-88201204D01*
G37*
G36*
X130224505Y-88201204D02*
G01*
X130248773Y-88204804D01*
X130272572Y-88210765D01*
X130295671Y-88219030D01*
X130317850Y-88229520D01*
X130338893Y-88242132D01*
X130358599Y-88256747D01*
X130376777Y-88273223D01*
X130393253Y-88291401D01*
X130407868Y-88311107D01*
X130420480Y-88332150D01*
X130430970Y-88354329D01*
X130439235Y-88377428D01*
X130445196Y-88401227D01*
X130448796Y-88425495D01*
X130450000Y-88449999D01*
X130450000Y-89350001D01*
X130448796Y-89374505D01*
X130445196Y-89398773D01*
X130439235Y-89422572D01*
X130430970Y-89445671D01*
X130420480Y-89467850D01*
X130407868Y-89488893D01*
X130393253Y-89508599D01*
X130376777Y-89526777D01*
X130358599Y-89543253D01*
X130338893Y-89557868D01*
X130317850Y-89570480D01*
X130295671Y-89580970D01*
X130272572Y-89589235D01*
X130248773Y-89595196D01*
X130224505Y-89598796D01*
X130200001Y-89600000D01*
X129549999Y-89600000D01*
X129525495Y-89598796D01*
X129501227Y-89595196D01*
X129477428Y-89589235D01*
X129454329Y-89580970D01*
X129432150Y-89570480D01*
X129411107Y-89557868D01*
X129391401Y-89543253D01*
X129373223Y-89526777D01*
X129356747Y-89508599D01*
X129342132Y-89488893D01*
X129329520Y-89467850D01*
X129319030Y-89445671D01*
X129310765Y-89422572D01*
X129304804Y-89398773D01*
X129301204Y-89374505D01*
X129300000Y-89350001D01*
X129300000Y-88449999D01*
X129301204Y-88425495D01*
X129304804Y-88401227D01*
X129310765Y-88377428D01*
X129319030Y-88354329D01*
X129329520Y-88332150D01*
X129342132Y-88311107D01*
X129356747Y-88291401D01*
X129373223Y-88273223D01*
X129391401Y-88256747D01*
X129411107Y-88242132D01*
X129432150Y-88229520D01*
X129454329Y-88219030D01*
X129477428Y-88210765D01*
X129501227Y-88204804D01*
X129525495Y-88201204D01*
X129549999Y-88200000D01*
X130200001Y-88200000D01*
X130224505Y-88201204D01*
G37*
G36*
X115641171Y-100851204D02*
G01*
X115665439Y-100854804D01*
X115689238Y-100860765D01*
X115712337Y-100869030D01*
X115734516Y-100879520D01*
X115755559Y-100892132D01*
X115775265Y-100906747D01*
X115793443Y-100923223D01*
X115809919Y-100941401D01*
X115824534Y-100961107D01*
X115837146Y-100982150D01*
X115847636Y-101004329D01*
X115855901Y-101027428D01*
X115861862Y-101051227D01*
X115865462Y-101075495D01*
X115866666Y-101099999D01*
X115866666Y-101750001D01*
X115865462Y-101774505D01*
X115861862Y-101798773D01*
X115855901Y-101822572D01*
X115847636Y-101845671D01*
X115837146Y-101867850D01*
X115824534Y-101888893D01*
X115809919Y-101908599D01*
X115793443Y-101926777D01*
X115775265Y-101943253D01*
X115755559Y-101957868D01*
X115734516Y-101970480D01*
X115712337Y-101980970D01*
X115689238Y-101989235D01*
X115665439Y-101995196D01*
X115641171Y-101998796D01*
X115616667Y-102000000D01*
X114716665Y-102000000D01*
X114692161Y-101998796D01*
X114667893Y-101995196D01*
X114644094Y-101989235D01*
X114620995Y-101980970D01*
X114598816Y-101970480D01*
X114577773Y-101957868D01*
X114558067Y-101943253D01*
X114539889Y-101926777D01*
X114523413Y-101908599D01*
X114508798Y-101888893D01*
X114496186Y-101867850D01*
X114485696Y-101845671D01*
X114477431Y-101822572D01*
X114471470Y-101798773D01*
X114467870Y-101774505D01*
X114466666Y-101750001D01*
X114466666Y-101099999D01*
X114467870Y-101075495D01*
X114471470Y-101051227D01*
X114477431Y-101027428D01*
X114485696Y-101004329D01*
X114496186Y-100982150D01*
X114508798Y-100961107D01*
X114523413Y-100941401D01*
X114539889Y-100923223D01*
X114558067Y-100906747D01*
X114577773Y-100892132D01*
X114598816Y-100879520D01*
X114620995Y-100869030D01*
X114644094Y-100860765D01*
X114667893Y-100854804D01*
X114692161Y-100851204D01*
X114716665Y-100850000D01*
X115616667Y-100850000D01*
X115641171Y-100851204D01*
G37*
G36*
X115641171Y-98801204D02*
G01*
X115665439Y-98804804D01*
X115689238Y-98810765D01*
X115712337Y-98819030D01*
X115734516Y-98829520D01*
X115755559Y-98842132D01*
X115775265Y-98856747D01*
X115793443Y-98873223D01*
X115809919Y-98891401D01*
X115824534Y-98911107D01*
X115837146Y-98932150D01*
X115847636Y-98954329D01*
X115855901Y-98977428D01*
X115861862Y-99001227D01*
X115865462Y-99025495D01*
X115866666Y-99049999D01*
X115866666Y-99700001D01*
X115865462Y-99724505D01*
X115861862Y-99748773D01*
X115855901Y-99772572D01*
X115847636Y-99795671D01*
X115837146Y-99817850D01*
X115824534Y-99838893D01*
X115809919Y-99858599D01*
X115793443Y-99876777D01*
X115775265Y-99893253D01*
X115755559Y-99907868D01*
X115734516Y-99920480D01*
X115712337Y-99930970D01*
X115689238Y-99939235D01*
X115665439Y-99945196D01*
X115641171Y-99948796D01*
X115616667Y-99950000D01*
X114716665Y-99950000D01*
X114692161Y-99948796D01*
X114667893Y-99945196D01*
X114644094Y-99939235D01*
X114620995Y-99930970D01*
X114598816Y-99920480D01*
X114577773Y-99907868D01*
X114558067Y-99893253D01*
X114539889Y-99876777D01*
X114523413Y-99858599D01*
X114508798Y-99838893D01*
X114496186Y-99817850D01*
X114485696Y-99795671D01*
X114477431Y-99772572D01*
X114471470Y-99748773D01*
X114467870Y-99724505D01*
X114466666Y-99700001D01*
X114466666Y-99049999D01*
X114467870Y-99025495D01*
X114471470Y-99001227D01*
X114477431Y-98977428D01*
X114485696Y-98954329D01*
X114496186Y-98932150D01*
X114508798Y-98911107D01*
X114523413Y-98891401D01*
X114539889Y-98873223D01*
X114558067Y-98856747D01*
X114577773Y-98842132D01*
X114598816Y-98829520D01*
X114620995Y-98819030D01*
X114644094Y-98810765D01*
X114667893Y-98804804D01*
X114692161Y-98801204D01*
X114716665Y-98800000D01*
X115616667Y-98800000D01*
X115641171Y-98801204D01*
G37*
G36*
X112957838Y-100851204D02*
G01*
X112982106Y-100854804D01*
X113005905Y-100860765D01*
X113029004Y-100869030D01*
X113051183Y-100879520D01*
X113072226Y-100892132D01*
X113091932Y-100906747D01*
X113110110Y-100923223D01*
X113126586Y-100941401D01*
X113141201Y-100961107D01*
X113153813Y-100982150D01*
X113164303Y-101004329D01*
X113172568Y-101027428D01*
X113178529Y-101051227D01*
X113182129Y-101075495D01*
X113183333Y-101099999D01*
X113183333Y-101750001D01*
X113182129Y-101774505D01*
X113178529Y-101798773D01*
X113172568Y-101822572D01*
X113164303Y-101845671D01*
X113153813Y-101867850D01*
X113141201Y-101888893D01*
X113126586Y-101908599D01*
X113110110Y-101926777D01*
X113091932Y-101943253D01*
X113072226Y-101957868D01*
X113051183Y-101970480D01*
X113029004Y-101980970D01*
X113005905Y-101989235D01*
X112982106Y-101995196D01*
X112957838Y-101998796D01*
X112933334Y-102000000D01*
X112033332Y-102000000D01*
X112008828Y-101998796D01*
X111984560Y-101995196D01*
X111960761Y-101989235D01*
X111937662Y-101980970D01*
X111915483Y-101970480D01*
X111894440Y-101957868D01*
X111874734Y-101943253D01*
X111856556Y-101926777D01*
X111840080Y-101908599D01*
X111825465Y-101888893D01*
X111812853Y-101867850D01*
X111802363Y-101845671D01*
X111794098Y-101822572D01*
X111788137Y-101798773D01*
X111784537Y-101774505D01*
X111783333Y-101750001D01*
X111783333Y-101099999D01*
X111784537Y-101075495D01*
X111788137Y-101051227D01*
X111794098Y-101027428D01*
X111802363Y-101004329D01*
X111812853Y-100982150D01*
X111825465Y-100961107D01*
X111840080Y-100941401D01*
X111856556Y-100923223D01*
X111874734Y-100906747D01*
X111894440Y-100892132D01*
X111915483Y-100879520D01*
X111937662Y-100869030D01*
X111960761Y-100860765D01*
X111984560Y-100854804D01*
X112008828Y-100851204D01*
X112033332Y-100850000D01*
X112933334Y-100850000D01*
X112957838Y-100851204D01*
G37*
G36*
X112957838Y-98801204D02*
G01*
X112982106Y-98804804D01*
X113005905Y-98810765D01*
X113029004Y-98819030D01*
X113051183Y-98829520D01*
X113072226Y-98842132D01*
X113091932Y-98856747D01*
X113110110Y-98873223D01*
X113126586Y-98891401D01*
X113141201Y-98911107D01*
X113153813Y-98932150D01*
X113164303Y-98954329D01*
X113172568Y-98977428D01*
X113178529Y-99001227D01*
X113182129Y-99025495D01*
X113183333Y-99049999D01*
X113183333Y-99700001D01*
X113182129Y-99724505D01*
X113178529Y-99748773D01*
X113172568Y-99772572D01*
X113164303Y-99795671D01*
X113153813Y-99817850D01*
X113141201Y-99838893D01*
X113126586Y-99858599D01*
X113110110Y-99876777D01*
X113091932Y-99893253D01*
X113072226Y-99907868D01*
X113051183Y-99920480D01*
X113029004Y-99930970D01*
X113005905Y-99939235D01*
X112982106Y-99945196D01*
X112957838Y-99948796D01*
X112933334Y-99950000D01*
X112033332Y-99950000D01*
X112008828Y-99948796D01*
X111984560Y-99945196D01*
X111960761Y-99939235D01*
X111937662Y-99930970D01*
X111915483Y-99920480D01*
X111894440Y-99907868D01*
X111874734Y-99893253D01*
X111856556Y-99876777D01*
X111840080Y-99858599D01*
X111825465Y-99838893D01*
X111812853Y-99817850D01*
X111802363Y-99795671D01*
X111794098Y-99772572D01*
X111788137Y-99748773D01*
X111784537Y-99724505D01*
X111783333Y-99700001D01*
X111783333Y-99049999D01*
X111784537Y-99025495D01*
X111788137Y-99001227D01*
X111794098Y-98977428D01*
X111802363Y-98954329D01*
X111812853Y-98932150D01*
X111825465Y-98911107D01*
X111840080Y-98891401D01*
X111856556Y-98873223D01*
X111874734Y-98856747D01*
X111894440Y-98842132D01*
X111915483Y-98829520D01*
X111937662Y-98819030D01*
X111960761Y-98810765D01*
X111984560Y-98804804D01*
X112008828Y-98801204D01*
X112033332Y-98800000D01*
X112933334Y-98800000D01*
X112957838Y-98801204D01*
G37*
G36*
X109284805Y-108831084D02*
G01*
X109309073Y-108834684D01*
X109332872Y-108840645D01*
X109355971Y-108848910D01*
X109378150Y-108859400D01*
X109399193Y-108872012D01*
X109418899Y-108886627D01*
X109437077Y-108903103D01*
X109453553Y-108921281D01*
X109468168Y-108940987D01*
X109480780Y-108962030D01*
X109491270Y-108984209D01*
X109499535Y-109007308D01*
X109505496Y-109031107D01*
X109509096Y-109055375D01*
X109510300Y-109079879D01*
X109510300Y-109979881D01*
X109509096Y-110004385D01*
X109505496Y-110028653D01*
X109499535Y-110052452D01*
X109491270Y-110075551D01*
X109480780Y-110097730D01*
X109468168Y-110118773D01*
X109453553Y-110138479D01*
X109437077Y-110156657D01*
X109418899Y-110173133D01*
X109399193Y-110187748D01*
X109378150Y-110200360D01*
X109355971Y-110210850D01*
X109332872Y-110219115D01*
X109309073Y-110225076D01*
X109284805Y-110228676D01*
X109260301Y-110229880D01*
X108610299Y-110229880D01*
X108585795Y-110228676D01*
X108561527Y-110225076D01*
X108537728Y-110219115D01*
X108514629Y-110210850D01*
X108492450Y-110200360D01*
X108471407Y-110187748D01*
X108451701Y-110173133D01*
X108433523Y-110156657D01*
X108417047Y-110138479D01*
X108402432Y-110118773D01*
X108389820Y-110097730D01*
X108379330Y-110075551D01*
X108371065Y-110052452D01*
X108365104Y-110028653D01*
X108361504Y-110004385D01*
X108360300Y-109979881D01*
X108360300Y-109079879D01*
X108361504Y-109055375D01*
X108365104Y-109031107D01*
X108371065Y-109007308D01*
X108379330Y-108984209D01*
X108389820Y-108962030D01*
X108402432Y-108940987D01*
X108417047Y-108921281D01*
X108433523Y-108903103D01*
X108451701Y-108886627D01*
X108471407Y-108872012D01*
X108492450Y-108859400D01*
X108514629Y-108848910D01*
X108537728Y-108840645D01*
X108561527Y-108834684D01*
X108585795Y-108831084D01*
X108610299Y-108829880D01*
X109260301Y-108829880D01*
X109284805Y-108831084D01*
G37*
G36*
X107234805Y-108831084D02*
G01*
X107259073Y-108834684D01*
X107282872Y-108840645D01*
X107305971Y-108848910D01*
X107328150Y-108859400D01*
X107349193Y-108872012D01*
X107368899Y-108886627D01*
X107387077Y-108903103D01*
X107403553Y-108921281D01*
X107418168Y-108940987D01*
X107430780Y-108962030D01*
X107441270Y-108984209D01*
X107449535Y-109007308D01*
X107455496Y-109031107D01*
X107459096Y-109055375D01*
X107460300Y-109079879D01*
X107460300Y-109979881D01*
X107459096Y-110004385D01*
X107455496Y-110028653D01*
X107449535Y-110052452D01*
X107441270Y-110075551D01*
X107430780Y-110097730D01*
X107418168Y-110118773D01*
X107403553Y-110138479D01*
X107387077Y-110156657D01*
X107368899Y-110173133D01*
X107349193Y-110187748D01*
X107328150Y-110200360D01*
X107305971Y-110210850D01*
X107282872Y-110219115D01*
X107259073Y-110225076D01*
X107234805Y-110228676D01*
X107210301Y-110229880D01*
X106560299Y-110229880D01*
X106535795Y-110228676D01*
X106511527Y-110225076D01*
X106487728Y-110219115D01*
X106464629Y-110210850D01*
X106442450Y-110200360D01*
X106421407Y-110187748D01*
X106401701Y-110173133D01*
X106383523Y-110156657D01*
X106367047Y-110138479D01*
X106352432Y-110118773D01*
X106339820Y-110097730D01*
X106329330Y-110075551D01*
X106321065Y-110052452D01*
X106315104Y-110028653D01*
X106311504Y-110004385D01*
X106310300Y-109979881D01*
X106310300Y-109079879D01*
X106311504Y-109055375D01*
X106315104Y-109031107D01*
X106321065Y-109007308D01*
X106329330Y-108984209D01*
X106339820Y-108962030D01*
X106352432Y-108940987D01*
X106367047Y-108921281D01*
X106383523Y-108903103D01*
X106401701Y-108886627D01*
X106421407Y-108872012D01*
X106442450Y-108859400D01*
X106464629Y-108848910D01*
X106487728Y-108840645D01*
X106511527Y-108834684D01*
X106535795Y-108831084D01*
X106560299Y-108829880D01*
X107210301Y-108829880D01*
X107234805Y-108831084D01*
G37*
G36*
X103464505Y-82105204D02*
G01*
X103488773Y-82108804D01*
X103512572Y-82114765D01*
X103535671Y-82123030D01*
X103557850Y-82133520D01*
X103578893Y-82146132D01*
X103598599Y-82160747D01*
X103616777Y-82177223D01*
X103633253Y-82195401D01*
X103647868Y-82215107D01*
X103660480Y-82236150D01*
X103670970Y-82258329D01*
X103679235Y-82281428D01*
X103685196Y-82305227D01*
X103688796Y-82329495D01*
X103690000Y-82353999D01*
X103690000Y-83254001D01*
X103688796Y-83278505D01*
X103685196Y-83302773D01*
X103679235Y-83326572D01*
X103670970Y-83349671D01*
X103660480Y-83371850D01*
X103647868Y-83392893D01*
X103633253Y-83412599D01*
X103616777Y-83430777D01*
X103598599Y-83447253D01*
X103578893Y-83461868D01*
X103557850Y-83474480D01*
X103535671Y-83484970D01*
X103512572Y-83493235D01*
X103488773Y-83499196D01*
X103464505Y-83502796D01*
X103440001Y-83504000D01*
X102789999Y-83504000D01*
X102765495Y-83502796D01*
X102741227Y-83499196D01*
X102717428Y-83493235D01*
X102694329Y-83484970D01*
X102672150Y-83474480D01*
X102651107Y-83461868D01*
X102631401Y-83447253D01*
X102613223Y-83430777D01*
X102596747Y-83412599D01*
X102582132Y-83392893D01*
X102569520Y-83371850D01*
X102559030Y-83349671D01*
X102550765Y-83326572D01*
X102544804Y-83302773D01*
X102541204Y-83278505D01*
X102540000Y-83254001D01*
X102540000Y-82353999D01*
X102541204Y-82329495D01*
X102544804Y-82305227D01*
X102550765Y-82281428D01*
X102559030Y-82258329D01*
X102569520Y-82236150D01*
X102582132Y-82215107D01*
X102596747Y-82195401D01*
X102613223Y-82177223D01*
X102631401Y-82160747D01*
X102651107Y-82146132D01*
X102672150Y-82133520D01*
X102694329Y-82123030D01*
X102717428Y-82114765D01*
X102741227Y-82108804D01*
X102765495Y-82105204D01*
X102789999Y-82104000D01*
X103440001Y-82104000D01*
X103464505Y-82105204D01*
G37*
G36*
X105514505Y-82105204D02*
G01*
X105538773Y-82108804D01*
X105562572Y-82114765D01*
X105585671Y-82123030D01*
X105607850Y-82133520D01*
X105628893Y-82146132D01*
X105648599Y-82160747D01*
X105666777Y-82177223D01*
X105683253Y-82195401D01*
X105697868Y-82215107D01*
X105710480Y-82236150D01*
X105720970Y-82258329D01*
X105729235Y-82281428D01*
X105735196Y-82305227D01*
X105738796Y-82329495D01*
X105740000Y-82353999D01*
X105740000Y-83254001D01*
X105738796Y-83278505D01*
X105735196Y-83302773D01*
X105729235Y-83326572D01*
X105720970Y-83349671D01*
X105710480Y-83371850D01*
X105697868Y-83392893D01*
X105683253Y-83412599D01*
X105666777Y-83430777D01*
X105648599Y-83447253D01*
X105628893Y-83461868D01*
X105607850Y-83474480D01*
X105585671Y-83484970D01*
X105562572Y-83493235D01*
X105538773Y-83499196D01*
X105514505Y-83502796D01*
X105490001Y-83504000D01*
X104839999Y-83504000D01*
X104815495Y-83502796D01*
X104791227Y-83499196D01*
X104767428Y-83493235D01*
X104744329Y-83484970D01*
X104722150Y-83474480D01*
X104701107Y-83461868D01*
X104681401Y-83447253D01*
X104663223Y-83430777D01*
X104646747Y-83412599D01*
X104632132Y-83392893D01*
X104619520Y-83371850D01*
X104609030Y-83349671D01*
X104600765Y-83326572D01*
X104594804Y-83302773D01*
X104591204Y-83278505D01*
X104590000Y-83254001D01*
X104590000Y-82353999D01*
X104591204Y-82329495D01*
X104594804Y-82305227D01*
X104600765Y-82281428D01*
X104609030Y-82258329D01*
X104619520Y-82236150D01*
X104632132Y-82215107D01*
X104646747Y-82195401D01*
X104663223Y-82177223D01*
X104681401Y-82160747D01*
X104701107Y-82146132D01*
X104722150Y-82133520D01*
X104744329Y-82123030D01*
X104767428Y-82114765D01*
X104791227Y-82108804D01*
X104815495Y-82105204D01*
X104839999Y-82104000D01*
X105490001Y-82104000D01*
X105514505Y-82105204D01*
G37*
G36*
X99256885Y-108780284D02*
G01*
X99281153Y-108783884D01*
X99304952Y-108789845D01*
X99328051Y-108798110D01*
X99350230Y-108808600D01*
X99371273Y-108821212D01*
X99390979Y-108835827D01*
X99409157Y-108852303D01*
X99425633Y-108870481D01*
X99440248Y-108890187D01*
X99452860Y-108911230D01*
X99463350Y-108933409D01*
X99471615Y-108956508D01*
X99477576Y-108980307D01*
X99481176Y-109004575D01*
X99482380Y-109029079D01*
X99482380Y-109929081D01*
X99481176Y-109953585D01*
X99477576Y-109977853D01*
X99471615Y-110001652D01*
X99463350Y-110024751D01*
X99452860Y-110046930D01*
X99440248Y-110067973D01*
X99425633Y-110087679D01*
X99409157Y-110105857D01*
X99390979Y-110122333D01*
X99371273Y-110136948D01*
X99350230Y-110149560D01*
X99328051Y-110160050D01*
X99304952Y-110168315D01*
X99281153Y-110174276D01*
X99256885Y-110177876D01*
X99232381Y-110179080D01*
X98582379Y-110179080D01*
X98557875Y-110177876D01*
X98533607Y-110174276D01*
X98509808Y-110168315D01*
X98486709Y-110160050D01*
X98464530Y-110149560D01*
X98443487Y-110136948D01*
X98423781Y-110122333D01*
X98405603Y-110105857D01*
X98389127Y-110087679D01*
X98374512Y-110067973D01*
X98361900Y-110046930D01*
X98351410Y-110024751D01*
X98343145Y-110001652D01*
X98337184Y-109977853D01*
X98333584Y-109953585D01*
X98332380Y-109929081D01*
X98332380Y-109029079D01*
X98333584Y-109004575D01*
X98337184Y-108980307D01*
X98343145Y-108956508D01*
X98351410Y-108933409D01*
X98361900Y-108911230D01*
X98374512Y-108890187D01*
X98389127Y-108870481D01*
X98405603Y-108852303D01*
X98423781Y-108835827D01*
X98443487Y-108821212D01*
X98464530Y-108808600D01*
X98486709Y-108798110D01*
X98509808Y-108789845D01*
X98533607Y-108783884D01*
X98557875Y-108780284D01*
X98582379Y-108779080D01*
X99232381Y-108779080D01*
X99256885Y-108780284D01*
G37*
G36*
X97206885Y-108780284D02*
G01*
X97231153Y-108783884D01*
X97254952Y-108789845D01*
X97278051Y-108798110D01*
X97300230Y-108808600D01*
X97321273Y-108821212D01*
X97340979Y-108835827D01*
X97359157Y-108852303D01*
X97375633Y-108870481D01*
X97390248Y-108890187D01*
X97402860Y-108911230D01*
X97413350Y-108933409D01*
X97421615Y-108956508D01*
X97427576Y-108980307D01*
X97431176Y-109004575D01*
X97432380Y-109029079D01*
X97432380Y-109929081D01*
X97431176Y-109953585D01*
X97427576Y-109977853D01*
X97421615Y-110001652D01*
X97413350Y-110024751D01*
X97402860Y-110046930D01*
X97390248Y-110067973D01*
X97375633Y-110087679D01*
X97359157Y-110105857D01*
X97340979Y-110122333D01*
X97321273Y-110136948D01*
X97300230Y-110149560D01*
X97278051Y-110160050D01*
X97254952Y-110168315D01*
X97231153Y-110174276D01*
X97206885Y-110177876D01*
X97182381Y-110179080D01*
X96532379Y-110179080D01*
X96507875Y-110177876D01*
X96483607Y-110174276D01*
X96459808Y-110168315D01*
X96436709Y-110160050D01*
X96414530Y-110149560D01*
X96393487Y-110136948D01*
X96373781Y-110122333D01*
X96355603Y-110105857D01*
X96339127Y-110087679D01*
X96324512Y-110067973D01*
X96311900Y-110046930D01*
X96301410Y-110024751D01*
X96293145Y-110001652D01*
X96287184Y-109977853D01*
X96283584Y-109953585D01*
X96282380Y-109929081D01*
X96282380Y-109029079D01*
X96283584Y-109004575D01*
X96287184Y-108980307D01*
X96293145Y-108956508D01*
X96301410Y-108933409D01*
X96311900Y-108911230D01*
X96324512Y-108890187D01*
X96339127Y-108870481D01*
X96355603Y-108852303D01*
X96373781Y-108835827D01*
X96393487Y-108821212D01*
X96414530Y-108808600D01*
X96436709Y-108798110D01*
X96459808Y-108789845D01*
X96483607Y-108783884D01*
X96507875Y-108780284D01*
X96532379Y-108779080D01*
X97182381Y-108779080D01*
X97206885Y-108780284D01*
G37*
G36*
X122174505Y-94251204D02*
G01*
X122198773Y-94254804D01*
X122222572Y-94260765D01*
X122245671Y-94269030D01*
X122267850Y-94279520D01*
X122288893Y-94292132D01*
X122308599Y-94306747D01*
X122326777Y-94323223D01*
X122343253Y-94341401D01*
X122357868Y-94361107D01*
X122370480Y-94382150D01*
X122380970Y-94404329D01*
X122389235Y-94427428D01*
X122395196Y-94451227D01*
X122398796Y-94475495D01*
X122400000Y-94499999D01*
X122400000Y-95400001D01*
X122398796Y-95424505D01*
X122395196Y-95448773D01*
X122389235Y-95472572D01*
X122380970Y-95495671D01*
X122370480Y-95517850D01*
X122357868Y-95538893D01*
X122343253Y-95558599D01*
X122326777Y-95576777D01*
X122308599Y-95593253D01*
X122288893Y-95607868D01*
X122267850Y-95620480D01*
X122245671Y-95630970D01*
X122222572Y-95639235D01*
X122198773Y-95645196D01*
X122174505Y-95648796D01*
X122150001Y-95650000D01*
X121499999Y-95650000D01*
X121475495Y-95648796D01*
X121451227Y-95645196D01*
X121427428Y-95639235D01*
X121404329Y-95630970D01*
X121382150Y-95620480D01*
X121361107Y-95607868D01*
X121341401Y-95593253D01*
X121323223Y-95576777D01*
X121306747Y-95558599D01*
X121292132Y-95538893D01*
X121279520Y-95517850D01*
X121269030Y-95495671D01*
X121260765Y-95472572D01*
X121254804Y-95448773D01*
X121251204Y-95424505D01*
X121250000Y-95400001D01*
X121250000Y-94499999D01*
X121251204Y-94475495D01*
X121254804Y-94451227D01*
X121260765Y-94427428D01*
X121269030Y-94404329D01*
X121279520Y-94382150D01*
X121292132Y-94361107D01*
X121306747Y-94341401D01*
X121323223Y-94323223D01*
X121341401Y-94306747D01*
X121361107Y-94292132D01*
X121382150Y-94279520D01*
X121404329Y-94269030D01*
X121427428Y-94260765D01*
X121451227Y-94254804D01*
X121475495Y-94251204D01*
X121499999Y-94250000D01*
X122150001Y-94250000D01*
X122174505Y-94251204D01*
G37*
G36*
X124224505Y-94251204D02*
G01*
X124248773Y-94254804D01*
X124272572Y-94260765D01*
X124295671Y-94269030D01*
X124317850Y-94279520D01*
X124338893Y-94292132D01*
X124358599Y-94306747D01*
X124376777Y-94323223D01*
X124393253Y-94341401D01*
X124407868Y-94361107D01*
X124420480Y-94382150D01*
X124430970Y-94404329D01*
X124439235Y-94427428D01*
X124445196Y-94451227D01*
X124448796Y-94475495D01*
X124450000Y-94499999D01*
X124450000Y-95400001D01*
X124448796Y-95424505D01*
X124445196Y-95448773D01*
X124439235Y-95472572D01*
X124430970Y-95495671D01*
X124420480Y-95517850D01*
X124407868Y-95538893D01*
X124393253Y-95558599D01*
X124376777Y-95576777D01*
X124358599Y-95593253D01*
X124338893Y-95607868D01*
X124317850Y-95620480D01*
X124295671Y-95630970D01*
X124272572Y-95639235D01*
X124248773Y-95645196D01*
X124224505Y-95648796D01*
X124200001Y-95650000D01*
X123549999Y-95650000D01*
X123525495Y-95648796D01*
X123501227Y-95645196D01*
X123477428Y-95639235D01*
X123454329Y-95630970D01*
X123432150Y-95620480D01*
X123411107Y-95607868D01*
X123391401Y-95593253D01*
X123373223Y-95576777D01*
X123356747Y-95558599D01*
X123342132Y-95538893D01*
X123329520Y-95517850D01*
X123319030Y-95495671D01*
X123310765Y-95472572D01*
X123304804Y-95448773D01*
X123301204Y-95424505D01*
X123300000Y-95400001D01*
X123300000Y-94499999D01*
X123301204Y-94475495D01*
X123304804Y-94451227D01*
X123310765Y-94427428D01*
X123319030Y-94404329D01*
X123329520Y-94382150D01*
X123342132Y-94361107D01*
X123356747Y-94341401D01*
X123373223Y-94323223D01*
X123391401Y-94306747D01*
X123411107Y-94292132D01*
X123432150Y-94279520D01*
X123454329Y-94269030D01*
X123477428Y-94260765D01*
X123501227Y-94254804D01*
X123525495Y-94251204D01*
X123549999Y-94250000D01*
X124200001Y-94250000D01*
X124224505Y-94251204D01*
G37*
G36*
X126724505Y-92451204D02*
G01*
X126748773Y-92454804D01*
X126772572Y-92460765D01*
X126795671Y-92469030D01*
X126817850Y-92479520D01*
X126838893Y-92492132D01*
X126858599Y-92506747D01*
X126876777Y-92523223D01*
X126893253Y-92541401D01*
X126907868Y-92561107D01*
X126920480Y-92582150D01*
X126930970Y-92604329D01*
X126939235Y-92627428D01*
X126945196Y-92651227D01*
X126948796Y-92675495D01*
X126950000Y-92699999D01*
X126950000Y-93350001D01*
X126948796Y-93374505D01*
X126945196Y-93398773D01*
X126939235Y-93422572D01*
X126930970Y-93445671D01*
X126920480Y-93467850D01*
X126907868Y-93488893D01*
X126893253Y-93508599D01*
X126876777Y-93526777D01*
X126858599Y-93543253D01*
X126838893Y-93557868D01*
X126817850Y-93570480D01*
X126795671Y-93580970D01*
X126772572Y-93589235D01*
X126748773Y-93595196D01*
X126724505Y-93598796D01*
X126700001Y-93600000D01*
X125799999Y-93600000D01*
X125775495Y-93598796D01*
X125751227Y-93595196D01*
X125727428Y-93589235D01*
X125704329Y-93580970D01*
X125682150Y-93570480D01*
X125661107Y-93557868D01*
X125641401Y-93543253D01*
X125623223Y-93526777D01*
X125606747Y-93508599D01*
X125592132Y-93488893D01*
X125579520Y-93467850D01*
X125569030Y-93445671D01*
X125560765Y-93422572D01*
X125554804Y-93398773D01*
X125551204Y-93374505D01*
X125550000Y-93350001D01*
X125550000Y-92699999D01*
X125551204Y-92675495D01*
X125554804Y-92651227D01*
X125560765Y-92627428D01*
X125569030Y-92604329D01*
X125579520Y-92582150D01*
X125592132Y-92561107D01*
X125606747Y-92541401D01*
X125623223Y-92523223D01*
X125641401Y-92506747D01*
X125661107Y-92492132D01*
X125682150Y-92479520D01*
X125704329Y-92469030D01*
X125727428Y-92460765D01*
X125751227Y-92454804D01*
X125775495Y-92451204D01*
X125799999Y-92450000D01*
X126700001Y-92450000D01*
X126724505Y-92451204D01*
G37*
G36*
X126724505Y-94501204D02*
G01*
X126748773Y-94504804D01*
X126772572Y-94510765D01*
X126795671Y-94519030D01*
X126817850Y-94529520D01*
X126838893Y-94542132D01*
X126858599Y-94556747D01*
X126876777Y-94573223D01*
X126893253Y-94591401D01*
X126907868Y-94611107D01*
X126920480Y-94632150D01*
X126930970Y-94654329D01*
X126939235Y-94677428D01*
X126945196Y-94701227D01*
X126948796Y-94725495D01*
X126950000Y-94749999D01*
X126950000Y-95400001D01*
X126948796Y-95424505D01*
X126945196Y-95448773D01*
X126939235Y-95472572D01*
X126930970Y-95495671D01*
X126920480Y-95517850D01*
X126907868Y-95538893D01*
X126893253Y-95558599D01*
X126876777Y-95576777D01*
X126858599Y-95593253D01*
X126838893Y-95607868D01*
X126817850Y-95620480D01*
X126795671Y-95630970D01*
X126772572Y-95639235D01*
X126748773Y-95645196D01*
X126724505Y-95648796D01*
X126700001Y-95650000D01*
X125799999Y-95650000D01*
X125775495Y-95648796D01*
X125751227Y-95645196D01*
X125727428Y-95639235D01*
X125704329Y-95630970D01*
X125682150Y-95620480D01*
X125661107Y-95607868D01*
X125641401Y-95593253D01*
X125623223Y-95576777D01*
X125606747Y-95558599D01*
X125592132Y-95538893D01*
X125579520Y-95517850D01*
X125569030Y-95495671D01*
X125560765Y-95472572D01*
X125554804Y-95448773D01*
X125551204Y-95424505D01*
X125550000Y-95400001D01*
X125550000Y-94749999D01*
X125551204Y-94725495D01*
X125554804Y-94701227D01*
X125560765Y-94677428D01*
X125569030Y-94654329D01*
X125579520Y-94632150D01*
X125592132Y-94611107D01*
X125606747Y-94591401D01*
X125623223Y-94573223D01*
X125641401Y-94556747D01*
X125661107Y-94542132D01*
X125682150Y-94529520D01*
X125704329Y-94519030D01*
X125727428Y-94510765D01*
X125751227Y-94504804D01*
X125775495Y-94501204D01*
X125799999Y-94500000D01*
X126700001Y-94500000D01*
X126724505Y-94501204D01*
G37*
G36*
X109948505Y-78030204D02*
G01*
X109972773Y-78033804D01*
X109996572Y-78039765D01*
X110019671Y-78048030D01*
X110041850Y-78058520D01*
X110062893Y-78071132D01*
X110082599Y-78085747D01*
X110100777Y-78102223D01*
X110117253Y-78120401D01*
X110131868Y-78140107D01*
X110144480Y-78161150D01*
X110154970Y-78183329D01*
X110163235Y-78206428D01*
X110169196Y-78230227D01*
X110172796Y-78254495D01*
X110174000Y-78278999D01*
X110174000Y-78929001D01*
X110172796Y-78953505D01*
X110169196Y-78977773D01*
X110163235Y-79001572D01*
X110154970Y-79024671D01*
X110144480Y-79046850D01*
X110131868Y-79067893D01*
X110117253Y-79087599D01*
X110100777Y-79105777D01*
X110082599Y-79122253D01*
X110062893Y-79136868D01*
X110041850Y-79149480D01*
X110019671Y-79159970D01*
X109996572Y-79168235D01*
X109972773Y-79174196D01*
X109948505Y-79177796D01*
X109924001Y-79179000D01*
X109023999Y-79179000D01*
X108999495Y-79177796D01*
X108975227Y-79174196D01*
X108951428Y-79168235D01*
X108928329Y-79159970D01*
X108906150Y-79149480D01*
X108885107Y-79136868D01*
X108865401Y-79122253D01*
X108847223Y-79105777D01*
X108830747Y-79087599D01*
X108816132Y-79067893D01*
X108803520Y-79046850D01*
X108793030Y-79024671D01*
X108784765Y-79001572D01*
X108778804Y-78977773D01*
X108775204Y-78953505D01*
X108774000Y-78929001D01*
X108774000Y-78278999D01*
X108775204Y-78254495D01*
X108778804Y-78230227D01*
X108784765Y-78206428D01*
X108793030Y-78183329D01*
X108803520Y-78161150D01*
X108816132Y-78140107D01*
X108830747Y-78120401D01*
X108847223Y-78102223D01*
X108865401Y-78085747D01*
X108885107Y-78071132D01*
X108906150Y-78058520D01*
X108928329Y-78048030D01*
X108951428Y-78039765D01*
X108975227Y-78033804D01*
X108999495Y-78030204D01*
X109023999Y-78029000D01*
X109924001Y-78029000D01*
X109948505Y-78030204D01*
G37*
G36*
X109948505Y-80080204D02*
G01*
X109972773Y-80083804D01*
X109996572Y-80089765D01*
X110019671Y-80098030D01*
X110041850Y-80108520D01*
X110062893Y-80121132D01*
X110082599Y-80135747D01*
X110100777Y-80152223D01*
X110117253Y-80170401D01*
X110131868Y-80190107D01*
X110144480Y-80211150D01*
X110154970Y-80233329D01*
X110163235Y-80256428D01*
X110169196Y-80280227D01*
X110172796Y-80304495D01*
X110174000Y-80328999D01*
X110174000Y-80979001D01*
X110172796Y-81003505D01*
X110169196Y-81027773D01*
X110163235Y-81051572D01*
X110154970Y-81074671D01*
X110144480Y-81096850D01*
X110131868Y-81117893D01*
X110117253Y-81137599D01*
X110100777Y-81155777D01*
X110082599Y-81172253D01*
X110062893Y-81186868D01*
X110041850Y-81199480D01*
X110019671Y-81209970D01*
X109996572Y-81218235D01*
X109972773Y-81224196D01*
X109948505Y-81227796D01*
X109924001Y-81229000D01*
X109023999Y-81229000D01*
X108999495Y-81227796D01*
X108975227Y-81224196D01*
X108951428Y-81218235D01*
X108928329Y-81209970D01*
X108906150Y-81199480D01*
X108885107Y-81186868D01*
X108865401Y-81172253D01*
X108847223Y-81155777D01*
X108830747Y-81137599D01*
X108816132Y-81117893D01*
X108803520Y-81096850D01*
X108793030Y-81074671D01*
X108784765Y-81051572D01*
X108778804Y-81027773D01*
X108775204Y-81003505D01*
X108774000Y-80979001D01*
X108774000Y-80328999D01*
X108775204Y-80304495D01*
X108778804Y-80280227D01*
X108784765Y-80256428D01*
X108793030Y-80233329D01*
X108803520Y-80211150D01*
X108816132Y-80190107D01*
X108830747Y-80170401D01*
X108847223Y-80152223D01*
X108865401Y-80135747D01*
X108885107Y-80121132D01*
X108906150Y-80108520D01*
X108928329Y-80098030D01*
X108951428Y-80089765D01*
X108975227Y-80083804D01*
X108999495Y-80080204D01*
X109023999Y-80079000D01*
X109924001Y-80079000D01*
X109948505Y-80080204D01*
G37*
G36*
X109948505Y-94304204D02*
G01*
X109972773Y-94307804D01*
X109996572Y-94313765D01*
X110019671Y-94322030D01*
X110041850Y-94332520D01*
X110062893Y-94345132D01*
X110082599Y-94359747D01*
X110100777Y-94376223D01*
X110117253Y-94394401D01*
X110131868Y-94414107D01*
X110144480Y-94435150D01*
X110154970Y-94457329D01*
X110163235Y-94480428D01*
X110169196Y-94504227D01*
X110172796Y-94528495D01*
X110174000Y-94552999D01*
X110174000Y-95203001D01*
X110172796Y-95227505D01*
X110169196Y-95251773D01*
X110163235Y-95275572D01*
X110154970Y-95298671D01*
X110144480Y-95320850D01*
X110131868Y-95341893D01*
X110117253Y-95361599D01*
X110100777Y-95379777D01*
X110082599Y-95396253D01*
X110062893Y-95410868D01*
X110041850Y-95423480D01*
X110019671Y-95433970D01*
X109996572Y-95442235D01*
X109972773Y-95448196D01*
X109948505Y-95451796D01*
X109924001Y-95453000D01*
X109023999Y-95453000D01*
X108999495Y-95451796D01*
X108975227Y-95448196D01*
X108951428Y-95442235D01*
X108928329Y-95433970D01*
X108906150Y-95423480D01*
X108885107Y-95410868D01*
X108865401Y-95396253D01*
X108847223Y-95379777D01*
X108830747Y-95361599D01*
X108816132Y-95341893D01*
X108803520Y-95320850D01*
X108793030Y-95298671D01*
X108784765Y-95275572D01*
X108778804Y-95251773D01*
X108775204Y-95227505D01*
X108774000Y-95203001D01*
X108774000Y-94552999D01*
X108775204Y-94528495D01*
X108778804Y-94504227D01*
X108784765Y-94480428D01*
X108793030Y-94457329D01*
X108803520Y-94435150D01*
X108816132Y-94414107D01*
X108830747Y-94394401D01*
X108847223Y-94376223D01*
X108865401Y-94359747D01*
X108885107Y-94345132D01*
X108906150Y-94332520D01*
X108928329Y-94322030D01*
X108951428Y-94313765D01*
X108975227Y-94307804D01*
X108999495Y-94304204D01*
X109023999Y-94303000D01*
X109924001Y-94303000D01*
X109948505Y-94304204D01*
G37*
G36*
X109948505Y-92254204D02*
G01*
X109972773Y-92257804D01*
X109996572Y-92263765D01*
X110019671Y-92272030D01*
X110041850Y-92282520D01*
X110062893Y-92295132D01*
X110082599Y-92309747D01*
X110100777Y-92326223D01*
X110117253Y-92344401D01*
X110131868Y-92364107D01*
X110144480Y-92385150D01*
X110154970Y-92407329D01*
X110163235Y-92430428D01*
X110169196Y-92454227D01*
X110172796Y-92478495D01*
X110174000Y-92502999D01*
X110174000Y-93153001D01*
X110172796Y-93177505D01*
X110169196Y-93201773D01*
X110163235Y-93225572D01*
X110154970Y-93248671D01*
X110144480Y-93270850D01*
X110131868Y-93291893D01*
X110117253Y-93311599D01*
X110100777Y-93329777D01*
X110082599Y-93346253D01*
X110062893Y-93360868D01*
X110041850Y-93373480D01*
X110019671Y-93383970D01*
X109996572Y-93392235D01*
X109972773Y-93398196D01*
X109948505Y-93401796D01*
X109924001Y-93403000D01*
X109023999Y-93403000D01*
X108999495Y-93401796D01*
X108975227Y-93398196D01*
X108951428Y-93392235D01*
X108928329Y-93383970D01*
X108906150Y-93373480D01*
X108885107Y-93360868D01*
X108865401Y-93346253D01*
X108847223Y-93329777D01*
X108830747Y-93311599D01*
X108816132Y-93291893D01*
X108803520Y-93270850D01*
X108793030Y-93248671D01*
X108784765Y-93225572D01*
X108778804Y-93201773D01*
X108775204Y-93177505D01*
X108774000Y-93153001D01*
X108774000Y-92502999D01*
X108775204Y-92478495D01*
X108778804Y-92454227D01*
X108784765Y-92430428D01*
X108793030Y-92407329D01*
X108803520Y-92385150D01*
X108816132Y-92364107D01*
X108830747Y-92344401D01*
X108847223Y-92326223D01*
X108865401Y-92309747D01*
X108885107Y-92295132D01*
X108906150Y-92282520D01*
X108928329Y-92272030D01*
X108951428Y-92263765D01*
X108975227Y-92257804D01*
X108999495Y-92254204D01*
X109023999Y-92253000D01*
X109924001Y-92253000D01*
X109948505Y-92254204D01*
G37*
G36*
X91457305Y-83694404D02*
G01*
X91481573Y-83698004D01*
X91505372Y-83703965D01*
X91528471Y-83712230D01*
X91550650Y-83722720D01*
X91571693Y-83735332D01*
X91591399Y-83749947D01*
X91609577Y-83766423D01*
X91626053Y-83784601D01*
X91640668Y-83804307D01*
X91653280Y-83825350D01*
X91663770Y-83847529D01*
X91672035Y-83870628D01*
X91677996Y-83894427D01*
X91681596Y-83918695D01*
X91682800Y-83943199D01*
X91682800Y-84593201D01*
X91681596Y-84617705D01*
X91677996Y-84641973D01*
X91672035Y-84665772D01*
X91663770Y-84688871D01*
X91653280Y-84711050D01*
X91640668Y-84732093D01*
X91626053Y-84751799D01*
X91609577Y-84769977D01*
X91591399Y-84786453D01*
X91571693Y-84801068D01*
X91550650Y-84813680D01*
X91528471Y-84824170D01*
X91505372Y-84832435D01*
X91481573Y-84838396D01*
X91457305Y-84841996D01*
X91432801Y-84843200D01*
X90532799Y-84843200D01*
X90508295Y-84841996D01*
X90484027Y-84838396D01*
X90460228Y-84832435D01*
X90437129Y-84824170D01*
X90414950Y-84813680D01*
X90393907Y-84801068D01*
X90374201Y-84786453D01*
X90356023Y-84769977D01*
X90339547Y-84751799D01*
X90324932Y-84732093D01*
X90312320Y-84711050D01*
X90301830Y-84688871D01*
X90293565Y-84665772D01*
X90287604Y-84641973D01*
X90284004Y-84617705D01*
X90282800Y-84593201D01*
X90282800Y-83943199D01*
X90284004Y-83918695D01*
X90287604Y-83894427D01*
X90293565Y-83870628D01*
X90301830Y-83847529D01*
X90312320Y-83825350D01*
X90324932Y-83804307D01*
X90339547Y-83784601D01*
X90356023Y-83766423D01*
X90374201Y-83749947D01*
X90393907Y-83735332D01*
X90414950Y-83722720D01*
X90437129Y-83712230D01*
X90460228Y-83703965D01*
X90484027Y-83698004D01*
X90508295Y-83694404D01*
X90532799Y-83693200D01*
X91432801Y-83693200D01*
X91457305Y-83694404D01*
G37*
G36*
X91457305Y-85744404D02*
G01*
X91481573Y-85748004D01*
X91505372Y-85753965D01*
X91528471Y-85762230D01*
X91550650Y-85772720D01*
X91571693Y-85785332D01*
X91591399Y-85799947D01*
X91609577Y-85816423D01*
X91626053Y-85834601D01*
X91640668Y-85854307D01*
X91653280Y-85875350D01*
X91663770Y-85897529D01*
X91672035Y-85920628D01*
X91677996Y-85944427D01*
X91681596Y-85968695D01*
X91682800Y-85993199D01*
X91682800Y-86643201D01*
X91681596Y-86667705D01*
X91677996Y-86691973D01*
X91672035Y-86715772D01*
X91663770Y-86738871D01*
X91653280Y-86761050D01*
X91640668Y-86782093D01*
X91626053Y-86801799D01*
X91609577Y-86819977D01*
X91591399Y-86836453D01*
X91571693Y-86851068D01*
X91550650Y-86863680D01*
X91528471Y-86874170D01*
X91505372Y-86882435D01*
X91481573Y-86888396D01*
X91457305Y-86891996D01*
X91432801Y-86893200D01*
X90532799Y-86893200D01*
X90508295Y-86891996D01*
X90484027Y-86888396D01*
X90460228Y-86882435D01*
X90437129Y-86874170D01*
X90414950Y-86863680D01*
X90393907Y-86851068D01*
X90374201Y-86836453D01*
X90356023Y-86819977D01*
X90339547Y-86801799D01*
X90324932Y-86782093D01*
X90312320Y-86761050D01*
X90301830Y-86738871D01*
X90293565Y-86715772D01*
X90287604Y-86691973D01*
X90284004Y-86667705D01*
X90282800Y-86643201D01*
X90282800Y-85993199D01*
X90284004Y-85968695D01*
X90287604Y-85944427D01*
X90293565Y-85920628D01*
X90301830Y-85897529D01*
X90312320Y-85875350D01*
X90324932Y-85854307D01*
X90339547Y-85834601D01*
X90356023Y-85816423D01*
X90374201Y-85799947D01*
X90393907Y-85785332D01*
X90414950Y-85772720D01*
X90437129Y-85762230D01*
X90460228Y-85753965D01*
X90484027Y-85748004D01*
X90508295Y-85744404D01*
X90532799Y-85743200D01*
X91432801Y-85743200D01*
X91457305Y-85744404D01*
G37*
G36*
X99204305Y-83678004D02*
G01*
X99228573Y-83681604D01*
X99252372Y-83687565D01*
X99275471Y-83695830D01*
X99297650Y-83706320D01*
X99318693Y-83718932D01*
X99338399Y-83733547D01*
X99356577Y-83750023D01*
X99373053Y-83768201D01*
X99387668Y-83787907D01*
X99400280Y-83808950D01*
X99410770Y-83831129D01*
X99419035Y-83854228D01*
X99424996Y-83878027D01*
X99428596Y-83902295D01*
X99429800Y-83926799D01*
X99429800Y-84576801D01*
X99428596Y-84601305D01*
X99424996Y-84625573D01*
X99419035Y-84649372D01*
X99410770Y-84672471D01*
X99400280Y-84694650D01*
X99387668Y-84715693D01*
X99373053Y-84735399D01*
X99356577Y-84753577D01*
X99338399Y-84770053D01*
X99318693Y-84784668D01*
X99297650Y-84797280D01*
X99275471Y-84807770D01*
X99252372Y-84816035D01*
X99228573Y-84821996D01*
X99204305Y-84825596D01*
X99179801Y-84826800D01*
X98279799Y-84826800D01*
X98255295Y-84825596D01*
X98231027Y-84821996D01*
X98207228Y-84816035D01*
X98184129Y-84807770D01*
X98161950Y-84797280D01*
X98140907Y-84784668D01*
X98121201Y-84770053D01*
X98103023Y-84753577D01*
X98086547Y-84735399D01*
X98071932Y-84715693D01*
X98059320Y-84694650D01*
X98048830Y-84672471D01*
X98040565Y-84649372D01*
X98034604Y-84625573D01*
X98031004Y-84601305D01*
X98029800Y-84576801D01*
X98029800Y-83926799D01*
X98031004Y-83902295D01*
X98034604Y-83878027D01*
X98040565Y-83854228D01*
X98048830Y-83831129D01*
X98059320Y-83808950D01*
X98071932Y-83787907D01*
X98086547Y-83768201D01*
X98103023Y-83750023D01*
X98121201Y-83733547D01*
X98140907Y-83718932D01*
X98161950Y-83706320D01*
X98184129Y-83695830D01*
X98207228Y-83687565D01*
X98231027Y-83681604D01*
X98255295Y-83678004D01*
X98279799Y-83676800D01*
X99179801Y-83676800D01*
X99204305Y-83678004D01*
G37*
G36*
X99204305Y-85728004D02*
G01*
X99228573Y-85731604D01*
X99252372Y-85737565D01*
X99275471Y-85745830D01*
X99297650Y-85756320D01*
X99318693Y-85768932D01*
X99338399Y-85783547D01*
X99356577Y-85800023D01*
X99373053Y-85818201D01*
X99387668Y-85837907D01*
X99400280Y-85858950D01*
X99410770Y-85881129D01*
X99419035Y-85904228D01*
X99424996Y-85928027D01*
X99428596Y-85952295D01*
X99429800Y-85976799D01*
X99429800Y-86626801D01*
X99428596Y-86651305D01*
X99424996Y-86675573D01*
X99419035Y-86699372D01*
X99410770Y-86722471D01*
X99400280Y-86744650D01*
X99387668Y-86765693D01*
X99373053Y-86785399D01*
X99356577Y-86803577D01*
X99338399Y-86820053D01*
X99318693Y-86834668D01*
X99297650Y-86847280D01*
X99275471Y-86857770D01*
X99252372Y-86866035D01*
X99228573Y-86871996D01*
X99204305Y-86875596D01*
X99179801Y-86876800D01*
X98279799Y-86876800D01*
X98255295Y-86875596D01*
X98231027Y-86871996D01*
X98207228Y-86866035D01*
X98184129Y-86857770D01*
X98161950Y-86847280D01*
X98140907Y-86834668D01*
X98121201Y-86820053D01*
X98103023Y-86803577D01*
X98086547Y-86785399D01*
X98071932Y-86765693D01*
X98059320Y-86744650D01*
X98048830Y-86722471D01*
X98040565Y-86699372D01*
X98034604Y-86675573D01*
X98031004Y-86651305D01*
X98029800Y-86626801D01*
X98029800Y-85976799D01*
X98031004Y-85952295D01*
X98034604Y-85928027D01*
X98040565Y-85904228D01*
X98048830Y-85881129D01*
X98059320Y-85858950D01*
X98071932Y-85837907D01*
X98086547Y-85818201D01*
X98103023Y-85800023D01*
X98121201Y-85783547D01*
X98140907Y-85768932D01*
X98161950Y-85756320D01*
X98184129Y-85745830D01*
X98207228Y-85737565D01*
X98231027Y-85731604D01*
X98255295Y-85728004D01*
X98279799Y-85726800D01*
X99179801Y-85726800D01*
X99204305Y-85728004D01*
G37*
G36*
X92219305Y-78073604D02*
G01*
X92243573Y-78077204D01*
X92267372Y-78083165D01*
X92290471Y-78091430D01*
X92312650Y-78101920D01*
X92333693Y-78114532D01*
X92353399Y-78129147D01*
X92371577Y-78145623D01*
X92388053Y-78163801D01*
X92402668Y-78183507D01*
X92415280Y-78204550D01*
X92425770Y-78226729D01*
X92434035Y-78249828D01*
X92439996Y-78273627D01*
X92443596Y-78297895D01*
X92444800Y-78322399D01*
X92444800Y-78972401D01*
X92443596Y-78996905D01*
X92439996Y-79021173D01*
X92434035Y-79044972D01*
X92425770Y-79068071D01*
X92415280Y-79090250D01*
X92402668Y-79111293D01*
X92388053Y-79130999D01*
X92371577Y-79149177D01*
X92353399Y-79165653D01*
X92333693Y-79180268D01*
X92312650Y-79192880D01*
X92290471Y-79203370D01*
X92267372Y-79211635D01*
X92243573Y-79217596D01*
X92219305Y-79221196D01*
X92194801Y-79222400D01*
X91294799Y-79222400D01*
X91270295Y-79221196D01*
X91246027Y-79217596D01*
X91222228Y-79211635D01*
X91199129Y-79203370D01*
X91176950Y-79192880D01*
X91155907Y-79180268D01*
X91136201Y-79165653D01*
X91118023Y-79149177D01*
X91101547Y-79130999D01*
X91086932Y-79111293D01*
X91074320Y-79090250D01*
X91063830Y-79068071D01*
X91055565Y-79044972D01*
X91049604Y-79021173D01*
X91046004Y-78996905D01*
X91044800Y-78972401D01*
X91044800Y-78322399D01*
X91046004Y-78297895D01*
X91049604Y-78273627D01*
X91055565Y-78249828D01*
X91063830Y-78226729D01*
X91074320Y-78204550D01*
X91086932Y-78183507D01*
X91101547Y-78163801D01*
X91118023Y-78145623D01*
X91136201Y-78129147D01*
X91155907Y-78114532D01*
X91176950Y-78101920D01*
X91199129Y-78091430D01*
X91222228Y-78083165D01*
X91246027Y-78077204D01*
X91270295Y-78073604D01*
X91294799Y-78072400D01*
X92194801Y-78072400D01*
X92219305Y-78073604D01*
G37*
G36*
X92219305Y-76023604D02*
G01*
X92243573Y-76027204D01*
X92267372Y-76033165D01*
X92290471Y-76041430D01*
X92312650Y-76051920D01*
X92333693Y-76064532D01*
X92353399Y-76079147D01*
X92371577Y-76095623D01*
X92388053Y-76113801D01*
X92402668Y-76133507D01*
X92415280Y-76154550D01*
X92425770Y-76176729D01*
X92434035Y-76199828D01*
X92439996Y-76223627D01*
X92443596Y-76247895D01*
X92444800Y-76272399D01*
X92444800Y-76922401D01*
X92443596Y-76946905D01*
X92439996Y-76971173D01*
X92434035Y-76994972D01*
X92425770Y-77018071D01*
X92415280Y-77040250D01*
X92402668Y-77061293D01*
X92388053Y-77080999D01*
X92371577Y-77099177D01*
X92353399Y-77115653D01*
X92333693Y-77130268D01*
X92312650Y-77142880D01*
X92290471Y-77153370D01*
X92267372Y-77161635D01*
X92243573Y-77167596D01*
X92219305Y-77171196D01*
X92194801Y-77172400D01*
X91294799Y-77172400D01*
X91270295Y-77171196D01*
X91246027Y-77167596D01*
X91222228Y-77161635D01*
X91199129Y-77153370D01*
X91176950Y-77142880D01*
X91155907Y-77130268D01*
X91136201Y-77115653D01*
X91118023Y-77099177D01*
X91101547Y-77080999D01*
X91086932Y-77061293D01*
X91074320Y-77040250D01*
X91063830Y-77018071D01*
X91055565Y-76994972D01*
X91049604Y-76971173D01*
X91046004Y-76946905D01*
X91044800Y-76922401D01*
X91044800Y-76272399D01*
X91046004Y-76247895D01*
X91049604Y-76223627D01*
X91055565Y-76199828D01*
X91063830Y-76176729D01*
X91074320Y-76154550D01*
X91086932Y-76133507D01*
X91101547Y-76113801D01*
X91118023Y-76095623D01*
X91136201Y-76079147D01*
X91155907Y-76064532D01*
X91176950Y-76051920D01*
X91199129Y-76041430D01*
X91222228Y-76033165D01*
X91246027Y-76027204D01*
X91270295Y-76023604D01*
X91294799Y-76022400D01*
X92194801Y-76022400D01*
X92219305Y-76023604D01*
G37*
G36*
X91780505Y-80898704D02*
G01*
X91804773Y-80902304D01*
X91828572Y-80908265D01*
X91851671Y-80916530D01*
X91873850Y-80927020D01*
X91894893Y-80939632D01*
X91914599Y-80954247D01*
X91932777Y-80970723D01*
X91949253Y-80988901D01*
X91963868Y-81008607D01*
X91976480Y-81029650D01*
X91986970Y-81051829D01*
X91995235Y-81074928D01*
X92001196Y-81098727D01*
X92004796Y-81122995D01*
X92006000Y-81147499D01*
X92006000Y-82047501D01*
X92004796Y-82072005D01*
X92001196Y-82096273D01*
X91995235Y-82120072D01*
X91986970Y-82143171D01*
X91976480Y-82165350D01*
X91963868Y-82186393D01*
X91949253Y-82206099D01*
X91932777Y-82224277D01*
X91914599Y-82240753D01*
X91894893Y-82255368D01*
X91873850Y-82267980D01*
X91851671Y-82278470D01*
X91828572Y-82286735D01*
X91804773Y-82292696D01*
X91780505Y-82296296D01*
X91756001Y-82297500D01*
X91105999Y-82297500D01*
X91081495Y-82296296D01*
X91057227Y-82292696D01*
X91033428Y-82286735D01*
X91010329Y-82278470D01*
X90988150Y-82267980D01*
X90967107Y-82255368D01*
X90947401Y-82240753D01*
X90929223Y-82224277D01*
X90912747Y-82206099D01*
X90898132Y-82186393D01*
X90885520Y-82165350D01*
X90875030Y-82143171D01*
X90866765Y-82120072D01*
X90860804Y-82096273D01*
X90857204Y-82072005D01*
X90856000Y-82047501D01*
X90856000Y-81147499D01*
X90857204Y-81122995D01*
X90860804Y-81098727D01*
X90866765Y-81074928D01*
X90875030Y-81051829D01*
X90885520Y-81029650D01*
X90898132Y-81008607D01*
X90912747Y-80988901D01*
X90929223Y-80970723D01*
X90947401Y-80954247D01*
X90967107Y-80939632D01*
X90988150Y-80927020D01*
X91010329Y-80916530D01*
X91033428Y-80908265D01*
X91057227Y-80902304D01*
X91081495Y-80898704D01*
X91105999Y-80897500D01*
X91756001Y-80897500D01*
X91780505Y-80898704D01*
G37*
G36*
X93830505Y-80898704D02*
G01*
X93854773Y-80902304D01*
X93878572Y-80908265D01*
X93901671Y-80916530D01*
X93923850Y-80927020D01*
X93944893Y-80939632D01*
X93964599Y-80954247D01*
X93982777Y-80970723D01*
X93999253Y-80988901D01*
X94013868Y-81008607D01*
X94026480Y-81029650D01*
X94036970Y-81051829D01*
X94045235Y-81074928D01*
X94051196Y-81098727D01*
X94054796Y-81122995D01*
X94056000Y-81147499D01*
X94056000Y-82047501D01*
X94054796Y-82072005D01*
X94051196Y-82096273D01*
X94045235Y-82120072D01*
X94036970Y-82143171D01*
X94026480Y-82165350D01*
X94013868Y-82186393D01*
X93999253Y-82206099D01*
X93982777Y-82224277D01*
X93964599Y-82240753D01*
X93944893Y-82255368D01*
X93923850Y-82267980D01*
X93901671Y-82278470D01*
X93878572Y-82286735D01*
X93854773Y-82292696D01*
X93830505Y-82296296D01*
X93806001Y-82297500D01*
X93155999Y-82297500D01*
X93131495Y-82296296D01*
X93107227Y-82292696D01*
X93083428Y-82286735D01*
X93060329Y-82278470D01*
X93038150Y-82267980D01*
X93017107Y-82255368D01*
X92997401Y-82240753D01*
X92979223Y-82224277D01*
X92962747Y-82206099D01*
X92948132Y-82186393D01*
X92935520Y-82165350D01*
X92925030Y-82143171D01*
X92916765Y-82120072D01*
X92910804Y-82096273D01*
X92907204Y-82072005D01*
X92906000Y-82047501D01*
X92906000Y-81147499D01*
X92907204Y-81122995D01*
X92910804Y-81098727D01*
X92916765Y-81074928D01*
X92925030Y-81051829D01*
X92935520Y-81029650D01*
X92948132Y-81008607D01*
X92962747Y-80988901D01*
X92979223Y-80970723D01*
X92997401Y-80954247D01*
X93017107Y-80939632D01*
X93038150Y-80927020D01*
X93060329Y-80916530D01*
X93083428Y-80908265D01*
X93107227Y-80902304D01*
X93131495Y-80898704D01*
X93155999Y-80897500D01*
X93806001Y-80897500D01*
X93830505Y-80898704D01*
G37*
G36*
X128091725Y-80243784D02*
G01*
X128115993Y-80247384D01*
X128139792Y-80253345D01*
X128162891Y-80261610D01*
X128185070Y-80272100D01*
X128206113Y-80284712D01*
X128225819Y-80299327D01*
X128243997Y-80315803D01*
X128260473Y-80333981D01*
X128275088Y-80353687D01*
X128287700Y-80374730D01*
X128298190Y-80396909D01*
X128306455Y-80420008D01*
X128312416Y-80443807D01*
X128316016Y-80468075D01*
X128317220Y-80492579D01*
X128317220Y-81142581D01*
X128316016Y-81167085D01*
X128312416Y-81191353D01*
X128306455Y-81215152D01*
X128298190Y-81238251D01*
X128287700Y-81260430D01*
X128275088Y-81281473D01*
X128260473Y-81301179D01*
X128243997Y-81319357D01*
X128225819Y-81335833D01*
X128206113Y-81350448D01*
X128185070Y-81363060D01*
X128162891Y-81373550D01*
X128139792Y-81381815D01*
X128115993Y-81387776D01*
X128091725Y-81391376D01*
X128067221Y-81392580D01*
X127167219Y-81392580D01*
X127142715Y-81391376D01*
X127118447Y-81387776D01*
X127094648Y-81381815D01*
X127071549Y-81373550D01*
X127049370Y-81363060D01*
X127028327Y-81350448D01*
X127008621Y-81335833D01*
X126990443Y-81319357D01*
X126973967Y-81301179D01*
X126959352Y-81281473D01*
X126946740Y-81260430D01*
X126936250Y-81238251D01*
X126927985Y-81215152D01*
X126922024Y-81191353D01*
X126918424Y-81167085D01*
X126917220Y-81142581D01*
X126917220Y-80492579D01*
X126918424Y-80468075D01*
X126922024Y-80443807D01*
X126927985Y-80420008D01*
X126936250Y-80396909D01*
X126946740Y-80374730D01*
X126959352Y-80353687D01*
X126973967Y-80333981D01*
X126990443Y-80315803D01*
X127008621Y-80299327D01*
X127028327Y-80284712D01*
X127049370Y-80272100D01*
X127071549Y-80261610D01*
X127094648Y-80253345D01*
X127118447Y-80247384D01*
X127142715Y-80243784D01*
X127167219Y-80242580D01*
X128067221Y-80242580D01*
X128091725Y-80243784D01*
G37*
G36*
X128091725Y-82293784D02*
G01*
X128115993Y-82297384D01*
X128139792Y-82303345D01*
X128162891Y-82311610D01*
X128185070Y-82322100D01*
X128206113Y-82334712D01*
X128225819Y-82349327D01*
X128243997Y-82365803D01*
X128260473Y-82383981D01*
X128275088Y-82403687D01*
X128287700Y-82424730D01*
X128298190Y-82446909D01*
X128306455Y-82470008D01*
X128312416Y-82493807D01*
X128316016Y-82518075D01*
X128317220Y-82542579D01*
X128317220Y-83192581D01*
X128316016Y-83217085D01*
X128312416Y-83241353D01*
X128306455Y-83265152D01*
X128298190Y-83288251D01*
X128287700Y-83310430D01*
X128275088Y-83331473D01*
X128260473Y-83351179D01*
X128243997Y-83369357D01*
X128225819Y-83385833D01*
X128206113Y-83400448D01*
X128185070Y-83413060D01*
X128162891Y-83423550D01*
X128139792Y-83431815D01*
X128115993Y-83437776D01*
X128091725Y-83441376D01*
X128067221Y-83442580D01*
X127167219Y-83442580D01*
X127142715Y-83441376D01*
X127118447Y-83437776D01*
X127094648Y-83431815D01*
X127071549Y-83423550D01*
X127049370Y-83413060D01*
X127028327Y-83400448D01*
X127008621Y-83385833D01*
X126990443Y-83369357D01*
X126973967Y-83351179D01*
X126959352Y-83331473D01*
X126946740Y-83310430D01*
X126936250Y-83288251D01*
X126927985Y-83265152D01*
X126922024Y-83241353D01*
X126918424Y-83217085D01*
X126917220Y-83192581D01*
X126917220Y-82542579D01*
X126918424Y-82518075D01*
X126922024Y-82493807D01*
X126927985Y-82470008D01*
X126936250Y-82446909D01*
X126946740Y-82424730D01*
X126959352Y-82403687D01*
X126973967Y-82383981D01*
X126990443Y-82365803D01*
X127008621Y-82349327D01*
X127028327Y-82334712D01*
X127049370Y-82322100D01*
X127071549Y-82311610D01*
X127094648Y-82303345D01*
X127118447Y-82297384D01*
X127142715Y-82293784D01*
X127167219Y-82292580D01*
X128067221Y-82292580D01*
X128091725Y-82293784D01*
G37*
G36*
X130072925Y-80243784D02*
G01*
X130097193Y-80247384D01*
X130120992Y-80253345D01*
X130144091Y-80261610D01*
X130166270Y-80272100D01*
X130187313Y-80284712D01*
X130207019Y-80299327D01*
X130225197Y-80315803D01*
X130241673Y-80333981D01*
X130256288Y-80353687D01*
X130268900Y-80374730D01*
X130279390Y-80396909D01*
X130287655Y-80420008D01*
X130293616Y-80443807D01*
X130297216Y-80468075D01*
X130298420Y-80492579D01*
X130298420Y-81142581D01*
X130297216Y-81167085D01*
X130293616Y-81191353D01*
X130287655Y-81215152D01*
X130279390Y-81238251D01*
X130268900Y-81260430D01*
X130256288Y-81281473D01*
X130241673Y-81301179D01*
X130225197Y-81319357D01*
X130207019Y-81335833D01*
X130187313Y-81350448D01*
X130166270Y-81363060D01*
X130144091Y-81373550D01*
X130120992Y-81381815D01*
X130097193Y-81387776D01*
X130072925Y-81391376D01*
X130048421Y-81392580D01*
X129148419Y-81392580D01*
X129123915Y-81391376D01*
X129099647Y-81387776D01*
X129075848Y-81381815D01*
X129052749Y-81373550D01*
X129030570Y-81363060D01*
X129009527Y-81350448D01*
X128989821Y-81335833D01*
X128971643Y-81319357D01*
X128955167Y-81301179D01*
X128940552Y-81281473D01*
X128927940Y-81260430D01*
X128917450Y-81238251D01*
X128909185Y-81215152D01*
X128903224Y-81191353D01*
X128899624Y-81167085D01*
X128898420Y-81142581D01*
X128898420Y-80492579D01*
X128899624Y-80468075D01*
X128903224Y-80443807D01*
X128909185Y-80420008D01*
X128917450Y-80396909D01*
X128927940Y-80374730D01*
X128940552Y-80353687D01*
X128955167Y-80333981D01*
X128971643Y-80315803D01*
X128989821Y-80299327D01*
X129009527Y-80284712D01*
X129030570Y-80272100D01*
X129052749Y-80261610D01*
X129075848Y-80253345D01*
X129099647Y-80247384D01*
X129123915Y-80243784D01*
X129148419Y-80242580D01*
X130048421Y-80242580D01*
X130072925Y-80243784D01*
G37*
G36*
X130072925Y-82293784D02*
G01*
X130097193Y-82297384D01*
X130120992Y-82303345D01*
X130144091Y-82311610D01*
X130166270Y-82322100D01*
X130187313Y-82334712D01*
X130207019Y-82349327D01*
X130225197Y-82365803D01*
X130241673Y-82383981D01*
X130256288Y-82403687D01*
X130268900Y-82424730D01*
X130279390Y-82446909D01*
X130287655Y-82470008D01*
X130293616Y-82493807D01*
X130297216Y-82518075D01*
X130298420Y-82542579D01*
X130298420Y-83192581D01*
X130297216Y-83217085D01*
X130293616Y-83241353D01*
X130287655Y-83265152D01*
X130279390Y-83288251D01*
X130268900Y-83310430D01*
X130256288Y-83331473D01*
X130241673Y-83351179D01*
X130225197Y-83369357D01*
X130207019Y-83385833D01*
X130187313Y-83400448D01*
X130166270Y-83413060D01*
X130144091Y-83423550D01*
X130120992Y-83431815D01*
X130097193Y-83437776D01*
X130072925Y-83441376D01*
X130048421Y-83442580D01*
X129148419Y-83442580D01*
X129123915Y-83441376D01*
X129099647Y-83437776D01*
X129075848Y-83431815D01*
X129052749Y-83423550D01*
X129030570Y-83413060D01*
X129009527Y-83400448D01*
X128989821Y-83385833D01*
X128971643Y-83369357D01*
X128955167Y-83351179D01*
X128940552Y-83331473D01*
X128927940Y-83310430D01*
X128917450Y-83288251D01*
X128909185Y-83265152D01*
X128903224Y-83241353D01*
X128899624Y-83217085D01*
X128898420Y-83192581D01*
X128898420Y-82542579D01*
X128899624Y-82518075D01*
X128903224Y-82493807D01*
X128909185Y-82470008D01*
X128917450Y-82446909D01*
X128927940Y-82424730D01*
X128940552Y-82403687D01*
X128955167Y-82383981D01*
X128971643Y-82365803D01*
X128989821Y-82349327D01*
X129009527Y-82334712D01*
X129030570Y-82322100D01*
X129052749Y-82311610D01*
X129075848Y-82303345D01*
X129099647Y-82297384D01*
X129123915Y-82293784D01*
X129148419Y-82292580D01*
X130048421Y-82292580D01*
X130072925Y-82293784D01*
G37*
G36*
X132054125Y-80243784D02*
G01*
X132078393Y-80247384D01*
X132102192Y-80253345D01*
X132125291Y-80261610D01*
X132147470Y-80272100D01*
X132168513Y-80284712D01*
X132188219Y-80299327D01*
X132206397Y-80315803D01*
X132222873Y-80333981D01*
X132237488Y-80353687D01*
X132250100Y-80374730D01*
X132260590Y-80396909D01*
X132268855Y-80420008D01*
X132274816Y-80443807D01*
X132278416Y-80468075D01*
X132279620Y-80492579D01*
X132279620Y-81142581D01*
X132278416Y-81167085D01*
X132274816Y-81191353D01*
X132268855Y-81215152D01*
X132260590Y-81238251D01*
X132250100Y-81260430D01*
X132237488Y-81281473D01*
X132222873Y-81301179D01*
X132206397Y-81319357D01*
X132188219Y-81335833D01*
X132168513Y-81350448D01*
X132147470Y-81363060D01*
X132125291Y-81373550D01*
X132102192Y-81381815D01*
X132078393Y-81387776D01*
X132054125Y-81391376D01*
X132029621Y-81392580D01*
X131129619Y-81392580D01*
X131105115Y-81391376D01*
X131080847Y-81387776D01*
X131057048Y-81381815D01*
X131033949Y-81373550D01*
X131011770Y-81363060D01*
X130990727Y-81350448D01*
X130971021Y-81335833D01*
X130952843Y-81319357D01*
X130936367Y-81301179D01*
X130921752Y-81281473D01*
X130909140Y-81260430D01*
X130898650Y-81238251D01*
X130890385Y-81215152D01*
X130884424Y-81191353D01*
X130880824Y-81167085D01*
X130879620Y-81142581D01*
X130879620Y-80492579D01*
X130880824Y-80468075D01*
X130884424Y-80443807D01*
X130890385Y-80420008D01*
X130898650Y-80396909D01*
X130909140Y-80374730D01*
X130921752Y-80353687D01*
X130936367Y-80333981D01*
X130952843Y-80315803D01*
X130971021Y-80299327D01*
X130990727Y-80284712D01*
X131011770Y-80272100D01*
X131033949Y-80261610D01*
X131057048Y-80253345D01*
X131080847Y-80247384D01*
X131105115Y-80243784D01*
X131129619Y-80242580D01*
X132029621Y-80242580D01*
X132054125Y-80243784D01*
G37*
G36*
X132054125Y-82293784D02*
G01*
X132078393Y-82297384D01*
X132102192Y-82303345D01*
X132125291Y-82311610D01*
X132147470Y-82322100D01*
X132168513Y-82334712D01*
X132188219Y-82349327D01*
X132206397Y-82365803D01*
X132222873Y-82383981D01*
X132237488Y-82403687D01*
X132250100Y-82424730D01*
X132260590Y-82446909D01*
X132268855Y-82470008D01*
X132274816Y-82493807D01*
X132278416Y-82518075D01*
X132279620Y-82542579D01*
X132279620Y-83192581D01*
X132278416Y-83217085D01*
X132274816Y-83241353D01*
X132268855Y-83265152D01*
X132260590Y-83288251D01*
X132250100Y-83310430D01*
X132237488Y-83331473D01*
X132222873Y-83351179D01*
X132206397Y-83369357D01*
X132188219Y-83385833D01*
X132168513Y-83400448D01*
X132147470Y-83413060D01*
X132125291Y-83423550D01*
X132102192Y-83431815D01*
X132078393Y-83437776D01*
X132054125Y-83441376D01*
X132029621Y-83442580D01*
X131129619Y-83442580D01*
X131105115Y-83441376D01*
X131080847Y-83437776D01*
X131057048Y-83431815D01*
X131033949Y-83423550D01*
X131011770Y-83413060D01*
X130990727Y-83400448D01*
X130971021Y-83385833D01*
X130952843Y-83369357D01*
X130936367Y-83351179D01*
X130921752Y-83331473D01*
X130909140Y-83310430D01*
X130898650Y-83288251D01*
X130890385Y-83265152D01*
X130884424Y-83241353D01*
X130880824Y-83217085D01*
X130879620Y-83192581D01*
X130879620Y-82542579D01*
X130880824Y-82518075D01*
X130884424Y-82493807D01*
X130890385Y-82470008D01*
X130898650Y-82446909D01*
X130909140Y-82424730D01*
X130921752Y-82403687D01*
X130936367Y-82383981D01*
X130952843Y-82365803D01*
X130971021Y-82349327D01*
X130990727Y-82334712D01*
X131011770Y-82322100D01*
X131033949Y-82311610D01*
X131057048Y-82303345D01*
X131080847Y-82297384D01*
X131105115Y-82293784D01*
X131129619Y-82292580D01*
X132029621Y-82292580D01*
X132054125Y-82293784D01*
G37*
G36*
X115624505Y-96151204D02*
G01*
X115648773Y-96154804D01*
X115672572Y-96160765D01*
X115695671Y-96169030D01*
X115717850Y-96179520D01*
X115738893Y-96192132D01*
X115758599Y-96206747D01*
X115776777Y-96223223D01*
X115793253Y-96241401D01*
X115807868Y-96261107D01*
X115820480Y-96282150D01*
X115830970Y-96304329D01*
X115839235Y-96327428D01*
X115845196Y-96351227D01*
X115848796Y-96375495D01*
X115850000Y-96399999D01*
X115850000Y-97300001D01*
X115848796Y-97324505D01*
X115845196Y-97348773D01*
X115839235Y-97372572D01*
X115830970Y-97395671D01*
X115820480Y-97417850D01*
X115807868Y-97438893D01*
X115793253Y-97458599D01*
X115776777Y-97476777D01*
X115758599Y-97493253D01*
X115738893Y-97507868D01*
X115717850Y-97520480D01*
X115695671Y-97530970D01*
X115672572Y-97539235D01*
X115648773Y-97545196D01*
X115624505Y-97548796D01*
X115600001Y-97550000D01*
X114949999Y-97550000D01*
X114925495Y-97548796D01*
X114901227Y-97545196D01*
X114877428Y-97539235D01*
X114854329Y-97530970D01*
X114832150Y-97520480D01*
X114811107Y-97507868D01*
X114791401Y-97493253D01*
X114773223Y-97476777D01*
X114756747Y-97458599D01*
X114742132Y-97438893D01*
X114729520Y-97417850D01*
X114719030Y-97395671D01*
X114710765Y-97372572D01*
X114704804Y-97348773D01*
X114701204Y-97324505D01*
X114700000Y-97300001D01*
X114700000Y-96399999D01*
X114701204Y-96375495D01*
X114704804Y-96351227D01*
X114710765Y-96327428D01*
X114719030Y-96304329D01*
X114729520Y-96282150D01*
X114742132Y-96261107D01*
X114756747Y-96241401D01*
X114773223Y-96223223D01*
X114791401Y-96206747D01*
X114811107Y-96192132D01*
X114832150Y-96179520D01*
X114854329Y-96169030D01*
X114877428Y-96160765D01*
X114901227Y-96154804D01*
X114925495Y-96151204D01*
X114949999Y-96150000D01*
X115600001Y-96150000D01*
X115624505Y-96151204D01*
G37*
G36*
X117674505Y-96151204D02*
G01*
X117698773Y-96154804D01*
X117722572Y-96160765D01*
X117745671Y-96169030D01*
X117767850Y-96179520D01*
X117788893Y-96192132D01*
X117808599Y-96206747D01*
X117826777Y-96223223D01*
X117843253Y-96241401D01*
X117857868Y-96261107D01*
X117870480Y-96282150D01*
X117880970Y-96304329D01*
X117889235Y-96327428D01*
X117895196Y-96351227D01*
X117898796Y-96375495D01*
X117900000Y-96399999D01*
X117900000Y-97300001D01*
X117898796Y-97324505D01*
X117895196Y-97348773D01*
X117889235Y-97372572D01*
X117880970Y-97395671D01*
X117870480Y-97417850D01*
X117857868Y-97438893D01*
X117843253Y-97458599D01*
X117826777Y-97476777D01*
X117808599Y-97493253D01*
X117788893Y-97507868D01*
X117767850Y-97520480D01*
X117745671Y-97530970D01*
X117722572Y-97539235D01*
X117698773Y-97545196D01*
X117674505Y-97548796D01*
X117650001Y-97550000D01*
X116999999Y-97550000D01*
X116975495Y-97548796D01*
X116951227Y-97545196D01*
X116927428Y-97539235D01*
X116904329Y-97530970D01*
X116882150Y-97520480D01*
X116861107Y-97507868D01*
X116841401Y-97493253D01*
X116823223Y-97476777D01*
X116806747Y-97458599D01*
X116792132Y-97438893D01*
X116779520Y-97417850D01*
X116769030Y-97395671D01*
X116760765Y-97372572D01*
X116754804Y-97348773D01*
X116751204Y-97324505D01*
X116750000Y-97300001D01*
X116750000Y-96399999D01*
X116751204Y-96375495D01*
X116754804Y-96351227D01*
X116760765Y-96327428D01*
X116769030Y-96304329D01*
X116779520Y-96282150D01*
X116792132Y-96261107D01*
X116806747Y-96241401D01*
X116823223Y-96223223D01*
X116841401Y-96206747D01*
X116861107Y-96192132D01*
X116882150Y-96179520D01*
X116904329Y-96169030D01*
X116927428Y-96160765D01*
X116951227Y-96154804D01*
X116975495Y-96151204D01*
X116999999Y-96150000D01*
X117650001Y-96150000D01*
X117674505Y-96151204D01*
G37*
G36*
X118324505Y-100851204D02*
G01*
X118348773Y-100854804D01*
X118372572Y-100860765D01*
X118395671Y-100869030D01*
X118417850Y-100879520D01*
X118438893Y-100892132D01*
X118458599Y-100906747D01*
X118476777Y-100923223D01*
X118493253Y-100941401D01*
X118507868Y-100961107D01*
X118520480Y-100982150D01*
X118530970Y-101004329D01*
X118539235Y-101027428D01*
X118545196Y-101051227D01*
X118548796Y-101075495D01*
X118550000Y-101099999D01*
X118550000Y-101750001D01*
X118548796Y-101774505D01*
X118545196Y-101798773D01*
X118539235Y-101822572D01*
X118530970Y-101845671D01*
X118520480Y-101867850D01*
X118507868Y-101888893D01*
X118493253Y-101908599D01*
X118476777Y-101926777D01*
X118458599Y-101943253D01*
X118438893Y-101957868D01*
X118417850Y-101970480D01*
X118395671Y-101980970D01*
X118372572Y-101989235D01*
X118348773Y-101995196D01*
X118324505Y-101998796D01*
X118300001Y-102000000D01*
X117399999Y-102000000D01*
X117375495Y-101998796D01*
X117351227Y-101995196D01*
X117327428Y-101989235D01*
X117304329Y-101980970D01*
X117282150Y-101970480D01*
X117261107Y-101957868D01*
X117241401Y-101943253D01*
X117223223Y-101926777D01*
X117206747Y-101908599D01*
X117192132Y-101888893D01*
X117179520Y-101867850D01*
X117169030Y-101845671D01*
X117160765Y-101822572D01*
X117154804Y-101798773D01*
X117151204Y-101774505D01*
X117150000Y-101750001D01*
X117150000Y-101099999D01*
X117151204Y-101075495D01*
X117154804Y-101051227D01*
X117160765Y-101027428D01*
X117169030Y-101004329D01*
X117179520Y-100982150D01*
X117192132Y-100961107D01*
X117206747Y-100941401D01*
X117223223Y-100923223D01*
X117241401Y-100906747D01*
X117261107Y-100892132D01*
X117282150Y-100879520D01*
X117304329Y-100869030D01*
X117327428Y-100860765D01*
X117351227Y-100854804D01*
X117375495Y-100851204D01*
X117399999Y-100850000D01*
X118300001Y-100850000D01*
X118324505Y-100851204D01*
G37*
G36*
X118324505Y-98801204D02*
G01*
X118348773Y-98804804D01*
X118372572Y-98810765D01*
X118395671Y-98819030D01*
X118417850Y-98829520D01*
X118438893Y-98842132D01*
X118458599Y-98856747D01*
X118476777Y-98873223D01*
X118493253Y-98891401D01*
X118507868Y-98911107D01*
X118520480Y-98932150D01*
X118530970Y-98954329D01*
X118539235Y-98977428D01*
X118545196Y-99001227D01*
X118548796Y-99025495D01*
X118550000Y-99049999D01*
X118550000Y-99700001D01*
X118548796Y-99724505D01*
X118545196Y-99748773D01*
X118539235Y-99772572D01*
X118530970Y-99795671D01*
X118520480Y-99817850D01*
X118507868Y-99838893D01*
X118493253Y-99858599D01*
X118476777Y-99876777D01*
X118458599Y-99893253D01*
X118438893Y-99907868D01*
X118417850Y-99920480D01*
X118395671Y-99930970D01*
X118372572Y-99939235D01*
X118348773Y-99945196D01*
X118324505Y-99948796D01*
X118300001Y-99950000D01*
X117399999Y-99950000D01*
X117375495Y-99948796D01*
X117351227Y-99945196D01*
X117327428Y-99939235D01*
X117304329Y-99930970D01*
X117282150Y-99920480D01*
X117261107Y-99907868D01*
X117241401Y-99893253D01*
X117223223Y-99876777D01*
X117206747Y-99858599D01*
X117192132Y-99838893D01*
X117179520Y-99817850D01*
X117169030Y-99795671D01*
X117160765Y-99772572D01*
X117154804Y-99748773D01*
X117151204Y-99724505D01*
X117150000Y-99700001D01*
X117150000Y-99049999D01*
X117151204Y-99025495D01*
X117154804Y-99001227D01*
X117160765Y-98977428D01*
X117169030Y-98954329D01*
X117179520Y-98932150D01*
X117192132Y-98911107D01*
X117206747Y-98891401D01*
X117223223Y-98873223D01*
X117241401Y-98856747D01*
X117261107Y-98842132D01*
X117282150Y-98829520D01*
X117304329Y-98819030D01*
X117327428Y-98810765D01*
X117351227Y-98804804D01*
X117375495Y-98801204D01*
X117399999Y-98800000D01*
X118300001Y-98800000D01*
X118324505Y-98801204D01*
G37*
G36*
X110274505Y-98801204D02*
G01*
X110298773Y-98804804D01*
X110322572Y-98810765D01*
X110345671Y-98819030D01*
X110367850Y-98829520D01*
X110388893Y-98842132D01*
X110408599Y-98856747D01*
X110426777Y-98873223D01*
X110443253Y-98891401D01*
X110457868Y-98911107D01*
X110470480Y-98932150D01*
X110480970Y-98954329D01*
X110489235Y-98977428D01*
X110495196Y-99001227D01*
X110498796Y-99025495D01*
X110500000Y-99049999D01*
X110500000Y-99700001D01*
X110498796Y-99724505D01*
X110495196Y-99748773D01*
X110489235Y-99772572D01*
X110480970Y-99795671D01*
X110470480Y-99817850D01*
X110457868Y-99838893D01*
X110443253Y-99858599D01*
X110426777Y-99876777D01*
X110408599Y-99893253D01*
X110388893Y-99907868D01*
X110367850Y-99920480D01*
X110345671Y-99930970D01*
X110322572Y-99939235D01*
X110298773Y-99945196D01*
X110274505Y-99948796D01*
X110250001Y-99950000D01*
X109349999Y-99950000D01*
X109325495Y-99948796D01*
X109301227Y-99945196D01*
X109277428Y-99939235D01*
X109254329Y-99930970D01*
X109232150Y-99920480D01*
X109211107Y-99907868D01*
X109191401Y-99893253D01*
X109173223Y-99876777D01*
X109156747Y-99858599D01*
X109142132Y-99838893D01*
X109129520Y-99817850D01*
X109119030Y-99795671D01*
X109110765Y-99772572D01*
X109104804Y-99748773D01*
X109101204Y-99724505D01*
X109100000Y-99700001D01*
X109100000Y-99049999D01*
X109101204Y-99025495D01*
X109104804Y-99001227D01*
X109110765Y-98977428D01*
X109119030Y-98954329D01*
X109129520Y-98932150D01*
X109142132Y-98911107D01*
X109156747Y-98891401D01*
X109173223Y-98873223D01*
X109191401Y-98856747D01*
X109211107Y-98842132D01*
X109232150Y-98829520D01*
X109254329Y-98819030D01*
X109277428Y-98810765D01*
X109301227Y-98804804D01*
X109325495Y-98801204D01*
X109349999Y-98800000D01*
X110250001Y-98800000D01*
X110274505Y-98801204D01*
G37*
G36*
X110274505Y-100851204D02*
G01*
X110298773Y-100854804D01*
X110322572Y-100860765D01*
X110345671Y-100869030D01*
X110367850Y-100879520D01*
X110388893Y-100892132D01*
X110408599Y-100906747D01*
X110426777Y-100923223D01*
X110443253Y-100941401D01*
X110457868Y-100961107D01*
X110470480Y-100982150D01*
X110480970Y-101004329D01*
X110489235Y-101027428D01*
X110495196Y-101051227D01*
X110498796Y-101075495D01*
X110500000Y-101099999D01*
X110500000Y-101750001D01*
X110498796Y-101774505D01*
X110495196Y-101798773D01*
X110489235Y-101822572D01*
X110480970Y-101845671D01*
X110470480Y-101867850D01*
X110457868Y-101888893D01*
X110443253Y-101908599D01*
X110426777Y-101926777D01*
X110408599Y-101943253D01*
X110388893Y-101957868D01*
X110367850Y-101970480D01*
X110345671Y-101980970D01*
X110322572Y-101989235D01*
X110298773Y-101995196D01*
X110274505Y-101998796D01*
X110250001Y-102000000D01*
X109349999Y-102000000D01*
X109325495Y-101998796D01*
X109301227Y-101995196D01*
X109277428Y-101989235D01*
X109254329Y-101980970D01*
X109232150Y-101970480D01*
X109211107Y-101957868D01*
X109191401Y-101943253D01*
X109173223Y-101926777D01*
X109156747Y-101908599D01*
X109142132Y-101888893D01*
X109129520Y-101867850D01*
X109119030Y-101845671D01*
X109110765Y-101822572D01*
X109104804Y-101798773D01*
X109101204Y-101774505D01*
X109100000Y-101750001D01*
X109100000Y-101099999D01*
X109101204Y-101075495D01*
X109104804Y-101051227D01*
X109110765Y-101027428D01*
X109119030Y-101004329D01*
X109129520Y-100982150D01*
X109142132Y-100961107D01*
X109156747Y-100941401D01*
X109173223Y-100923223D01*
X109191401Y-100906747D01*
X109211107Y-100892132D01*
X109232150Y-100879520D01*
X109254329Y-100869030D01*
X109277428Y-100860765D01*
X109301227Y-100854804D01*
X109325495Y-100851204D01*
X109349999Y-100850000D01*
X110250001Y-100850000D01*
X110274505Y-100851204D01*
G37*
G36*
X126110525Y-80243784D02*
G01*
X126134793Y-80247384D01*
X126158592Y-80253345D01*
X126181691Y-80261610D01*
X126203870Y-80272100D01*
X126224913Y-80284712D01*
X126244619Y-80299327D01*
X126262797Y-80315803D01*
X126279273Y-80333981D01*
X126293888Y-80353687D01*
X126306500Y-80374730D01*
X126316990Y-80396909D01*
X126325255Y-80420008D01*
X126331216Y-80443807D01*
X126334816Y-80468075D01*
X126336020Y-80492579D01*
X126336020Y-81142581D01*
X126334816Y-81167085D01*
X126331216Y-81191353D01*
X126325255Y-81215152D01*
X126316990Y-81238251D01*
X126306500Y-81260430D01*
X126293888Y-81281473D01*
X126279273Y-81301179D01*
X126262797Y-81319357D01*
X126244619Y-81335833D01*
X126224913Y-81350448D01*
X126203870Y-81363060D01*
X126181691Y-81373550D01*
X126158592Y-81381815D01*
X126134793Y-81387776D01*
X126110525Y-81391376D01*
X126086021Y-81392580D01*
X125186019Y-81392580D01*
X125161515Y-81391376D01*
X125137247Y-81387776D01*
X125113448Y-81381815D01*
X125090349Y-81373550D01*
X125068170Y-81363060D01*
X125047127Y-81350448D01*
X125027421Y-81335833D01*
X125009243Y-81319357D01*
X124992767Y-81301179D01*
X124978152Y-81281473D01*
X124965540Y-81260430D01*
X124955050Y-81238251D01*
X124946785Y-81215152D01*
X124940824Y-81191353D01*
X124937224Y-81167085D01*
X124936020Y-81142581D01*
X124936020Y-80492579D01*
X124937224Y-80468075D01*
X124940824Y-80443807D01*
X124946785Y-80420008D01*
X124955050Y-80396909D01*
X124965540Y-80374730D01*
X124978152Y-80353687D01*
X124992767Y-80333981D01*
X125009243Y-80315803D01*
X125027421Y-80299327D01*
X125047127Y-80284712D01*
X125068170Y-80272100D01*
X125090349Y-80261610D01*
X125113448Y-80253345D01*
X125137247Y-80247384D01*
X125161515Y-80243784D01*
X125186019Y-80242580D01*
X126086021Y-80242580D01*
X126110525Y-80243784D01*
G37*
G36*
X126110525Y-82293784D02*
G01*
X126134793Y-82297384D01*
X126158592Y-82303345D01*
X126181691Y-82311610D01*
X126203870Y-82322100D01*
X126224913Y-82334712D01*
X126244619Y-82349327D01*
X126262797Y-82365803D01*
X126279273Y-82383981D01*
X126293888Y-82403687D01*
X126306500Y-82424730D01*
X126316990Y-82446909D01*
X126325255Y-82470008D01*
X126331216Y-82493807D01*
X126334816Y-82518075D01*
X126336020Y-82542579D01*
X126336020Y-83192581D01*
X126334816Y-83217085D01*
X126331216Y-83241353D01*
X126325255Y-83265152D01*
X126316990Y-83288251D01*
X126306500Y-83310430D01*
X126293888Y-83331473D01*
X126279273Y-83351179D01*
X126262797Y-83369357D01*
X126244619Y-83385833D01*
X126224913Y-83400448D01*
X126203870Y-83413060D01*
X126181691Y-83423550D01*
X126158592Y-83431815D01*
X126134793Y-83437776D01*
X126110525Y-83441376D01*
X126086021Y-83442580D01*
X125186019Y-83442580D01*
X125161515Y-83441376D01*
X125137247Y-83437776D01*
X125113448Y-83431815D01*
X125090349Y-83423550D01*
X125068170Y-83413060D01*
X125047127Y-83400448D01*
X125027421Y-83385833D01*
X125009243Y-83369357D01*
X124992767Y-83351179D01*
X124978152Y-83331473D01*
X124965540Y-83310430D01*
X124955050Y-83288251D01*
X124946785Y-83265152D01*
X124940824Y-83241353D01*
X124937224Y-83217085D01*
X124936020Y-83192581D01*
X124936020Y-82542579D01*
X124937224Y-82518075D01*
X124940824Y-82493807D01*
X124946785Y-82470008D01*
X124955050Y-82446909D01*
X124965540Y-82424730D01*
X124978152Y-82403687D01*
X124992767Y-82383981D01*
X125009243Y-82365803D01*
X125027421Y-82349327D01*
X125047127Y-82334712D01*
X125068170Y-82322100D01*
X125090349Y-82311610D01*
X125113448Y-82303345D01*
X125137247Y-82297384D01*
X125161515Y-82293784D01*
X125186019Y-82292580D01*
X126086021Y-82292580D01*
X126110525Y-82293784D01*
G37*
G36*
X122391865Y-69387424D02*
G01*
X122416133Y-69391024D01*
X122439932Y-69396985D01*
X122463031Y-69405250D01*
X122485210Y-69415740D01*
X122506253Y-69428352D01*
X122525959Y-69442967D01*
X122544137Y-69459443D01*
X122560613Y-69477621D01*
X122575228Y-69497327D01*
X122587840Y-69518370D01*
X122598330Y-69540549D01*
X122606595Y-69563648D01*
X122612556Y-69587447D01*
X122616156Y-69611715D01*
X122617360Y-69636219D01*
X122617360Y-70536221D01*
X122616156Y-70560725D01*
X122612556Y-70584993D01*
X122606595Y-70608792D01*
X122598330Y-70631891D01*
X122587840Y-70654070D01*
X122575228Y-70675113D01*
X122560613Y-70694819D01*
X122544137Y-70712997D01*
X122525959Y-70729473D01*
X122506253Y-70744088D01*
X122485210Y-70756700D01*
X122463031Y-70767190D01*
X122439932Y-70775455D01*
X122416133Y-70781416D01*
X122391865Y-70785016D01*
X122367361Y-70786220D01*
X121717359Y-70786220D01*
X121692855Y-70785016D01*
X121668587Y-70781416D01*
X121644788Y-70775455D01*
X121621689Y-70767190D01*
X121599510Y-70756700D01*
X121578467Y-70744088D01*
X121558761Y-70729473D01*
X121540583Y-70712997D01*
X121524107Y-70694819D01*
X121509492Y-70675113D01*
X121496880Y-70654070D01*
X121486390Y-70631891D01*
X121478125Y-70608792D01*
X121472164Y-70584993D01*
X121468564Y-70560725D01*
X121467360Y-70536221D01*
X121467360Y-69636219D01*
X121468564Y-69611715D01*
X121472164Y-69587447D01*
X121478125Y-69563648D01*
X121486390Y-69540549D01*
X121496880Y-69518370D01*
X121509492Y-69497327D01*
X121524107Y-69477621D01*
X121540583Y-69459443D01*
X121558761Y-69442967D01*
X121578467Y-69428352D01*
X121599510Y-69415740D01*
X121621689Y-69405250D01*
X121644788Y-69396985D01*
X121668587Y-69391024D01*
X121692855Y-69387424D01*
X121717359Y-69386220D01*
X122367361Y-69386220D01*
X122391865Y-69387424D01*
G37*
G36*
X120341865Y-69387424D02*
G01*
X120366133Y-69391024D01*
X120389932Y-69396985D01*
X120413031Y-69405250D01*
X120435210Y-69415740D01*
X120456253Y-69428352D01*
X120475959Y-69442967D01*
X120494137Y-69459443D01*
X120510613Y-69477621D01*
X120525228Y-69497327D01*
X120537840Y-69518370D01*
X120548330Y-69540549D01*
X120556595Y-69563648D01*
X120562556Y-69587447D01*
X120566156Y-69611715D01*
X120567360Y-69636219D01*
X120567360Y-70536221D01*
X120566156Y-70560725D01*
X120562556Y-70584993D01*
X120556595Y-70608792D01*
X120548330Y-70631891D01*
X120537840Y-70654070D01*
X120525228Y-70675113D01*
X120510613Y-70694819D01*
X120494137Y-70712997D01*
X120475959Y-70729473D01*
X120456253Y-70744088D01*
X120435210Y-70756700D01*
X120413031Y-70767190D01*
X120389932Y-70775455D01*
X120366133Y-70781416D01*
X120341865Y-70785016D01*
X120317361Y-70786220D01*
X119667359Y-70786220D01*
X119642855Y-70785016D01*
X119618587Y-70781416D01*
X119594788Y-70775455D01*
X119571689Y-70767190D01*
X119549510Y-70756700D01*
X119528467Y-70744088D01*
X119508761Y-70729473D01*
X119490583Y-70712997D01*
X119474107Y-70694819D01*
X119459492Y-70675113D01*
X119446880Y-70654070D01*
X119436390Y-70631891D01*
X119428125Y-70608792D01*
X119422164Y-70584993D01*
X119418564Y-70560725D01*
X119417360Y-70536221D01*
X119417360Y-69636219D01*
X119418564Y-69611715D01*
X119422164Y-69587447D01*
X119428125Y-69563648D01*
X119436390Y-69540549D01*
X119446880Y-69518370D01*
X119459492Y-69497327D01*
X119474107Y-69477621D01*
X119490583Y-69459443D01*
X119508761Y-69442967D01*
X119528467Y-69428352D01*
X119549510Y-69415740D01*
X119571689Y-69405250D01*
X119594788Y-69396985D01*
X119618587Y-69391024D01*
X119642855Y-69387424D01*
X119667359Y-69386220D01*
X120317361Y-69386220D01*
X120341865Y-69387424D01*
G37*
G36*
X129224505Y-99701204D02*
G01*
X129248773Y-99704804D01*
X129272572Y-99710765D01*
X129295671Y-99719030D01*
X129317850Y-99729520D01*
X129338893Y-99742132D01*
X129358599Y-99756747D01*
X129376777Y-99773223D01*
X129393253Y-99791401D01*
X129407868Y-99811107D01*
X129420480Y-99832150D01*
X129430970Y-99854329D01*
X129439235Y-99877428D01*
X129445196Y-99901227D01*
X129448796Y-99925495D01*
X129450000Y-99949999D01*
X129450000Y-100600001D01*
X129448796Y-100624505D01*
X129445196Y-100648773D01*
X129439235Y-100672572D01*
X129430970Y-100695671D01*
X129420480Y-100717850D01*
X129407868Y-100738893D01*
X129393253Y-100758599D01*
X129376777Y-100776777D01*
X129358599Y-100793253D01*
X129338893Y-100807868D01*
X129317850Y-100820480D01*
X129295671Y-100830970D01*
X129272572Y-100839235D01*
X129248773Y-100845196D01*
X129224505Y-100848796D01*
X129200001Y-100850000D01*
X128299999Y-100850000D01*
X128275495Y-100848796D01*
X128251227Y-100845196D01*
X128227428Y-100839235D01*
X128204329Y-100830970D01*
X128182150Y-100820480D01*
X128161107Y-100807868D01*
X128141401Y-100793253D01*
X128123223Y-100776777D01*
X128106747Y-100758599D01*
X128092132Y-100738893D01*
X128079520Y-100717850D01*
X128069030Y-100695671D01*
X128060765Y-100672572D01*
X128054804Y-100648773D01*
X128051204Y-100624505D01*
X128050000Y-100600001D01*
X128050000Y-99949999D01*
X128051204Y-99925495D01*
X128054804Y-99901227D01*
X128060765Y-99877428D01*
X128069030Y-99854329D01*
X128079520Y-99832150D01*
X128092132Y-99811107D01*
X128106747Y-99791401D01*
X128123223Y-99773223D01*
X128141401Y-99756747D01*
X128161107Y-99742132D01*
X128182150Y-99729520D01*
X128204329Y-99719030D01*
X128227428Y-99710765D01*
X128251227Y-99704804D01*
X128275495Y-99701204D01*
X128299999Y-99700000D01*
X129200001Y-99700000D01*
X129224505Y-99701204D01*
G37*
G36*
X129224505Y-97651204D02*
G01*
X129248773Y-97654804D01*
X129272572Y-97660765D01*
X129295671Y-97669030D01*
X129317850Y-97679520D01*
X129338893Y-97692132D01*
X129358599Y-97706747D01*
X129376777Y-97723223D01*
X129393253Y-97741401D01*
X129407868Y-97761107D01*
X129420480Y-97782150D01*
X129430970Y-97804329D01*
X129439235Y-97827428D01*
X129445196Y-97851227D01*
X129448796Y-97875495D01*
X129450000Y-97899999D01*
X129450000Y-98550001D01*
X129448796Y-98574505D01*
X129445196Y-98598773D01*
X129439235Y-98622572D01*
X129430970Y-98645671D01*
X129420480Y-98667850D01*
X129407868Y-98688893D01*
X129393253Y-98708599D01*
X129376777Y-98726777D01*
X129358599Y-98743253D01*
X129338893Y-98757868D01*
X129317850Y-98770480D01*
X129295671Y-98780970D01*
X129272572Y-98789235D01*
X129248773Y-98795196D01*
X129224505Y-98798796D01*
X129200001Y-98800000D01*
X128299999Y-98800000D01*
X128275495Y-98798796D01*
X128251227Y-98795196D01*
X128227428Y-98789235D01*
X128204329Y-98780970D01*
X128182150Y-98770480D01*
X128161107Y-98757868D01*
X128141401Y-98743253D01*
X128123223Y-98726777D01*
X128106747Y-98708599D01*
X128092132Y-98688893D01*
X128079520Y-98667850D01*
X128069030Y-98645671D01*
X128060765Y-98622572D01*
X128054804Y-98598773D01*
X128051204Y-98574505D01*
X128050000Y-98550001D01*
X128050000Y-97899999D01*
X128051204Y-97875495D01*
X128054804Y-97851227D01*
X128060765Y-97827428D01*
X128069030Y-97804329D01*
X128079520Y-97782150D01*
X128092132Y-97761107D01*
X128106747Y-97741401D01*
X128123223Y-97723223D01*
X128141401Y-97706747D01*
X128161107Y-97692132D01*
X128182150Y-97679520D01*
X128204329Y-97669030D01*
X128227428Y-97660765D01*
X128251227Y-97654804D01*
X128275495Y-97651204D01*
X128299999Y-97650000D01*
X129200001Y-97650000D01*
X129224505Y-97651204D01*
G37*
G36*
X122391865Y-71701364D02*
G01*
X122416133Y-71704964D01*
X122439932Y-71710925D01*
X122463031Y-71719190D01*
X122485210Y-71729680D01*
X122506253Y-71742292D01*
X122525959Y-71756907D01*
X122544137Y-71773383D01*
X122560613Y-71791561D01*
X122575228Y-71811267D01*
X122587840Y-71832310D01*
X122598330Y-71854489D01*
X122606595Y-71877588D01*
X122612556Y-71901387D01*
X122616156Y-71925655D01*
X122617360Y-71950159D01*
X122617360Y-72850161D01*
X122616156Y-72874665D01*
X122612556Y-72898933D01*
X122606595Y-72922732D01*
X122598330Y-72945831D01*
X122587840Y-72968010D01*
X122575228Y-72989053D01*
X122560613Y-73008759D01*
X122544137Y-73026937D01*
X122525959Y-73043413D01*
X122506253Y-73058028D01*
X122485210Y-73070640D01*
X122463031Y-73081130D01*
X122439932Y-73089395D01*
X122416133Y-73095356D01*
X122391865Y-73098956D01*
X122367361Y-73100160D01*
X121717359Y-73100160D01*
X121692855Y-73098956D01*
X121668587Y-73095356D01*
X121644788Y-73089395D01*
X121621689Y-73081130D01*
X121599510Y-73070640D01*
X121578467Y-73058028D01*
X121558761Y-73043413D01*
X121540583Y-73026937D01*
X121524107Y-73008759D01*
X121509492Y-72989053D01*
X121496880Y-72968010D01*
X121486390Y-72945831D01*
X121478125Y-72922732D01*
X121472164Y-72898933D01*
X121468564Y-72874665D01*
X121467360Y-72850161D01*
X121467360Y-71950159D01*
X121468564Y-71925655D01*
X121472164Y-71901387D01*
X121478125Y-71877588D01*
X121486390Y-71854489D01*
X121496880Y-71832310D01*
X121509492Y-71811267D01*
X121524107Y-71791561D01*
X121540583Y-71773383D01*
X121558761Y-71756907D01*
X121578467Y-71742292D01*
X121599510Y-71729680D01*
X121621689Y-71719190D01*
X121644788Y-71710925D01*
X121668587Y-71704964D01*
X121692855Y-71701364D01*
X121717359Y-71700160D01*
X122367361Y-71700160D01*
X122391865Y-71701364D01*
G37*
G36*
X120341865Y-71701364D02*
G01*
X120366133Y-71704964D01*
X120389932Y-71710925D01*
X120413031Y-71719190D01*
X120435210Y-71729680D01*
X120456253Y-71742292D01*
X120475959Y-71756907D01*
X120494137Y-71773383D01*
X120510613Y-71791561D01*
X120525228Y-71811267D01*
X120537840Y-71832310D01*
X120548330Y-71854489D01*
X120556595Y-71877588D01*
X120562556Y-71901387D01*
X120566156Y-71925655D01*
X120567360Y-71950159D01*
X120567360Y-72850161D01*
X120566156Y-72874665D01*
X120562556Y-72898933D01*
X120556595Y-72922732D01*
X120548330Y-72945831D01*
X120537840Y-72968010D01*
X120525228Y-72989053D01*
X120510613Y-73008759D01*
X120494137Y-73026937D01*
X120475959Y-73043413D01*
X120456253Y-73058028D01*
X120435210Y-73070640D01*
X120413031Y-73081130D01*
X120389932Y-73089395D01*
X120366133Y-73095356D01*
X120341865Y-73098956D01*
X120317361Y-73100160D01*
X119667359Y-73100160D01*
X119642855Y-73098956D01*
X119618587Y-73095356D01*
X119594788Y-73089395D01*
X119571689Y-73081130D01*
X119549510Y-73070640D01*
X119528467Y-73058028D01*
X119508761Y-73043413D01*
X119490583Y-73026937D01*
X119474107Y-73008759D01*
X119459492Y-72989053D01*
X119446880Y-72968010D01*
X119436390Y-72945831D01*
X119428125Y-72922732D01*
X119422164Y-72898933D01*
X119418564Y-72874665D01*
X119417360Y-72850161D01*
X119417360Y-71950159D01*
X119418564Y-71925655D01*
X119422164Y-71901387D01*
X119428125Y-71877588D01*
X119436390Y-71854489D01*
X119446880Y-71832310D01*
X119459492Y-71811267D01*
X119474107Y-71791561D01*
X119490583Y-71773383D01*
X119508761Y-71756907D01*
X119528467Y-71742292D01*
X119549510Y-71729680D01*
X119571689Y-71719190D01*
X119594788Y-71710925D01*
X119618587Y-71704964D01*
X119642855Y-71701364D01*
X119667359Y-71700160D01*
X120317361Y-71700160D01*
X120341865Y-71701364D01*
G37*
G36*
X129374505Y-94501204D02*
G01*
X129398773Y-94504804D01*
X129422572Y-94510765D01*
X129445671Y-94519030D01*
X129467850Y-94529520D01*
X129488893Y-94542132D01*
X129508599Y-94556747D01*
X129526777Y-94573223D01*
X129543253Y-94591401D01*
X129557868Y-94611107D01*
X129570480Y-94632150D01*
X129580970Y-94654329D01*
X129589235Y-94677428D01*
X129595196Y-94701227D01*
X129598796Y-94725495D01*
X129600000Y-94749999D01*
X129600000Y-95400001D01*
X129598796Y-95424505D01*
X129595196Y-95448773D01*
X129589235Y-95472572D01*
X129580970Y-95495671D01*
X129570480Y-95517850D01*
X129557868Y-95538893D01*
X129543253Y-95558599D01*
X129526777Y-95576777D01*
X129508599Y-95593253D01*
X129488893Y-95607868D01*
X129467850Y-95620480D01*
X129445671Y-95630970D01*
X129422572Y-95639235D01*
X129398773Y-95645196D01*
X129374505Y-95648796D01*
X129350001Y-95650000D01*
X128449999Y-95650000D01*
X128425495Y-95648796D01*
X128401227Y-95645196D01*
X128377428Y-95639235D01*
X128354329Y-95630970D01*
X128332150Y-95620480D01*
X128311107Y-95607868D01*
X128291401Y-95593253D01*
X128273223Y-95576777D01*
X128256747Y-95558599D01*
X128242132Y-95538893D01*
X128229520Y-95517850D01*
X128219030Y-95495671D01*
X128210765Y-95472572D01*
X128204804Y-95448773D01*
X128201204Y-95424505D01*
X128200000Y-95400001D01*
X128200000Y-94749999D01*
X128201204Y-94725495D01*
X128204804Y-94701227D01*
X128210765Y-94677428D01*
X128219030Y-94654329D01*
X128229520Y-94632150D01*
X128242132Y-94611107D01*
X128256747Y-94591401D01*
X128273223Y-94573223D01*
X128291401Y-94556747D01*
X128311107Y-94542132D01*
X128332150Y-94529520D01*
X128354329Y-94519030D01*
X128377428Y-94510765D01*
X128401227Y-94504804D01*
X128425495Y-94501204D01*
X128449999Y-94500000D01*
X129350001Y-94500000D01*
X129374505Y-94501204D01*
G37*
G36*
X129374505Y-92451204D02*
G01*
X129398773Y-92454804D01*
X129422572Y-92460765D01*
X129445671Y-92469030D01*
X129467850Y-92479520D01*
X129488893Y-92492132D01*
X129508599Y-92506747D01*
X129526777Y-92523223D01*
X129543253Y-92541401D01*
X129557868Y-92561107D01*
X129570480Y-92582150D01*
X129580970Y-92604329D01*
X129589235Y-92627428D01*
X129595196Y-92651227D01*
X129598796Y-92675495D01*
X129600000Y-92699999D01*
X129600000Y-93350001D01*
X129598796Y-93374505D01*
X129595196Y-93398773D01*
X129589235Y-93422572D01*
X129580970Y-93445671D01*
X129570480Y-93467850D01*
X129557868Y-93488893D01*
X129543253Y-93508599D01*
X129526777Y-93526777D01*
X129508599Y-93543253D01*
X129488893Y-93557868D01*
X129467850Y-93570480D01*
X129445671Y-93580970D01*
X129422572Y-93589235D01*
X129398773Y-93595196D01*
X129374505Y-93598796D01*
X129350001Y-93600000D01*
X128449999Y-93600000D01*
X128425495Y-93598796D01*
X128401227Y-93595196D01*
X128377428Y-93589235D01*
X128354329Y-93580970D01*
X128332150Y-93570480D01*
X128311107Y-93557868D01*
X128291401Y-93543253D01*
X128273223Y-93526777D01*
X128256747Y-93508599D01*
X128242132Y-93488893D01*
X128229520Y-93467850D01*
X128219030Y-93445671D01*
X128210765Y-93422572D01*
X128204804Y-93398773D01*
X128201204Y-93374505D01*
X128200000Y-93350001D01*
X128200000Y-92699999D01*
X128201204Y-92675495D01*
X128204804Y-92651227D01*
X128210765Y-92627428D01*
X128219030Y-92604329D01*
X128229520Y-92582150D01*
X128242132Y-92561107D01*
X128256747Y-92541401D01*
X128273223Y-92523223D01*
X128291401Y-92506747D01*
X128311107Y-92492132D01*
X128332150Y-92479520D01*
X128354329Y-92469030D01*
X128377428Y-92460765D01*
X128401227Y-92454804D01*
X128425495Y-92451204D01*
X128449999Y-92450000D01*
X129350001Y-92450000D01*
X129374505Y-92451204D01*
G37*
G36*
X122391865Y-74015304D02*
G01*
X122416133Y-74018904D01*
X122439932Y-74024865D01*
X122463031Y-74033130D01*
X122485210Y-74043620D01*
X122506253Y-74056232D01*
X122525959Y-74070847D01*
X122544137Y-74087323D01*
X122560613Y-74105501D01*
X122575228Y-74125207D01*
X122587840Y-74146250D01*
X122598330Y-74168429D01*
X122606595Y-74191528D01*
X122612556Y-74215327D01*
X122616156Y-74239595D01*
X122617360Y-74264099D01*
X122617360Y-75164101D01*
X122616156Y-75188605D01*
X122612556Y-75212873D01*
X122606595Y-75236672D01*
X122598330Y-75259771D01*
X122587840Y-75281950D01*
X122575228Y-75302993D01*
X122560613Y-75322699D01*
X122544137Y-75340877D01*
X122525959Y-75357353D01*
X122506253Y-75371968D01*
X122485210Y-75384580D01*
X122463031Y-75395070D01*
X122439932Y-75403335D01*
X122416133Y-75409296D01*
X122391865Y-75412896D01*
X122367361Y-75414100D01*
X121717359Y-75414100D01*
X121692855Y-75412896D01*
X121668587Y-75409296D01*
X121644788Y-75403335D01*
X121621689Y-75395070D01*
X121599510Y-75384580D01*
X121578467Y-75371968D01*
X121558761Y-75357353D01*
X121540583Y-75340877D01*
X121524107Y-75322699D01*
X121509492Y-75302993D01*
X121496880Y-75281950D01*
X121486390Y-75259771D01*
X121478125Y-75236672D01*
X121472164Y-75212873D01*
X121468564Y-75188605D01*
X121467360Y-75164101D01*
X121467360Y-74264099D01*
X121468564Y-74239595D01*
X121472164Y-74215327D01*
X121478125Y-74191528D01*
X121486390Y-74168429D01*
X121496880Y-74146250D01*
X121509492Y-74125207D01*
X121524107Y-74105501D01*
X121540583Y-74087323D01*
X121558761Y-74070847D01*
X121578467Y-74056232D01*
X121599510Y-74043620D01*
X121621689Y-74033130D01*
X121644788Y-74024865D01*
X121668587Y-74018904D01*
X121692855Y-74015304D01*
X121717359Y-74014100D01*
X122367361Y-74014100D01*
X122391865Y-74015304D01*
G37*
G36*
X120341865Y-74015304D02*
G01*
X120366133Y-74018904D01*
X120389932Y-74024865D01*
X120413031Y-74033130D01*
X120435210Y-74043620D01*
X120456253Y-74056232D01*
X120475959Y-74070847D01*
X120494137Y-74087323D01*
X120510613Y-74105501D01*
X120525228Y-74125207D01*
X120537840Y-74146250D01*
X120548330Y-74168429D01*
X120556595Y-74191528D01*
X120562556Y-74215327D01*
X120566156Y-74239595D01*
X120567360Y-74264099D01*
X120567360Y-75164101D01*
X120566156Y-75188605D01*
X120562556Y-75212873D01*
X120556595Y-75236672D01*
X120548330Y-75259771D01*
X120537840Y-75281950D01*
X120525228Y-75302993D01*
X120510613Y-75322699D01*
X120494137Y-75340877D01*
X120475959Y-75357353D01*
X120456253Y-75371968D01*
X120435210Y-75384580D01*
X120413031Y-75395070D01*
X120389932Y-75403335D01*
X120366133Y-75409296D01*
X120341865Y-75412896D01*
X120317361Y-75414100D01*
X119667359Y-75414100D01*
X119642855Y-75412896D01*
X119618587Y-75409296D01*
X119594788Y-75403335D01*
X119571689Y-75395070D01*
X119549510Y-75384580D01*
X119528467Y-75371968D01*
X119508761Y-75357353D01*
X119490583Y-75340877D01*
X119474107Y-75322699D01*
X119459492Y-75302993D01*
X119446880Y-75281950D01*
X119436390Y-75259771D01*
X119428125Y-75236672D01*
X119422164Y-75212873D01*
X119418564Y-75188605D01*
X119417360Y-75164101D01*
X119417360Y-74264099D01*
X119418564Y-74239595D01*
X119422164Y-74215327D01*
X119428125Y-74191528D01*
X119436390Y-74168429D01*
X119446880Y-74146250D01*
X119459492Y-74125207D01*
X119474107Y-74105501D01*
X119490583Y-74087323D01*
X119508761Y-74070847D01*
X119528467Y-74056232D01*
X119549510Y-74043620D01*
X119571689Y-74033130D01*
X119594788Y-74024865D01*
X119618587Y-74018904D01*
X119642855Y-74015304D01*
X119667359Y-74014100D01*
X120317361Y-74014100D01*
X120341865Y-74015304D01*
G37*
G36*
X122391865Y-76329244D02*
G01*
X122416133Y-76332844D01*
X122439932Y-76338805D01*
X122463031Y-76347070D01*
X122485210Y-76357560D01*
X122506253Y-76370172D01*
X122525959Y-76384787D01*
X122544137Y-76401263D01*
X122560613Y-76419441D01*
X122575228Y-76439147D01*
X122587840Y-76460190D01*
X122598330Y-76482369D01*
X122606595Y-76505468D01*
X122612556Y-76529267D01*
X122616156Y-76553535D01*
X122617360Y-76578039D01*
X122617360Y-77478041D01*
X122616156Y-77502545D01*
X122612556Y-77526813D01*
X122606595Y-77550612D01*
X122598330Y-77573711D01*
X122587840Y-77595890D01*
X122575228Y-77616933D01*
X122560613Y-77636639D01*
X122544137Y-77654817D01*
X122525959Y-77671293D01*
X122506253Y-77685908D01*
X122485210Y-77698520D01*
X122463031Y-77709010D01*
X122439932Y-77717275D01*
X122416133Y-77723236D01*
X122391865Y-77726836D01*
X122367361Y-77728040D01*
X121717359Y-77728040D01*
X121692855Y-77726836D01*
X121668587Y-77723236D01*
X121644788Y-77717275D01*
X121621689Y-77709010D01*
X121599510Y-77698520D01*
X121578467Y-77685908D01*
X121558761Y-77671293D01*
X121540583Y-77654817D01*
X121524107Y-77636639D01*
X121509492Y-77616933D01*
X121496880Y-77595890D01*
X121486390Y-77573711D01*
X121478125Y-77550612D01*
X121472164Y-77526813D01*
X121468564Y-77502545D01*
X121467360Y-77478041D01*
X121467360Y-76578039D01*
X121468564Y-76553535D01*
X121472164Y-76529267D01*
X121478125Y-76505468D01*
X121486390Y-76482369D01*
X121496880Y-76460190D01*
X121509492Y-76439147D01*
X121524107Y-76419441D01*
X121540583Y-76401263D01*
X121558761Y-76384787D01*
X121578467Y-76370172D01*
X121599510Y-76357560D01*
X121621689Y-76347070D01*
X121644788Y-76338805D01*
X121668587Y-76332844D01*
X121692855Y-76329244D01*
X121717359Y-76328040D01*
X122367361Y-76328040D01*
X122391865Y-76329244D01*
G37*
G36*
X120341865Y-76329244D02*
G01*
X120366133Y-76332844D01*
X120389932Y-76338805D01*
X120413031Y-76347070D01*
X120435210Y-76357560D01*
X120456253Y-76370172D01*
X120475959Y-76384787D01*
X120494137Y-76401263D01*
X120510613Y-76419441D01*
X120525228Y-76439147D01*
X120537840Y-76460190D01*
X120548330Y-76482369D01*
X120556595Y-76505468D01*
X120562556Y-76529267D01*
X120566156Y-76553535D01*
X120567360Y-76578039D01*
X120567360Y-77478041D01*
X120566156Y-77502545D01*
X120562556Y-77526813D01*
X120556595Y-77550612D01*
X120548330Y-77573711D01*
X120537840Y-77595890D01*
X120525228Y-77616933D01*
X120510613Y-77636639D01*
X120494137Y-77654817D01*
X120475959Y-77671293D01*
X120456253Y-77685908D01*
X120435210Y-77698520D01*
X120413031Y-77709010D01*
X120389932Y-77717275D01*
X120366133Y-77723236D01*
X120341865Y-77726836D01*
X120317361Y-77728040D01*
X119667359Y-77728040D01*
X119642855Y-77726836D01*
X119618587Y-77723236D01*
X119594788Y-77717275D01*
X119571689Y-77709010D01*
X119549510Y-77698520D01*
X119528467Y-77685908D01*
X119508761Y-77671293D01*
X119490583Y-77654817D01*
X119474107Y-77636639D01*
X119459492Y-77616933D01*
X119446880Y-77595890D01*
X119436390Y-77573711D01*
X119428125Y-77550612D01*
X119422164Y-77526813D01*
X119418564Y-77502545D01*
X119417360Y-77478041D01*
X119417360Y-76578039D01*
X119418564Y-76553535D01*
X119422164Y-76529267D01*
X119428125Y-76505468D01*
X119436390Y-76482369D01*
X119446880Y-76460190D01*
X119459492Y-76439147D01*
X119474107Y-76419441D01*
X119490583Y-76401263D01*
X119508761Y-76384787D01*
X119528467Y-76370172D01*
X119549510Y-76357560D01*
X119571689Y-76347070D01*
X119594788Y-76338805D01*
X119618587Y-76332844D01*
X119642855Y-76329244D01*
X119667359Y-76328040D01*
X120317361Y-76328040D01*
X120341865Y-76329244D01*
G37*
G36*
X122391865Y-78643184D02*
G01*
X122416133Y-78646784D01*
X122439932Y-78652745D01*
X122463031Y-78661010D01*
X122485210Y-78671500D01*
X122506253Y-78684112D01*
X122525959Y-78698727D01*
X122544137Y-78715203D01*
X122560613Y-78733381D01*
X122575228Y-78753087D01*
X122587840Y-78774130D01*
X122598330Y-78796309D01*
X122606595Y-78819408D01*
X122612556Y-78843207D01*
X122616156Y-78867475D01*
X122617360Y-78891979D01*
X122617360Y-79791981D01*
X122616156Y-79816485D01*
X122612556Y-79840753D01*
X122606595Y-79864552D01*
X122598330Y-79887651D01*
X122587840Y-79909830D01*
X122575228Y-79930873D01*
X122560613Y-79950579D01*
X122544137Y-79968757D01*
X122525959Y-79985233D01*
X122506253Y-79999848D01*
X122485210Y-80012460D01*
X122463031Y-80022950D01*
X122439932Y-80031215D01*
X122416133Y-80037176D01*
X122391865Y-80040776D01*
X122367361Y-80041980D01*
X121717359Y-80041980D01*
X121692855Y-80040776D01*
X121668587Y-80037176D01*
X121644788Y-80031215D01*
X121621689Y-80022950D01*
X121599510Y-80012460D01*
X121578467Y-79999848D01*
X121558761Y-79985233D01*
X121540583Y-79968757D01*
X121524107Y-79950579D01*
X121509492Y-79930873D01*
X121496880Y-79909830D01*
X121486390Y-79887651D01*
X121478125Y-79864552D01*
X121472164Y-79840753D01*
X121468564Y-79816485D01*
X121467360Y-79791981D01*
X121467360Y-78891979D01*
X121468564Y-78867475D01*
X121472164Y-78843207D01*
X121478125Y-78819408D01*
X121486390Y-78796309D01*
X121496880Y-78774130D01*
X121509492Y-78753087D01*
X121524107Y-78733381D01*
X121540583Y-78715203D01*
X121558761Y-78698727D01*
X121578467Y-78684112D01*
X121599510Y-78671500D01*
X121621689Y-78661010D01*
X121644788Y-78652745D01*
X121668587Y-78646784D01*
X121692855Y-78643184D01*
X121717359Y-78641980D01*
X122367361Y-78641980D01*
X122391865Y-78643184D01*
G37*
G36*
X120341865Y-78643184D02*
G01*
X120366133Y-78646784D01*
X120389932Y-78652745D01*
X120413031Y-78661010D01*
X120435210Y-78671500D01*
X120456253Y-78684112D01*
X120475959Y-78698727D01*
X120494137Y-78715203D01*
X120510613Y-78733381D01*
X120525228Y-78753087D01*
X120537840Y-78774130D01*
X120548330Y-78796309D01*
X120556595Y-78819408D01*
X120562556Y-78843207D01*
X120566156Y-78867475D01*
X120567360Y-78891979D01*
X120567360Y-79791981D01*
X120566156Y-79816485D01*
X120562556Y-79840753D01*
X120556595Y-79864552D01*
X120548330Y-79887651D01*
X120537840Y-79909830D01*
X120525228Y-79930873D01*
X120510613Y-79950579D01*
X120494137Y-79968757D01*
X120475959Y-79985233D01*
X120456253Y-79999848D01*
X120435210Y-80012460D01*
X120413031Y-80022950D01*
X120389932Y-80031215D01*
X120366133Y-80037176D01*
X120341865Y-80040776D01*
X120317361Y-80041980D01*
X119667359Y-80041980D01*
X119642855Y-80040776D01*
X119618587Y-80037176D01*
X119594788Y-80031215D01*
X119571689Y-80022950D01*
X119549510Y-80012460D01*
X119528467Y-79999848D01*
X119508761Y-79985233D01*
X119490583Y-79968757D01*
X119474107Y-79950579D01*
X119459492Y-79930873D01*
X119446880Y-79909830D01*
X119436390Y-79887651D01*
X119428125Y-79864552D01*
X119422164Y-79840753D01*
X119418564Y-79816485D01*
X119417360Y-79791981D01*
X119417360Y-78891979D01*
X119418564Y-78867475D01*
X119422164Y-78843207D01*
X119428125Y-78819408D01*
X119436390Y-78796309D01*
X119446880Y-78774130D01*
X119459492Y-78753087D01*
X119474107Y-78733381D01*
X119490583Y-78715203D01*
X119508761Y-78698727D01*
X119528467Y-78684112D01*
X119549510Y-78671500D01*
X119571689Y-78661010D01*
X119594788Y-78652745D01*
X119618587Y-78646784D01*
X119642855Y-78643184D01*
X119667359Y-78641980D01*
X120317361Y-78641980D01*
X120341865Y-78643184D01*
G37*
D12*
X109474000Y-83978500D03*
X109474000Y-89503500D03*
D13*
X84328000Y-77774800D03*
D14*
X84328000Y-82474800D03*
X84328000Y-73074800D03*
D15*
X121440000Y-97630000D03*
X121440000Y-98270000D03*
X121440000Y-98930000D03*
X121440000Y-99570000D03*
X124860000Y-99570000D03*
X124860000Y-98930000D03*
X124860000Y-98270000D03*
X124860000Y-97630000D03*
D10*
G36*
X125519925Y-69787784D02*
G01*
X125544193Y-69791384D01*
X125567992Y-69797345D01*
X125591091Y-69805610D01*
X125613270Y-69816100D01*
X125634313Y-69828712D01*
X125654019Y-69843327D01*
X125672197Y-69859803D01*
X125688673Y-69877981D01*
X125703288Y-69897687D01*
X125715900Y-69918730D01*
X125726390Y-69940909D01*
X125734655Y-69964008D01*
X125740616Y-69987807D01*
X125744216Y-70012075D01*
X125745420Y-70036579D01*
X125745420Y-72086581D01*
X125744216Y-72111085D01*
X125740616Y-72135353D01*
X125734655Y-72159152D01*
X125726390Y-72182251D01*
X125715900Y-72204430D01*
X125703288Y-72225473D01*
X125688673Y-72245179D01*
X125672197Y-72263357D01*
X125654019Y-72279833D01*
X125634313Y-72294448D01*
X125613270Y-72307060D01*
X125591091Y-72317550D01*
X125567992Y-72325815D01*
X125544193Y-72331776D01*
X125519925Y-72335376D01*
X125495421Y-72336580D01*
X123745419Y-72336580D01*
X123720915Y-72335376D01*
X123696647Y-72331776D01*
X123672848Y-72325815D01*
X123649749Y-72317550D01*
X123627570Y-72307060D01*
X123606527Y-72294448D01*
X123586821Y-72279833D01*
X123568643Y-72263357D01*
X123552167Y-72245179D01*
X123537552Y-72225473D01*
X123524940Y-72204430D01*
X123514450Y-72182251D01*
X123506185Y-72159152D01*
X123500224Y-72135353D01*
X123496624Y-72111085D01*
X123495420Y-72086581D01*
X123495420Y-70036579D01*
X123496624Y-70012075D01*
X123500224Y-69987807D01*
X123506185Y-69964008D01*
X123514450Y-69940909D01*
X123524940Y-69918730D01*
X123537552Y-69897687D01*
X123552167Y-69877981D01*
X123568643Y-69859803D01*
X123586821Y-69843327D01*
X123606527Y-69828712D01*
X123627570Y-69816100D01*
X123649749Y-69805610D01*
X123672848Y-69797345D01*
X123696647Y-69791384D01*
X123720915Y-69787784D01*
X123745419Y-69786580D01*
X125495421Y-69786580D01*
X125519925Y-69787784D01*
G37*
G36*
X131919925Y-69787784D02*
G01*
X131944193Y-69791384D01*
X131967992Y-69797345D01*
X131991091Y-69805610D01*
X132013270Y-69816100D01*
X132034313Y-69828712D01*
X132054019Y-69843327D01*
X132072197Y-69859803D01*
X132088673Y-69877981D01*
X132103288Y-69897687D01*
X132115900Y-69918730D01*
X132126390Y-69940909D01*
X132134655Y-69964008D01*
X132140616Y-69987807D01*
X132144216Y-70012075D01*
X132145420Y-70036579D01*
X132145420Y-72086581D01*
X132144216Y-72111085D01*
X132140616Y-72135353D01*
X132134655Y-72159152D01*
X132126390Y-72182251D01*
X132115900Y-72204430D01*
X132103288Y-72225473D01*
X132088673Y-72245179D01*
X132072197Y-72263357D01*
X132054019Y-72279833D01*
X132034313Y-72294448D01*
X132013270Y-72307060D01*
X131991091Y-72317550D01*
X131967992Y-72325815D01*
X131944193Y-72331776D01*
X131919925Y-72335376D01*
X131895421Y-72336580D01*
X130145419Y-72336580D01*
X130120915Y-72335376D01*
X130096647Y-72331776D01*
X130072848Y-72325815D01*
X130049749Y-72317550D01*
X130027570Y-72307060D01*
X130006527Y-72294448D01*
X129986821Y-72279833D01*
X129968643Y-72263357D01*
X129952167Y-72245179D01*
X129937552Y-72225473D01*
X129924940Y-72204430D01*
X129914450Y-72182251D01*
X129906185Y-72159152D01*
X129900224Y-72135353D01*
X129896624Y-72111085D01*
X129895420Y-72086581D01*
X129895420Y-70036579D01*
X129896624Y-70012075D01*
X129900224Y-69987807D01*
X129906185Y-69964008D01*
X129914450Y-69940909D01*
X129924940Y-69918730D01*
X129937552Y-69897687D01*
X129952167Y-69877981D01*
X129968643Y-69859803D01*
X129986821Y-69843327D01*
X130006527Y-69828712D01*
X130027570Y-69816100D01*
X130049749Y-69805610D01*
X130072848Y-69797345D01*
X130096647Y-69791384D01*
X130120915Y-69787784D01*
X130145419Y-69786580D01*
X131895421Y-69786580D01*
X131919925Y-69787784D01*
G37*
G36*
X125519925Y-74867784D02*
G01*
X125544193Y-74871384D01*
X125567992Y-74877345D01*
X125591091Y-74885610D01*
X125613270Y-74896100D01*
X125634313Y-74908712D01*
X125654019Y-74923327D01*
X125672197Y-74939803D01*
X125688673Y-74957981D01*
X125703288Y-74977687D01*
X125715900Y-74998730D01*
X125726390Y-75020909D01*
X125734655Y-75044008D01*
X125740616Y-75067807D01*
X125744216Y-75092075D01*
X125745420Y-75116579D01*
X125745420Y-77166581D01*
X125744216Y-77191085D01*
X125740616Y-77215353D01*
X125734655Y-77239152D01*
X125726390Y-77262251D01*
X125715900Y-77284430D01*
X125703288Y-77305473D01*
X125688673Y-77325179D01*
X125672197Y-77343357D01*
X125654019Y-77359833D01*
X125634313Y-77374448D01*
X125613270Y-77387060D01*
X125591091Y-77397550D01*
X125567992Y-77405815D01*
X125544193Y-77411776D01*
X125519925Y-77415376D01*
X125495421Y-77416580D01*
X123745419Y-77416580D01*
X123720915Y-77415376D01*
X123696647Y-77411776D01*
X123672848Y-77405815D01*
X123649749Y-77397550D01*
X123627570Y-77387060D01*
X123606527Y-77374448D01*
X123586821Y-77359833D01*
X123568643Y-77343357D01*
X123552167Y-77325179D01*
X123537552Y-77305473D01*
X123524940Y-77284430D01*
X123514450Y-77262251D01*
X123506185Y-77239152D01*
X123500224Y-77215353D01*
X123496624Y-77191085D01*
X123495420Y-77166581D01*
X123495420Y-75116579D01*
X123496624Y-75092075D01*
X123500224Y-75067807D01*
X123506185Y-75044008D01*
X123514450Y-75020909D01*
X123524940Y-74998730D01*
X123537552Y-74977687D01*
X123552167Y-74957981D01*
X123568643Y-74939803D01*
X123586821Y-74923327D01*
X123606527Y-74908712D01*
X123627570Y-74896100D01*
X123649749Y-74885610D01*
X123672848Y-74877345D01*
X123696647Y-74871384D01*
X123720915Y-74867784D01*
X123745419Y-74866580D01*
X125495421Y-74866580D01*
X125519925Y-74867784D01*
G37*
G36*
X131919925Y-74867784D02*
G01*
X131944193Y-74871384D01*
X131967992Y-74877345D01*
X131991091Y-74885610D01*
X132013270Y-74896100D01*
X132034313Y-74908712D01*
X132054019Y-74923327D01*
X132072197Y-74939803D01*
X132088673Y-74957981D01*
X132103288Y-74977687D01*
X132115900Y-74998730D01*
X132126390Y-75020909D01*
X132134655Y-75044008D01*
X132140616Y-75067807D01*
X132144216Y-75092075D01*
X132145420Y-75116579D01*
X132145420Y-77166581D01*
X132144216Y-77191085D01*
X132140616Y-77215353D01*
X132134655Y-77239152D01*
X132126390Y-77262251D01*
X132115900Y-77284430D01*
X132103288Y-77305473D01*
X132088673Y-77325179D01*
X132072197Y-77343357D01*
X132054019Y-77359833D01*
X132034313Y-77374448D01*
X132013270Y-77387060D01*
X131991091Y-77397550D01*
X131967992Y-77405815D01*
X131944193Y-77411776D01*
X131919925Y-77415376D01*
X131895421Y-77416580D01*
X130145419Y-77416580D01*
X130120915Y-77415376D01*
X130096647Y-77411776D01*
X130072848Y-77405815D01*
X130049749Y-77397550D01*
X130027570Y-77387060D01*
X130006527Y-77374448D01*
X129986821Y-77359833D01*
X129968643Y-77343357D01*
X129952167Y-77325179D01*
X129937552Y-77305473D01*
X129924940Y-77284430D01*
X129914450Y-77262251D01*
X129906185Y-77239152D01*
X129900224Y-77215353D01*
X129896624Y-77191085D01*
X129895420Y-77166581D01*
X129895420Y-75116579D01*
X129896624Y-75092075D01*
X129900224Y-75067807D01*
X129906185Y-75044008D01*
X129914450Y-75020909D01*
X129924940Y-74998730D01*
X129937552Y-74977687D01*
X129952167Y-74957981D01*
X129968643Y-74939803D01*
X129986821Y-74923327D01*
X130006527Y-74908712D01*
X130027570Y-74896100D01*
X130049749Y-74885610D01*
X130072848Y-74877345D01*
X130096647Y-74871384D01*
X130120915Y-74867784D01*
X130145419Y-74866580D01*
X131895421Y-74866580D01*
X131919925Y-74867784D01*
G37*
M02*
